<?xml version="1.0" encoding="UTF-8"?>
<!-- Generator: Adobe Illustrator 25.0.0, SVG Export Plug-In . SVG Version: 6.00 Build 0)  -->
<svg xmlns="http://www.w3.org/2000/svg" xmlns:xlink="http://www.w3.org/1999/xlink" version="1.1" id="Ebene_1" x="0px" y="0px" viewBox="0 0 247.6 58" style="enable-background:new 0 0 247.6 58;" xml:space="preserve">
<style type="text/css">
	.st0{fill:#666666;}
</style>
<g>
	<g>
		<path class="st0" d="M12.6,30.8c-1.6,0-3.1-0.2-4.4-0.5c-1.3-0.4-2.5-0.9-3.5-1.5c-1-0.6-1.9-1.4-2.7-2.3c-0.8-0.9-1.4-1.9-2-2.9    l4.9-2.9c0.8,1.6,1.9,2.9,3.3,3.7c1.4,0.9,3,1.3,4.7,1.3c1.5,0,2.8-0.3,3.7-0.8c1-0.6,1.4-1.4,1.4-2.6c0-1.1-0.5-2-1.5-2.6    c-1-0.6-2.5-1.2-4.5-1.7c-1.3-0.4-2.6-0.7-3.9-1.2c-1.3-0.4-2.4-0.9-3.5-1.6c-1-0.7-1.8-1.5-2.5-2.5c-0.6-1-0.9-2.3-0.9-3.8    c0-1.4,0.3-2.6,0.8-3.7c0.5-1.1,1.2-2,2.2-2.8c0.9-0.8,2.1-1.3,3.4-1.7c1.3-0.4,2.8-0.6,4.4-0.6c1.5,0,2.9,0.2,4.1,0.5    c1.2,0.3,2.3,0.8,3.3,1.3c1,0.6,1.8,1.2,2.5,1.9c0.7,0.7,1.3,1.5,1.9,2.3l-4.5,3.4c-0.8-1.3-1.8-2.3-3.1-3.1    c-1.3-0.8-2.7-1.1-4.1-1.1c-1.4,0-2.4,0.3-3.2,0.8C8,6.8,7.6,7.5,7.6,8.4c0,1.2,0.5,2,1.6,2.6c1.1,0.6,2.6,1.1,4.5,1.7    c1.3,0.4,2.6,0.7,3.9,1.2c1.3,0.4,2.4,1,3.4,1.7c1,0.7,1.8,1.5,2.5,2.5c0.6,1,0.9,2.3,0.9,3.8c0,1.2-0.2,2.3-0.7,3.4    c-0.5,1.1-1.2,2-2.1,2.9c-1,0.8-2.2,1.5-3.7,2C16.4,30.6,14.7,30.8,12.6,30.8z"></path>
		<path class="st0" d="M26.1,30.2L36.6,0.5h6.2l10.5,29.7h-6.6l-2.2-6.6H34.4l-2.3,6.6H26.1z M36,18.9h7L39.6,8.8h-0.1L36,18.9z"></path>
		<path class="st0" d="M56.2,30.2V0.6H67c1.6,0,3.1,0.1,4.5,0.4c1.5,0.3,2.7,0.7,3.9,1.4c1.1,0.7,2,1.7,2.7,2.9c0.7,1.2,1,2.8,1,4.8    c0,2-0.4,3.6-1.1,4.9c-0.7,1.2-1.6,2.2-2.8,2.9c-1.2,0.7-2.5,1.2-3.9,1.4c-1.5,0.3-2.9,0.4-4.4,0.4h-4.2v10.5H56.2z M62.7,14.7    h4.5c2,0,3.4-0.4,4.3-1.1c0.8-0.7,1.3-1.8,1.3-3.3c0-1.4-0.4-2.4-1.2-3.2C70.6,6.3,69.2,6,67.1,6h-4.5V14.7z"></path>
		<path class="st0" d="M88.4,12.8c-0.9,0-1.7-0.2-2.5-0.5c-0.8-0.3-1.5-0.8-2-1.4c-0.6-0.6-1-1.3-1.4-2C82.1,8.1,82,7.3,82,6.4    s0.2-1.7,0.5-2.5c0.3-0.8,0.8-1.4,1.4-2c0.6-0.6,1.3-1,2-1.4C86.6,0.2,87.5,0,88.4,0c0.9,0,1.7,0.2,2.5,0.5c0.8,0.3,1.4,0.8,2,1.3    c0.6,0.6,1,1.2,1.3,2c0.3,0.8,0.5,1.6,0.5,2.5c0,0.9-0.2,1.7-0.5,2.5c-0.3,0.8-0.8,1.5-1.4,2.1c-0.6,0.6-1.2,1-2,1.4    C90.1,12.6,89.3,12.8,88.4,12.8z M88.4,11.8c0.7,0,1.4-0.1,2.1-0.4c0.6-0.3,1.2-0.7,1.7-1.2c0.5-0.5,0.9-1.1,1.1-1.7    c0.3-0.7,0.4-1.4,0.4-2.1c0-0.8-0.1-1.5-0.4-2.1C93,3.6,92.6,3,92.2,2.5c-0.5-0.5-1-0.9-1.7-1.2C89.8,1.1,89.1,1,88.4,1    c-0.8,0-1.5,0.1-2.1,0.4c-0.7,0.3-1.2,0.7-1.7,1.2c-0.5,0.5-0.9,1.1-1.1,1.7C83.1,4.9,83,5.6,83,6.4c0,0.8,0.1,1.5,0.4,2.1    c0.3,0.7,0.7,1.2,1.1,1.7c0.5,0.5,1.1,0.9,1.7,1.2C86.9,11.7,87.6,11.8,88.4,11.8z M86,2.8h2.6c0.9,0,1.5,0.2,2,0.5    c0.5,0.4,0.7,0.9,0.7,1.6c0,0.6-0.2,1-0.5,1.4c-0.3,0.3-0.7,0.6-1.2,0.7c0.1,0.2,0.3,0.4,0.4,0.7c0.2,0.3,0.3,0.5,0.5,0.8    c0.2,0.3,0.3,0.6,0.5,0.8c0.2,0.3,0.3,0.5,0.4,0.7h-1.3l-1.7-2.9h-1.1V10H86V2.8z M88.5,6.1c0.5,0,0.9-0.1,1.1-0.3    C90,5.7,90.1,5.4,90.1,5c0-0.7-0.5-1.1-1.5-1.1h-1.4v2.2H88.5z"></path>
		<path class="st0" d="M115.7,30.8c-1.9,0-3.6-0.4-5.1-1.1c-1.5-0.7-2.8-1.8-3.9-3.1c-1.1-1.3-1.9-3-2.5-4.9c-0.6-1.9-0.9-4-0.9-6.4    c0-2.2,0.3-4.3,0.9-6.2c0.6-1.9,1.4-3.5,2.5-4.8c1.1-1.3,2.4-2.4,3.9-3.1c1.5-0.7,3.2-1.1,5-1.1c3,0,5.3,0.8,7.1,2.5    c1.7,1.6,2.9,3.8,3.6,6.6l-2.7,0.7c-0.7-2.3-1.6-4.1-2.8-5.3c-1.2-1.2-2.9-1.8-5.2-1.8c-1.4,0-2.7,0.3-3.9,0.9    c-1.2,0.6-2.1,1.4-3,2.5c-0.8,1.1-1.4,2.4-1.9,4c-0.5,1.5-0.7,3.3-0.7,5.2c0,2.1,0.2,3.9,0.7,5.5c0.5,1.6,1.1,3,1.9,4.1    c0.8,1.1,1.8,1.9,3,2.5c1.2,0.6,2.5,0.9,3.9,0.9c2.2,0,4-0.6,5.4-1.9c1.4-1.3,2.4-3.1,3-5.6l2.7,0.6c-0.7,2.9-2,5.3-3.9,7    C121.1,30,118.7,30.8,115.7,30.8z"></path>
		<path class="st0" d="M138.6,30.7c-1.2,0-2.4-0.2-3.5-0.7c-1.1-0.5-2.1-1.2-2.9-2.1c-0.8-0.9-1.5-2.1-2-3.4    c-0.5-1.4-0.8-2.9-0.8-4.8c0-1.9,0.3-3.5,0.8-4.9c0.5-1.4,1.3-2.5,2.1-3.4c0.9-0.9,1.9-1.6,3-2c1.1-0.4,2.2-0.7,3.3-0.7    c1.2,0,2.4,0.2,3.4,0.7c1,0.5,2,1.2,2.7,2.1c0.8,0.9,1.4,2.1,1.8,3.4c0.4,1.4,0.7,3,0.7,4.7v0.5h-15.1c0,1.3,0.2,2.5,0.5,3.5    c0.4,1,0.8,1.8,1.4,2.5c0.6,0.7,1.3,1.2,2.1,1.6c0.8,0.4,1.7,0.5,2.6,0.5c1.6,0,2.9-0.3,3.9-1c1-0.7,1.9-1.6,2.7-2.9l1.7,1.4    c-0.9,1.5-2.1,2.7-3.4,3.5C142.3,30.3,140.6,30.7,138.6,30.7z M144.5,18c-0.1-1-0.3-1.9-0.5-2.7c-0.3-0.9-0.6-1.6-1.1-2.2    c-0.5-0.6-1.1-1.1-1.8-1.5c-0.7-0.3-1.6-0.5-2.5-0.5c-0.8,0-1.5,0.1-2.2,0.4c-0.7,0.3-1.3,0.7-1.9,1.3c-0.6,0.6-1.1,1.3-1.5,2.2    c-0.4,0.9-0.7,1.9-0.8,3.1H144.5z"></path>
		<path class="st0" d="M150.8,9.2h2.8v4.2h0.1c0.8-1.3,1.9-2.4,3.3-3.3c1.3-0.9,3-1.3,5.1-1.3h0.5l-0.3,2.6h-0.4c-0.1,0-0.2,0-0.3,0    c-0.1,0-0.1,0-0.2,0c-1.7,0-3.3,0.5-4.6,1.4c-1.3,0.9-2.4,2.2-3.2,3.9v13.7h-2.8V9.2z"></path>
		<path class="st0" d="M174,30.5c-2,0-3.4-0.4-4.3-1.2c-0.8-0.8-1.3-2.1-1.3-4V11.5h-3.7V9.2h3.7V1.6h2.8v7.6h5.5v2.4h-5.5v13.2    c0,1.1,0.2,2,0.7,2.6c0.5,0.6,1.3,0.9,2.6,0.9c0.4,0,0.8,0,1.2-0.1c0.4,0,0.7-0.1,1-0.2v2.4c-0.3,0.1-0.7,0.1-1.2,0.2    C175,30.5,174.5,30.5,174,30.5z"></path>
		<path class="st0" d="M180.2,1.3h2.9v3h-2.9V1.3z M180.2,9.2h2.8v21.1h-2.8V9.2z"></path>
		<path class="st0" d="M189.6,11.5h-3.7V9.2h3.7V6c0-1.8,0.5-3.1,1.5-4c1-0.9,2.5-1.4,4.4-1.4c0.2,0,0.5,0,0.8,0    c0.3,0,0.5,0,0.7,0.1V3c-0.2,0-0.4,0-0.7-0.1c-0.3,0-0.5,0-0.7,0c-1,0-1.8,0.2-2.4,0.7c-0.6,0.5-0.9,1.3-0.9,2.3v3.2h4.5v2.4h-4.5    v18.7h-2.8V11.5z M201.2,1.3h2.9v3h-2.9V1.3z M201.3,9.2h2.8v21.1h-2.8V9.2z"></path>
		<path class="st0" d="M217.4,30.7c-1.2,0-2.4-0.2-3.5-0.7c-1.1-0.5-2.1-1.2-2.9-2.1c-0.8-0.9-1.5-2.1-2-3.4    c-0.5-1.4-0.8-2.9-0.8-4.8c0-1.9,0.3-3.5,0.8-4.9c0.5-1.4,1.3-2.5,2.1-3.4c0.9-0.9,1.9-1.6,3-2c1.1-0.4,2.2-0.7,3.3-0.7    c1.2,0,2.4,0.2,3.4,0.7c1,0.5,2,1.2,2.7,2.1c0.8,0.9,1.4,2.1,1.8,3.4c0.4,1.4,0.7,3,0.7,4.7v0.5h-15.1c0,1.3,0.2,2.5,0.5,3.5    c0.4,1,0.8,1.8,1.4,2.5c0.6,0.7,1.3,1.2,2.1,1.6c0.8,0.4,1.7,0.5,2.6,0.5c1.6,0,2.9-0.3,3.9-1c1-0.7,1.9-1.6,2.7-2.9l1.7,1.4    c-0.9,1.5-2.1,2.7-3.4,3.5C221.1,30.3,219.4,30.7,217.4,30.7z M223.3,18c-0.1-1-0.3-1.9-0.5-2.7c-0.3-0.9-0.6-1.6-1.1-2.2    c-0.5-0.6-1.1-1.1-1.8-1.5c-0.7-0.3-1.6-0.5-2.5-0.5c-0.8,0-1.5,0.1-2.2,0.4c-0.7,0.3-1.3,0.7-1.9,1.3c-0.6,0.6-1.1,1.3-1.5,2.2    c-0.4,0.9-0.7,1.9-0.8,3.1H223.3z"></path>
		<path class="st0" d="M237.1,30.6c-1.2,0-2.3-0.2-3.4-0.7c-1.1-0.4-2-1.1-2.8-2c-0.8-0.9-1.4-2-1.8-3.4c-0.5-1.4-0.7-3-0.7-4.8    c0-1.8,0.2-3.4,0.7-4.8c0.5-1.4,1.1-2.5,1.9-3.4c0.8-0.9,1.7-1.6,2.8-2c1.1-0.5,2.3-0.7,3.5-0.7c1.4,0,2.6,0.3,3.8,0.9    c1.2,0.6,2.2,1.4,3,2.3V0.6h2.8V25c0,1.3,0,2.3,0.1,3.2c0.1,0.8,0.3,1.5,0.5,2h-2.9c-0.1-0.4-0.2-0.8-0.3-1.4    c-0.1-0.6-0.1-1.1-0.1-1.7c-0.8,0.9-1.8,1.7-3,2.4C240.1,30.2,238.7,30.6,237.1,30.6z M237.6,28.2c1.3,0,2.5-0.3,3.5-0.9    c1-0.6,2-1.5,3.1-2.5V14.6c-1-1.1-2.1-2-3.1-2.6c-1-0.6-2.2-0.9-3.4-0.9c-0.9,0-1.8,0.2-2.6,0.5c-0.8,0.3-1.5,0.9-2,1.6    c-0.6,0.7-1,1.6-1.3,2.7c-0.3,1.1-0.5,2.4-0.5,3.9c0,1.4,0.2,2.7,0.5,3.8c0.3,1.1,0.8,2,1.4,2.7c0.6,0.7,1.3,1.2,2,1.6    C235.9,28.1,236.7,28.2,237.6,28.2z"></path>
	</g>
	<g>
		<path class="st0" d="M0.4,41.2v-1.7h1.8v1.7H0.4z M0.4,54V43.5h1.7V54H0.4z"></path>
		<path class="st0" d="M5.1,54V43.5h1.7V45c0.2-0.2,0.5-0.4,0.8-0.7c0.3-0.2,0.6-0.4,0.9-0.6c0.3-0.2,0.7-0.3,1.1-0.4    c0.4-0.1,0.8-0.2,1.2-0.2c1,0,1.8,0.3,2.3,0.8s0.8,1.3,0.8,2.3V54h-1.7v-7.2c0-0.7-0.2-1.2-0.5-1.6c-0.3-0.3-0.8-0.5-1.5-0.5    c-0.6,0-1.2,0.2-1.8,0.5c-0.5,0.3-1.1,0.7-1.7,1.2V54H5.1z"></path>
		<path class="st0" d="M26.3,54.3c-1.4,0-2.6-0.3-3.6-1c-1-0.7-1.6-1.6-2-2.8l1.5-0.7c0.4,1,0.9,1.7,1.6,2.2    c0.7,0.5,1.6,0.7,2.6,0.7c1,0,1.9-0.2,2.5-0.6s1-1,1-1.8c0-0.4-0.1-0.7-0.2-1c-0.1-0.3-0.3-0.6-0.6-0.8c-0.3-0.2-0.7-0.5-1.1-0.7    c-0.5-0.2-1.1-0.4-1.8-0.7c-0.8-0.2-1.5-0.5-2.1-0.7c-0.6-0.2-1.1-0.5-1.5-0.8c-0.4-0.3-0.7-0.7-1-1.1c-0.2-0.4-0.3-1-0.3-1.6    c0-0.6,0.1-1.1,0.3-1.6c0.2-0.5,0.6-0.9,1-1.2c0.4-0.4,0.9-0.6,1.5-0.8c0.6-0.2,1.2-0.3,1.9-0.3c0.7,0,1.3,0.1,1.9,0.2    c0.6,0.2,1.1,0.4,1.5,0.7c0.4,0.3,0.8,0.7,1.1,1.1c0.3,0.4,0.6,0.8,0.7,1.3L29.7,43c-0.4-0.9-0.9-1.5-1.6-1.9s-1.4-0.6-2.3-0.6    c-0.9,0-1.7,0.2-2.2,0.6c-0.5,0.4-0.8,0.9-0.8,1.6c0,0.4,0.1,0.7,0.2,1c0.1,0.3,0.4,0.5,0.7,0.7c0.3,0.2,0.7,0.4,1.2,0.6    c0.5,0.2,1.1,0.4,1.8,0.6c0.7,0.2,1.4,0.5,2,0.7c0.6,0.3,1.1,0.6,1.5,0.9c0.4,0.3,0.7,0.7,0.9,1.2c0.2,0.5,0.3,1,0.3,1.6    c0,0.6-0.1,1.2-0.4,1.7c-0.3,0.5-0.6,0.9-1.1,1.3c-0.5,0.4-1,0.6-1.7,0.8C27.8,54.2,27.1,54.3,26.3,54.3z"></path>
		<path class="st0" d="M33.2,54l5.2-14.9h1.8L45.5,54h-1.8l-1.5-4.2h-5.9L34.9,54H33.2z M36.9,48.2h4.8l-2.4-6.9h0L36.9,48.2z"></path>
		<path class="st0" d="M47.8,54V39.2h5c0.8,0,1.5,0.1,2.2,0.2c0.7,0.2,1.2,0.4,1.7,0.8c0.5,0.3,0.8,0.8,1.1,1.3    c0.3,0.5,0.4,1.2,0.4,1.9c0,0.8-0.1,1.4-0.4,2c-0.3,0.6-0.7,1-1.1,1.4c-0.5,0.3-1.1,0.6-1.7,0.8s-1.4,0.2-2.2,0.2h-3.1V54H47.8z     M49.5,46.2h3.2c1.2,0,2.1-0.2,2.7-0.6c0.6-0.4,0.9-1.1,0.9-2.1c0-1-0.3-1.6-0.9-2.1c-0.6-0.4-1.5-0.6-2.7-0.6h-3.2V46.2z"></path>
		<path class="st0" d="M65,54V39.2h1.8v6.2h7.6v-6.2h1.8V54h-1.8v-7h-7.6v7H65z"></path>
		<path class="st0" d="M78.4,54l5.2-14.9h1.8L90.7,54h-1.8l-1.5-4.2h-5.9L80.1,54H78.4z M82.1,48.2h4.8l-2.4-6.9h0L82.1,48.2z"></path>
		<path class="st0" d="M93,54V39.2h1.9l7.8,11.7h0V39.2h1.7V54h-1.6l-8.1-12h0v12H93z"></path>
		<path class="st0" d="M106.6,54l5.2-14.9h1.8l5.2,14.9h-1.8l-1.5-4.2h-5.9l-1.5,4.2H106.6z M110.3,48.2h4.8l-2.4-6.9h0L110.3,48.2z    "></path>
		<path class="st0" d="M123.8,45.3c-0.4,0-0.9-0.1-1.3-0.2c-0.4-0.2-0.7-0.4-1-0.7c-0.3-0.3-0.5-0.6-0.7-1c-0.2-0.4-0.2-0.8-0.2-1.3    c0-0.4,0.1-0.9,0.2-1.3c0.2-0.4,0.4-0.7,0.7-1c0.3-0.3,0.6-0.5,1-0.7c0.4-0.2,0.8-0.2,1.3-0.2c0.4,0,0.9,0.1,1.3,0.2    c0.4,0.2,0.7,0.4,1,0.7c0.3,0.3,0.5,0.6,0.7,1c0.2,0.4,0.2,0.8,0.2,1.3c0,0.4-0.1,0.9-0.2,1.3c-0.2,0.4-0.4,0.7-0.7,1    c-0.3,0.3-0.6,0.5-1,0.7C124.7,45.2,124.3,45.3,123.8,45.3z M123.8,44.8c0.4,0,0.7-0.1,1-0.2c0.3-0.1,0.6-0.3,0.8-0.6    c0.2-0.2,0.4-0.5,0.6-0.8c0.1-0.3,0.2-0.7,0.2-1c0-0.4-0.1-0.7-0.2-1c-0.1-0.3-0.3-0.6-0.6-0.8c-0.2-0.2-0.5-0.4-0.8-0.6    c-0.3-0.1-0.7-0.2-1-0.2s-0.7,0.1-1,0.2c-0.3,0.1-0.6,0.3-0.8,0.6s-0.4,0.5-0.6,0.8c-0.1,0.3-0.2,0.7-0.2,1c0,0.4,0.1,0.7,0.2,1    c0.1,0.3,0.3,0.6,0.6,0.8c0.2,0.2,0.5,0.4,0.8,0.6C123.1,44.7,123.5,44.8,123.8,44.8z M122.6,40.3h1.3c0.4,0,0.8,0.1,1,0.3    c0.2,0.2,0.4,0.5,0.4,0.8c0,0.3-0.1,0.5-0.2,0.7c-0.1,0.2-0.3,0.3-0.6,0.4c0.1,0.1,0.1,0.2,0.2,0.3c0.1,0.1,0.2,0.3,0.2,0.4    c0.1,0.1,0.2,0.3,0.2,0.4c0.1,0.1,0.1,0.2,0.2,0.3h-0.7l-0.8-1.4h-0.5v1.4h-0.7V40.3z M123.9,41.9c0.2,0,0.4,0,0.5-0.1    s0.2-0.2,0.2-0.4c0-0.3-0.2-0.5-0.7-0.5h-0.6v1.1H123.9z"></path>
		<path class="st0" d="M140.1,54.3c-0.9,0-1.8-0.2-2.5-0.5c-0.8-0.4-1.5-0.9-2-1.5c-0.6-0.7-1-1.5-1.3-2.4c-0.3-1-0.5-2-0.5-3.2    c0-1.2,0.2-2.3,0.5-3.2c0.3-1,0.8-1.8,1.3-2.4c0.6-0.7,1.2-1.2,2-1.5c0.8-0.4,1.6-0.5,2.5-0.5c0.9,0,1.8,0.2,2.5,0.5    c0.8,0.4,1.4,0.9,2,1.5c0.6,0.7,1,1.5,1.3,2.4c0.3,1,0.5,2,0.5,3.2c0,1.2-0.2,2.3-0.5,3.2c-0.3,1-0.8,1.8-1.3,2.4    c-0.6,0.7-1.2,1.2-2,1.5C141.8,54.1,141,54.3,140.1,54.3z M140.1,52.7c0.7,0,1.3-0.1,1.8-0.4c0.6-0.3,1.1-0.7,1.5-1.2    c0.4-0.5,0.7-1.2,1-1.9c0.2-0.8,0.3-1.6,0.3-2.6c0-1-0.1-1.8-0.3-2.6c-0.2-0.8-0.5-1.4-1-1.9c-0.4-0.5-0.9-0.9-1.5-1.2    c-0.6-0.3-1.2-0.4-1.8-0.4c-0.7,0-1.3,0.1-1.9,0.4c-0.6,0.3-1.1,0.7-1.5,1.2c-0.4,0.5-0.7,1.2-0.9,1.9c-0.2,0.8-0.3,1.6-0.3,2.6    c0,1,0.1,1.8,0.3,2.6c0.2,0.8,0.5,1.4,0.9,1.9s0.9,0.9,1.5,1.2C138.8,52.6,139.4,52.7,140.1,52.7z"></path>
		<path class="st0" d="M148.9,58V43.5h1.7v1.5c0.4-0.4,0.9-0.8,1.4-1.2s1.2-0.5,2-0.5c0.6,0,1.2,0.1,1.7,0.3c0.5,0.2,1,0.6,1.4,1    c0.4,0.5,0.7,1,0.9,1.7c0.2,0.7,0.3,1.5,0.3,2.4c0,0.9-0.1,1.7-0.3,2.4c-0.2,0.7-0.5,1.3-0.9,1.7c-0.4,0.4-0.9,0.8-1.4,1    c-0.5,0.2-1.1,0.3-1.8,0.3c-0.7,0-1.3-0.1-1.8-0.4c-0.5-0.3-1-0.6-1.5-1.1V58H148.9z M153.7,52.8c0.9,0,1.6-0.3,2.2-1    c0.5-0.6,0.8-1.7,0.8-3.1c0-1.3-0.3-2.4-0.8-3c-0.6-0.7-1.3-1-2.1-1c-0.6,0-1.2,0.2-1.7,0.4c-0.5,0.3-1,0.7-1.4,1.2v4.8    C151.5,52.2,152.6,52.8,153.7,52.8z"></path>
		<path class="st0" d="M164.8,54.2c-0.6,0-1.2-0.1-1.8-0.3c-0.6-0.2-1.1-0.6-1.5-1c-0.4-0.5-0.8-1-1.1-1.7c-0.3-0.7-0.4-1.5-0.4-2.4    c0-1,0.1-1.8,0.4-2.5c0.3-0.7,0.7-1.3,1.1-1.7c0.5-0.4,1-0.8,1.5-1c0.6-0.2,1.1-0.3,1.7-0.3c0.6,0,1.2,0.1,1.7,0.3s1,0.6,1.4,1    s0.7,1,0.9,1.7c0.2,0.7,0.3,1.5,0.3,2.5v0.4h-7.5c0,0.6,0.1,1.1,0.3,1.6c0.2,0.5,0.4,0.8,0.7,1.1c0.3,0.3,0.6,0.5,1,0.7    c0.4,0.2,0.8,0.2,1.2,0.2c0.8,0,1.4-0.1,1.9-0.4c0.5-0.3,0.9-0.7,1.3-1.3l1,0.9c-0.5,0.7-1.1,1.3-1.8,1.7    C166.7,54,165.8,54.2,164.8,54.2z M167.6,47.8c-0.1-0.9-0.3-1.7-0.8-2.3c-0.5-0.6-1.1-0.9-2-0.9c-0.4,0-0.7,0.1-1,0.2    c-0.3,0.1-0.6,0.3-0.9,0.6c-0.3,0.3-0.5,0.6-0.7,1c-0.2,0.4-0.3,0.9-0.4,1.4H167.6z"></path>
		<path class="st0" d="M171.5,54V43.5h1.7v2h0c0.4-0.6,0.9-1.1,1.6-1.5c0.7-0.4,1.5-0.6,2.5-0.6h0.2l-0.1,1.6c0,0-0.1,0-0.3,0h-0.2    c-0.8,0-1.6,0.2-2.2,0.6c-0.6,0.4-1.1,1-1.5,1.8V54H171.5z"></path>
		<path class="st0" d="M181.6,54.2c-0.9,0-1.6-0.2-2.2-0.7c-0.5-0.5-0.8-1.1-0.8-2c0-0.5,0.1-1,0.4-1.5c0.2-0.5,0.6-0.9,1.2-1.2    c0.6-0.4,1.3-0.7,2.2-1c0.9-0.3,2-0.5,3.3-0.7v-0.5c0-1.3-0.7-2-2-2c-0.8,0-1.5,0.2-2.1,0.5c-0.6,0.3-1.2,0.7-1.7,1.1l-0.9-1.1    c0.6-0.6,1.3-1,2.1-1.4c0.8-0.4,1.7-0.6,2.8-0.6c0.6,0,1.2,0.1,1.6,0.2s0.8,0.4,1.1,0.7c0.3,0.3,0.5,0.7,0.6,1.1    c0.1,0.4,0.2,0.9,0.2,1.5v4.7c0,0.6,0,1.2,0.1,1.6c0,0.4,0.1,0.8,0.2,1H186c-0.1-0.2-0.1-0.5-0.2-0.7c0-0.2-0.1-0.5-0.1-0.8    C184.5,53.6,183.2,54.2,181.6,54.2z M182.1,52.8c0.7,0,1.4-0.1,2-0.4c0.6-0.3,1.1-0.7,1.6-1.1v-3c-1,0.2-1.8,0.3-2.5,0.5    c-0.7,0.2-1.2,0.4-1.7,0.7c-0.4,0.2-0.7,0.5-0.9,0.8c-0.2,0.3-0.3,0.6-0.3,0.9c0,0.5,0.2,0.9,0.5,1.2    C181.1,52.7,181.6,52.8,182.1,52.8z"></path>
		<path class="st0" d="M193.9,54.1c-1.1,0-1.9-0.2-2.3-0.7c-0.4-0.4-0.6-1.1-0.6-2v-6.6h-1.8v-1.4h1.8v-3.8h1.7v3.8h2.7v1.4h-2.7    v6.2c0,0.6,0.1,1,0.3,1.3c0.2,0.3,0.7,0.4,1.3,0.4c0.2,0,0.4,0,0.6,0c0.2,0,0.4-0.1,0.5-0.1V54c-0.1,0-0.4,0.1-0.7,0.1    C194.4,54.1,194.1,54.1,193.9,54.1z"></path>
		<path class="st0" d="M197.6,41.2v-1.7h1.8v1.7H197.6z M197.6,54V43.5h1.7V54H197.6z"></path>
		<path class="st0" d="M206.6,54.2c-0.6,0-1.3-0.1-1.9-0.4c-0.6-0.2-1.1-0.6-1.6-1c-0.5-0.5-0.8-1-1.1-1.7c-0.3-0.7-0.4-1.5-0.4-2.4    c0-0.9,0.1-1.7,0.4-2.4s0.6-1.3,1.1-1.7c0.5-0.5,1-0.8,1.6-1c0.6-0.2,1.2-0.4,1.9-0.4c0.6,0,1.3,0.1,1.9,0.4    c0.6,0.2,1.1,0.6,1.6,1c0.5,0.5,0.8,1,1.1,1.7s0.4,1.5,0.4,2.4c0,0.9-0.1,1.7-0.4,2.4c-0.3,0.7-0.6,1.3-1.1,1.7    c-0.5,0.5-1,0.8-1.6,1C207.9,54.1,207.2,54.2,206.6,54.2z M206.6,52.8c0.5,0,0.9-0.1,1.3-0.3c0.4-0.2,0.7-0.5,1-0.8    c0.3-0.4,0.5-0.8,0.6-1.3c0.1-0.5,0.2-1.1,0.2-1.7c0-0.5-0.1-1.1-0.2-1.5c-0.1-0.5-0.3-0.9-0.6-1.3c-0.3-0.4-0.6-0.7-1-0.9    c-0.4-0.2-0.9-0.3-1.4-0.3c-0.5,0-1,0.1-1.4,0.3c-0.4,0.2-0.7,0.5-1,0.8c-0.3,0.4-0.5,0.8-0.6,1.3c-0.1,0.5-0.2,1-0.2,1.6    c0,0.6,0.1,1.1,0.2,1.6c0.1,0.5,0.3,0.9,0.6,1.3c0.3,0.4,0.6,0.6,1,0.9C205.6,52.7,206.1,52.8,206.6,52.8z"></path>
		<path class="st0" d="M213.8,54V43.5h1.7V45c0.2-0.2,0.5-0.4,0.8-0.7c0.3-0.2,0.6-0.4,0.9-0.6c0.3-0.2,0.7-0.3,1.1-0.4    c0.4-0.1,0.8-0.2,1.2-0.2c1,0,1.8,0.3,2.3,0.8c0.5,0.6,0.8,1.3,0.8,2.3V54h-1.7v-7.2c0-0.7-0.2-1.2-0.5-1.6    c-0.3-0.3-0.8-0.5-1.5-0.5c-0.6,0-1.2,0.2-1.8,0.5c-0.5,0.3-1.1,0.7-1.7,1.2V54H213.8z"></path>
		<path class="st0" d="M228.9,54.2c-1,0-1.8-0.2-2.6-0.5c-0.7-0.3-1.3-0.8-1.8-1.3l1-1c0.4,0.4,0.9,0.8,1.4,1    c0.5,0.3,1.2,0.4,1.9,0.4c0.8,0,1.5-0.1,1.9-0.4c0.4-0.3,0.6-0.7,0.6-1.2c0-0.5-0.2-0.9-0.7-1.2c-0.5-0.3-1.1-0.5-2-0.7    c-0.6-0.1-1.1-0.3-1.5-0.4c-0.5-0.2-0.9-0.4-1.2-0.6c-0.3-0.2-0.6-0.5-0.8-0.9c-0.2-0.3-0.3-0.8-0.3-1.3c0-0.4,0.1-0.8,0.2-1.1    c0.2-0.3,0.4-0.7,0.7-0.9c0.3-0.3,0.7-0.5,1.2-0.6c0.5-0.2,1-0.2,1.6-0.2c0.9,0,1.7,0.1,2.3,0.4c0.6,0.3,1.2,0.6,1.7,1.1l-0.9,1.1    c-0.4-0.4-0.9-0.7-1.4-0.9c-0.5-0.2-1.1-0.4-1.7-0.4c-0.8,0-1.3,0.1-1.7,0.4c-0.3,0.3-0.5,0.6-0.5,1c0,0.5,0.2,0.9,0.6,1.1    c0.4,0.2,1,0.4,1.9,0.6c0.6,0.2,1.1,0.3,1.6,0.5c0.5,0.2,0.9,0.4,1.3,0.6c0.4,0.2,0.6,0.5,0.8,0.9c0.2,0.4,0.3,0.8,0.3,1.4    c0,0.5-0.1,1-0.3,1.3c-0.2,0.4-0.5,0.7-0.9,1c-0.4,0.3-0.8,0.5-1.3,0.6C230,54.1,229.5,54.2,228.9,54.2z"></path>
	</g>
</g>
</svg>
