<svg xmlns="http://www.w3.org/2000/svg" viewBox="0 0 24 23.1"><defs><style>.cls-1{fill:none;stroke:#fff;stroke-linecap:round;stroke-linejoin:round;stroke-width:1.5px;}</style></defs><g ><g ><path class="cls-1" d="M.75,22.25h21.8"/><path class="cls-1" d="M2.75,18h2.8a.47.47,0,0,1,.5.5v3.8H2.25v-3.8A.54.54,0,0,1,2.75,18Z"/><path class="cls-1" d="M10.25,9.35h2.8a.47.47,0,0,1,.5.5v12.5H9.75V9.75C9.75,9.55,10.05,9.35,10.25,9.35Z"/><path class="cls-1" d="M17.75,13.65h2.8a.47.47,0,0,1,.5.5v8.2h-3.8v-8.2A.54.54,0,0,1,17.75,13.65Z"/><path class="cls-1" d="M7,4.85,3,8.75"/><path class="cls-1" d="M14.35,6.05l-4.7-1.2"/><path class="cls-1" d="M20.45,2.75l-3.6,2.7"/><path class="cls-1" d="M8.25,5.75a1.45,1.45,0,0,0,1.5-1.4A1.45,1.45,0,0,0,8.25,3a1.45,1.45,0,0,0-1.5,1.4A1.45,1.45,0,0,0,8.25,5.75Z"/><path class="cls-1" d="M21.75,3.55a1.45,1.45,0,0,0,1.5-1.4,1.5,1.5,0,0,0-3,0A1.45,1.45,0,0,0,21.75,3.55Z"/><path class="cls-1" d="M15.75,7.85a1.45,1.45,0,0,0,1.5-1.4,1.5,1.5,0,0,0-3,0A1.45,1.45,0,0,0,15.75,7.85Z"/><path class="cls-1" d="M2.25,11.45a1.45,1.45,0,0,0,1.5-1.4,1.45,1.45,0,0,0-1.5-1.4,1.45,1.45,0,0,0-1.5,1.4A1.45,1.45,0,0,0,2.25,11.45Z"/></g></g></svg>