<svg viewBox="0 0 25 25" fill="none" xmlns="http://www.w3.org/2000/svg">
<path d="M13.8001 20.4952C15.0001 20.4952 16.0001 19.4952 16.0001 18.2952C16.0001 17.0952 15.0001 16.0952 13.8001 16.0952C12.6001 16.0952 11.6001 17.0952 11.6001 18.2952C11.6001 19.4952 12.6001 20.4952 13.8001 20.4952Z" stroke="white" stroke-width="1.5" stroke-linecap="round" stroke-linejoin="round"/>
<path d="M21.3001 23.4952C22.5001 23.4952 23.5001 22.4952 23.5001 21.2952C23.5001 20.0952 22.5001 19.0952 21.3001 19.0952C20.1001 19.0952 19.1001 20.0952 19.1001 21.2952C19.1001 22.4952 20.1001 23.4952 21.3001 23.4952Z" stroke="white" stroke-width="1.5" stroke-linecap="round" stroke-linejoin="round"/>
<path d="M21.3001 15.9952C22.5001 15.9952 23.5001 14.9952 23.5001 13.7952C23.5001 12.5952 22.5001 11.5952 21.3001 11.5952C20.1001 11.5952 19.1001 12.5952 19.1001 13.7952C19.1001 14.9952 20.1001 15.9952 21.3001 15.9952Z" stroke="white" stroke-width="1.5" stroke-linecap="round" stroke-linejoin="round"/>
<path d="M15.7 17.0953L19.3999 14.8953" stroke="white" stroke-width="1.5" stroke-linecap="round" stroke-linejoin="round"/>
<path d="M15.8999 19.0952L19.2 20.3952" stroke="white" stroke-width="1.5" stroke-linecap="round" stroke-linejoin="round"/>
<path d="M12.3 23.4952C6.60002 23.4952 1.80001 19.1952 1.10001 13.4952C0.500007 7.79522 4.20002 2.59522 9.80002 1.29522C15.4 -0.00477585 21 3.09522 22.9 8.49522" stroke="white" stroke-width="1.5" stroke-linecap="round" stroke-linejoin="round"/>
<path d="M9.6001 23.1953C8.1001 20.9953 7.1001 16.8953 7.1001 12.2953C7.1001 7.69527 8.1001 3.59526 9.6001 1.39526" stroke="white" stroke-width="1.5" stroke-linecap="round" stroke-linejoin="round"/>
<path d="M3.30005 5.49524H21.3" stroke="white" stroke-width="1.5" stroke-linecap="round" stroke-linejoin="round"/>
<path d="M2.3999 17.4952H8.59991" stroke="white" stroke-width="1.5" stroke-linecap="round" stroke-linejoin="round"/>
<path d="M15 1.39526C16.4 3.49526 17.4 7.19527 17.5 11.5953H1" stroke="white" stroke-width="1.5" stroke-linecap="round" stroke-linejoin="round"/>
</svg>
