<svg width="25" height="25" viewBox="0 0 25 25" fill="none" xmlns="http://www.w3.org/2000/svg">
<path d="M13 21.3H14.5V23.5L17.5 21.3H22C22.8 21.3 23.5 20.6 23.5 19.8V15.3C23.5 14.5 22.8 13.8 22 13.8H13C12.2 13.8 11.5 14.5 11.5 15.3V19.8C11.5 20.6 12.2 21.3 13 21.3Z" stroke="white" stroke-width="1.5" stroke-linecap="round" stroke-linejoin="round"/>
<path d="M5.29989 19.8C6.69989 19.8 7.8999 18.6 7.8999 17.2C7.8999 15.8 6.69989 14.6 5.29989 14.6C3.89989 14.6 2.69992 15.8 2.69992 17.2C2.59992 18.6 3.79989 19.8 5.29989 19.8Z" stroke="white" stroke-width="1.5" stroke-linecap="round" stroke-linejoin="round"/>
<path d="M9.50009 23.5C8.90009 21.7 7.20008 20.5 5.30008 20.5C3.40008 20.5 1.7001 21.7 1.1001 23.5" stroke="white" stroke-width="1.5" stroke-linecap="round" stroke-linejoin="round"/>
<path d="M19.2999 7.00005C20.6999 7.00005 21.8999 5.80005 21.8999 4.40005C21.8999 3.00005 20.6999 1.80005 19.2999 1.80005C17.8999 1.80005 16.7 3.00005 16.7 4.40005C16.7 5.90005 17.8999 7.00005 19.2999 7.00005Z" stroke="white" stroke-width="1.5" stroke-linecap="round" stroke-linejoin="round"/>
<path d="M23.5001 10.8C22.9001 9.00005 21.2001 7.80005 19.3001 7.80005C17.4001 7.80005 15.7001 9.00005 15.1001 10.8" stroke="white" stroke-width="1.5" stroke-linecap="round" stroke-linejoin="round"/>
<path d="M16.8 16H20.6001" stroke="white" stroke-width="1.5" stroke-linecap="round" stroke-linejoin="round"/>
<path d="M14.5 18.3H20.5" stroke="white" stroke-width="1.5" stroke-linecap="round" stroke-linejoin="round"/>
<path d="M11.5 8.5H10V10.7L7 8.5H2.5C1.7 8.5 1 7.8 1 7V2.5C1 1.7 1.7 1 2.5 1H11.5C12.3 1 13 1.7 13 2.5V7C13 7.9 12.4 8.5 11.5 8.5Z" stroke="white" stroke-width="1.5" stroke-linecap="round" stroke-linejoin="round"/>
<path d="M7.79999 3.30005H4" stroke="white" stroke-width="1.5" stroke-linecap="round" stroke-linejoin="round"/>
<path d="M10 5.5H4" stroke="white" stroke-width="1.5" stroke-linecap="round" stroke-linejoin="round"/>
</svg>
