<svg viewBox="0 0 25 20" fill="none" xmlns="http://www.w3.org/2000/svg">
<path d="M16.0999 16V16.8C16.0999 18 15.0999 19 13.8999 19H4.09988C2.99988 19 1.8999 18.4 1.3999 17.3" stroke="white" stroke-width="1.5" stroke-linecap="round" stroke-linejoin="round"/>
<path d="M4.10001 13H5.60001C7.30001 13 8.60001 11.7 8.60001 10H10.8C12 10 13 9.00005 13 7.80005C13 6.60005 12 5.6001 10.8 5.6001H4C2.3 5.6001 1 6.9001 1 8.6001" stroke="white" stroke-width="1.5" stroke-linecap="round" stroke-linejoin="round"/>
<path d="M5.6001 5.5V2.5C5.6001 1.7 6.3001 1 7.1001 1H22.1001C22.9001 1 23.6001 1.7 23.6001 2.5V11.5C23.6001 12.3 22.9001 13 22.1001 13H10.1001" stroke="white" stroke-width="1.5" stroke-linecap="round" stroke-linejoin="round"/>
<path d="M19.1001 13C19.1001 14.7 17.8001 16 16.1001 16H10.1001" stroke="white" stroke-width="1.5" stroke-linecap="round" stroke-linejoin="round"/>
<path d="M16.1001 5.5H23.6001" stroke="white" stroke-width="1.5" stroke-linecap="round" stroke-linejoin="round"/>
<path d="M17.6001 8.5H20.6001" stroke="white" stroke-width="1.5" stroke-linecap="round" stroke-linejoin="round"/>
</svg>
