<svg viewBox="0 0 23 25" fill="none" xmlns="http://www.w3.org/2000/svg">
<path d="M18.9 23.5V17.2C21.7 14.6 22.7 10.5 21.3 6.9C19.9 3.3 16.4 1 12.6 1C5.10004 1 3.8 7.5 1 14.5H4V17.5C4 19.2 5.3 20.5 7 20.5H8.5V23.5" stroke="white" stroke-width="1.5" stroke-linecap="round" stroke-linejoin="round"/>
<path d="M12.2 12.3C13 12.3 13.7 11.6 13.7 10.8C13.7 10 13 9.30005 12.2 9.30005C11.4 9.30005 10.7 10 10.7 10.8C10.7 11.6 11.3 12.3 12.2 12.3Z" stroke="white" stroke-width="1.5" stroke-linecap="round" stroke-linejoin="round"/>
<path d="M10.9 4.99998L10.4999 6.39998C10.2999 6.89998 9.79992 7.19998 9.29992 7.09998L7.79992 6.79997C7.19992 6.69997 6.59992 6.89998 6.29992 7.39998C5.99992 7.89998 6.09993 8.49998 6.49993 8.99998L7.49993 10.1C7.89993 10.5 7.89993 11.1 7.49993 11.5L6.49993 12.6C6.09993 13 5.99992 13.7 6.29992 14.2C6.59992 14.7 7.19992 15 7.79992 14.8L9.29992 14.5C9.79992 14.4 10.2999 14.7 10.4999 15.2L10.9 16.7C11.1 17.3 11.5999 17.6 12.1999 17.6C12.7999 17.6 13.2999 17.2 13.4999 16.7L13.9 15.2C14.1 14.7 14.6 14.4 15.1 14.5L16.6 14.8C17.2 14.9 17.8 14.7 18.1 14.2C18.4 13.7 18.3 13.1 17.9 12.6L16.9 11.5C16.5 11.1 16.5 10.5 16.9 10.1L17.9 8.99998C18.3 8.59998 18.4 7.89998 18.1 7.39998C17.8 6.89998 17.2 6.59997 16.6 6.79997L15.1 7.09998C14.6 7.19998 14.1 6.89998 13.9 6.39998L13.4999 4.99998C13.2999 4.39998 12.7999 4.09998 12.1999 4.09998C11.5999 4.09998 11.1 4.39998 10.9 4.99998Z" stroke="white" stroke-width="1.5" stroke-linecap="round" stroke-linejoin="round"/>
</svg>
