<svg viewBox="0 0 25 23" fill="none" xmlns="http://www.w3.org/2000/svg">
<path d="M20.5 11.4V20.4C20.5 21.2 19.8 21.9 19 21.9H8.5C7.7 21.9 7 21.2 7 20.4" stroke="white" stroke-width="1.5" stroke-linecap="round" stroke-linejoin="round"/>
<path d="M23.4999 9.20001L13.7 1" stroke="white" stroke-width="1.5" stroke-linecap="round" stroke-linejoin="round"/>
<path d="M4 9.20001L13.8 1" stroke="white" stroke-width="1.5" stroke-linecap="round" stroke-linejoin="round"/>
<path d="M19 1.69995H22V4.69995" stroke="white" stroke-width="1.5" stroke-linecap="round" stroke-linejoin="round"/>
<path d="M4 18.2C5.7 18.2 7 16.9 7 15.2C7 13.5 5.7 12.2 4 12.2C2.3 12.2 1 13.5 1 15.2C1 16.9 2.4 18.2 4 18.2Z" stroke="white" stroke-width="1.5" stroke-linecap="round" stroke-linejoin="round"/>
<path d="M7 15.2H14.5V17.4" stroke="white" stroke-width="1.5" stroke-linecap="round" stroke-linejoin="round"/>
<path d="M11.5 15.2V16.7" stroke="white" stroke-width="1.5" stroke-linecap="round" stroke-linejoin="round"/>
</svg>
