<svg width="25" height="25" viewBox="0 0 25 25" fill="none" xmlns="http://www.w3.org/2000/svg">
<path d="M11.7413 1.30005C11.8413 1.10005 12.0413 1 12.1413 1C12.3413 1 12.5413 1.10005 12.5413 1.30005L13.5413 3.30005C13.6413 3.40005 13.7413 3.5001 13.9413 3.6001L16.2413 3.90002C16.4413 3.90002 16.5413 4.10007 16.6413 4.20007C16.7413 4.40007 16.6413 4.60007 16.5413 4.70007L14.9413 6.30005C14.8413 6.40005 14.7413 6.60007 14.8413 6.70007L15.2413 8.90002C15.2413 9.10002 15.2413 9.30002 15.0413 9.40002C14.9413 9.50002 14.7413 9.50002 14.5413 9.40002L12.5413 8.30005C12.4413 8.20005 12.2413 8.20005 12.0413 8.30005L10.0413 9.40002C9.84133 9.50002 9.64133 9.50002 9.54133 9.40002C9.44133 9.30002 9.34132 9.10002 9.34132 8.90002L9.74133 6.70007C9.74133 6.50007 9.74132 6.40005 9.64132 6.30005L8.04133 4.70007C7.94133 4.60007 7.84132 4.40007 7.94132 4.20007C8.04132 4.00007 8.14132 3.90002 8.34132 3.90002L10.6413 3.6001C10.8413 3.6001 10.9413 3.50005 11.0413 3.30005L11.7413 1.30005Z" stroke="white" stroke-width="1.5" stroke-linecap="round" stroke-linejoin="round"/>
<path d="M6.54142 10.4L5.64141 10C5.54141 9.9 5.34141 9.9 5.14141 10L3.14141 11C2.94141 11.1 2.74141 11.1 2.64141 11C2.54141 10.9 2.44142 10.7 2.44142 10.5L2.84141 8.30005C2.84141 8.10005 2.84142 8.00002 2.74142 7.90002L1.14141 6.30005C1.04141 6.20005 0.941423 6.00005 1.04142 5.80005C1.14142 5.60005 1.24142 5.5 1.44142 5.5L3.74142 5.20007C3.94142 5.20007 4.04141 5.10002 4.14141 4.90002L5.14141 2.90002C5.24141 2.70002 5.44142 2.6001 5.54142 2.6001" stroke="white" stroke-width="1.5" stroke-linecap="round" stroke-linejoin="round"/>
<path d="M17.9414 10.4L18.8414 9.90002C18.9414 9.80002 19.1414 9.80002 19.3414 9.90002L21.3414 11C21.5414 11.1 21.7414 11.1 21.8414 11C21.9414 10.9 22.0414 10.7 22.0414 10.5L21.6414 8.30005C21.6414 8.10005 21.6414 8.00002 21.7414 7.90002L23.3414 6.30005C23.4414 6.20005 23.5414 6.00005 23.4414 5.80005C23.3414 5.60005 23.2414 5.5 23.0414 5.5L20.7414 5.20007C20.5414 5.20007 20.4414 5.10002 20.3414 4.90002L19.3414 2.90002C19.2414 2.70002 19.0414 2.6001 18.9414 2.6001" stroke="white" stroke-width="1.5" stroke-linecap="round" stroke-linejoin="round"/>
<path d="M17.2415 23.5C15.9415 22 14.1415 21.2001 12.2415 21.2001C10.3415 21.2001 8.44146 22 7.24146 23.5" stroke="white" stroke-width="1.5" stroke-linecap="round" stroke-linejoin="round"/>
<path d="M8.64136 13.5C10.6414 15.6 13.6414 16.2 16.2414 15" stroke="white" stroke-width="1.5" stroke-linecap="round" stroke-linejoin="round"/>
<path d="M12.2414 19.8C14.5414 19.8 16.3414 18.0001 16.3414 15.7001C16.3414 13.4001 14.5414 11.6001 12.2414 11.6001C9.94136 11.6001 8.14136 13.4001 8.14136 15.7001C8.14136 17.9001 9.94136 19.8 12.2414 19.8Z" stroke="white" stroke-width="1.5" stroke-linecap="round" stroke-linejoin="round"/>
</svg>
