<svg viewBox="0 0 25 25" fill="none" xmlns="http://www.w3.org/2000/svg">
<path d="M5.1001 23.5L13.6001 10C13.8001 9.7 14.2001 9.5 14.6001 9.5C15.0001 9.5 15.4001 9.7 15.6001 10L24.1001 23.5H5.1001Z" stroke="white" stroke-width="1.5" stroke-linecap="round" stroke-linejoin="round"/>
<path d="M5.1001 23.5H1.6001L5.40009 16.7L7.6001 19.6" stroke="white" stroke-width="1.5" stroke-linecap="round" stroke-linejoin="round"/>
<path d="M9.6001 16.5L11.9001 18.5C12.3001 18.8 12.9001 18.8 13.3001 18.4L13.9001 17.8C14.3001 17.4 14.9001 17.4 15.3001 17.8L15.9001 18.4C16.3001 18.8 16.9001 18.8 17.3001 18.5L19.6001 16.5" stroke="white" stroke-width="1.5" stroke-linecap="round" stroke-linejoin="round"/>
<path d="M14.4001 9.59998V1.09998" stroke="white" stroke-width="1.5" stroke-linecap="round" stroke-linejoin="round"/>
<path d="M14.4001 1H21.6002C21.8002 1 22.0002 1.09999 22.1002 1.29999C22.2002 1.49999 22.2002 1.69996 22.0002 1.89996L20.9001 3.29999C20.7001 3.49999 20.7001 3.8 20.9001 4L22.0002 5.39996C22.1002 5.59996 22.1002 5.8 22.1002 6C22.0002 6.2 21.8002 6.29999 21.6002 6.29999H14.4001" stroke="white" stroke-width="1.5" stroke-linecap="round" stroke-linejoin="round"/>
</svg>
