<svg viewBox="0 0 25 25" fill="none" xmlns="http://www.w3.org/2000/svg">
<path d="M4.30005 5.5H20.1001" stroke="white" stroke-width="1.5" stroke-linecap="round" stroke-linejoin="round"/>
<path d="M8.80005 1H15.7001C15.9001 1 16.1001 1.10001 16.2001 1.20001L19.9001 4.89999C20.0001 4.99999 20.1001 5.19999 20.1001 5.39999C20.1001 5.59999 20.0001 5.79999 19.9001 5.89999L12.7001 12.4C12.4001 12.7 12.0001 12.7 11.7001 12.4L4.50005 5.89999C4.30005 5.79999 4.30005 5.59999 4.30005 5.39999C4.30005 5.19999 4.40005 4.99999 4.50005 4.89999L8.20006 1.20001C8.40006 1.10001 8.60005 1 8.80005 1Z" stroke="white" stroke-width="1.5" stroke-linecap="round" stroke-linejoin="round"/>
<path d="M8.5 1.09998L12.1 12.8" stroke="white" stroke-width="1.5" stroke-linecap="round" stroke-linejoin="round"/>
<path d="M15.9001 1.09998L12.3 12.8" stroke="white" stroke-width="1.5" stroke-linecap="round" stroke-linejoin="round"/>
<path d="M4 23.5L2 21C1.4 20.2 1 19.2 1 18.2V13C1 12.2 1.7 11.5 2.5 11.5C3.3 11.5 4 12.2 4 13V16.8" stroke="white" stroke-width="1.5" stroke-linecap="round" stroke-linejoin="round"/>
<path d="M8.49998 23.4V20.4C8.49998 19.5 8.19999 18.6 7.69999 17.9L6.59999 16.2C6.39999 15.9 6.09999 15.6 5.69999 15.6C5.29999 15.5 4.89999 15.6 4.59999 15.8C3.99999 16.2 3.79999 17 4.09999 17.6L5.49998 19.8" stroke="white" stroke-width="1.5" stroke-linecap="round" stroke-linejoin="round"/>
<path d="M20.5 23.5L22.5 21C23.1 20.2 23.5 19.2 23.5 18.2V13C23.5 12.2 22.8 11.5 22 11.5C21.2 11.5 20.5 12.2 20.5 13V16.8" stroke="white" stroke-width="1.5" stroke-linecap="round" stroke-linejoin="round"/>
<path d="M16 23.4V20.4C16 19.5 16.3 18.6 16.8 17.9L17.9 16.2C18.1 15.9 18.4 15.6 18.8 15.6C19.2 15.5 19.6 15.6 19.9 15.8C20.5 16.2 20.7 17 20.4 17.6L19 19.8" stroke="white" stroke-width="1.5" stroke-linecap="round" stroke-linejoin="round"/>
</svg>
