<svg viewBox="0 0 25 25" fill="none" xmlns="http://www.w3.org/2000/svg">
<path d="M4.90002 20.4C6.30002 20.4 7.50003 19.2 7.50003 17.8C7.50003 16.4 6.30002 15.2 4.90002 15.2C3.50002 15.2 2.30005 16.4 2.30005 17.8C2.30005 19.3 3.40002 20.4 4.90002 20.4Z" stroke="white" stroke-width="1.5" stroke-linecap="round" stroke-linejoin="round"/>
<path d="M8.60001 23.4C7.90001 22 6.40002 21.2 4.80002 21.2C3.20002 21.2 1.8 22.1 1 23.4" stroke="white" stroke-width="1.5" stroke-linecap="round" stroke-linejoin="round"/>
<path d="M19.9 20.4C21.3 20.4 22.5 19.2 22.5 17.8C22.5 16.4 21.3 15.2 19.9 15.2C18.5 15.2 17.3 16.4 17.3 17.8C17.3 19.3 18.4 20.4 19.9 20.4Z" stroke="white" stroke-width="1.5" stroke-linecap="round" stroke-linejoin="round"/>
<path d="M23.6 23.4C22.9 22 21.4 21.2 19.8 21.2C18.2 21.2 16.8 22.1 16 23.4" stroke="white" stroke-width="1.5" stroke-linecap="round" stroke-linejoin="round"/>
<path d="M12.4 6.20001C13.8 6.20001 15 5.00001 15 3.60001C15 2.20001 13.8 1 12.4 1C11 1 9.80005 2.20001 9.80005 3.60001C9.80005 5.00001 10.9 6.20001 12.4 6.20001Z" stroke="white" stroke-width="1.5" stroke-linecap="round" stroke-linejoin="round"/>
<path d="M15.5999 8.40002C14.7999 7.40002 13.5999 6.90002 12.3999 6.90002C11.0999 6.90002 9.99995 7.40002 9.19995 8.40002" stroke="white" stroke-width="1.5" stroke-linecap="round" stroke-linejoin="round"/>
<path d="M9.3999 19.9C11.2999 20.6 13.3999 20.6 15.2999 19.9" stroke="white" stroke-width="1.5" stroke-linecap="round" stroke-linejoin="round"/>
<path d="M6.7001 6.19995C5.0001 7.79995 4.1001 9.89995 4.1001 12.2C4.1001 12.5 4.1001 12.6999 4.1001 12.9999" stroke="white" stroke-width="1.5" stroke-linecap="round" stroke-linejoin="round"/>
<path d="M20.6 12.9C20.6 12.7 20.6 12.4 20.6 12.1C20.6 9.79998 19.7 7.69998 18 6.09998" stroke="white" stroke-width="1.5" stroke-linecap="round" stroke-linejoin="round"/>
</svg>
