<svg viewBox="0 0 25 25" fill="none" xmlns="http://www.w3.org/2000/svg">
<path d="M10.5999 9.59998C10.9999 10.2 11.6999 10.5 12.4999 10.5C13.5999 10.5 14.5999 9.8 14.5999 9C14.5999 8.2 13.6999 7.5 12.4999 7.5C11.2999 7.5 10.3999 6.8 10.3999 6C10.3999 5.2 11.2999 4.5 12.4999 4.5C13.1999 4.5 13.8999 4.80002 14.3999 5.40002" stroke="white" stroke-width="1.5" stroke-linecap="round" stroke-linejoin="round"/>
<path d="M12.5 10.5V11.5" stroke="white" stroke-width="1.5" stroke-linecap="round" stroke-linejoin="round"/>
<path d="M12.5 3.29993V4.29993" stroke="white" stroke-width="1.5" stroke-linecap="round" stroke-linejoin="round"/>
<path d="M4 13H2.5C1.7 13 1 12.3 1 11.5V2.5C1 1.7 1.7 1 2.5 1H22C22.8 1 23.5 1.7 23.5 2.5V11.5C23.5 12.3 22.8 13 22 13H20.5" stroke="white" stroke-width="1.5" stroke-linecap="round" stroke-linejoin="round"/>
<path d="M13.8 13.7999V18.2999C13.8 19.0999 13.1 19.7999 12.3 19.7999C11.5 19.7999 10.8 19.0999 10.8 18.2999V13.7999H7V18.2999C7 21.1999 9.39998 23.5 12.2 23.5C15.1 23.5 17.4 21.0999 17.4 18.2999V13.7999H13.8Z" stroke="white" stroke-width="1.5" stroke-linecap="round" stroke-linejoin="round"/>
<path d="M7 16.7999H10.8" stroke="white" stroke-width="1.5" stroke-linecap="round" stroke-linejoin="round"/>
<path d="M13.8 16.7999H17.6001" stroke="white" stroke-width="1.5" stroke-linecap="round" stroke-linejoin="round"/>
</svg>
