<svg viewBox="0 0 25 25" fill="none" xmlns="http://www.w3.org/2000/svg">
<path d="M10.7378 2.63783C11.1378 3.03783 11.6378 3.23787 12.2378 3.23787C12.8378 3.23787 13.3378 3.03783 13.7378 2.63783L14.6378 1.63783C15.2378 1.03783 16.0378 0.837829 16.8378 1.13783C17.6378 1.43783 18.0378 2.23785 18.0378 3.03785L17.9378 4.43788C17.9378 5.03788 18.1378 5.53788 18.5378 5.93788C18.9378 6.33788 19.4378 6.53785 20.0378 6.53785L21.4378 6.43788C22.2378 6.43788 23.0378 6.83783 23.3378 7.63783C23.6378 8.43783 23.4378 9.23784 22.8378 9.83784L21.8378 10.7379C21.4378 11.1379 21.2378 11.6379 21.2378 12.2379C21.2378 12.8379 21.4378 13.3379 21.8378 13.7379L22.8378 14.6378C23.4378 15.2378 23.6378 16.0378 23.3378 16.8378C23.0378 17.6378 22.2378 18.0379 21.4378 18.0379L20.0378 17.9379C19.4378 17.9379 18.9378 18.1379 18.5378 18.5379C18.1378 18.9379 17.9378 19.4379 17.9378 20.0379L18.0378 21.4379C18.0378 22.2379 17.6378 23.0378 16.8378 23.3378C16.0378 23.6378 15.2378 23.4378 14.6378 22.8378L13.7378 21.8378C13.3378 21.4378 12.8378 21.2379 12.2378 21.2379C11.6378 21.2379 11.1378 21.4378 10.7378 21.8378L9.83783 22.8378C9.23783 23.4378 8.43781 23.6378 7.63781 23.3378C6.83781 23.0378 6.43783 22.2379 6.43783 21.4379L6.53784 20.0379C6.53784 19.4379 6.33783 18.9379 5.93783 18.5379C5.53783 18.1379 5.03783 17.9379 4.43783 17.9379L3.03782 18.0379C2.23782 18.0379 1.43783 17.6378 1.13783 16.8378C0.837829 16.0378 1.03783 15.2378 1.63783 14.6378L2.63783 13.7379C3.03783 13.3379 3.23782 12.8379 3.23782 12.2379C3.23782 11.6379 3.03783 11.1379 2.63783 10.7379L1.63783 9.83784C1.03783 9.23784 0.837829 8.43783 1.13783 7.63783C1.43783 6.83783 2.23782 6.43788 3.03782 6.43788L4.43783 6.53785C5.03783 6.53785 5.53783 6.33788 5.93783 5.93788C6.33783 5.53788 6.53784 5.03788 6.53784 4.43788L6.43783 3.03785C6.43783 2.23785 6.83781 1.43783 7.63781 1.13783C8.43781 0.837829 9.23783 1.03783 9.83783 1.63783L10.7378 2.63783Z" stroke="white" stroke-width="1.5" stroke-linecap="round" stroke-linejoin="round"/>
<path d="M6.93774 16.0378H18.1377" stroke="white" stroke-width="1.5" stroke-linecap="round" stroke-linejoin="round"/>
<path d="M7.73779 8.53784H10.7378V16.0378H7.73779V8.53784Z" stroke="white" stroke-width="1.5" stroke-linecap="round" stroke-linejoin="round"/>
<path d="M13.7378 11.5378H16.7378V16.0378H13.7378V11.5378Z" stroke="white" stroke-width="1.5" stroke-linecap="round" stroke-linejoin="round"/>
</svg>
