<svg xmlns="http://www.w3.org/2000/svg" viewBox="0 0 16 16"><defs><style>.cls-1{fill:#2f2256;}.cls-2{fill:#fff;}</style></defs><title>flavicon</title><g id="Слой_2" data-name="Слой 2"><g id="Слой_1-2" data-name="Слой 1"><rect class="cls-1" width="16" height="16" rx="2.47"/><path class="cls-2" d="M.73,11.8V4.22H2.07l2,3.48,2-3.48H7.41V11.8H6.14V6.44L4.07,10H4L2,6.46V11.8Z"/><path class="cls-2" d="M10.09,10.82h1.23a2.54,2.54,0,0,0,2-.81A3.12,3.12,0,0,0,14,7.92,2.7,2.7,0,0,0,13.29,6a2.66,2.66,0,0,0-2-.78H10.09ZM8.87,4.2h2.44a4,4,0,0,1,2.85,1,3.52,3.52,0,0,1,1.11,2.67,3.87,3.87,0,0,1-1,2.79,3.84,3.84,0,0,1-2.89,1.09H8.87Z"/></g></g></svg>