<svg width="1195" height="613" viewBox="0 0 1195 613" fill="none" xmlns="http://www.w3.org/2000/svg">
<g filter="url(#filter0_d_2_984)">
<path d="M178.362 137C146.614 137 119.056 155.091 105.269 181.562C101.779 188.263 95.5944 193.275 88.4138 195.623C60.8833 204.624 41.0007 230.614 41.0007 261.293C41.0007 299.41 71.7348 330.365 109.711 330.365H247.072C284.989 330.365 315.782 299.469 315.782 261.293C315.782 230.614 295.9 204.624 268.369 195.623C261.188 193.275 255.003 188.263 251.514 181.562C237.726 155.091 210.162 137 178.362 137Z" fill="white"/>
</g>
<g filter="url(#filter1_d_2_984)">
<path d="M599.362 41.0001C567.614 41.0001 540.056 59.0906 526.269 85.5624C522.779 92.2627 516.594 97.2751 509.414 99.6228C481.883 108.624 462.001 134.614 462.001 165.293C462.001 203.41 492.735 234.365 530.711 234.365H668.072C705.989 234.365 736.782 203.469 736.782 165.293C736.782 134.614 716.9 108.624 689.369 99.6228C682.188 97.2751 676.003 92.2627 672.514 85.5624C658.726 59.0906 631.162 41.0001 599.362 41.0001Z" fill="white"/>
</g>
<g filter="url(#filter2_d_2_984)">
<path d="M1016.36 138C984.614 138 957.056 156.091 943.269 182.562C939.779 189.263 933.594 194.275 926.414 196.623C898.883 205.624 879.001 231.614 879.001 262.293C879.001 300.41 909.735 331.365 947.711 331.365H1085.07C1122.99 331.365 1153.78 300.469 1153.78 262.293C1153.78 231.614 1133.9 205.624 1106.37 196.623C1099.19 194.275 1093 189.263 1089.51 182.562C1075.73 156.091 1048.16 138 1016.36 138Z" fill="white"/>
</g>
<g filter="url(#filter3_d_2_984)">
<path d="M810.362 378C778.614 378 751.056 396.091 737.269 422.562C733.779 429.263 727.594 434.275 720.414 436.623C692.883 445.624 673.001 471.614 673.001 502.293C673.001 540.41 703.735 571.365 741.711 571.365H879.072C916.989 571.365 947.782 540.469 947.782 502.293C947.782 471.614 927.9 445.624 900.369 436.623C893.188 434.275 887.003 429.263 883.514 422.562C869.726 396.091 842.162 378 810.362 378Z" fill="white"/>
</g>
<g filter="url(#filter4_d_2_984)">
<path d="M391.362 378C359.614 378 332.056 396.091 318.269 422.562C314.779 429.263 308.594 434.275 301.414 436.623C273.883 445.624 254.001 471.614 254.001 502.293C254.001 540.41 284.735 571.365 322.711 571.365H460.072C497.989 571.365 528.782 540.469 528.782 502.293C528.782 471.614 508.9 445.624 481.369 436.623C474.188 434.275 468.003 429.263 464.514 422.562C450.726 396.091 423.162 378 391.362 378Z" fill="white"/>
</g>
<path d="M115.858 263.024L121.71 249.629H123.876L129.728 263.024H127.258L125.909 259.813H119.62L118.252 263.024H115.858ZM120.475 257.742H125.054L122.755 252.422L120.475 257.742ZM131.743 263.024V252.992H134.042V254.55C134.84 253.372 135.885 252.783 137.177 252.783C138.291 252.783 139.165 253.132 139.799 253.828C140.432 254.525 140.749 255.462 140.749 256.64V263.024H138.45V257.324C138.45 256.539 138.26 255.937 137.88 255.519C137.512 255.089 136.987 254.873 136.303 254.873C135.631 254.873 135.087 255.095 134.669 255.538C134.251 255.982 134.042 256.59 134.042 257.362V263.024H131.743ZM151.942 263.024H149.662V261.789C148.851 262.752 147.768 263.233 146.413 263.233C145.412 263.233 144.564 262.961 143.867 262.416C143.183 261.859 142.841 261.086 142.841 260.098C142.841 259.022 143.215 258.205 143.962 257.647C144.709 257.09 145.691 256.811 146.907 256.811C147.882 256.811 148.807 256.951 149.681 257.229V257.039C149.681 256.343 149.466 255.811 149.035 255.443C148.617 255.076 148.009 254.892 147.211 254.892C146.299 254.892 145.343 255.101 144.342 255.519L143.715 253.676C144.956 253.119 146.229 252.84 147.534 252.84C148.991 252.84 150.086 253.208 150.821 253.942C151.568 254.677 151.942 255.722 151.942 257.077V263.024ZM149.719 259.395V258.825C149.035 258.559 148.269 258.426 147.42 258.426C146.698 258.426 146.134 258.566 145.729 258.844C145.324 259.123 145.121 259.516 145.121 260.022C145.121 260.478 145.305 260.839 145.672 261.105C146.039 261.371 146.502 261.504 147.059 261.504C147.832 261.504 148.465 261.308 148.959 260.915C149.466 260.523 149.719 260.016 149.719 259.395ZM154.809 263.024V249.154H157.108V263.024H154.809ZM162.165 266.121C161.329 266.121 160.537 265.919 159.79 265.513L160.569 263.803C161.037 264.057 161.487 264.183 161.918 264.183C162.247 264.183 162.519 264.095 162.735 263.917C162.95 263.753 163.153 263.455 163.343 263.024L159.163 252.992H161.614L164.464 260.44L167.067 252.992H169.461L165.471 263.309C165.065 264.335 164.616 265.057 164.122 265.475C163.628 265.906 162.975 266.121 162.165 266.121ZM170.975 263.024V261.447L176.77 254.873H171.184V252.992H179.696V254.569L173.901 261.143H179.696V263.024H170.975ZM186.383 263.252C184.913 263.252 183.685 262.765 182.697 261.789C181.721 260.814 181.234 259.554 181.234 258.008C181.234 256.552 181.696 255.317 182.621 254.303C183.545 253.29 184.717 252.783 186.136 252.783C187.656 252.783 188.834 253.303 189.67 254.341C190.518 255.367 190.943 256.647 190.943 258.179C190.943 258.458 190.93 258.673 190.905 258.825H183.533C183.659 259.623 183.982 260.25 184.502 260.706C185.021 261.15 185.661 261.371 186.421 261.371C187.409 261.371 188.314 260.972 189.138 260.174L190.487 261.371C189.448 262.625 188.08 263.252 186.383 263.252ZM183.514 257.305H188.663C188.587 256.533 188.327 255.899 187.884 255.405C187.44 254.911 186.851 254.664 186.117 254.664C185.42 254.664 184.837 254.911 184.369 255.405C183.9 255.887 183.615 256.52 183.514 257.305ZM201 266.121C200.164 266.121 199.372 265.919 198.625 265.513L199.404 263.803C199.872 264.057 200.322 264.183 200.753 264.183C201.082 264.183 201.354 264.095 201.57 263.917C201.785 263.753 201.988 263.455 202.178 263.024L197.998 252.992H200.449L203.299 260.44L205.902 252.992H208.296L204.306 263.309C203.9 264.335 203.451 265.057 202.957 265.475C202.463 265.906 201.81 266.121 201 266.121ZM214.46 263.252C212.94 263.252 211.673 262.746 210.66 261.732C209.647 260.719 209.14 259.484 209.14 258.027C209.14 256.571 209.653 255.336 210.679 254.322C211.705 253.296 212.978 252.783 214.498 252.783C216.018 252.783 217.285 253.29 218.298 254.303C219.324 255.317 219.837 256.558 219.837 258.027C219.837 259.471 219.324 260.706 218.298 261.732C217.272 262.746 215.993 263.252 214.46 263.252ZM214.498 261.257C215.41 261.257 216.145 260.947 216.702 260.326C217.259 259.706 217.538 258.939 217.538 258.027C217.538 257.128 217.247 256.368 216.664 255.747C216.081 255.114 215.347 254.797 214.46 254.797C213.561 254.797 212.832 255.108 212.275 255.728C211.718 256.349 211.439 257.115 211.439 258.027C211.439 258.914 211.73 259.674 212.313 260.307C212.896 260.941 213.624 261.257 214.498 261.257ZM225.636 263.233C224.522 263.233 223.648 262.885 223.014 262.188C222.381 261.492 222.064 260.554 222.064 259.376V252.992H224.363V258.692C224.363 259.478 224.547 260.086 224.914 260.516C225.294 260.934 225.826 261.143 226.51 261.143C227.182 261.143 227.726 260.922 228.144 260.478C228.562 260.035 228.771 259.427 228.771 258.654V252.992H231.07V263.024H228.771V261.466C227.973 262.644 226.928 263.233 225.636 263.233ZM233.96 263.024V252.992H236.259V255.253C236.969 253.543 238.153 252.726 239.812 252.802V255.234H239.679C238.641 255.234 237.811 255.576 237.19 256.26C236.57 256.932 236.259 257.913 236.259 259.205V263.024H233.96ZM112.895 287.233C111.514 287.233 110.38 286.644 109.494 285.466V287.024H107.195V273.154H109.494V278.664C110.38 277.41 111.514 276.783 112.895 276.783C114.161 276.783 115.257 277.258 116.182 278.208C117.106 279.146 117.569 280.419 117.569 282.027C117.569 283.611 117.106 284.877 116.182 285.827C115.257 286.765 114.161 287.233 112.895 287.233ZM112.363 285.238C113.173 285.238 113.851 284.941 114.396 284.345C114.953 283.75 115.232 282.965 115.232 281.989C115.232 281.039 114.953 280.267 114.396 279.671C113.838 279.076 113.161 278.778 112.363 278.778C111.565 278.778 110.874 279.082 110.292 279.69C109.722 280.298 109.437 281.077 109.437 282.027C109.437 282.965 109.722 283.737 110.292 284.345C110.874 284.941 111.565 285.238 112.363 285.238ZM123.381 287.233C122.267 287.233 121.393 286.885 120.759 286.188C120.126 285.492 119.809 284.554 119.809 283.376V276.992H122.108V282.692C122.108 283.478 122.292 284.086 122.659 284.516C123.039 284.934 123.571 285.143 124.255 285.143C124.927 285.143 125.471 284.922 125.889 284.478C126.307 284.035 126.516 283.427 126.516 282.654V276.992H128.815V287.024H126.516V285.466C125.718 286.644 124.673 287.233 123.381 287.233ZM135.145 287.214C133.574 287.214 132.155 286.714 130.889 285.713L131.915 284.155C133.004 284.979 134.1 285.39 135.202 285.39C135.696 285.39 136.076 285.295 136.342 285.105C136.62 284.903 136.76 284.624 136.76 284.269C136.76 284.092 136.709 283.94 136.608 283.813C136.519 283.674 136.354 283.547 136.114 283.433C135.873 283.319 135.67 283.237 135.506 283.186C135.341 283.136 135.069 283.053 134.689 282.939L134.518 282.882C134.163 282.781 133.859 282.686 133.606 282.597C133.365 282.496 133.093 282.363 132.789 282.198C132.485 282.034 132.238 281.856 132.048 281.666C131.858 281.464 131.699 281.21 131.573 280.906C131.446 280.602 131.383 280.26 131.383 279.88C131.383 278.956 131.718 278.215 132.39 277.657C133.074 277.1 133.929 276.821 134.955 276.821C136.259 276.821 137.488 277.201 138.641 277.961L137.729 279.595C136.69 278.962 135.746 278.645 134.898 278.645C134.454 278.645 134.106 278.74 133.853 278.93C133.612 279.12 133.492 279.374 133.492 279.69C133.492 279.906 133.599 280.102 133.815 280.279C134.043 280.457 134.264 280.59 134.48 280.678C134.708 280.754 135.069 280.875 135.563 281.039C135.588 281.052 135.62 281.065 135.658 281.077C135.696 281.09 135.727 281.096 135.753 281.096C136.196 281.236 136.57 281.375 136.874 281.514C137.178 281.641 137.494 281.818 137.824 282.046C138.166 282.274 138.425 282.559 138.603 282.901C138.78 283.231 138.869 283.617 138.869 284.06C138.869 285.074 138.52 285.853 137.824 286.397C137.127 286.942 136.234 287.214 135.145 287.214ZM141.244 275.453V273.268H143.714V275.453H141.244ZM141.339 287.024V276.992H143.638V287.024H141.339ZM146.642 287.024V276.992H148.941V278.55C149.739 277.372 150.784 276.783 152.076 276.783C153.191 276.783 154.065 277.132 154.698 277.828C155.331 278.525 155.648 279.462 155.648 280.64V287.024H153.349V281.324C153.349 280.539 153.159 279.937 152.779 279.519C152.412 279.089 151.886 278.873 151.202 278.873C150.531 278.873 149.986 279.095 149.568 279.538C149.15 279.982 148.941 280.59 148.941 281.362V287.024H146.642ZM163.022 287.252C161.553 287.252 160.324 286.765 159.336 285.789C158.361 284.814 157.873 283.554 157.873 282.008C157.873 280.552 158.336 279.317 159.26 278.303C160.185 277.29 161.357 276.783 162.775 276.783C164.295 276.783 165.473 277.303 166.309 278.341C167.158 279.367 167.582 280.647 167.582 282.179C167.582 282.458 167.57 282.673 167.544 282.825H160.172C160.299 283.623 160.622 284.25 161.141 284.706C161.661 285.15 162.3 285.371 163.06 285.371C164.048 285.371 164.954 284.972 165.777 284.174L167.126 285.371C166.088 286.625 164.72 287.252 163.022 287.252ZM160.153 281.305H165.302C165.226 280.533 164.967 279.899 164.523 279.405C164.08 278.911 163.491 278.664 162.756 278.664C162.06 278.664 161.477 278.911 161.008 279.405C160.54 279.887 160.255 280.52 160.153 281.305ZM173.33 287.214C171.759 287.214 170.341 286.714 169.074 285.713L170.1 284.155C171.189 284.979 172.285 285.39 173.387 285.39C173.881 285.39 174.261 285.295 174.527 285.105C174.806 284.903 174.945 284.624 174.945 284.269C174.945 284.092 174.894 283.94 174.793 283.813C174.704 283.674 174.54 283.547 174.299 283.433C174.058 283.319 173.856 283.237 173.691 283.186C173.526 283.136 173.254 283.053 172.874 282.939L172.703 282.882C172.348 282.781 172.044 282.686 171.791 282.597C171.55 282.496 171.278 282.363 170.974 282.198C170.67 282.034 170.423 281.856 170.233 281.666C170.043 281.464 169.885 281.21 169.758 280.906C169.631 280.602 169.568 280.26 169.568 279.88C169.568 278.956 169.904 278.215 170.575 277.657C171.259 277.1 172.114 276.821 173.14 276.821C174.445 276.821 175.673 277.201 176.826 277.961L175.914 279.595C174.875 278.962 173.932 278.645 173.083 278.645C172.64 278.645 172.291 278.74 172.038 278.93C171.797 279.12 171.677 279.374 171.677 279.69C171.677 279.906 171.785 280.102 172 280.279C172.228 280.457 172.45 280.59 172.665 280.678C172.893 280.754 173.254 280.875 173.748 281.039C173.773 281.052 173.805 281.065 173.843 281.077C173.881 281.09 173.913 281.096 173.938 281.096C174.381 281.236 174.755 281.375 175.059 281.514C175.363 281.641 175.68 281.818 176.009 282.046C176.351 282.274 176.611 282.559 176.788 282.901C176.965 283.231 177.054 283.617 177.054 284.06C177.054 285.074 176.706 285.853 176.009 286.397C175.312 286.942 174.419 287.214 173.33 287.214ZM182.645 287.214C181.074 287.214 179.655 286.714 178.389 285.713L179.415 284.155C180.504 284.979 181.6 285.39 182.702 285.39C183.196 285.39 183.576 285.295 183.842 285.105C184.12 284.903 184.26 284.624 184.26 284.269C184.26 284.092 184.209 283.94 184.108 283.813C184.019 283.674 183.854 283.547 183.614 283.433C183.373 283.319 183.17 283.237 183.006 283.186C182.841 283.136 182.569 283.053 182.189 282.939L182.018 282.882C181.663 282.781 181.359 282.686 181.106 282.597C180.865 282.496 180.593 282.363 180.289 282.198C179.985 282.034 179.738 281.856 179.548 281.666C179.358 281.464 179.199 281.21 179.073 280.906C178.946 280.602 178.883 280.26 178.883 279.88C178.883 278.956 179.218 278.215 179.89 277.657C180.574 277.1 181.429 276.821 182.455 276.821C183.759 276.821 184.988 277.201 186.141 277.961L185.229 279.595C184.19 278.962 183.246 278.645 182.398 278.645C181.954 278.645 181.606 278.74 181.353 278.93C181.112 279.12 180.992 279.374 180.992 279.69C180.992 279.906 181.099 280.102 181.315 280.279C181.543 280.457 181.764 280.59 181.98 280.678C182.208 280.754 182.569 280.875 183.063 281.039C183.088 281.052 183.12 281.065 183.158 281.077C183.196 281.09 183.227 281.096 183.253 281.096C183.696 281.236 184.07 281.375 184.374 281.514C184.678 281.641 184.994 281.818 185.324 282.046C185.666 282.274 185.925 282.559 186.103 282.901C186.28 283.231 186.369 283.617 186.369 284.06C186.369 285.074 186.02 285.853 185.324 286.397C184.627 286.942 183.734 287.214 182.645 287.214ZM194.402 287.024V276.992H196.701V278.55C197.499 277.372 198.544 276.783 199.836 276.783C200.951 276.783 201.825 277.132 202.458 277.828C203.091 278.525 203.408 279.462 203.408 280.64V287.024H201.109V281.324C201.109 280.539 200.919 279.937 200.539 279.519C200.172 279.089 199.646 278.873 198.962 278.873C198.291 278.873 197.746 279.095 197.328 279.538C196.91 279.982 196.701 280.59 196.701 281.362V287.024H194.402ZM210.782 287.252C209.313 287.252 208.084 286.765 207.096 285.789C206.121 284.814 205.633 283.554 205.633 282.008C205.633 280.552 206.095 279.317 207.02 278.303C207.945 277.29 209.116 276.783 210.535 276.783C212.055 276.783 213.233 277.303 214.069 278.341C214.918 279.367 215.342 280.647 215.342 282.179C215.342 282.458 215.329 282.673 215.304 282.825H207.932C208.059 283.623 208.382 284.25 208.901 284.706C209.42 285.15 210.06 285.371 210.82 285.371C211.808 285.371 212.714 284.972 213.537 284.174L214.886 285.371C213.847 286.625 212.479 287.252 210.782 287.252ZM207.913 281.305H213.062C212.986 280.533 212.726 279.899 212.283 279.405C211.84 278.911 211.251 278.664 210.516 278.664C209.819 278.664 209.237 278.911 208.768 279.405C208.299 279.887 208.014 280.52 207.913 281.305ZM222.249 287.252C220.78 287.252 219.551 286.765 218.563 285.789C217.588 284.814 217.1 283.554 217.1 282.008C217.1 280.552 217.562 279.317 218.487 278.303C219.412 277.29 220.583 276.783 222.002 276.783C223.522 276.783 224.7 277.303 225.536 278.341C226.385 279.367 226.809 280.647 226.809 282.179C226.809 282.458 226.796 282.673 226.771 282.825H219.399C219.526 283.623 219.849 284.25 220.368 284.706C220.887 285.15 221.527 285.371 222.287 285.371C223.275 285.371 224.181 284.972 225.004 284.174L226.353 285.371C225.314 286.625 223.946 287.252 222.249 287.252ZM219.38 281.305H224.529C224.453 280.533 224.193 279.899 223.75 279.405C223.307 278.911 222.718 278.664 221.983 278.664C221.286 278.664 220.704 278.911 220.235 279.405C219.766 279.887 219.481 280.52 219.38 281.305ZM233.26 287.233C232.006 287.233 230.916 286.765 229.992 285.827C229.067 284.877 228.605 283.598 228.605 281.989C228.605 280.393 229.061 279.127 229.973 278.189C230.897 277.252 231.993 276.783 233.26 276.783C234.628 276.783 235.768 277.372 236.68 278.55V273.154H238.979V287.024H236.68V285.352C235.793 286.606 234.653 287.233 233.26 287.233ZM231.759 284.345C232.329 284.941 233.013 285.238 233.811 285.238C234.609 285.238 235.293 284.934 235.863 284.326C236.433 283.718 236.718 282.939 236.718 281.989C236.718 281.052 236.433 280.286 235.863 279.69C235.293 279.082 234.609 278.778 233.811 278.778C233 278.778 232.316 279.076 231.759 279.671C231.201 280.254 230.923 281.039 230.923 282.027C230.923 282.977 231.201 283.75 231.759 284.345ZM245.285 287.214C243.715 287.214 242.296 286.714 241.029 285.713L242.055 284.155C243.145 284.979 244.24 285.39 245.342 285.39C245.836 285.39 246.216 285.295 246.482 285.105C246.761 284.903 246.9 284.624 246.9 284.269C246.9 284.092 246.85 283.94 246.748 283.813C246.66 283.674 246.495 283.547 246.254 283.433C246.014 283.319 245.811 283.237 245.646 283.186C245.482 283.136 245.209 283.053 244.829 282.939L244.658 282.882C244.304 282.781 244 282.686 243.746 282.597C243.506 282.496 243.233 282.363 242.929 282.198C242.625 282.034 242.378 281.856 242.188 281.666C241.998 281.464 241.84 281.21 241.713 280.906C241.587 280.602 241.523 280.26 241.523 279.88C241.523 278.956 241.859 278.215 242.53 277.657C243.214 277.1 244.069 276.821 245.095 276.821C246.4 276.821 247.629 277.201 248.781 277.961L247.869 279.595C246.831 278.962 245.887 278.645 245.038 278.645C244.595 278.645 244.247 278.74 243.993 278.93C243.753 279.12 243.632 279.374 243.632 279.69C243.632 279.906 243.74 280.102 243.955 280.279C244.183 280.457 244.405 280.59 244.62 280.678C244.848 280.754 245.209 280.875 245.703 281.039C245.729 281.052 245.76 281.065 245.798 281.077C245.836 281.09 245.868 281.096 245.893 281.096C246.337 281.236 246.71 281.375 247.014 281.514C247.318 281.641 247.635 281.818 247.964 282.046C248.306 282.274 248.566 282.559 248.743 282.901C248.921 283.231 249.009 283.617 249.009 284.06C249.009 285.074 248.661 285.853 247.964 286.397C247.268 286.942 246.375 287.214 245.285 287.214Z" fill="#2F035B"/>
<path d="M534.076 165.696C531.96 165.696 530.111 164.986 528.528 163.568L529.934 161.896C531.264 163.048 532.663 163.625 534.133 163.625C534.855 163.625 535.425 163.473 535.843 163.169C536.273 162.852 536.489 162.434 536.489 161.915C536.489 161.421 536.286 161.028 535.881 160.737C535.475 160.433 534.677 160.141 533.487 159.863C531.941 159.495 530.814 159.033 530.105 158.476C529.408 157.906 529.06 157.038 529.06 155.873C529.06 154.733 529.484 153.808 530.333 153.099C531.181 152.377 532.271 152.016 533.601 152.016C535.425 152.016 537.033 152.573 538.427 153.688L537.173 155.455C535.944 154.543 534.741 154.087 533.563 154.087C532.891 154.087 532.359 154.239 531.967 154.543C531.587 154.847 531.397 155.233 531.397 155.702C531.397 156.221 531.606 156.626 532.024 156.918C532.454 157.196 533.297 157.488 534.551 157.792C536.02 158.146 537.097 158.621 537.781 159.217C538.477 159.812 538.826 160.648 538.826 161.725C538.826 162.953 538.389 163.922 537.515 164.632C536.641 165.341 535.494 165.696 534.076 165.696ZM541.308 168.546V155.474H543.607V157.146C544.494 155.892 545.627 155.265 547.008 155.265C548.275 155.265 549.37 155.74 550.295 156.69C551.22 157.627 551.682 158.9 551.682 160.509C551.682 162.092 551.22 163.359 550.295 164.309C549.37 165.246 548.275 165.715 547.008 165.715C545.627 165.715 544.494 165.126 543.607 163.948V168.546H541.308ZM546.476 163.72C547.287 163.72 547.964 163.422 548.509 162.827C549.066 162.231 549.345 161.446 549.345 160.471C549.345 159.521 549.066 158.748 548.509 158.153C547.952 157.557 547.274 157.26 546.476 157.26C545.678 157.26 544.988 157.564 544.405 158.172C543.835 158.78 543.55 159.559 543.55 160.509C543.55 161.446 543.835 162.219 544.405 162.827C544.988 163.422 545.678 163.72 546.476 163.72ZM558.635 165.734C557.165 165.734 555.937 165.246 554.949 164.271C553.973 163.295 553.486 162.035 553.486 160.49C553.486 159.033 553.948 157.798 554.873 156.785C555.797 155.771 556.969 155.265 558.388 155.265C559.908 155.265 561.086 155.784 561.922 156.823C562.77 157.849 563.195 159.128 563.195 160.661C563.195 160.939 563.182 161.155 563.157 161.307H555.785C555.911 162.105 556.234 162.732 556.754 163.188C557.273 163.631 557.913 163.853 558.673 163.853C559.661 163.853 560.566 163.454 561.39 162.656L562.739 163.853C561.7 165.107 560.332 165.734 558.635 165.734ZM555.766 159.787H560.915C560.839 159.014 560.579 158.381 560.136 157.887C559.692 157.393 559.103 157.146 558.369 157.146C557.672 157.146 557.089 157.393 556.621 157.887C556.152 158.368 555.867 159.001 555.766 159.787ZM570.139 165.734C568.657 165.734 567.422 165.227 566.434 164.214C565.446 163.2 564.952 161.965 564.952 160.509C564.952 159.065 565.446 157.83 566.434 156.804C567.435 155.778 568.676 155.265 570.158 155.265C571.78 155.265 573.116 155.841 574.167 156.994L572.742 158.533C571.944 157.697 571.077 157.279 570.139 157.279C569.316 157.279 568.626 157.595 568.068 158.229C567.524 158.849 567.251 159.609 567.251 160.509C567.251 161.421 567.53 162.187 568.087 162.808C568.657 163.428 569.379 163.739 570.253 163.739C571.178 163.739 572.046 163.321 572.856 162.485L574.243 163.853C573.699 164.461 573.103 164.929 572.457 165.259C571.824 165.575 571.051 165.734 570.139 165.734ZM576.396 153.935V151.75H578.866V153.935H576.396ZM576.491 165.506V155.474H578.79V165.506H576.491ZM582.307 165.506V157.45H581.034V155.531H582.307V154.809C582.307 153.694 582.58 152.864 583.124 152.32C583.656 151.788 584.41 151.522 585.385 151.522C586.031 151.522 586.652 151.61 587.247 151.788V153.726C586.753 153.561 586.304 153.479 585.898 153.479C585.012 153.479 584.568 153.985 584.568 154.999V155.55H587.228V157.45H584.606V165.506H582.307ZM590.99 168.603C590.154 168.603 589.362 168.4 588.615 167.995L589.394 166.285C589.863 166.538 590.312 166.665 590.743 166.665C591.072 166.665 591.345 166.576 591.56 166.399C591.775 166.234 591.978 165.936 592.168 165.506L587.988 155.474H590.439L593.289 162.922L595.892 155.474H598.286L594.296 165.791C593.891 166.817 593.441 167.539 592.947 167.957C592.453 168.387 591.801 168.603 590.99 168.603ZM605.953 168.546V155.474H608.252V157.146C609.138 155.892 610.272 155.265 611.653 155.265C612.919 155.265 614.015 155.74 614.94 156.69C615.864 157.627 616.327 158.9 616.327 160.509C616.327 162.092 615.864 163.359 614.94 164.309C614.015 165.246 612.919 165.715 611.653 165.715C610.272 165.715 609.138 165.126 608.252 163.948V168.546H605.953ZM611.121 163.72C611.931 163.72 612.609 163.422 613.154 162.827C613.711 162.231 613.99 161.446 613.99 160.471C613.99 159.521 613.711 158.748 613.154 158.153C612.596 157.557 611.919 157.26 611.121 157.26C610.323 157.26 609.632 157.564 609.05 158.172C608.48 158.78 608.195 159.559 608.195 160.509C608.195 161.446 608.48 162.219 609.05 162.827C609.632 163.422 610.323 163.72 611.121 163.72ZM618.681 165.506V155.474H620.98V157.735C621.69 156.025 622.874 155.208 624.533 155.284V157.716H624.4C623.362 157.716 622.532 158.058 621.911 158.742C621.291 159.413 620.98 160.395 620.98 161.687V165.506H618.681ZM630.965 165.734C629.445 165.734 628.178 165.227 627.165 164.214C626.151 163.2 625.645 161.965 625.645 160.509C625.645 159.052 626.158 157.817 627.184 156.804C628.21 155.778 629.483 155.265 631.003 155.265C632.523 155.265 633.789 155.771 634.803 156.785C635.829 157.798 636.342 159.039 636.342 160.509C636.342 161.953 635.829 163.188 634.803 164.214C633.777 165.227 632.497 165.734 630.965 165.734ZM631.003 163.739C631.915 163.739 632.649 163.428 633.207 162.808C633.764 162.187 634.043 161.421 634.043 160.509C634.043 159.609 633.751 158.849 633.169 158.229C632.586 157.595 631.851 157.279 630.965 157.279C630.065 157.279 629.337 157.589 628.78 158.21C628.222 158.83 627.944 159.597 627.944 160.509C627.944 161.395 628.235 162.155 628.818 162.789C629.4 163.422 630.129 163.739 631.003 163.739ZM638.721 153.935V151.75H641.191V153.935H638.721ZM638.189 168.603C637.86 168.603 637.492 168.571 637.087 168.508V166.665C637.315 166.703 637.53 166.722 637.733 166.722C638.455 166.722 638.816 166.316 638.816 165.506V155.474H641.115V165.639C641.115 167.615 640.14 168.603 638.189 168.603ZM648.718 165.734C647.248 165.734 646.02 165.246 645.032 164.271C644.056 163.295 643.569 162.035 643.569 160.49C643.569 159.033 644.031 157.798 644.956 156.785C645.88 155.771 647.052 155.265 648.471 155.265C649.991 155.265 651.169 155.784 652.005 156.823C652.853 157.849 653.278 159.128 653.278 160.661C653.278 160.939 653.265 161.155 653.24 161.307H645.868C645.994 162.105 646.317 162.732 646.837 163.188C647.356 163.631 647.996 163.853 648.756 163.853C649.744 163.853 650.649 163.454 651.473 162.656L652.822 163.853C651.783 165.107 650.415 165.734 648.718 165.734ZM645.849 159.787H650.998C650.922 159.014 650.662 158.381 650.219 157.887C649.775 157.393 649.186 157.146 648.452 157.146C647.755 157.146 647.172 157.393 646.704 157.887C646.235 158.368 645.95 159.001 645.849 159.787ZM660.222 165.734C658.74 165.734 657.505 165.227 656.517 164.214C655.529 163.2 655.035 161.965 655.035 160.509C655.035 159.065 655.529 157.83 656.517 156.804C657.518 155.778 658.759 155.265 660.241 155.265C661.863 155.265 663.199 155.841 664.25 156.994L662.825 158.533C662.027 157.697 661.16 157.279 660.222 157.279C659.399 157.279 658.709 157.595 658.151 158.229C657.607 158.849 657.334 159.609 657.334 160.509C657.334 161.421 657.613 162.187 658.17 162.808C658.74 163.428 659.462 163.739 660.336 163.739C661.261 163.739 662.129 163.321 662.939 162.485L664.326 163.853C663.782 164.461 663.186 164.929 662.54 165.259C661.907 165.575 661.134 165.734 660.222 165.734ZM669.804 165.677C667.879 165.677 666.916 164.695 666.916 162.732V157.45H665.643V155.474H666.916V152.719H669.215V155.474H671.913V157.45H669.215V162.371C669.215 163.207 669.627 163.625 670.45 163.625C670.944 163.625 671.419 163.511 671.875 163.283V165.164C671.267 165.506 670.577 165.677 669.804 165.677ZM538.441 189.506V179.474H540.74V181.735C541.45 180.025 542.634 179.208 544.293 179.284V181.716H544.16C543.122 181.716 542.292 182.058 541.671 182.742C541.051 183.413 540.74 184.395 540.74 185.687V189.506H538.441ZM550.554 189.734C549.085 189.734 547.856 189.246 546.868 188.271C545.893 187.295 545.405 186.035 545.405 184.49C545.405 183.033 545.867 181.798 546.792 180.785C547.717 179.771 548.888 179.265 550.307 179.265C551.827 179.265 553.005 179.784 553.841 180.823C554.69 181.849 555.114 183.128 555.114 184.661C555.114 184.939 555.101 185.155 555.076 185.307H547.704C547.831 186.105 548.154 186.732 548.673 187.188C549.192 187.631 549.832 187.853 550.592 187.853C551.58 187.853 552.486 187.454 553.309 186.656L554.658 187.853C553.619 189.107 552.251 189.734 550.554 189.734ZM547.685 183.787H552.834C552.758 183.014 552.498 182.381 552.055 181.887C551.612 181.393 551.023 181.146 550.288 181.146C549.591 181.146 549.009 181.393 548.54 181.887C548.071 182.368 547.786 183.001 547.685 183.787ZM564.985 192.546V187.834C564.098 189.088 562.958 189.715 561.565 189.715C560.311 189.715 559.222 189.246 558.297 188.309C557.372 187.359 556.91 186.079 556.91 184.471C556.91 182.875 557.366 181.608 558.278 180.671C559.203 179.733 560.298 179.265 561.565 179.265C562.933 179.265 564.073 179.854 564.985 181.032V179.474H567.284V192.546H564.985ZM560.064 186.827C560.634 187.422 561.318 187.72 562.116 187.72C562.914 187.72 563.598 187.416 564.168 186.808C564.738 186.2 565.023 185.421 565.023 184.471C565.023 183.533 564.738 182.767 564.168 182.172C563.598 181.564 562.914 181.26 562.116 181.26C561.305 181.26 560.621 181.557 560.064 182.153C559.507 182.735 559.228 183.521 559.228 184.509C559.228 185.459 559.507 186.231 560.064 186.827ZM573.609 189.715C572.495 189.715 571.621 189.366 570.987 188.67C570.354 187.973 570.037 187.036 570.037 185.858V179.474H572.336V185.174C572.336 185.959 572.52 186.567 572.887 186.998C573.267 187.416 573.799 187.625 574.483 187.625C575.155 187.625 575.699 187.403 576.117 186.96C576.535 186.516 576.744 185.908 576.744 185.136V179.474H579.043V189.506H576.744V187.948C575.946 189.126 574.901 189.715 573.609 189.715ZM581.972 177.935V175.75H584.442V177.935H581.972ZM582.067 189.506V179.474H584.366V189.506H582.067ZM587.37 189.506V179.474H589.669V181.735C590.378 180.025 591.563 179.208 593.222 179.284V181.716H593.089C592.05 181.716 591.221 182.058 590.6 182.742C589.979 183.413 589.669 184.395 589.669 185.687V189.506H587.37ZM599.483 189.734C598.013 189.734 596.785 189.246 595.797 188.271C594.821 187.295 594.334 186.035 594.334 184.49C594.334 183.033 594.796 181.798 595.721 180.785C596.645 179.771 597.817 179.265 599.236 179.265C600.756 179.265 601.934 179.784 602.77 180.823C603.618 181.849 604.043 183.128 604.043 184.661C604.043 184.939 604.03 185.155 604.005 185.307H596.633C596.759 186.105 597.082 186.732 597.602 187.188C598.121 187.631 598.761 187.853 599.521 187.853C600.509 187.853 601.414 187.454 602.238 186.656L603.587 187.853C602.548 189.107 601.18 189.734 599.483 189.734ZM596.614 183.787H601.763C601.687 183.014 601.427 182.381 600.984 181.887C600.54 181.393 599.951 181.146 599.217 181.146C598.52 181.146 597.937 181.393 597.469 181.887C597 182.368 596.715 183.001 596.614 183.787ZM606.352 189.506V179.474H608.651V180.994C609.487 179.841 610.506 179.265 611.71 179.265C613.103 179.265 614.097 179.854 614.693 181.032C615.592 179.854 616.726 179.265 618.094 179.265C619.196 179.265 620.057 179.6 620.678 180.272C621.298 180.943 621.609 181.887 621.609 183.103V189.506H619.31V183.806C619.31 183.008 619.132 182.4 618.778 181.982C618.423 181.564 617.923 181.355 617.277 181.355C616.631 181.355 616.111 181.576 615.719 182.02C615.326 182.45 615.13 183.058 615.13 183.844V189.506H612.831V183.787C612.831 183.014 612.653 182.419 612.299 182.001C611.944 181.57 611.444 181.355 610.798 181.355C610.152 181.355 609.632 181.583 609.24 182.039C608.847 182.482 608.651 183.09 608.651 183.863V189.506H606.352ZM629.003 189.734C627.534 189.734 626.305 189.246 625.317 188.271C624.342 187.295 623.854 186.035 623.854 184.49C623.854 183.033 624.317 181.798 625.241 180.785C626.166 179.771 627.338 179.265 628.756 179.265C630.276 179.265 631.454 179.784 632.29 180.823C633.139 181.849 633.563 183.128 633.563 184.661C633.563 184.939 633.551 185.155 633.525 185.307H626.153C626.28 186.105 626.603 186.732 627.122 187.188C627.642 187.631 628.281 187.853 629.041 187.853C630.029 187.853 630.935 187.454 631.758 186.656L633.107 187.853C632.069 189.107 630.701 189.734 629.003 189.734ZM626.134 183.787H631.283C631.207 183.014 630.948 182.381 630.504 181.887C630.061 181.393 629.472 181.146 628.737 181.146C628.041 181.146 627.458 181.393 626.989 181.887C626.521 182.368 626.236 183.001 626.134 183.787ZM635.872 189.506V179.474H638.171V181.032C638.969 179.854 640.014 179.265 641.306 179.265C642.421 179.265 643.295 179.613 643.928 180.31C644.561 181.006 644.878 181.944 644.878 183.122V189.506H642.579V183.806C642.579 183.02 642.389 182.419 642.009 182.001C641.642 181.57 641.116 181.355 640.432 181.355C639.761 181.355 639.216 181.576 638.798 182.02C638.38 182.463 638.171 183.071 638.171 183.844V189.506H635.872ZM651.017 189.677C649.092 189.677 648.129 188.695 648.129 186.732V181.45H646.856V179.474H648.129V176.719H650.428V179.474H653.126V181.45H650.428V186.371C650.428 187.207 650.84 187.625 651.663 187.625C652.157 187.625 652.632 187.511 653.088 187.283V189.164C652.48 189.506 651.79 189.677 651.017 189.677ZM658.886 189.696C657.316 189.696 655.897 189.195 654.63 188.195L655.656 186.637C656.746 187.46 657.841 187.872 658.943 187.872C659.437 187.872 659.817 187.777 660.083 187.587C660.362 187.384 660.501 187.105 660.501 186.751C660.501 186.573 660.451 186.421 660.349 186.295C660.261 186.155 660.096 186.029 659.855 185.915C659.615 185.801 659.412 185.718 659.247 185.668C659.083 185.617 658.81 185.535 658.43 185.421L658.259 185.364C657.905 185.262 657.601 185.167 657.347 185.079C657.107 184.977 656.834 184.844 656.53 184.68C656.226 184.515 655.979 184.338 655.789 184.148C655.599 183.945 655.441 183.692 655.314 183.388C655.188 183.084 655.124 182.742 655.124 182.362C655.124 181.437 655.46 180.696 656.131 180.139C656.815 179.581 657.67 179.303 658.696 179.303C660.001 179.303 661.23 179.683 662.382 180.443L661.47 182.077C660.432 181.443 659.488 181.127 658.639 181.127C658.196 181.127 657.848 181.222 657.594 181.412C657.354 181.602 657.233 181.855 657.233 182.172C657.233 182.387 657.341 182.583 657.556 182.761C657.784 182.938 658.006 183.071 658.221 183.16C658.449 183.236 658.81 183.356 659.304 183.521C659.33 183.533 659.361 183.546 659.399 183.559C659.437 183.571 659.469 183.578 659.494 183.578C659.938 183.717 660.311 183.856 660.615 183.996C660.919 184.122 661.236 184.3 661.565 184.528C661.907 184.756 662.167 185.041 662.344 185.383C662.522 185.712 662.61 186.098 662.61 186.542C662.61 187.555 662.262 188.334 661.565 188.879C660.869 189.423 659.976 189.696 658.886 189.696Z" fill="#2F035B"/>
<path d="M747.081 507.228C745.029 507.228 743.364 506.582 742.084 505.29C740.818 503.985 740.184 502.339 740.184 500.35C740.184 498.45 740.83 496.829 742.122 495.486C743.427 494.143 745.067 493.472 747.043 493.472C748.158 493.472 749.108 493.624 749.893 493.928C750.679 494.219 751.432 494.669 752.154 495.277L750.672 497.044C750.115 496.563 749.551 496.208 748.981 495.98C748.424 495.739 747.746 495.619 746.948 495.619C745.732 495.619 744.706 496.081 743.87 497.006C743.047 497.931 742.635 499.045 742.635 500.35C742.635 501.731 743.053 502.871 743.889 503.77C744.725 504.657 745.815 505.1 747.157 505.1C748.399 505.1 749.469 504.764 750.368 504.093V501.604H746.967V499.571H752.629V505.157C751.021 506.538 749.171 507.228 747.081 507.228ZM760.005 507.228C758.535 507.228 757.307 506.74 756.319 505.765C755.343 504.79 754.856 503.529 754.856 501.984C754.856 500.527 755.318 499.292 756.243 498.279C757.167 497.266 758.339 496.759 759.758 496.759C761.278 496.759 762.456 497.278 763.292 498.317C764.14 499.343 764.565 500.622 764.565 502.155C764.565 502.434 764.552 502.649 764.527 502.801H757.155C757.281 503.599 757.604 504.226 758.124 504.682C758.643 505.125 759.283 505.347 760.043 505.347C761.031 505.347 761.936 504.948 762.76 504.15L764.109 505.347C763.07 506.601 761.702 507.228 760.005 507.228ZM757.136 501.281H762.285C762.209 500.508 761.949 499.875 761.506 499.381C761.062 498.887 760.473 498.64 759.739 498.64C759.042 498.64 758.459 498.887 757.991 499.381C757.522 499.862 757.237 500.496 757.136 501.281ZM770.236 507.171C768.311 507.171 767.348 506.189 767.348 504.226V498.944H766.075V496.968H767.348V494.213H769.647V496.968H772.345V498.944H769.647V503.865C769.647 504.701 770.059 505.119 770.882 505.119C771.376 505.119 771.851 505.005 772.307 504.777V506.658C771.699 507 771.009 507.171 770.236 507.171ZM783.726 507.171C781.8 507.171 780.838 506.189 780.838 504.226V498.944H779.565V496.968H780.838V494.213H783.137V496.968H785.835V498.944H783.137V503.865C783.137 504.701 783.548 505.119 784.372 505.119C784.866 505.119 785.341 505.005 785.797 504.777V506.658C785.189 507 784.498 507.171 783.726 507.171ZM788.156 507V493.13H790.455V498.526C791.253 497.348 792.298 496.759 793.59 496.759C794.704 496.759 795.578 497.107 796.212 497.804C796.845 498.501 797.162 499.438 797.162 500.616V507H794.863V501.3C794.863 500.515 794.673 499.913 794.293 499.495C793.925 499.064 793.4 498.849 792.716 498.849C792.044 498.849 791.5 499.071 791.082 499.514C790.664 499.957 790.455 500.565 790.455 501.338V507H788.156ZM804.536 507.228C803.067 507.228 801.838 506.74 800.85 505.765C799.875 504.79 799.387 503.529 799.387 501.984C799.387 500.527 799.849 499.292 800.774 498.279C801.699 497.266 802.87 496.759 804.289 496.759C805.809 496.759 806.987 497.278 807.823 498.317C808.672 499.343 809.096 500.622 809.096 502.155C809.096 502.434 809.083 502.649 809.058 502.801H801.686C801.813 503.599 802.136 504.226 802.655 504.682C803.174 505.125 803.814 505.347 804.574 505.347C805.562 505.347 806.468 504.948 807.291 504.15L808.64 505.347C807.601 506.601 806.233 507.228 804.536 507.228ZM801.667 501.281H806.816C806.74 500.508 806.48 499.875 806.037 499.381C805.594 498.887 805.005 498.64 804.27 498.64C803.573 498.64 802.991 498.887 802.522 499.381C802.053 499.862 801.768 500.496 801.667 501.281ZM817.101 510.04V496.968H819.4V498.64C820.287 497.386 821.42 496.759 822.801 496.759C824.068 496.759 825.163 497.234 826.088 498.184C827.013 499.121 827.475 500.394 827.475 502.003C827.475 503.586 827.013 504.853 826.088 505.803C825.163 506.74 824.068 507.209 822.801 507.209C821.42 507.209 820.287 506.62 819.4 505.442V510.04H817.101ZM822.269 505.214C823.08 505.214 823.757 504.916 824.302 504.321C824.859 503.726 825.138 502.94 825.138 501.965C825.138 501.015 824.859 500.242 824.302 499.647C823.745 499.052 823.067 498.754 822.269 498.754C821.471 498.754 820.781 499.058 820.198 499.666C819.628 500.274 819.343 501.053 819.343 502.003C819.343 502.94 819.628 503.713 820.198 504.321C820.781 504.916 821.471 505.214 822.269 505.214ZM829.829 507V496.968H832.128V499.229C832.838 497.519 834.022 496.702 835.681 496.778V499.21H835.548C834.51 499.21 833.68 499.552 833.059 500.236C832.439 500.907 832.128 501.889 832.128 503.181V507H829.829ZM842.113 507.228C840.593 507.228 839.326 506.721 838.313 505.708C837.3 504.695 836.793 503.46 836.793 502.003C836.793 500.546 837.306 499.311 838.332 498.298C839.358 497.272 840.631 496.759 842.151 496.759C843.671 496.759 844.938 497.266 845.951 498.279C846.977 499.292 847.49 500.534 847.49 502.003C847.49 503.447 846.977 504.682 845.951 505.708C844.925 506.721 843.646 507.228 842.113 507.228ZM842.151 505.233C843.063 505.233 843.798 504.923 844.355 504.302C844.912 503.681 845.191 502.915 845.191 502.003C845.191 501.104 844.9 500.344 844.317 499.723C843.734 499.09 843 498.773 842.113 498.773C841.214 498.773 840.485 499.083 839.928 499.704C839.371 500.325 839.092 501.091 839.092 502.003C839.092 502.89 839.383 503.65 839.966 504.283C840.549 504.916 841.277 505.233 842.151 505.233ZM849.869 495.429V493.244H852.339V495.429H849.869ZM849.337 510.097C849.008 510.097 848.641 510.065 848.235 510.002V508.159C848.463 508.197 848.679 508.216 848.881 508.216C849.603 508.216 849.964 507.811 849.964 507V496.968H852.263V507.133C852.263 509.109 851.288 510.097 849.337 510.097ZM859.866 507.228C858.397 507.228 857.168 506.74 856.18 505.765C855.205 504.79 854.717 503.529 854.717 501.984C854.717 500.527 855.179 499.292 856.104 498.279C857.029 497.266 858.2 496.759 859.619 496.759C861.139 496.759 862.317 497.278 863.153 498.317C864.002 499.343 864.426 500.622 864.426 502.155C864.426 502.434 864.413 502.649 864.388 502.801H857.016C857.143 503.599 857.466 504.226 857.985 504.682C858.504 505.125 859.144 505.347 859.904 505.347C860.892 505.347 861.798 504.948 862.621 504.15L863.97 505.347C862.931 506.601 861.563 507.228 859.866 507.228ZM856.997 501.281H862.146C862.07 500.508 861.81 499.875 861.367 499.381C860.924 498.887 860.335 498.64 859.6 498.64C858.903 498.64 858.321 498.887 857.852 499.381C857.383 499.862 857.098 500.496 856.997 501.281ZM871.371 507.228C869.889 507.228 868.654 506.721 867.666 505.708C866.678 504.695 866.184 503.46 866.184 502.003C866.184 500.559 866.678 499.324 867.666 498.298C868.666 497.272 869.908 496.759 871.39 496.759C873.011 496.759 874.347 497.335 875.399 498.488L873.974 500.027C873.176 499.191 872.308 498.773 871.371 498.773C870.547 498.773 869.857 499.09 869.3 499.723C868.755 500.344 868.483 501.104 868.483 502.003C868.483 502.915 868.761 503.681 869.319 504.302C869.889 504.923 870.611 505.233 871.485 505.233C872.409 505.233 873.277 504.815 874.088 503.979L875.475 505.347C874.93 505.955 874.335 506.424 873.689 506.753C873.055 507.07 872.283 507.228 871.371 507.228ZM880.952 507.171C879.027 507.171 878.064 506.189 878.064 504.226V498.944H876.791V496.968H878.064V494.213H880.363V496.968H883.061V498.944H880.363V503.865C880.363 504.701 880.775 505.119 881.598 505.119C882.092 505.119 882.567 505.005 883.023 504.777V506.658C882.415 507 881.725 507.171 880.952 507.171ZM766.351 531.228C764.869 531.228 763.634 530.721 762.646 529.708C761.658 528.695 761.164 527.46 761.164 526.003C761.164 524.559 761.658 523.324 762.646 522.298C763.647 521.272 764.888 520.759 766.37 520.759C767.992 520.759 769.328 521.335 770.379 522.488L768.954 524.027C768.156 523.191 767.289 522.773 766.351 522.773C765.528 522.773 764.838 523.09 764.28 523.723C763.736 524.344 763.463 525.104 763.463 526.003C763.463 526.915 763.742 527.681 764.299 528.302C764.869 528.923 765.591 529.233 766.465 529.233C767.39 529.233 768.258 528.815 769.068 527.979L770.455 529.347C769.911 529.955 769.315 530.424 768.669 530.753C768.036 531.07 767.263 531.228 766.351 531.228ZM777.06 531.228C775.54 531.228 774.274 530.721 773.26 529.708C772.247 528.695 771.74 527.46 771.74 526.003C771.74 524.546 772.253 523.311 773.279 522.298C774.305 521.272 775.578 520.759 777.098 520.759C778.618 520.759 779.885 521.266 780.898 522.279C781.924 523.292 782.437 524.534 782.437 526.003C782.437 527.447 781.924 528.682 780.898 529.708C779.872 530.721 778.593 531.228 777.06 531.228ZM777.098 529.233C778.01 529.233 778.745 528.923 779.302 528.302C779.86 527.681 780.138 526.915 780.138 526.003C780.138 525.104 779.847 524.344 779.264 523.723C778.682 523.09 777.947 522.773 777.06 522.773C776.161 522.773 775.433 523.083 774.875 523.704C774.318 524.325 774.039 525.091 774.039 526.003C774.039 526.89 774.331 527.65 774.913 528.283C775.496 528.916 776.224 529.233 777.098 529.233ZM784.779 531V520.968H787.078V522.488C787.914 521.335 788.933 520.759 790.137 520.759C791.53 520.759 792.524 521.348 793.12 522.526C794.019 521.348 795.153 520.759 796.521 520.759C797.623 520.759 798.484 521.095 799.105 521.766C799.725 522.437 800.036 523.381 800.036 524.597V531H797.737V525.3C797.737 524.502 797.559 523.894 797.205 523.476C796.85 523.058 796.35 522.849 795.704 522.849C795.058 522.849 794.538 523.071 794.146 523.514C793.753 523.945 793.557 524.553 793.557 525.338V531H791.258V525.281C791.258 524.508 791.08 523.913 790.726 523.495C790.371 523.064 789.871 522.849 789.225 522.849C788.579 522.849 788.059 523.077 787.667 523.533C787.274 523.976 787.078 524.584 787.078 525.357V531H784.779ZM802.832 534.04V520.968H805.131V522.64C806.018 521.386 807.152 520.759 808.532 520.759C809.799 520.759 810.895 521.234 811.819 522.184C812.744 523.121 813.206 524.394 813.206 526.003C813.206 527.586 812.744 528.853 811.819 529.803C810.895 530.74 809.799 531.209 808.532 531.209C807.152 531.209 806.018 530.62 805.131 529.442V534.04H802.832ZM808 529.214C808.811 529.214 809.489 528.916 810.033 528.321C810.591 527.726 810.869 526.94 810.869 525.965C810.869 525.015 810.591 524.242 810.033 523.647C809.476 523.052 808.798 522.754 808 522.754C807.202 522.754 806.512 523.058 805.929 523.666C805.359 524.274 805.074 525.053 805.074 526.003C805.074 526.94 805.359 527.713 805.929 528.321C806.512 528.916 807.202 529.214 808 529.214ZM815.694 531V517.13H817.993V531H815.694ZM825.595 531.228C824.126 531.228 822.897 530.74 821.909 529.765C820.934 528.79 820.446 527.529 820.446 525.984C820.446 524.527 820.909 523.292 821.833 522.279C822.758 521.266 823.93 520.759 825.348 520.759C826.868 520.759 828.046 521.278 828.882 522.317C829.731 523.343 830.155 524.622 830.155 526.155C830.155 526.434 830.143 526.649 830.117 526.801H822.745C822.872 527.599 823.195 528.226 823.714 528.682C824.234 529.125 824.873 529.347 825.633 529.347C826.621 529.347 827.527 528.948 828.35 528.15L829.699 529.347C828.661 530.601 827.293 531.228 825.595 531.228ZM822.726 525.281H827.875C827.799 524.508 827.54 523.875 827.096 523.381C826.653 522.887 826.064 522.64 825.329 522.64C824.633 522.64 824.05 522.887 823.581 523.381C823.113 523.862 822.828 524.496 822.726 525.281ZM835.827 531.171C833.902 531.171 832.939 530.189 832.939 528.226V522.944H831.666V520.968H832.939V518.213H835.238V520.968H837.936V522.944H835.238V527.865C835.238 528.701 835.65 529.119 836.473 529.119C836.967 529.119 837.442 529.005 837.898 528.777V530.658C837.29 531 836.6 531.171 835.827 531.171ZM844.577 531.228C843.108 531.228 841.879 530.74 840.891 529.765C839.916 528.79 839.428 527.529 839.428 525.984C839.428 524.527 839.89 523.292 840.815 522.279C841.74 521.266 842.911 520.759 844.33 520.759C845.85 520.759 847.028 521.278 847.864 522.317C848.713 523.343 849.137 524.622 849.137 526.155C849.137 526.434 849.124 526.649 849.099 526.801H841.727C841.854 527.599 842.177 528.226 842.696 528.682C843.215 529.125 843.855 529.347 844.615 529.347C845.603 529.347 846.509 528.948 847.332 528.15L848.681 529.347C847.642 530.601 846.274 531.228 844.577 531.228ZM841.708 525.281H846.857C846.781 524.508 846.521 523.875 846.078 523.381C845.635 522.887 845.046 522.64 844.311 522.64C843.614 522.64 843.032 522.887 842.563 523.381C842.094 523.862 841.809 524.496 841.708 525.281ZM855.588 531.209C854.334 531.209 853.244 530.74 852.32 529.803C851.395 528.853 850.933 527.574 850.933 525.965C850.933 524.369 851.389 523.102 852.301 522.165C853.225 521.228 854.321 520.759 855.588 520.759C856.956 520.759 858.096 521.348 859.008 522.526V517.13H861.307V531H859.008V529.328C858.121 530.582 856.981 531.209 855.588 531.209ZM854.087 528.321C854.657 528.916 855.341 529.214 856.139 529.214C856.937 529.214 857.621 528.91 858.191 528.302C858.761 527.694 859.046 526.915 859.046 525.965C859.046 525.028 858.761 524.261 858.191 523.666C857.621 523.058 856.937 522.754 856.139 522.754C855.328 522.754 854.644 523.052 854.087 523.647C853.529 524.23 853.251 525.015 853.251 526.003C853.251 526.953 853.529 527.726 854.087 528.321Z" fill="#2F035B"/>
<path d="M344.798 507.645C342.873 507.645 341.264 506.986 339.972 505.669C338.68 504.339 338.034 502.705 338.034 500.767C338.034 498.841 338.68 497.214 339.972 495.884C341.264 494.554 342.904 493.889 344.893 493.889C346.046 493.889 347.021 494.066 347.819 494.421C348.63 494.775 349.39 495.288 350.099 495.96L348.598 497.689C347.407 496.587 346.166 496.036 344.874 496.036C343.607 496.036 342.556 496.492 341.72 497.404C340.897 498.316 340.485 499.437 340.485 500.767C340.485 502.084 340.903 503.205 341.739 504.13C342.575 505.042 343.62 505.498 344.874 505.498C345.634 505.498 346.305 505.358 346.888 505.08C347.471 504.788 348.072 504.351 348.693 503.769L350.194 505.289C349.447 506.074 348.655 506.663 347.819 507.056C346.983 507.448 345.976 507.645 344.798 507.645ZM356.968 507.645C355.448 507.645 354.181 507.138 353.168 506.125C352.154 505.111 351.648 503.876 351.648 502.42C351.648 500.963 352.161 499.728 353.187 498.715C354.213 497.689 355.486 497.176 357.006 497.176C358.526 497.176 359.792 497.682 360.806 498.696C361.832 499.709 362.345 500.95 362.345 502.42C362.345 503.864 361.832 505.099 360.806 506.125C359.78 507.138 358.5 507.645 356.968 507.645ZM357.006 505.65C357.918 505.65 358.652 505.339 359.21 504.719C359.767 504.098 360.046 503.332 360.046 502.42C360.046 501.52 359.754 500.76 359.172 500.14C358.589 499.506 357.854 499.19 356.968 499.19C356.068 499.19 355.34 499.5 354.783 500.121C354.225 500.741 353.947 501.508 353.947 502.42C353.947 503.306 354.238 504.066 354.821 504.7C355.403 505.333 356.132 505.65 357.006 505.65ZM364.686 507.417V497.385H366.985V498.943C367.783 497.765 368.828 497.176 370.12 497.176C371.235 497.176 372.109 497.524 372.742 498.221C373.375 498.917 373.692 499.855 373.692 501.033V507.417H371.393V501.717C371.393 500.931 371.203 500.33 370.823 499.912C370.456 499.481 369.93 499.266 369.246 499.266C368.575 499.266 368.03 499.487 367.612 499.931C367.194 500.374 366.985 500.982 366.985 501.755V507.417H364.686ZM379.831 507.588C377.906 507.588 376.943 506.606 376.943 504.643V499.361H375.67V497.385H376.943V494.63H379.242V497.385H381.94V499.361H379.242V504.282C379.242 505.118 379.654 505.536 380.477 505.536C380.971 505.536 381.446 505.422 381.902 505.194V507.075C381.294 507.417 380.604 507.588 379.831 507.588ZM384.299 495.846V493.661H386.769V495.846H384.299ZM384.394 507.417V497.385H386.693V507.417H384.394ZM389.698 507.417V497.385H391.997V498.943C392.795 497.765 393.84 497.176 395.132 497.176C396.246 497.176 397.12 497.524 397.754 498.221C398.387 498.917 398.704 499.855 398.704 501.033V507.417H396.405V501.717C396.405 500.931 396.215 500.33 395.835 499.912C395.467 499.481 394.942 499.266 394.258 499.266C393.586 499.266 393.042 499.487 392.624 499.931C392.206 500.374 391.997 500.982 391.997 501.755V507.417H389.698ZM404.938 507.626C403.823 507.626 402.949 507.277 402.316 506.581C401.683 505.884 401.366 504.947 401.366 503.769V497.385H403.665V503.085C403.665 503.87 403.849 504.478 404.216 504.909C404.596 505.327 405.128 505.536 405.812 505.536C406.483 505.536 407.028 505.314 407.446 504.871C407.864 504.427 408.073 503.819 408.073 503.047V497.385H410.372V507.417H408.073V505.859C407.275 507.037 406.23 507.626 404.938 507.626ZM418.031 507.645C416.511 507.645 415.245 507.138 414.231 506.125C413.218 505.111 412.711 503.876 412.711 502.42C412.711 500.963 413.224 499.728 414.25 498.715C415.276 497.689 416.549 497.176 418.069 497.176C419.589 497.176 420.856 497.682 421.869 498.696C422.895 499.709 423.408 500.95 423.408 502.42C423.408 503.864 422.895 505.099 421.869 506.125C420.843 507.138 419.564 507.645 418.031 507.645ZM418.069 505.65C418.981 505.65 419.716 505.339 420.273 504.719C420.831 504.098 421.109 503.332 421.109 502.42C421.109 501.52 420.818 500.76 420.235 500.14C419.653 499.506 418.918 499.19 418.031 499.19C417.132 499.19 416.404 499.5 415.846 500.121C415.289 500.741 415.01 501.508 415.01 502.42C415.01 503.306 415.302 504.066 415.884 504.7C416.467 505.333 417.195 505.65 418.069 505.65ZM429.208 507.626C428.093 507.626 427.219 507.277 426.586 506.581C425.952 505.884 425.636 504.947 425.636 503.769V497.385H427.935V503.085C427.935 503.87 428.118 504.478 428.486 504.909C428.866 505.327 429.398 505.536 430.082 505.536C430.753 505.536 431.298 505.314 431.716 504.871C432.134 504.427 432.343 503.819 432.343 503.047V497.385H434.642V507.417H432.343V505.859C431.545 507.037 430.5 507.626 429.208 507.626ZM440.971 507.607C439.4 507.607 437.981 507.106 436.715 506.106L437.741 504.548C438.83 505.371 439.926 505.783 441.028 505.783C441.522 505.783 441.902 505.688 442.168 505.498C442.446 505.295 442.586 505.016 442.586 504.662C442.586 504.484 442.535 504.332 442.434 504.206C442.345 504.066 442.18 503.94 441.94 503.826C441.699 503.712 441.496 503.629 441.332 503.579C441.167 503.528 440.895 503.446 440.515 503.332L440.344 503.275C439.989 503.173 439.685 503.078 439.432 502.99C439.191 502.888 438.919 502.755 438.615 502.591C438.311 502.426 438.064 502.249 437.874 502.059C437.684 501.856 437.525 501.603 437.399 501.299C437.272 500.995 437.209 500.653 437.209 500.273C437.209 499.348 437.544 498.607 438.216 498.05C438.9 497.492 439.755 497.214 440.781 497.214C442.085 497.214 443.314 497.594 444.467 498.354L443.555 499.988C442.516 499.354 441.572 499.038 440.724 499.038C440.28 499.038 439.932 499.133 439.679 499.323C439.438 499.513 439.318 499.766 439.318 500.083C439.318 500.298 439.425 500.494 439.641 500.672C439.869 500.849 440.09 500.982 440.306 501.071C440.534 501.147 440.895 501.267 441.389 501.432C441.414 501.444 441.446 501.457 441.484 501.47C441.522 501.482 441.553 501.489 441.579 501.489C442.022 501.628 442.396 501.767 442.7 501.907C443.004 502.033 443.32 502.211 443.65 502.439C443.992 502.667 444.251 502.952 444.429 503.294C444.606 503.623 444.695 504.009 444.695 504.453C444.695 505.466 444.346 506.245 443.65 506.79C442.953 507.334 442.06 507.607 440.971 507.607ZM358.699 531.607C357.129 531.607 355.71 531.106 354.443 530.106L355.469 528.548C356.559 529.371 357.654 529.783 358.756 529.783C359.25 529.783 359.63 529.688 359.896 529.498C360.175 529.295 360.314 529.016 360.314 528.662C360.314 528.484 360.264 528.332 360.162 528.206C360.074 528.066 359.909 527.94 359.668 527.826C359.428 527.712 359.225 527.629 359.06 527.579C358.896 527.528 358.623 527.446 358.243 527.332L358.072 527.275C357.718 527.173 357.414 527.078 357.16 526.99C356.92 526.888 356.647 526.755 356.343 526.591C356.039 526.426 355.792 526.249 355.602 526.059C355.412 525.856 355.254 525.603 355.127 525.299C355.001 524.995 354.937 524.653 354.937 524.273C354.937 523.348 355.273 522.607 355.944 522.05C356.628 521.492 357.483 521.214 358.509 521.214C359.814 521.214 361.043 521.594 362.195 522.354L361.283 523.988C360.245 523.354 359.301 523.038 358.452 523.038C358.009 523.038 357.661 523.133 357.407 523.323C357.167 523.513 357.046 523.766 357.046 524.083C357.046 524.298 357.154 524.494 357.369 524.672C357.597 524.849 357.819 524.982 358.034 525.071C358.262 525.147 358.623 525.267 359.117 525.432C359.143 525.444 359.174 525.457 359.212 525.47C359.25 525.482 359.282 525.489 359.307 525.489C359.751 525.628 360.124 525.767 360.428 525.907C360.732 526.033 361.049 526.211 361.378 526.439C361.72 526.667 361.98 526.952 362.157 527.294C362.335 527.623 362.423 528.009 362.423 528.453C362.423 529.466 362.075 530.245 361.378 530.79C360.682 531.334 359.789 531.607 358.699 531.607ZM368.218 531.626C367.104 531.626 366.23 531.277 365.596 530.581C364.963 529.884 364.646 528.947 364.646 527.769V521.385H366.945V527.085C366.945 527.87 367.129 528.478 367.496 528.909C367.876 529.327 368.408 529.536 369.092 529.536C369.764 529.536 370.308 529.314 370.726 528.871C371.144 528.427 371.353 527.819 371.353 527.047V521.385H373.652V531.417H371.353V529.859C370.555 531.037 369.51 531.626 368.218 531.626ZM376.542 534.457V521.385H378.841V523.057C379.728 521.803 380.862 521.176 382.242 521.176C383.509 521.176 384.605 521.651 385.529 522.601C386.454 523.538 386.916 524.811 386.916 526.42C386.916 528.003 386.454 529.27 385.529 530.22C384.605 531.157 383.509 531.626 382.242 531.626C380.862 531.626 379.728 531.037 378.841 529.859V534.457H376.542ZM381.71 529.631C382.521 529.631 383.199 529.333 383.743 528.738C384.301 528.142 384.579 527.357 384.579 526.382C384.579 525.432 384.301 524.659 383.743 524.064C383.186 523.468 382.508 523.171 381.71 523.171C380.912 523.171 380.222 523.475 379.639 524.083C379.069 524.691 378.784 525.47 378.784 526.42C378.784 527.357 379.069 528.13 379.639 528.738C380.222 529.333 380.912 529.631 381.71 529.631ZM389.271 534.457V521.385H391.57V523.057C392.457 521.803 393.59 521.176 394.971 521.176C396.238 521.176 397.333 521.651 398.258 522.601C399.183 523.538 399.645 524.811 399.645 526.42C399.645 528.003 399.183 529.27 398.258 530.22C397.333 531.157 396.238 531.626 394.971 531.626C393.59 531.626 392.457 531.037 391.57 529.859V534.457H389.271ZM394.439 529.631C395.25 529.631 395.927 529.333 396.472 528.738C397.029 528.142 397.308 527.357 397.308 526.382C397.308 525.432 397.029 524.659 396.472 524.064C395.915 523.468 395.237 523.171 394.439 523.171C393.641 523.171 392.951 523.475 392.368 524.083C391.798 524.691 391.513 525.47 391.513 526.42C391.513 527.357 391.798 528.13 392.368 528.738C392.951 529.333 393.641 529.631 394.439 529.631ZM406.769 531.645C405.249 531.645 403.982 531.138 402.969 530.125C401.955 529.111 401.449 527.876 401.449 526.42C401.449 524.963 401.962 523.728 402.988 522.715C404.014 521.689 405.287 521.176 406.807 521.176C408.327 521.176 409.593 521.682 410.607 522.696C411.633 523.709 412.146 524.95 412.146 526.42C412.146 527.864 411.633 529.099 410.607 530.125C409.581 531.138 408.301 531.645 406.769 531.645ZM406.807 529.65C407.719 529.65 408.453 529.339 409.011 528.719C409.568 528.098 409.847 527.332 409.847 526.42C409.847 525.52 409.555 524.76 408.973 524.14C408.39 523.506 407.655 523.19 406.769 523.19C405.869 523.19 405.141 523.5 404.584 524.121C404.026 524.741 403.748 525.508 403.748 526.42C403.748 527.306 404.039 528.066 404.622 528.7C405.204 529.333 405.933 529.65 406.807 529.65ZM414.487 531.417V521.385H416.786V523.646C417.495 521.936 418.679 521.119 420.339 521.195V523.627H420.206C419.167 523.627 418.337 523.969 417.717 524.653C417.096 525.324 416.786 526.306 416.786 527.598V531.417H414.487ZM425.698 531.588C423.773 531.588 422.81 530.606 422.81 528.643V523.361H421.537V521.385H422.81V518.63H425.109V521.385H427.807V523.361H425.109V528.282C425.109 529.118 425.521 529.536 426.344 529.536C426.838 529.536 427.313 529.422 427.769 529.194V531.075C427.161 531.417 426.471 531.588 425.698 531.588Z" fill="#2F035B"/>
<path d="M933.913 257.214C932.595 258.557 930.93 259.228 928.916 259.228C926.902 259.228 925.242 258.563 923.938 257.233C922.633 255.903 921.981 254.275 921.981 252.35C921.981 250.45 922.639 248.829 923.957 247.486C925.274 246.143 926.94 245.472 928.954 245.472C930.968 245.472 932.627 246.137 933.932 247.467C935.236 248.797 935.889 250.425 935.889 252.35C935.889 254.25 935.23 255.871 933.913 257.214ZM925.705 255.713C926.566 256.625 927.649 257.081 928.954 257.081C930.258 257.081 931.329 256.625 932.165 255.713C933.013 254.801 933.438 253.68 933.438 252.35C933.438 251.033 933.007 249.918 932.146 249.006C931.297 248.081 930.22 247.619 928.916 247.619C927.611 247.619 926.534 248.075 925.686 248.987C924.85 249.899 924.432 251.02 924.432 252.35C924.432 253.667 924.856 254.788 925.705 255.713ZM941.904 259.209C940.79 259.209 939.916 258.861 939.282 258.164C938.649 257.467 938.332 256.53 938.332 255.352V248.968H940.631V254.668C940.631 255.453 940.815 256.061 941.182 256.492C941.562 256.91 942.094 257.119 942.778 257.119C943.45 257.119 943.994 256.897 944.412 256.454C944.83 256.011 945.039 255.403 945.039 254.63V248.968H947.338V259H945.039V257.442C944.241 258.62 943.196 259.209 941.904 259.209ZM950.228 259V248.968H952.527V251.229C953.237 249.519 954.421 248.702 956.08 248.778V251.21H955.947C954.909 251.21 954.079 251.552 953.458 252.236C952.838 252.907 952.527 253.889 952.527 255.181V259H950.228ZM967.307 259V247.866H963.089V245.7H973.881V247.866H969.663V259H967.307ZM982.34 259H980.06V257.765C979.249 258.728 978.166 259.209 976.811 259.209C975.81 259.209 974.961 258.937 974.265 258.392C973.581 257.835 973.239 257.062 973.239 256.074C973.239 254.997 973.612 254.18 974.36 253.623C975.107 253.066 976.089 252.787 977.305 252.787C978.28 252.787 979.205 252.926 980.079 253.205V253.015C980.079 252.318 979.863 251.786 979.433 251.419C979.015 251.052 978.407 250.868 977.609 250.868C976.697 250.868 975.74 251.077 974.74 251.495L974.113 249.652C975.354 249.095 976.627 248.816 977.932 248.816C979.388 248.816 980.484 249.183 981.219 249.918C981.966 250.653 982.34 251.698 982.34 253.053V259ZM980.117 255.371V254.801C979.433 254.535 978.666 254.402 977.818 254.402C977.096 254.402 976.532 254.541 976.127 254.82C975.721 255.099 975.519 255.491 975.519 255.998C975.519 256.454 975.702 256.815 976.07 257.081C976.437 257.347 976.899 257.48 977.457 257.48C978.229 257.48 978.863 257.284 979.357 256.891C979.863 256.498 980.117 255.992 980.117 255.371ZM990.774 259.209C989.393 259.209 988.26 258.62 987.373 257.442V259H985.074V245.13H987.373V250.64C988.26 249.386 989.393 248.759 990.774 248.759C992.041 248.759 993.136 249.234 994.061 250.184C994.986 251.121 995.448 252.394 995.448 254.003C995.448 255.586 994.986 256.853 994.061 257.803C993.136 258.74 992.041 259.209 990.774 259.209ZM990.242 257.214C991.053 257.214 991.73 256.916 992.275 256.321C992.832 255.726 993.111 254.94 993.111 253.965C993.111 253.015 992.832 252.242 992.275 251.647C991.718 251.052 991.04 250.754 990.242 250.754C989.444 250.754 988.754 251.058 988.171 251.666C987.601 252.274 987.316 253.053 987.316 254.003C987.316 254.94 987.601 255.713 988.171 256.321C988.754 256.916 989.444 257.214 990.242 257.214ZM997.936 259V245.13H1000.23V259H997.936ZM1007.84 259.228C1006.37 259.228 1005.14 258.74 1004.15 257.765C1003.18 256.79 1002.69 255.529 1002.69 253.984C1002.69 252.527 1003.15 251.292 1004.08 250.279C1005 249.266 1006.17 248.759 1007.59 248.759C1009.11 248.759 1010.29 249.278 1011.12 250.317C1011.97 251.343 1012.4 252.622 1012.4 254.155C1012.4 254.434 1012.38 254.649 1012.36 254.801H1004.99C1005.11 255.599 1005.44 256.226 1005.96 256.682C1006.48 257.125 1007.12 257.347 1007.88 257.347C1008.86 257.347 1009.77 256.948 1010.59 256.15L1011.94 257.347C1010.9 258.601 1009.53 259.228 1007.84 259.228ZM1004.97 253.281H1010.12C1010.04 252.508 1009.78 251.875 1009.34 251.381C1008.89 250.887 1008.31 250.64 1007.57 250.64C1006.87 250.64 1006.29 250.887 1005.82 251.381C1005.35 251.862 1005.07 252.496 1004.97 253.281ZM1023.12 259H1020.84V257.765C1020.03 258.728 1018.95 259.209 1017.59 259.209C1016.59 259.209 1015.74 258.937 1015.05 258.392C1014.36 257.835 1014.02 257.062 1014.02 256.074C1014.02 254.997 1014.4 254.18 1015.14 253.623C1015.89 253.066 1016.87 252.787 1018.09 252.787C1019.06 252.787 1019.99 252.926 1020.86 253.205V253.015C1020.86 252.318 1020.65 251.786 1020.22 251.419C1019.8 251.052 1019.19 250.868 1018.39 250.868C1017.48 250.868 1016.52 251.077 1015.52 251.495L1014.9 249.652C1016.14 249.095 1017.41 248.816 1018.71 248.816C1020.17 248.816 1021.27 249.183 1022 249.918C1022.75 250.653 1023.12 251.698 1023.12 253.053V259ZM1020.9 255.371V254.801C1020.22 254.535 1019.45 254.402 1018.6 254.402C1017.88 254.402 1017.32 254.541 1016.91 254.82C1016.5 255.099 1016.3 255.491 1016.3 255.998C1016.3 256.454 1016.49 256.815 1016.85 257.081C1017.22 257.347 1017.68 257.48 1018.24 257.48C1019.01 257.48 1019.65 257.284 1020.14 256.891C1020.65 256.498 1020.9 255.992 1020.9 255.371ZM1029.32 259.209C1028.2 259.209 1027.33 258.861 1026.69 258.164C1026.06 257.467 1025.74 256.53 1025.74 255.352V248.968H1028.04V254.668C1028.04 255.453 1028.23 256.061 1028.59 256.492C1028.97 256.91 1029.51 257.119 1030.19 257.119C1030.86 257.119 1031.41 256.897 1031.82 256.454C1032.24 256.011 1032.45 255.403 1032.45 254.63V248.968H1034.75V259H1032.45V257.442C1031.65 258.62 1030.61 259.209 1029.32 259.209ZM1047.93 259.228C1046.46 259.228 1045.24 258.74 1044.25 257.765C1043.27 256.79 1042.78 255.529 1042.78 253.984C1042.78 252.527 1043.25 251.292 1044.17 250.279C1045.1 249.266 1046.27 248.759 1047.69 248.759C1049.21 248.759 1050.38 249.278 1051.22 250.317C1052.07 251.343 1052.49 252.622 1052.49 254.155C1052.49 254.434 1052.48 254.649 1052.46 254.801H1045.08C1045.21 255.599 1045.53 256.226 1046.05 256.682C1046.57 257.125 1047.21 257.347 1047.97 257.347C1048.96 257.347 1049.87 256.948 1050.69 256.15L1052.04 257.347C1051 258.601 1049.63 259.228 1047.93 259.228ZM1045.06 253.281H1050.21C1050.14 252.508 1049.88 251.875 1049.43 251.381C1048.99 250.887 1048.4 250.64 1047.67 250.64C1046.97 250.64 1046.39 250.887 1045.92 251.381C1045.45 251.862 1045.17 252.496 1045.06 253.281ZM1053.35 259L1057.04 253.908L1053.49 248.968H1055.99L1058.31 252.274L1060.63 248.968H1063.08L1059.53 253.851L1063.23 259H1060.73L1058.26 255.485L1055.8 259H1053.35ZM1065.25 262.04V248.968H1067.55V250.64C1068.43 249.386 1069.57 248.759 1070.95 248.759C1072.22 248.759 1073.31 249.234 1074.24 250.184C1075.16 251.121 1075.62 252.394 1075.62 254.003C1075.62 255.586 1075.16 256.853 1074.24 257.803C1073.31 258.74 1072.22 259.209 1070.95 259.209C1069.57 259.209 1068.43 258.62 1067.55 257.442V262.04H1065.25ZM1070.42 257.214C1071.23 257.214 1071.91 256.916 1072.45 256.321C1073.01 255.726 1073.29 254.94 1073.29 253.965C1073.29 253.015 1073.01 252.242 1072.45 251.647C1071.89 251.052 1071.21 250.754 1070.42 250.754C1069.62 250.754 1068.93 251.058 1068.35 251.666C1067.78 252.274 1067.49 253.053 1067.49 254.003C1067.49 254.94 1067.78 255.713 1068.35 256.321C1068.93 256.916 1069.62 257.214 1070.42 257.214ZM1082.58 259.228C1081.11 259.228 1079.88 258.74 1078.89 257.765C1077.91 256.79 1077.43 255.529 1077.43 253.984C1077.43 252.527 1077.89 251.292 1078.81 250.279C1079.74 249.266 1080.91 248.759 1082.33 248.759C1083.85 248.759 1085.03 249.278 1085.86 250.317C1086.71 251.343 1087.14 252.622 1087.14 254.155C1087.14 254.434 1087.12 254.649 1087.1 254.801H1079.73C1079.85 255.599 1080.18 256.226 1080.69 256.682C1081.21 257.125 1081.85 257.347 1082.61 257.347C1083.6 257.347 1084.51 256.948 1085.33 256.15L1086.68 257.347C1085.64 258.601 1084.27 259.228 1082.58 259.228ZM1079.71 253.281H1084.86C1084.78 252.508 1084.52 251.875 1084.08 251.381C1083.63 250.887 1083.04 250.64 1082.31 250.64C1081.61 250.64 1081.03 250.887 1080.56 251.381C1080.09 251.862 1079.81 252.496 1079.71 253.281ZM1089.44 259V248.968H1091.74V251.229C1092.45 249.519 1093.64 248.702 1095.3 248.778V251.21H1095.16C1094.12 251.21 1093.29 251.552 1092.67 252.236C1092.05 252.907 1091.74 253.889 1091.74 255.181V259H1089.44ZM1100.66 259.171C1098.73 259.171 1097.77 258.189 1097.77 256.226V250.944H1096.49V248.968H1097.77V246.213H1100.07V248.968H1102.76V250.944H1100.07V255.865C1100.07 256.701 1100.48 257.119 1101.3 257.119C1101.8 257.119 1102.27 257.005 1102.73 256.777V258.658C1102.12 259 1101.43 259.171 1100.66 259.171ZM1108.52 259.19C1106.95 259.19 1105.54 258.69 1104.27 257.689L1105.29 256.131C1106.38 256.954 1107.48 257.366 1108.58 257.366C1109.08 257.366 1109.46 257.271 1109.72 257.081C1110 256.878 1110.14 256.6 1110.14 256.245C1110.14 256.068 1110.09 255.916 1109.99 255.789C1109.9 255.65 1109.73 255.523 1109.49 255.409C1109.25 255.295 1109.05 255.213 1108.89 255.162C1108.72 255.111 1108.45 255.029 1108.07 254.915L1107.9 254.858C1107.54 254.757 1107.24 254.662 1106.99 254.573C1106.75 254.472 1106.47 254.339 1106.17 254.174C1105.86 254.009 1105.62 253.832 1105.43 253.642C1105.24 253.439 1105.08 253.186 1104.95 252.882C1104.83 252.578 1104.76 252.236 1104.76 251.856C1104.76 250.931 1105.1 250.19 1105.77 249.633C1106.45 249.076 1107.31 248.797 1108.33 248.797C1109.64 248.797 1110.87 249.177 1112.02 249.937L1111.11 251.571C1110.07 250.938 1109.13 250.621 1108.28 250.621C1107.83 250.621 1107.49 250.716 1107.23 250.906C1106.99 251.096 1106.87 251.349 1106.87 251.666C1106.87 251.881 1106.98 252.078 1107.19 252.255C1107.42 252.432 1107.64 252.565 1107.86 252.654C1108.09 252.73 1108.45 252.85 1108.94 253.015C1108.97 253.028 1109 253.04 1109.04 253.053C1109.08 253.066 1109.11 253.072 1109.13 253.072C1109.58 253.211 1109.95 253.351 1110.25 253.49C1110.56 253.617 1110.87 253.794 1111.2 254.022C1111.55 254.25 1111.81 254.535 1111.98 254.877C1112.16 255.206 1112.25 255.593 1112.25 256.036C1112.25 257.049 1111.9 257.828 1111.2 258.373C1110.51 258.918 1109.61 259.19 1108.52 259.19ZM924.92 283V272.968H927.219V274.488C928.055 273.335 929.074 272.759 930.278 272.759C931.671 272.759 932.665 273.348 933.261 274.526C934.16 273.348 935.294 272.759 936.662 272.759C937.764 272.759 938.625 273.095 939.246 273.766C939.866 274.437 940.177 275.381 940.177 276.597V283H937.878V277.3C937.878 276.502 937.7 275.894 937.346 275.476C936.991 275.058 936.491 274.849 935.845 274.849C935.199 274.849 934.679 275.071 934.287 275.514C933.894 275.945 933.698 276.553 933.698 277.338V283H931.399V277.281C931.399 276.508 931.221 275.913 930.867 275.495C930.512 275.064 930.012 274.849 929.366 274.849C928.72 274.849 928.2 275.077 927.808 275.533C927.415 275.976 927.219 276.584 927.219 277.357V283H924.92ZM951.391 283H949.111V281.765C948.3 282.728 947.217 283.209 945.862 283.209C944.861 283.209 944.012 282.937 943.316 282.392C942.632 281.835 942.29 281.062 942.29 280.074C942.29 278.997 942.663 278.18 943.411 277.623C944.158 277.066 945.14 276.787 946.356 276.787C947.331 276.787 948.256 276.926 949.13 277.205V277.015C949.13 276.318 948.914 275.786 948.484 275.419C948.066 275.052 947.458 274.868 946.66 274.868C945.748 274.868 944.791 275.077 943.791 275.495L943.164 273.652C944.405 273.095 945.678 272.816 946.983 272.816C948.439 272.816 949.535 273.183 950.27 273.918C951.017 274.653 951.391 275.698 951.391 277.053V283ZM949.168 279.371V278.801C948.484 278.535 947.717 278.402 946.869 278.402C946.147 278.402 945.583 278.541 945.178 278.82C944.772 279.099 944.57 279.491 944.57 279.998C944.57 280.454 944.753 280.815 945.121 281.081C945.488 281.347 945.95 281.48 946.508 281.48C947.28 281.48 947.914 281.284 948.408 280.891C948.914 280.498 949.168 279.992 949.168 279.371ZM954.125 283V272.968H956.424V274.526C957.222 273.348 958.267 272.759 959.559 272.759C960.674 272.759 961.548 273.107 962.181 273.804C962.814 274.501 963.131 275.438 963.131 276.616V283H960.832V277.3C960.832 276.515 960.642 275.913 960.262 275.495C959.895 275.064 959.369 274.849 958.685 274.849C958.014 274.849 957.469 275.071 957.051 275.514C956.633 275.957 956.424 276.565 956.424 277.338V283H954.125ZM974.324 283H972.044V281.765C971.233 282.728 970.15 283.209 968.795 283.209C967.794 283.209 966.946 282.937 966.249 282.392C965.565 281.835 965.223 281.062 965.223 280.074C965.223 278.997 965.597 278.18 966.344 277.623C967.091 277.066 968.073 276.787 969.289 276.787C970.264 276.787 971.189 276.926 972.063 277.205V277.015C972.063 276.318 971.848 275.786 971.417 275.419C970.999 275.052 970.391 274.868 969.593 274.868C968.681 274.868 967.725 275.077 966.724 275.495L966.097 273.652C967.338 273.095 968.611 272.816 969.916 272.816C971.373 272.816 972.468 273.183 973.203 273.918C973.95 274.653 974.324 275.698 974.324 277.053V283ZM972.101 279.371V278.801C971.417 278.535 970.651 278.402 969.802 278.402C969.08 278.402 968.516 278.541 968.111 278.82C967.706 279.099 967.503 279.491 967.503 279.998C967.503 280.454 967.687 280.815 968.054 281.081C968.421 281.347 968.884 281.48 969.441 281.48C970.214 281.48 970.847 281.284 971.341 280.891C971.848 280.498 972.101 279.992 972.101 279.371ZM981.524 286.078C979.852 286.078 978.357 285.679 977.04 284.881L977.895 283.152C979.035 283.861 980.225 284.216 981.467 284.216C982.493 284.216 983.278 283.95 983.823 283.418C984.367 282.899 984.64 282.139 984.64 281.138V280.359C983.69 281.588 982.512 282.202 981.106 282.202C979.864 282.202 978.794 281.771 977.895 280.91C976.995 280.049 976.546 278.902 976.546 277.471C976.546 276.052 976.995 274.912 977.895 274.051C978.807 273.19 979.877 272.759 981.106 272.759C982.499 272.759 983.671 273.329 984.621 274.469V272.968H986.92V280.948C986.92 282.62 986.495 283.88 985.647 284.729C984.747 285.628 983.373 286.078 981.524 286.078ZM981.714 280.264C982.524 280.264 983.215 280.004 983.785 279.485C984.367 278.953 984.659 278.282 984.659 277.471C984.659 276.66 984.367 275.995 983.785 275.476C983.215 274.957 982.524 274.697 981.714 274.697C980.903 274.697 980.225 274.957 979.681 275.476C979.136 275.983 978.864 276.654 978.864 277.49C978.864 278.301 979.136 278.966 979.681 279.485C980.238 280.004 980.916 280.264 981.714 280.264ZM994.385 283.228C992.916 283.228 991.687 282.74 990.699 281.765C989.724 280.79 989.236 279.529 989.236 277.984C989.236 276.527 989.698 275.292 990.623 274.279C991.548 273.266 992.719 272.759 994.138 272.759C995.658 272.759 996.836 273.278 997.672 274.317C998.521 275.343 998.945 276.622 998.945 278.155C998.945 278.434 998.932 278.649 998.907 278.801H991.535C991.662 279.599 991.985 280.226 992.504 280.682C993.023 281.125 993.663 281.347 994.423 281.347C995.411 281.347 996.317 280.948 997.14 280.15L998.489 281.347C997.45 282.601 996.082 283.228 994.385 283.228ZM991.516 277.281H996.665C996.589 276.508 996.329 275.875 995.886 275.381C995.443 274.887 994.854 274.64 994.119 274.64C993.422 274.64 992.84 274.887 992.371 275.381C991.902 275.862 991.617 276.496 991.516 277.281ZM1010.31 283.171C1008.39 283.171 1007.43 282.189 1007.43 280.226V274.944H1006.15V272.968H1007.43V270.213H1009.72V272.968H1012.42V274.944H1009.72V279.865C1009.72 280.701 1010.14 281.119 1010.96 281.119C1011.45 281.119 1011.93 281.005 1012.38 280.777V282.658C1011.78 283 1011.09 283.171 1010.31 283.171ZM1014.74 283V269.13H1017.04V274.526C1017.84 273.348 1018.89 272.759 1020.18 272.759C1021.29 272.759 1022.17 273.107 1022.8 273.804C1023.43 274.501 1023.75 275.438 1023.75 276.616V283H1021.45V277.3C1021.45 276.515 1021.26 275.913 1020.88 275.495C1020.51 275.064 1019.99 274.849 1019.3 274.849C1018.63 274.849 1018.09 275.071 1017.67 275.514C1017.25 275.957 1017.04 276.565 1017.04 277.338V283H1014.74ZM1031.12 283.228C1029.65 283.228 1028.43 282.74 1027.44 281.765C1026.46 280.79 1025.97 279.529 1025.97 277.984C1025.97 276.527 1026.44 275.292 1027.36 274.279C1028.29 273.266 1029.46 272.759 1030.88 272.759C1032.4 272.759 1033.57 273.278 1034.41 274.317C1035.26 275.343 1035.68 276.622 1035.68 278.155C1035.68 278.434 1035.67 278.649 1035.65 278.801H1028.27C1028.4 279.599 1028.72 280.226 1029.24 280.682C1029.76 281.125 1030.4 281.347 1031.16 281.347C1032.15 281.347 1033.05 280.948 1033.88 280.15L1035.23 281.347C1034.19 282.601 1032.82 283.228 1031.12 283.228ZM1028.25 277.281H1033.4C1033.33 276.508 1033.07 275.875 1032.62 275.381C1032.18 274.887 1031.59 274.64 1030.86 274.64C1030.16 274.64 1029.58 274.887 1029.11 275.381C1028.64 275.862 1028.36 276.496 1028.25 277.281ZM1043.69 286.04V272.968H1045.99V274.64C1046.87 273.386 1048.01 272.759 1049.39 272.759C1050.66 272.759 1051.75 273.234 1052.68 274.184C1053.6 275.121 1054.06 276.394 1054.06 278.003C1054.06 279.586 1053.6 280.853 1052.68 281.803C1051.75 282.74 1050.66 283.209 1049.39 283.209C1048.01 283.209 1046.87 282.62 1045.99 281.442V286.04H1043.69ZM1048.86 281.214C1049.67 281.214 1050.34 280.916 1050.89 280.321C1051.45 279.726 1051.73 278.94 1051.73 277.965C1051.73 277.015 1051.45 276.242 1050.89 275.647C1050.33 275.052 1049.65 274.754 1048.86 274.754C1048.06 274.754 1047.37 275.058 1046.79 275.666C1046.22 276.274 1045.93 277.053 1045.93 278.003C1045.93 278.94 1046.22 279.713 1046.79 280.321C1047.37 280.916 1048.06 281.214 1048.86 281.214ZM1056.42 283V272.968H1058.72V275.229C1059.43 273.519 1060.61 272.702 1062.27 272.778V275.21H1062.14C1061.1 275.21 1060.27 275.552 1059.65 276.236C1059.03 276.907 1058.72 277.889 1058.72 279.181V283H1056.42ZM1068.7 283.228C1067.18 283.228 1065.91 282.721 1064.9 281.708C1063.89 280.695 1063.38 279.46 1063.38 278.003C1063.38 276.546 1063.89 275.311 1064.92 274.298C1065.95 273.272 1067.22 272.759 1068.74 272.759C1070.26 272.759 1071.53 273.266 1072.54 274.279C1073.56 275.292 1074.08 276.534 1074.08 278.003C1074.08 279.447 1073.56 280.682 1072.54 281.708C1071.51 282.721 1070.23 283.228 1068.7 283.228ZM1068.74 281.233C1069.65 281.233 1070.39 280.923 1070.94 280.302C1071.5 279.681 1071.78 278.915 1071.78 278.003C1071.78 277.104 1071.49 276.344 1070.9 275.723C1070.32 275.09 1069.59 274.773 1068.7 274.773C1067.8 274.773 1067.07 275.083 1066.52 275.704C1065.96 276.325 1065.68 277.091 1065.68 278.003C1065.68 278.89 1065.97 279.65 1066.55 280.283C1067.14 280.916 1067.86 281.233 1068.74 281.233ZM1076.46 271.429V269.244H1078.93V271.429H1076.46ZM1075.92 286.097C1075.6 286.097 1075.23 286.065 1074.82 286.002V284.159C1075.05 284.197 1075.27 284.216 1075.47 284.216C1076.19 284.216 1076.55 283.811 1076.55 283V272.968H1078.85V283.133C1078.85 285.109 1077.88 286.097 1075.92 286.097ZM1086.45 283.228C1084.98 283.228 1083.76 282.74 1082.77 281.765C1081.79 280.79 1081.3 279.529 1081.3 277.984C1081.3 276.527 1081.77 275.292 1082.69 274.279C1083.62 273.266 1084.79 272.759 1086.21 272.759C1087.73 272.759 1088.9 273.278 1089.74 274.317C1090.59 275.343 1091.01 276.622 1091.01 278.155C1091.01 278.434 1091 278.649 1090.98 278.801H1083.6C1083.73 279.599 1084.05 280.226 1084.57 280.682C1085.09 281.125 1085.73 281.347 1086.49 281.347C1087.48 281.347 1088.39 280.948 1089.21 280.15L1090.56 281.347C1089.52 282.601 1088.15 283.228 1086.45 283.228ZM1083.58 277.281H1088.73C1088.66 276.508 1088.4 275.875 1087.95 275.381C1087.51 274.887 1086.92 274.64 1086.19 274.64C1085.49 274.64 1084.91 274.887 1084.44 275.381C1083.97 275.862 1083.69 276.496 1083.58 277.281ZM1097.96 283.228C1096.48 283.228 1095.24 282.721 1094.25 281.708C1093.27 280.695 1092.77 279.46 1092.77 278.003C1092.77 276.559 1093.27 275.324 1094.25 274.298C1095.25 273.272 1096.5 272.759 1097.98 272.759C1099.6 272.759 1100.93 273.335 1101.99 274.488L1100.56 276.027C1099.76 275.191 1098.9 274.773 1097.96 274.773C1097.13 274.773 1096.44 275.09 1095.89 275.723C1095.34 276.344 1095.07 277.104 1095.07 278.003C1095.07 278.915 1095.35 279.681 1095.91 280.302C1096.48 280.923 1097.2 281.233 1098.07 281.233C1099 281.233 1099.86 280.815 1100.68 279.979L1102.06 281.347C1101.52 281.955 1100.92 282.424 1100.28 282.753C1099.64 283.07 1098.87 283.228 1097.96 283.228ZM1107.54 283.171C1105.61 283.171 1104.65 282.189 1104.65 280.226V274.944H1103.38V272.968H1104.65V270.213H1106.95V272.968H1109.65V274.944H1106.95V279.865C1106.95 280.701 1107.36 281.119 1108.19 281.119C1108.68 281.119 1109.15 281.005 1109.61 280.777V282.658C1109 283 1108.31 283.171 1107.54 283.171ZM972.203 299.856L970.968 299.59C971.335 297.69 972.203 296.74 973.571 296.74C974.027 296.74 974.793 296.911 975.87 297.253C976.959 297.582 977.65 297.747 977.941 297.747C978.688 297.747 979.176 297.373 979.404 296.626L980.658 296.892C980.291 298.779 979.417 299.723 978.036 299.723C977.58 299.723 976.801 299.558 975.699 299.229C974.61 298.887 973.926 298.716 973.647 298.716C973.305 298.716 973.001 298.824 972.735 299.039C972.482 299.242 972.304 299.514 972.203 299.856ZM972.203 304.074L970.968 303.808C971.335 301.921 972.203 300.977 973.571 300.977C974.027 300.977 974.793 301.142 975.87 301.471C976.959 301.8 977.65 301.965 977.941 301.965C978.688 301.965 979.176 301.591 979.404 300.844L980.658 301.129C980.291 303.004 979.417 303.941 978.036 303.941C977.58 303.941 976.801 303.776 975.699 303.447C974.61 303.118 973.926 302.953 973.647 302.953C973.305 302.953 973.001 303.054 972.735 303.257C972.482 303.46 972.304 303.732 972.203 304.074ZM988.495 307V305.157L993.074 301.262C994.011 300.477 994.657 299.831 995.012 299.324C995.379 298.805 995.563 298.254 995.563 297.671C995.563 297.038 995.36 296.537 994.955 296.17C994.549 295.79 994.036 295.6 993.416 295.6C992.833 295.6 992.307 295.758 991.839 296.075C991.383 296.392 990.882 296.898 990.338 297.595L988.685 296.303C989.369 295.34 990.072 294.637 990.794 294.194C991.528 293.738 992.459 293.51 993.587 293.51C994.891 293.51 995.949 293.877 996.76 294.612C997.57 295.347 997.976 296.316 997.976 297.519C997.976 298.038 997.912 298.507 997.786 298.925C997.659 299.33 997.431 299.748 997.102 300.179C996.785 300.597 996.437 300.983 996.057 301.338C995.689 301.68 995.176 302.123 994.518 302.668L991.782 304.948H998.109V307H988.495ZM1008.77 307.076L1005.52 296.968H1007.88L1009.89 303.846L1012.11 296.93H1014.07L1016.31 303.846L1018.36 296.968H1020.66L1017.38 307.076H1015.32L1013.08 300.217L1010.82 307.076H1008.77ZM1026.84 307.228C1025.37 307.228 1024.14 306.74 1023.15 305.765C1022.18 304.79 1021.69 303.529 1021.69 301.984C1021.69 300.527 1022.15 299.292 1023.08 298.279C1024 297.266 1025.17 296.759 1026.59 296.759C1028.11 296.759 1029.29 297.278 1030.12 298.317C1030.97 299.343 1031.4 300.622 1031.4 302.155C1031.4 302.434 1031.38 302.649 1031.36 302.801H1023.99C1024.11 303.599 1024.44 304.226 1024.96 304.682C1025.48 305.125 1026.12 305.347 1026.88 305.347C1027.86 305.347 1028.77 304.948 1029.59 304.15L1030.94 305.347C1029.9 306.601 1028.53 307.228 1026.84 307.228ZM1023.97 301.281H1029.12C1029.04 300.508 1028.78 299.875 1028.34 299.381C1027.89 298.887 1027.31 298.64 1026.57 298.64C1025.87 298.64 1025.29 298.887 1024.82 299.381C1024.35 299.862 1024.07 300.496 1023.97 301.281ZM1038.3 307.228C1036.83 307.228 1035.61 306.74 1034.62 305.765C1033.64 304.79 1033.15 303.529 1033.15 301.984C1033.15 300.527 1033.62 299.292 1034.54 298.279C1035.47 297.266 1036.64 296.759 1038.06 296.759C1039.58 296.759 1040.75 297.278 1041.59 298.317C1042.44 299.343 1042.86 300.622 1042.86 302.155C1042.86 302.434 1042.85 302.649 1042.83 302.801H1035.45C1035.58 303.599 1035.9 304.226 1036.42 304.682C1036.94 305.125 1037.58 305.347 1038.34 305.347C1039.33 305.347 1040.24 304.948 1041.06 304.15L1042.41 305.347C1041.37 306.601 1040 307.228 1038.3 307.228ZM1035.43 301.281H1040.58C1040.51 300.508 1040.25 299.875 1039.8 299.381C1039.36 298.887 1038.77 298.64 1038.04 298.64C1037.34 298.64 1036.76 298.887 1036.29 299.381C1035.82 299.862 1035.54 300.496 1035.43 301.281ZM1045.17 307V293.13H1047.47V301.414L1051.63 296.968H1054.43L1050.44 301.053L1054.56 307H1051.9L1048.88 302.668L1047.47 304.131V307H1045.17ZM1059.67 307.19C1058.1 307.19 1056.68 306.69 1055.41 305.689L1056.44 304.131C1057.53 304.954 1058.63 305.366 1059.73 305.366C1060.22 305.366 1060.6 305.271 1060.87 305.081C1061.15 304.878 1061.29 304.6 1061.29 304.245C1061.29 304.068 1061.23 303.916 1061.13 303.789C1061.04 303.65 1060.88 303.523 1060.64 303.409C1060.4 303.295 1060.2 303.213 1060.03 303.162C1059.87 303.111 1059.59 303.029 1059.21 302.915L1059.04 302.858C1058.69 302.757 1058.38 302.662 1058.13 302.573C1057.89 302.472 1057.62 302.339 1057.31 302.174C1057.01 302.009 1056.76 301.832 1056.57 301.642C1056.38 301.439 1056.23 301.186 1056.1 300.882C1055.97 300.578 1055.91 300.236 1055.91 299.856C1055.91 298.931 1056.24 298.19 1056.92 297.633C1057.6 297.076 1058.45 296.797 1059.48 296.797C1060.79 296.797 1062.01 297.177 1063.17 297.937L1062.25 299.571C1061.22 298.938 1060.27 298.621 1059.42 298.621C1058.98 298.621 1058.63 298.716 1058.38 298.906C1058.14 299.096 1058.02 299.349 1058.02 299.666C1058.02 299.881 1058.13 300.078 1058.34 300.255C1058.57 300.432 1058.79 300.565 1059.01 300.654C1059.23 300.73 1059.59 300.85 1060.09 301.015C1060.11 301.028 1060.15 301.04 1060.18 301.053C1060.22 301.066 1060.25 301.072 1060.28 301.072C1060.72 301.211 1061.1 301.351 1061.4 301.49C1061.7 301.617 1062.02 301.794 1062.35 302.022C1062.69 302.25 1062.95 302.535 1063.13 302.877C1063.31 303.206 1063.39 303.593 1063.39 304.036C1063.39 305.049 1063.05 305.828 1062.35 306.373C1061.65 306.918 1060.76 307.19 1059.67 307.19Z" fill="#2F035B"/>
<path d="M638.103 493.504L639.6 493.606L639.395 496.599L637.898 496.497L638.103 493.504ZM563.001 495L577.536 485.581L578.426 502.878L563.001 495ZM637.898 496.497C620.171 495.283 593.045 495.344 576.526 495.806L576.443 492.807C592.998 492.344 620.234 492.28 638.103 493.504L637.898 496.497Z" fill="#2F035B"/>
<path d="M467.934 79.0703L458.021 64.8666L450.677 80.5528L467.934 79.0703ZM261.476 134.621C274.327 110.534 297.199 84.4258 329.581 69.9063C361.912 55.4102 403.869 52.3975 455.094 74.7139L456.292 71.9636C404.358 49.3384 361.518 52.299 328.354 67.1689C295.242 82.0155 271.923 108.666 258.829 133.209L261.476 134.621Z" fill="#2F035B"/>
<path d="M945.371 135.379L943.57 118.152L929.552 128.324L945.371 135.379ZM737.817 84.0744C760.719 69.2156 793.37 57.4375 828.734 60.4031C864.042 63.364 902.216 81.033 936.243 125.352L938.622 123.525C904.125 78.5928 865.203 60.4509 828.985 57.4136C792.824 54.3811 759.52 66.4175 736.184 81.5577L737.817 84.0744Z" fill="#2F035B"/>
<path d="M165.523 349.341L156.93 364.379L174.25 364.302L165.523 349.341ZM233.018 480.349C207.11 467.789 169.681 430.687 167.082 362.779L164.084 362.894C166.728 431.957 204.848 470.026 231.709 483.048L233.018 480.349Z" fill="#2F035B"/>
<path d="M977.865 475.834L995.18 475.4L986.146 460.622L977.865 475.834ZM1058.4 352.061C1059.54 380.114 1045.08 430.416 988.559 467.54L990.206 470.047C1047.62 432.335 1062.58 381.026 1061.4 351.939L1058.4 352.061Z" fill="#2F035B"/>
<circle cx="178.501" cy="193.5" r="36.5" fill="#2F035B" stroke="#2F035B" stroke-width="2"/>
<circle cx="394.501" cy="436.5" r="36.5" fill="#2F035B" stroke="#2F035B" stroke-width="2"/>
<circle cx="811.501" cy="436.5" r="36.5" fill="#2F035B" stroke="#2F035B" stroke-width="2"/>
<circle cx="1017.5" cy="193.5" r="36.5" fill="#2F035B" stroke="#2F035B" stroke-width="2"/>
<circle cx="599.501" cy="97.5" r="36.5" fill="#2F035B" stroke="#2F035B" stroke-width="2"/>
<path d="M1017.04 202.276C1014.48 202.276 1012.43 201.333 1010.88 199.447L1012.86 197.607C1014.05 199.018 1015.47 199.723 1017.09 199.723C1017.9 199.723 1018.57 199.501 1019.09 199.056C1019.61 198.596 1019.87 197.99 1019.87 197.239C1019.87 196.457 1019.54 195.851 1018.86 195.422C1018.2 194.977 1017.31 194.755 1016.17 194.755H1014.86L1014.4 192.984L1018.75 188.361H1011.78V185.9H1022.43V188.016L1017.94 192.616C1019.35 192.815 1020.49 193.291 1021.37 194.042C1022.24 194.778 1022.68 195.828 1022.68 197.193C1022.68 198.68 1022.15 199.899 1021.09 200.85C1020.05 201.801 1018.7 202.276 1017.04 202.276Z" fill="white"/>
<path d="M812.649 445V441.389H804.53L804.001 439.365L812.948 428.785H815.363V439.066H817.663V441.389H815.363V445H812.649ZM807.359 439.066H812.649V432.695L807.359 439.066Z" fill="white"/>
<path d="M393.839 445.276C391.585 445.276 389.615 444.456 387.928 442.815L389.676 440.768C391.056 442.056 392.436 442.7 393.816 442.7C394.782 442.7 395.556 442.447 396.139 441.941C396.722 441.42 397.013 440.73 397.013 439.871C397.013 439.058 396.699 438.414 396.07 437.939C395.457 437.448 394.659 437.203 393.678 437.203C392.712 437.203 391.723 437.441 390.711 437.916L389.009 436.789L389.469 428.9H399.083V431.407H391.907L391.654 435.179C392.497 434.872 393.348 434.719 394.207 434.719C395.848 434.719 397.189 435.156 398.232 436.03C399.275 436.904 399.796 438.169 399.796 439.825C399.796 441.466 399.244 442.784 398.14 443.781C397.051 444.778 395.618 445.276 393.839 445.276Z" fill="white"/>
<path d="M593.075 106V103.769L598.618 99.054C599.753 98.1033 600.535 97.3213 600.964 96.708C601.409 96.0793 601.631 95.4123 601.631 94.707C601.631 93.9403 601.386 93.3347 600.895 92.89C600.404 92.43 599.783 92.2 599.032 92.2C598.327 92.2 597.69 92.3917 597.123 92.775C596.571 93.1583 595.965 93.7717 595.306 94.615L593.305 93.051C594.133 91.8857 594.984 91.0347 595.858 90.498C596.747 89.946 597.874 89.67 599.239 89.67C600.818 89.67 602.099 90.1147 603.08 91.004C604.061 91.8933 604.552 93.0663 604.552 94.523C604.552 95.1517 604.475 95.719 604.322 96.225C604.169 96.7157 603.893 97.2217 603.494 97.743C603.111 98.249 602.689 98.7167 602.229 99.146C601.784 99.56 601.163 100.097 600.366 100.756L597.054 103.516H604.713V106H593.075Z" fill="white"/>
<path d="M177.535 202V188.66L174.637 189.465L174.039 187.165L178.363 185.785H180.341V202H177.535Z" fill="white"/>
<defs>
<filter id="filter0_d_2_984" x="0.100731" y="96.1001" width="356.581" height="275.165" filterUnits="userSpaceOnUse" color-interpolation-filters="sRGB">
<feFlood flood-opacity="0" result="BackgroundImageFix"/>
<feColorMatrix in="SourceAlpha" type="matrix" values="0 0 0 0 0 0 0 0 0 0 0 0 0 0 0 0 0 0 127 0" result="hardAlpha"/>
<feOffset/>
<feGaussianBlur stdDeviation="20.45"/>
<feColorMatrix type="matrix" values="0 0 0 0 0.666213 0 0 0 0 0.846023 0 0 0 0 0.736139 0 0 0 1 0"/>
<feBlend mode="normal" in2="BackgroundImageFix" result="effect1_dropShadow_2_984"/>
<feBlend mode="normal" in="SourceGraphic" in2="effect1_dropShadow_2_984" result="shape"/>
</filter>
<filter id="filter1_d_2_984" x="421.101" y="0.10006" width="356.581" height="275.165" filterUnits="userSpaceOnUse" color-interpolation-filters="sRGB">
<feFlood flood-opacity="0" result="BackgroundImageFix"/>
<feColorMatrix in="SourceAlpha" type="matrix" values="0 0 0 0 0 0 0 0 0 0 0 0 0 0 0 0 0 0 127 0" result="hardAlpha"/>
<feOffset/>
<feGaussianBlur stdDeviation="20.45"/>
<feColorMatrix type="matrix" values="0 0 0 0 0.666213 0 0 0 0 0.846023 0 0 0 0 0.736139 0 0 0 1 0"/>
<feBlend mode="normal" in2="BackgroundImageFix" result="effect1_dropShadow_2_984"/>
<feBlend mode="normal" in="SourceGraphic" in2="effect1_dropShadow_2_984" result="shape"/>
</filter>
<filter id="filter2_d_2_984" x="838.101" y="97.1001" width="356.581" height="275.165" filterUnits="userSpaceOnUse" color-interpolation-filters="sRGB">
<feFlood flood-opacity="0" result="BackgroundImageFix"/>
<feColorMatrix in="SourceAlpha" type="matrix" values="0 0 0 0 0 0 0 0 0 0 0 0 0 0 0 0 0 0 127 0" result="hardAlpha"/>
<feOffset/>
<feGaussianBlur stdDeviation="20.45"/>
<feColorMatrix type="matrix" values="0 0 0 0 0.666213 0 0 0 0 0.846023 0 0 0 0 0.736139 0 0 0 1 0"/>
<feBlend mode="normal" in2="BackgroundImageFix" result="effect1_dropShadow_2_984"/>
<feBlend mode="normal" in="SourceGraphic" in2="effect1_dropShadow_2_984" result="shape"/>
</filter>
<filter id="filter3_d_2_984" x="632.101" y="337.1" width="356.581" height="275.165" filterUnits="userSpaceOnUse" color-interpolation-filters="sRGB">
<feFlood flood-opacity="0" result="BackgroundImageFix"/>
<feColorMatrix in="SourceAlpha" type="matrix" values="0 0 0 0 0 0 0 0 0 0 0 0 0 0 0 0 0 0 127 0" result="hardAlpha"/>
<feOffset/>
<feGaussianBlur stdDeviation="20.45"/>
<feColorMatrix type="matrix" values="0 0 0 0 0.666213 0 0 0 0 0.846023 0 0 0 0 0.736139 0 0 0 1 0"/>
<feBlend mode="normal" in2="BackgroundImageFix" result="effect1_dropShadow_2_984"/>
<feBlend mode="normal" in="SourceGraphic" in2="effect1_dropShadow_2_984" result="shape"/>
</filter>
<filter id="filter4_d_2_984" x="213.101" y="337.1" width="356.581" height="275.165" filterUnits="userSpaceOnUse" color-interpolation-filters="sRGB">
<feFlood flood-opacity="0" result="BackgroundImageFix"/>
<feColorMatrix in="SourceAlpha" type="matrix" values="0 0 0 0 0 0 0 0 0 0 0 0 0 0 0 0 0 0 127 0" result="hardAlpha"/>
<feOffset/>
<feGaussianBlur stdDeviation="20.45"/>
<feColorMatrix type="matrix" values="0 0 0 0 0.666213 0 0 0 0 0.846023 0 0 0 0 0.736139 0 0 0 1 0"/>
<feBlend mode="normal" in2="BackgroundImageFix" result="effect1_dropShadow_2_984"/>
<feBlend mode="normal" in="SourceGraphic" in2="effect1_dropShadow_2_984" result="shape"/>
</filter>
</defs>
</svg>
