<svg viewBox="0 0 25 24" fill="none" xmlns="http://www.w3.org/2000/svg">
<path d="M17.4796 14.9C16.6796 14.9 15.9796 14.3 15.9796 13.5V11.3C15.9796 10.5 16.6796 9.90002 17.4796 9.90002C19.1796 9.90002 20.4796 8.6 20.4796 7C20.4796 5.4 19.1796 4.09997 17.4796 4.09997C15.7796 4.09997 14.4796 5.4 14.4796 7C14.4796 7.8 13.7796 8.40002 12.9796 8.40002C12.1796 8.40002 11.4796 7.8 11.4796 7C11.4796 4 13.8796 1.49999 16.9796 1.29999C20.0796 0.999987 22.8796 3.09997 23.3796 6.09997C23.8796 9.09997 21.9796 11.9 18.9796 12.6V13.5C18.9796 14.2 18.2796 14.9 17.4796 14.9Z" stroke="white" stroke-width="1.5" stroke-linecap="round" stroke-linejoin="round"/>
<path d="M17.4796 21.2999C18.6796 21.2999 19.6796 20.2999 19.6796 19.0999C19.6796 17.8999 18.6796 16.8999 17.4796 16.8999C16.2796 16.8999 15.2796 17.8999 15.2796 19.0999C15.1796 20.3999 16.1796 21.2999 17.4796 21.2999Z" stroke="white" stroke-width="1.5" stroke-linecap="round" stroke-linejoin="round"/>
<path d="M6.97965 9.1001C7.77965 9.1001 8.47965 9.70012 8.47965 10.5001V12.7001C8.47965 13.5001 7.77965 14.1001 6.97965 14.1001C5.27965 14.1001 3.97965 15.4001 3.97965 17.0001C3.97965 18.6001 5.27965 19.9001 6.97965 19.9001C8.67965 19.9001 9.97965 18.6001 9.97965 17.0001C9.97965 16.2001 10.6797 15.6001 11.4797 15.6001C12.2797 15.6001 12.9797 16.2001 12.9797 17.0001C12.9797 20.0001 10.5797 22.5001 7.47965 22.7001C4.37965 22.9001 1.57966 20.9001 1.07966 17.9001C0.57966 14.9001 2.47965 12.1001 5.47965 11.4001V10.5001C5.47965 10.1001 5.67965 9.80012 5.87965 9.50012C6.17965 9.20012 6.57965 9.1001 6.97965 9.1001Z" stroke="white" stroke-width="1.5" stroke-linecap="round" stroke-linejoin="round"/>
<path d="M6.97964 6.90002C8.17964 6.90002 9.17962 5.90001 9.17962 4.70001C9.17962 3.50001 8.17964 2.5 6.97964 2.5C5.77964 2.5 4.77963 3.50001 4.77963 4.70001C4.67963 6.00001 5.67964 6.90002 6.97964 6.90002Z" stroke="white" stroke-width="1.5" stroke-linecap="round" stroke-linejoin="round"/>
</svg>
