<svg viewBox="0 0 23 22" fill="none" xmlns="http://www.w3.org/2000/svg">
<path d="M4.03922 7L7.83923 1" stroke="white" stroke-width="1.5" stroke-linecap="round" stroke-linejoin="round"/>
<path d="M19.0392 7L15.2392 1" stroke="white" stroke-width="1.5" stroke-linecap="round" stroke-linejoin="round"/>
<path d="M18.4392 20.5H4.53923C3.83923 20.5 3.33923 20 3.13923 19.4L1.03923 8.90002C0.939228 8.50002 1.03924 8.0001 1.23924 7.6001C1.53924 7.2001 1.93925 7 2.33925 7H20.4392C20.9392 7 21.3392 7.2001 21.5392 7.6001C21.8392 8.0001 21.9392 8.40002 21.7392 8.90002L19.6392 19.4C19.7392 20.1 19.1392 20.5 18.4392 20.5Z" stroke="white" stroke-width="1.5" stroke-linecap="round" stroke-linejoin="round"/>
<path d="M8.53922 10.3C8.73922 10.3 8.93921 10.5001 8.93921 10.7001C8.93921 10.9001 8.73922 11.1001 8.53922 11.1001C8.33922 11.1001 8.13922 10.9001 8.13922 10.7001C8.13922 10.5001 8.33922 10.3 8.53922 10.3Z" stroke="white" stroke-width="1.5" stroke-linecap="round" stroke-linejoin="round"/>
<path d="M14.5392 10.3C14.7392 10.3 14.9392 10.5001 14.9392 10.7001C14.9392 10.9001 14.7392 11.1001 14.5392 11.1001C14.3392 11.1001 14.1392 10.9001 14.1392 10.7001C14.1392 10.5001 14.3392 10.3 14.5392 10.3Z" stroke="white" stroke-width="1.5" stroke-linecap="round" stroke-linejoin="round"/>
<path d="M15.7392 17.5C14.8392 16.1 13.2392 15.3 11.5392 15.3C9.83922 15.3 8.23923 16.1 7.33923 17.5" stroke="white" stroke-width="1.5" stroke-linecap="round" stroke-linejoin="round"/>
</svg>
