<svg viewBox="0 0 25 25" fill="none" xmlns="http://www.w3.org/2000/svg">
<path d="M17.4 20.5C17.6 20.5 17.8 20.7 17.8 20.9C17.8 21.1 17.6 21.3 17.4 21.3C17.2 21.3 17 21.1 17 20.9C17 20.7 17.2 20.5 17.4 20.5Z" stroke="white" stroke-width="1.5" stroke-linecap="round" stroke-linejoin="round"/>
<path d="M17.4 18.2V15.2" stroke="white" stroke-width="1.5" stroke-linecap="round" stroke-linejoin="round"/>
<path d="M23.3 20.8999C23.6 21.3999 23.5 22.0999 23.2 22.5999C22.9 23.0999 22.3 23.3999 21.7 23.3999H13.2C12.6 23.3999 12 23.0999 11.7 22.5999C11.4 22.0999 11.3 21.3999 11.6 20.8999L15.8 12.3999C16.1 11.7999 16.7 11.3999 17.4 11.3999C18.1 11.3999 18.7 11.7999 19 12.3999L23.3 20.8999Z" stroke="white" stroke-width="1.5" stroke-linecap="round" stroke-linejoin="round"/>
<path d="M10.4 4.79999C10.5 5.39999 10.3 5.89999 9.89999 6.29999C9.49999 6.69999 8.99999 7 8.39999 7C7.79999 7 7.29999 6.79999 6.89999 6.29999C6.49999 5.89999 6.39999 5.29999 6.39999 4.79999L6.89999 1H9.89999L10.4 4.79999Z" stroke="white" stroke-width="1.5" stroke-linecap="round" stroke-linejoin="round"/>
<path d="M8.39999 9.6001C8.59999 9.6001 8.79999 9.80012 8.79999 10.0001C8.79999 10.2001 8.59999 10.4001 8.39999 10.4001C8.19999 10.4001 8 10.2001 8 10.0001C8 9.80012 8.19999 9.6001 8.39999 9.6001Z" stroke="white" stroke-width="1.5" stroke-linecap="round" stroke-linejoin="round"/>
<path d="M8.39999 13.3C8.59999 13.3 8.79999 13.5001 8.79999 13.7001C8.79999 13.9001 8.59999 14.1 8.39999 14.1C8.19999 14.1 8 13.9001 8 13.7001C8 13.5001 8.19999 13.3 8.39999 13.3Z" stroke="white" stroke-width="1.5" stroke-linecap="round" stroke-linejoin="round"/>
<path d="M8.39999 17.1001C8.59999 17.1001 8.79999 17.3001 8.79999 17.5001C8.79999 17.7001 8.59999 17.9001 8.39999 17.9001C8.19999 17.9001 8 17.7001 8 17.5001C8 17.3001 8.19999 17.1001 8.39999 17.1001Z" stroke="white" stroke-width="1.5" stroke-linecap="round" stroke-linejoin="round"/>
<path d="M7.69998 20.5H2.5C1.7 20.5 1 19.8 1 19V2.5C1 1.7 1.7 1 2.5 1H13.1C13.5 1 13.9 1.20002 14.2 1.40002L17.1 4.29999C17.4 4.59999 17.5 5.00002 17.5 5.40002V8.5" stroke="white" stroke-width="1.5" stroke-linecap="round" stroke-linejoin="round"/>
</svg>
