<svg viewBox="0 0 24 25" fill="none" xmlns="http://www.w3.org/2000/svg">
<path d="M5.36567 4.10001C3.46567 6.40001 2.46568 9.80002 1.06568 13.4C0.965683 13.6 0.965689 13.9 1.16569 14.1C1.26569 14.3 1.5657 14.4 1.7657 14.4H3.66569V17.4C3.66569 19.1 4.96569 20.4 6.66569 20.4H8.16569V23.4" stroke="white" stroke-width="1.5" stroke-linecap="round" stroke-linejoin="round"/>
<path d="M18.6657 23.4V17.1C20.0657 15.8 21.0657 14.1 21.4657 12.2" stroke="white" stroke-width="1.5" stroke-linecap="round" stroke-linejoin="round"/>
<path d="M20.8657 1.70001V6.20001" stroke="white" stroke-width="1.5" stroke-linecap="round" stroke-linejoin="round"/>
<path d="M18.6657 3.90002H23.1657" stroke="white" stroke-width="1.5" stroke-linecap="round" stroke-linejoin="round"/>
<path d="M12.6657 9.90002H17.8657" stroke="white" stroke-width="1.5" stroke-linecap="round" stroke-linejoin="round"/>
<path d="M15.2657 6.90002C15.4657 6.90002 15.6657 7.10002 15.6657 7.30002" stroke="white" stroke-width="1.5" stroke-linecap="round" stroke-linejoin="round"/>
<path d="M14.8657 7.30002C14.8657 7.10002 15.0657 6.90002 15.2657 6.90002" stroke="white" stroke-width="1.5" stroke-linecap="round" stroke-linejoin="round"/>
<path d="M15.2657 7.70001C15.1657 7.70001 15.0657 7.70001 14.9657 7.60001C14.8657 7.50001 14.8657 7.40002 14.8657 7.30002" stroke="white" stroke-width="1.5" stroke-linecap="round" stroke-linejoin="round"/>
<path d="M15.6657 7.30002C15.6657 7.40002 15.6657 7.50001 15.5657 7.60001C15.4657 7.70001 15.3657 7.70001 15.2657 7.70001" stroke="white" stroke-width="1.5" stroke-linecap="round" stroke-linejoin="round"/>
<path d="M15.2657 12.2C15.4657 12.2 15.6657 12.4 15.6657 12.6" stroke="white" stroke-width="1.5" stroke-linecap="round" stroke-linejoin="round"/>
<path d="M14.8657 12.6C14.8657 12.5 14.8657 12.4 14.9657 12.3C15.0657 12.2 15.1657 12.2 15.2657 12.2" stroke="white" stroke-width="1.5" stroke-linecap="round" stroke-linejoin="round"/>
<path d="M15.2657 12.9C15.1657 12.9 15.0657 12.9 14.9657 12.8C14.8657 12.7 14.8657 12.6 14.8657 12.5" stroke="white" stroke-width="1.5" stroke-linecap="round" stroke-linejoin="round"/>
<path d="M15.6657 12.6C15.6657 12.7 15.6657 12.8 15.5657 12.9C15.4657 13 15.3657 13 15.2657 13" stroke="white" stroke-width="1.5" stroke-linecap="round" stroke-linejoin="round"/>
<path d="M8.86566 3.20001L9.66568 4L10.4657 1H14.9657" stroke="white" stroke-width="1.5" stroke-linecap="round" stroke-linejoin="round"/>
</svg>
