<svg viewBox="0 0 25 25" fill="none" xmlns="http://www.w3.org/2000/svg">
<path d="M20.4826 17.3999V14.3999H13.6826V12.8999H8.4826V22.2999C8.4826 22.8999 8.8826 23.2999 9.4826 23.3999C10.0826 23.4999 10.5826 23.1 10.6826 22.6L12.1826 17.3999H23.3826L22.2826 22.5C22.1826 23 21.6826 23.3999 21.1826 23.3999H9.58264" stroke="white" stroke-width="1.5" stroke-linecap="round" stroke-linejoin="round"/>
<path d="M22.6826 13.7C23.8826 11.7 23.5826 9.19998 21.9826 7.59998C20.2826 5.99998 17.7826 5.79998 15.8826 7.09998C15.1826 3.59998 12.1826 1 8.58264 1C4.98264 1 1.88262 3.3999 1.18262 6.8999C0.382615 10.3999 2.2826 13.8999 5.4826 15.3999" stroke="white" stroke-width="1.5" stroke-linecap="round" stroke-linejoin="round"/>
</svg>
