<svg viewBox="0 0 25 25" fill="none" xmlns="http://www.w3.org/2000/svg">
<path d="M3.70001 21.4C5.10001 21.4 6.29999 20.2 6.29999 18.8C6.29999 17.4 5.10001 16.2 3.70001 16.2C2.30001 16.2 1 17.3 1 18.8C1 20.2 2.20001 21.4 3.70001 21.4Z" stroke="white" stroke-width="1.5" stroke-linecap="round" stroke-linejoin="round"/>
<path d="M6.90002 23.5C5.30002 21.9 2.89998 21.7 1.09998 23" stroke="white" stroke-width="1.5" stroke-linecap="round" stroke-linejoin="round"/>
<path d="M20.9 21.4C22.3 21.4 23.5 20.2 23.5 18.8C23.5 17.4 22.3 16.2 20.9 16.2C19.5 16.2 18.3 17.4 18.3 18.8C18.3 20.2 19.5 21.4 20.9 21.4Z" stroke="white" stroke-width="1.5" stroke-linecap="round" stroke-linejoin="round"/>
<path d="M17.8 23.4C19.4 21.9 21.8 21.7 23.5 23" stroke="white" stroke-width="1.5" stroke-linecap="round" stroke-linejoin="round"/>
<path d="M12.3 21.4C14.2 21.4 15.7 19.9 15.7 18C15.7 16.1 14.2 14.6 12.3 14.6C10.4 14.6 8.90002 16.1 8.90002 18C8.90002 19.9 10.4 21.4 12.3 21.4Z" stroke="white" stroke-width="1.5" stroke-linecap="round" stroke-linejoin="round"/>
<path d="M15 23.5C13.3 22.6 11.3 22.6 9.59998 23.5" stroke="white" stroke-width="1.5" stroke-linecap="round" stroke-linejoin="round"/>
<path d="M16 4.89999C16 2.99999 14.6 1.39999 12.8 1.19999C11 0.999993 9.2 2.09999 8.7 3.89999C8.2 5.69999 9.09997 7.59999 10.8 8.39999V10.2H13.8V8.39999C15.1 7.69999 16 6.39999 16 4.89999Z" stroke="white" stroke-width="1.5" stroke-linecap="round" stroke-linejoin="round"/>
<path d="M10.8 12.4H13.8" stroke="white" stroke-width="1.5" stroke-linecap="round" stroke-linejoin="round"/>
<path d="M20.1 5.5H21.6" stroke="white" stroke-width="1.5" stroke-linecap="round" stroke-linejoin="round"/>
<path d="M19.8 9L20.9 10.1" stroke="white" stroke-width="1.5" stroke-linecap="round" stroke-linejoin="round"/>
<path d="M19.8 2.10001L20.9 1" stroke="white" stroke-width="1.5" stroke-linecap="round" stroke-linejoin="round"/>
<path d="M4.5 5.5H3" stroke="white" stroke-width="1.5" stroke-linecap="round" stroke-linejoin="round"/>
<path d="M4.79999 9L3.70001 10.1" stroke="white" stroke-width="1.5" stroke-linecap="round" stroke-linejoin="round"/>
<path d="M4.79999 2.10001L3.70001 1" stroke="white" stroke-width="1.5" stroke-linecap="round" stroke-linejoin="round"/>
</svg>
