<svg viewBox="0 0 25 25" fill="none" xmlns="http://www.w3.org/2000/svg">
<path d="M22.8 15.1L15.2 22.7L11.4 23.5L12.2 19.7L19.8 12.1C20.2 11.7 20.7 11.5 21.3 11.5C21.9 11.5 22.4 11.7 22.8 12.1C23.2 12.5 23.4 13 23.4 13.6C23.4 14.1 23.2 14.7 22.8 15.1Z" stroke="white" stroke-width="1.5" stroke-linecap="round" stroke-linejoin="round"/>
<path d="M3.89999 7H14.4" stroke="white" stroke-width="1.5" stroke-linecap="round" stroke-linejoin="round"/>
<path d="M3.89999 11.5H14.4" stroke="white" stroke-width="1.5" stroke-linecap="round" stroke-linejoin="round"/>
<path d="M3.89999 16H9.10001" stroke="white" stroke-width="1.5" stroke-linecap="round" stroke-linejoin="round"/>
<path d="M7.69998 20.5H2.5C1.7 20.5 1 19.8 1 19V2.5C1 1.7 1.7 1 2.5 1H13.1C13.5 1 13.9 1.19999 14.2 1.39999L17.1 4.29999C17.4 4.59999 17.5 4.99999 17.5 5.39999V8.5" stroke="white" stroke-width="1.5" stroke-linecap="round" stroke-linejoin="round"/>
</svg>
