<svg viewBox="0 0 25 25" fill="none" xmlns="http://www.w3.org/2000/svg">
<path d="M19.0169 15.7499C19.2169 15.7499 19.4169 15.95 19.4169 16.15C19.4169 16.35 19.2169 16.5499 19.0169 16.5499C18.8169 16.5499 18.6169 16.35 18.6169 16.15C18.6169 15.95 18.8169 15.7499 19.0169 15.7499Z" stroke="white" stroke-width="1.5" stroke-linecap="round" stroke-linejoin="round"/>
<path d="M19.0169 11.65C21.5169 11.65 23.5169 13.65 23.5169 16.15C23.5169 18.05 20.8169 21.7499 19.6169 23.2499C19.5169 23.4499 19.2169 23.5499 19.0169 23.5499C18.8169 23.5499 18.6169 23.4499 18.4169 23.2499C17.2169 21.6499 14.5169 18.05 14.5169 16.15C14.5169 13.65 16.5169 11.65 19.0169 11.65Z" stroke="white" stroke-width="1.5" stroke-linecap="round" stroke-linejoin="round"/>
<path d="M14.5169 23.35C8.41691 24.55 2.51692 20.6499 1.21692 14.5499C0.0169218 8.44995 3.91693 2.54995 9.91693 1.24995C16.0169 -0.0500486 21.9169 3.84995 23.2169 9.94995" stroke="white" stroke-width="1.5" stroke-linecap="round" stroke-linejoin="round"/>
<path d="M9.51691 23.2499C8.01691 21.0499 7.01691 16.95 7.01691 12.35C7.01691 7.74995 8.01691 3.64995 9.51691 1.44995" stroke="white" stroke-width="1.5" stroke-linecap="round" stroke-linejoin="round"/>
<path d="M1.01691 11.5499H13.0169" stroke="white" stroke-width="1.5" stroke-linecap="round" stroke-linejoin="round"/>
<path d="M3.21692 5.54995H21.2169" stroke="white" stroke-width="1.5" stroke-linecap="round" stroke-linejoin="round"/>
<path d="M2.31693 17.5499H11.5169" stroke="white" stroke-width="1.5" stroke-linecap="round" stroke-linejoin="round"/>
<path d="M14.9169 1.44995C16.2169 3.64995 17.0169 6.04996 17.2169 8.64996" stroke="white" stroke-width="1.5" stroke-linecap="round" stroke-linejoin="round"/>
</svg>
