<svg viewBox="0 0 25 25" fill="none" xmlns="http://www.w3.org/2000/svg">
<path d="M12.2361 19.7039C16.3361 19.7039 19.7361 16.3039 19.7361 12.2039C19.7361 8.10386 16.3361 4.70386 12.2361 4.70386C8.13608 4.70386 4.73608 8.10386 4.73608 12.2039C4.73608 16.3039 8.03608 19.7039 12.2361 19.7039Z" stroke="white" stroke-width="1.5" stroke-linecap="round" stroke-linejoin="round"/>
<path d="M17.5361 17.5039L23.4361 23.4039" stroke="white" stroke-width="1.5" stroke-linecap="round" stroke-linejoin="round"/>
<path d="M22.3361 17.1039C24.6361 12.2039 23.2361 6.40391 18.9361 3.20391C14.6361 0.00391245 8.53608 0.303961 4.63608 4.00396C0.636082 7.70396 -0.163912 13.6039 2.73609 18.2039L1.83609 22.7039L6.33609 21.804C9.53609 23.804 13.5361 24.004 16.9361 22.504" stroke="white" stroke-width="1.5" stroke-linecap="round" stroke-linejoin="round"/>
<path d="M12.2361 15.2039C14.1361 15.2039 15.9361 14.3039 17.2361 12.9039C17.5361 12.5039 17.5361 11.9039 17.2361 11.5039C16.0361 10.0039 14.1361 9.20386 12.2361 9.20386C10.3361 9.20386 8.53608 10.0039 7.23608 11.5039C6.93608 11.9039 6.93608 12.5039 7.23608 12.9039C8.53608 14.3039 10.3361 15.2039 12.2361 15.2039Z" stroke="white" stroke-width="1.5" stroke-linecap="round" stroke-linejoin="round"/>
<path d="M12.2361 11.804C12.4361 11.804 12.6361 12.0039 12.6361 12.2039C12.6361 12.4039 12.4361 12.6039 12.2361 12.6039C12.0361 12.6039 11.8361 12.4039 11.8361 12.2039C11.8361 12.0039 12.0361 11.804 12.2361 11.804Z" stroke="white" stroke-width="1.5" stroke-linecap="round" stroke-linejoin="round"/>
</svg>
