<svg xmlns="http://www.w3.org/2000/svg" viewBox="0 0 489.92 431.81"><defs><style>.cls-1{fill:#300b67;}</style></defs><title>deepindustry</title><g id="Слой_2" data-name="Слой 2"><g><path class="cls-1" d="M423.88,289.56v-5.21A15.88,15.88,0,0,0,420,253.08a8.09,8.09,0,1,1,7.93-9.88,3.87,3.87,0,0,0,4.67,3,3.92,3.92,0,0,0,3-4.67,15.72,15.72,0,0,0-11.67-11.82v-5.21a3.89,3.89,0,1,0-7.78,0v5.13A15.88,15.88,0,0,0,420,260.86a8.09,8.09,0,1,1-8,9.33,3.89,3.89,0,0,0-7.7,1.17,15.82,15.82,0,0,0,11.82,12.91v5.21a3.89,3.89,0,0,0,7.78.08Z"/><path class="cls-1" d="M489.92,257A70.94,70.94,0,1,0,407,326.81v15.32H401.8a3.85,3.85,0,0,0-3.89,3.89v64.71a21.08,21.08,0,0,0,42.15,0V346a3.85,3.85,0,0,0-3.89-3.89H431V326.81a70.89,70.89,0,0,0,59-69.84Zm-134,0a63.16,63.16,0,1,1,63.15,63.15A63.2,63.2,0,0,1,355.91,257Zm76.38,153.77a13.3,13.3,0,0,1-4.05,9.57A13.16,13.16,0,0,1,419,424a13.35,13.35,0,0,1-13.3-13.3V349.92h26.6Zm-9.1-68.6h-8.4V327.68c1.4.07,2.8.23,4.2.23s2.8-.16,4.2-.23Z"/><path class="cls-1" d="M473.12,257A54.14,54.14,0,1,0,419,311.1,54.17,54.17,0,0,0,473.12,257Zm-100.41,0a46.36,46.36,0,1,1,46.35,46.35A46.42,46.42,0,0,1,372.71,257Z"/><path class="cls-1" d="M384.3,367.88H56.62A49,49,0,0,1,7.7,319v-1.17a41.12,41.12,0,0,1,41.06-41.06,41.16,41.16,0,0,1,41.15,41.06,3.89,3.89,0,0,0,7.78,0V68.67H427.54V173.75a3.9,3.9,0,0,0,7.79,0v-109a3.85,3.85,0,0,0-3.89-3.89H97.69v-12A48.85,48.85,0,1,0,0,48.84V318.89a56.76,56.76,0,0,0,56.7,56.7H384.38a3.85,3.85,0,1,0-.08-7.7ZM7.7,48.84a41.11,41.11,0,0,1,82.21,0V291.43a49.21,49.21,0,0,0-6.54-8.09A48.41,48.41,0,0,0,48.76,269,48.91,48.91,0,0,0,7.7,291.35Z"/><path class="cls-1" d="M129,264h29.71a3.85,3.85,0,0,0,3.89-3.89V160.52a3.85,3.85,0,0,0-3.89-3.89H129a3.85,3.85,0,0,0-3.89,3.89v99.63A3.88,3.88,0,0,0,129,264Zm3.89-99.56h21.93v91.86H132.92Z"/><path class="cls-1" d="M215.05,264a3.85,3.85,0,0,0,3.89-3.89V205.17a3.85,3.85,0,0,0-3.89-3.89H185.34a3.85,3.85,0,0,0-3.89,3.89v54.91a3.85,3.85,0,0,0,3.89,3.89Zm-25.82-54.91h21.93v47.13H189.23Z"/><path class="cls-1" d="M271.29,264a3.85,3.85,0,0,0,3.89-3.89V175.85a3.85,3.85,0,0,0-3.89-3.89H241.57a3.85,3.85,0,0,0-3.89,3.89v84.23a3.85,3.85,0,0,0,3.89,3.89Zm-25.83-84.24H267.4v76.46H245.46Z"/><path class="cls-1" d="M331.49,220.65a3.85,3.85,0,0,0-3.89-3.89H297.89a3.85,3.85,0,0,0-3.89,3.89v39.43a3.85,3.85,0,0,0,3.89,3.89H327.6a3.85,3.85,0,0,0,3.89-3.89Zm-7.78,35.54H301.78V224.54h21.93Z"/><path class="cls-1" d="M339.58,160.52a18.76,18.76,0,0,0-18.75-18.75,18.5,18.5,0,0,0-14.46,7l-31.58-16.1a17.45,17.45,0,0,0,.39-3.5,18.75,18.75,0,1,0-37.49,0,18.22,18.22,0,0,0,.23,2.18l-22.55,9.72a18.61,18.61,0,0,0-28.71-2l-23.1-13.84a18.47,18.47,0,0,0,1.17-6.23A18.75,18.75,0,1,0,146,137.73a18.56,18.56,0,0,0,13.61-5.91l23,13.84a18.55,18.55,0,0,0-1.17,6.3,18.75,18.75,0,1,0,37.49,0,20.77,20.77,0,0,0-.39-3.81l21.93-9.41a18.63,18.63,0,0,0,31.42,1.09l31,15.79a20,20,0,0,0-.7,4.82,18.67,18.67,0,1,0,37.34.08ZM146,130a11,11,0,1,1,11-11A11,11,0,0,1,146,130Zm54.21,32.9a11,11,0,0,1-11-11,11.29,11.29,0,0,1,1.64-5.76.07.07,0,0,0,.07-.07c0-.08,0-.08.08-.16a10.88,10.88,0,0,1,19.14,1.4,11.1,11.1,0,0,1-10,15.55Zm56.23-22.79a11,11,0,1,1,11-11A10.94,10.94,0,0,1,256.43,140.14Zm64.4,31.35a11,11,0,1,1,11-11A10.95,10.95,0,0,1,320.83,171.49Z"/><path class="cls-1" d="M327.6,285.59H129a3.89,3.89,0,1,0,0,7.78H327.6a3.85,3.85,0,0,0,3.89-3.89,3.9,3.9,0,0,0-3.89-3.89Z"/><path class="cls-1" d="M327.6,309H129a3.89,3.89,0,0,0,0,7.78H327.6a3.85,3.85,0,0,0,3.89-3.89A3.9,3.9,0,0,0,327.6,309Z"/><path class="cls-1" d="M352,397H168.15a3.89,3.89,0,0,0,0,7.78H352a3.85,3.85,0,0,0,3.89-3.89A3.91,3.91,0,0,0,352,397Z"/><path d="M149.33,397H129.11a3.89,3.89,0,1,0,0,7.78h20.22a3.85,3.85,0,0,0,3.89-3.89A3.9,3.9,0,0,0,149.33,397Z"/></g></g></svg>