<svg viewBox="0 0 24 25" fill="none" xmlns="http://www.w3.org/2000/svg">
<path d="M23.2 12.391C23.2 11.091 22.3 9.89103 21 9.49103C21.6 8.89103 21.8 7.99103 21.6 7.09103C21.3 6.29103 20.5 5.69103 19.7 5.59103C19.6 5.49103 19.4 5.29103 19.3 5.19103C19.9 3.69103 19.2 1.99103 17.8 1.29103C16.3 0.591028 14.6 1.29103 13.9 2.69103C13.5 2.09103 12.8 1.79103 12.1 1.79103C11.4 1.79103 10.7 2.09103 10.3 2.69103C9.6 1.19103 7.79999 0.591028 6.39999 1.29103C4.89999 1.99103 4.19999 3.69103 4.89999 5.19103C4.69999 5.29103 4.6 5.39103 4.5 5.59103C3.6 5.69103 2.89999 6.29103 2.59999 7.09103C2.29999 7.89103 2.5 8.89103 3.2 9.49103C1.9 9.89103 1 10.991 1 12.391C1 13.691 1.9 14.891 3.2 15.291C2.6 15.891 2.39999 16.791 2.59999 17.691C2.89999 18.491 3.7 19.091 4.5 19.191C4.6 19.291 4.79999 19.491 4.89999 19.591C4.29999 21.091 4.99999 22.791 6.39999 23.491C7.89999 24.191 9.6 23.491 10.3 22.091C10.7 22.691 11.4 22.991 12.1 22.991C12.8 22.991 13.5 22.691 13.9 22.091C14.6 23.591 16.4 24.191 17.8 23.491C19.3 22.791 20 21.091 19.3 19.591C19.5 19.491 19.6 19.391 19.7 19.191C20.6 19.091 21.3 18.491 21.6 17.691C21.9 16.891 21.7 15.891 21 15.291C22.3 14.891 23.2 13.691 23.2 12.391Z" stroke="white" stroke-width="1.5" stroke-linecap="round" stroke-linejoin="round"/>
<path d="M11.9 22.8911V8.59106" stroke="white" stroke-width="1.5" stroke-linecap="round" stroke-linejoin="round"/>
<path d="M11.9 8.59106C12.7 8.59106 13.4 7.89106 13.4 7.09106C13.4 6.29106 12.7 5.59106 11.9 5.59106C11.1 5.59106 10.4 6.29106 10.4 7.09106C10.4 7.89106 11.1 8.59106 11.9 8.59106Z" stroke="white" stroke-width="1.5" stroke-linecap="round" stroke-linejoin="round"/>
<path d="M8.89999 19.0911V16.0911L6.7 14.5911V12.3911" stroke="white" stroke-width="1.5" stroke-linecap="round" stroke-linejoin="round"/>
<path d="M6.7 12.3911C7.5 12.3911 8.2 11.6911 8.2 10.8911C8.2 10.0911 7.5 9.39111 6.7 9.39111C5.9 9.39111 5.2 10.0911 5.2 10.8911C5.2 11.6911 5.8 12.3911 6.7 12.3911Z" stroke="white" stroke-width="1.5" stroke-linecap="round" stroke-linejoin="round"/>
<path d="M14.9 19.0911V16.0911L17.1 14.5911V12.3911" stroke="white" stroke-width="1.5" stroke-linecap="round" stroke-linejoin="round"/>
<path d="M17.2 12.3911C18 12.3911 18.7 11.6911 18.7 10.8911C18.7 10.0911 18 9.39111 17.2 9.39111C16.4 9.39111 15.7 10.0911 15.7 10.8911C15.7 11.6911 16.3 12.3911 17.2 12.3911Z" stroke="white" stroke-width="1.5" stroke-linecap="round" stroke-linejoin="round"/>
</svg>
