<svg viewBox="0 0 25 25" fill="none" xmlns="http://www.w3.org/2000/svg">
<path d="M11 10.8C9.9 9.80005 8.5 9.30005 7 9.30005C4 9.30005 1.4 11.5 1 14.5" stroke="white" stroke-width="1.5" stroke-linecap="round" stroke-linejoin="round"/>
<path d="M7 7.80005C8.9 7.80005 10.4 6.30015 10.4 4.40015C10.4 2.50015 8.9 1 7 1C5.1 1 3.59998 2.50015 3.59998 4.40015C3.59998 6.30015 5.1 7.80005 7 7.80005Z" stroke="white" stroke-width="1.5" stroke-linecap="round" stroke-linejoin="round"/>
<path d="M16.7 6.30005C18.1 6.30005 19.3 5.1002 19.3 3.7002C19.3 2.3002 18.1 1.1001 16.7 1.1001C15.3 1.1001 14.1 2.3002 14.1 3.7002C14.1 5.1002 15.3 6.30005 16.7 6.30005Z" stroke="white" stroke-width="1.5" stroke-linecap="round" stroke-linejoin="round"/>
<path d="M20.6 9.3001C19.9 8.0001 18.6 7.20015 17.1 7.10015C15.6 7.00015 14.2 7.50015 13.3 8.60015" stroke="white" stroke-width="1.5" stroke-linecap="round" stroke-linejoin="round"/>
<path d="M17.5 23.5C20.8 23.5 23.5 20.8 23.5 17.5C23.5 14.2 20.8 11.5 17.5 11.5C14.2 11.5 11.5 14.2 11.5 17.5C11.5 20.8 14.2 23.5 17.5 23.5Z" stroke="white" stroke-width="1.5" stroke-linecap="round" stroke-linejoin="round"/>
<path d="M20.2 15.8L17.3 19.7002C17.2 19.9002 17 20 16.8 20C16.6 20 16.4 19.9 16.2 19.8L14.7 18.3" stroke="white" stroke-width="1.5" stroke-linecap="round" stroke-linejoin="round"/>
</svg>
