<svg  viewBox="0 0 25 25" fill="none" xmlns="http://www.w3.org/2000/svg">
<path d="M13.5 2.5H10.9C10.3 2.5 9.70001 2.99998 9.60001 3.59998C9.50001 4.19998 9.79999 4.89998 10.4 5.09998L13.1 5.90002C13.7 6.10002 14 6.80002 13.9 7.40002C13.8 8.00002 13.2 8.5 12.6 8.5H9.39999" stroke="white" stroke-width="1.5" stroke-linecap="round" stroke-linejoin="round"/>
<path d="M11.6 2.5V1" stroke="white" stroke-width="1.5" stroke-linecap="round" stroke-linejoin="round"/>
<path d="M11.6 10.7999V8.59998" stroke="white" stroke-width="1.5" stroke-linecap="round" stroke-linejoin="round"/>
<path d="M4.89999 20.5C6.29999 20.5 7.5 19.3 7.5 17.9C7.5 16.5 6.29999 15.2999 4.89999 15.2999C3.49999 15.2999 2.3 16.5 2.3 17.9C2.3 19.4 3.39999 20.5 4.89999 20.5Z" stroke="white" stroke-width="1.5" stroke-linecap="round" stroke-linejoin="round"/>
<path d="M8.60001 23.5C7.90001 22.1 6.4 21.2999 4.8 21.2999C3.2 21.2999 1.8 22.2 1 23.5" stroke="white" stroke-width="1.5" stroke-linecap="round" stroke-linejoin="round"/>
<path d="M12.4 20.5C13.8 20.5 15 19.3 15 17.9C15 16.5 13.8 15.2999 12.4 15.2999C11 15.2999 9.8 16.5 9.8 17.9C9.8 19.4 10.9 20.5 12.4 20.5Z" stroke="white" stroke-width="1.5" stroke-linecap="round" stroke-linejoin="round"/>
<path d="M16.1 23.5C15.4 22.1 13.9 21.2999 12.3 21.2999C10.7 21.2999 9.3 22.2 8.5 23.5" stroke="white" stroke-width="1.5" stroke-linecap="round" stroke-linejoin="round"/>
<path d="M19.9 20.5C21.3 20.5 22.5 19.3 22.5 17.9C22.5 16.5 21.3 15.2999 19.9 15.2999C18.5 15.2999 17.3 16.5 17.3 17.9C17.3 19.4 18.4 20.5 19.9 20.5Z" stroke="white" stroke-width="1.5" stroke-linecap="round" stroke-linejoin="round"/>
<path d="M23.6 23.5C22.9 22.1 21.4 21.2999 19.8 21.2999C18.2 21.2999 16.8 22.2 16 23.5" stroke="white" stroke-width="1.5" stroke-linecap="round" stroke-linejoin="round"/>
<path d="M6.80001 10.7999C4.10001 8.09993 4.10001 3.7 6.80001 1" stroke="white" stroke-width="1.5" stroke-linecap="round" stroke-linejoin="round"/>
<path d="M16.5 1C19.2 3.7 19.2 8.09993 16.5 10.7999" stroke="white" stroke-width="1.5" stroke-linecap="round" stroke-linejoin="round"/>
</svg>
