<svg viewBox="0 0 25 25" fill="none" xmlns="http://www.w3.org/2000/svg">
<path d="M1 2.5L2.5 4.39999V8.89999C2.5 10.6 4.4 12.1 6.2 13.7" stroke="white" stroke-width="1.5" stroke-linecap="round" stroke-linejoin="round"/>
<path d="M5.5 7.70001L7.29999 9.5C7.59999 9.8 8.1 9.90002 8.5 9.80002C8.9 9.70002 9.29999 9.39999 9.39999 8.89999C9.49999 8.49999 9.39999 8.00001 9.09999 7.70001L6.29999 4.89999V3.39999C6.19999 2.49999 5.79999 1.7 5.29999 1" stroke="white" stroke-width="1.5" stroke-linecap="round" stroke-linejoin="round"/>
<path d="M6.29999 8.39999V20.5C6.29999 21.3 6.99999 22 7.79999 22H15.3" stroke="white" stroke-width="1.5" stroke-linecap="round" stroke-linejoin="round"/>
<path d="M23.5 22.1L22 20.2V15.7C22 14.2 20.6 12.9 19 11.6V16.9L17.2 15.1C16.7 14.6 16 14.6 15.5 15.1C15 15.6 15 16.3 15.5 16.8L18.3 19.6V21.1C18.4 22 18.8 22.8 19.3 23.5" stroke="white" stroke-width="1.5" stroke-linecap="round" stroke-linejoin="round"/>
<path d="M13.3 18.3H9.29999" stroke="white" stroke-width="1.5" stroke-linecap="round" stroke-linejoin="round"/>
<path d="M10.8 14.6H9.29999" stroke="white" stroke-width="1.5" stroke-linecap="round" stroke-linejoin="round"/>
<path d="M20.5 5.60001C20.5 8.10001 18.5 10.1 16 10.1C13.5 10.1 11.5 8.10001 11.5 5.60001C11.5 3.10001 13.5 1.10001 16 1.10001" stroke="white" stroke-width="1.5" stroke-linecap="round" stroke-linejoin="round"/>
<path d="M20.5 2.20001L16.4 6.30002C16.3 6.40002 16.2 6.5 16 6.5C15.8 6.5 15.7 6.40002 15.6 6.30002L14.3 5" stroke="white" stroke-width="1.5" stroke-linecap="round" stroke-linejoin="round"/>
</svg>
