<svg viewBox="0 0 25 25" fill="none" xmlns="http://www.w3.org/2000/svg">
<path d="M23.5 21.3999L22 19.2V14C22 12 18.2 9.89993 16.8 8.79993" stroke="white" stroke-width="1.5" stroke-linecap="round" stroke-linejoin="round"/>
<path d="M18.7 15.2L15.1 12.2999C14.6 11.7999 13.8 11.7999 13.3 12.2999C12.8 12.7999 12.8 13.6 13.3 14.1L16.8 18.1V20.6C16.8 21.8 18.5 23.6 18.5 23.6" stroke="white" stroke-width="1.5" stroke-linecap="round" stroke-linejoin="round"/>
<path d="M13.8 22.1H2.39999C1.59999 22.1 1 21.5 1 20.7V2.3999C1 1.5999 1.59999 1 2.39999 1H15.4C15.8 1 16.1 1.0999 16.4 1.3999C16.7 1.6999 16.8 1.9999 16.8 2.3999V13.5" stroke="white" stroke-width="1.5" stroke-linecap="round" stroke-linejoin="round"/>
<path d="M10.1 4.09998H13.1V7.09998" stroke="white" stroke-width="1.5" stroke-linecap="round" stroke-linejoin="round"/>
<path d="M13.1 4.09998L4.09999 12.2999" stroke="white" stroke-width="1.5" stroke-linecap="round" stroke-linejoin="round"/>
<path d="M5.5 16.1V19.1" stroke="white" stroke-width="1.5" stroke-linecap="round" stroke-linejoin="round"/>
<path d="M8.5 13.8999V19.1" stroke="white" stroke-width="1.5" stroke-linecap="round" stroke-linejoin="round"/>
</svg>
