<svg viewBox="0 0 25 25" fill="none" xmlns="http://www.w3.org/2000/svg">
<path d="M13 16.2999V22.1C13 22.9 13.7 23.6 14.5 23.6H20.5C21.3 23.6 22 22.9 22 22.1V16.2999" stroke="white" stroke-width="1.5" stroke-linecap="round" stroke-linejoin="round"/>
<path d="M11.5 17.6L16 13.6C16.8 12.9 18.1 12.9 19 13.6L23.5 17.6" stroke="white" stroke-width="1.5" stroke-linecap="round" stroke-linejoin="round"/>
<path d="M19 23.5H16V20.5C16 19.7 16.7 19 17.5 19C18.3 19 19 19.7 19 20.5V23.5Z" stroke="white" stroke-width="1.5" stroke-linecap="round" stroke-linejoin="round"/>
<path d="M4 7V16H8.5" stroke="white" stroke-width="1.5" stroke-linecap="round" stroke-linejoin="round"/>
<path d="M4 13L6.69998 10.2999C6.99998 9.99993 7.39999 9.90002 7.79999 9.90002C8.19999 9.90002 8.59999 10.0999 8.89999 10.2999L9.5 10.9C9.8 11.2 10.3 11.3999 10.7 11.2999C11.2 11.1999 11.6 11 11.8 10.6L12.2 10" stroke="white" stroke-width="1.5" stroke-linecap="round" stroke-linejoin="round"/>
<path d="M9.29999 20.5H2.5C1.7 20.5 1 19.8 1 19V2.5C1 1.7 1.7 1 2.5 1H13.1C13.5 1 13.9 1.20002 14.2 1.40002L17.1 4.29993C17.4 4.59993 17.5 5.00002 17.5 5.40002V10" stroke="white" stroke-width="1.5" stroke-linecap="round" stroke-linejoin="round"/>
</svg>
