<svg viewBox="0 0 25 24" fill="none" xmlns="http://www.w3.org/2000/svg">
<path d="M17.2 1L15 8.19998H9L7.5 3.89999H16.4" stroke="white" stroke-width="1.5" stroke-linecap="round" stroke-linejoin="round"/>
<path d="M9.29999 10.4C9.49999 10.4 9.69998 10.6 9.69998 10.8C9.69998 11 9.49999 11.2 9.29999 11.2C9.09999 11.2 8.89999 11 8.89999 10.8C8.89999 10.5 9.09999 10.4 9.29999 10.4Z" stroke="white" stroke-width="1.5" stroke-linecap="round" stroke-linejoin="round"/>
<path d="M14.6 10.4C14.8 10.4 15 10.6 15 10.8C15 11 14.8 11.2 14.6 11.2C14.4 11.2 14.2 11 14.2 10.8C14.2 10.5 14.4 10.4 14.6 10.4Z" stroke="white" stroke-width="1.5" stroke-linecap="round" stroke-linejoin="round"/>
<path d="M7.79999 22.6H16.8" stroke="white" stroke-width="1.5" stroke-linecap="round" stroke-linejoin="round"/>
<path d="M1.10001 14.7H23.6" stroke="white" stroke-width="1.5" stroke-linecap="round" stroke-linejoin="round"/>
<path d="M19.8 3.89999H22C22.8 3.89999 23.5 4.49999 23.5 5.29999V16.8C23.5 17.6 22.8 18.2 22 18.2H2.5C1.7 18.2 1 17.6 1 16.8V5.29999C1 4.49999 1.7 3.89999 2.5 3.89999H4" stroke="white" stroke-width="1.5" stroke-linecap="round" stroke-linejoin="round"/>
<path d="M12.3 22.6V18.3" stroke="white" stroke-width="1.5" stroke-linecap="round" stroke-linejoin="round"/>
</svg>
