<svg viewBox="0 0 25 25" fill="none" xmlns="http://www.w3.org/2000/svg">
<path d="M23.5392 12.7C23.6392 12.4 23.5392 12.1 23.3392 11.9C23.1392 11.7 22.8392 11.5 22.5392 11.5H10.7392C10.2392 11.5 9.83922 11.2 9.73922 10.7L9.43923 9.29999C9.33923 8.79999 8.93923 8.5 8.43923 8.5H2.03923C1.73923 8.5 1.43922 8.59996 1.23922 8.89996C1.03922 9.09996 0.939234 9.40001 1.03923 9.70001L3.63924 22.7C3.73924 23.2 4.13924 23.5 4.63924 23.5H20.5392C21.0392 23.5 21.4392 23.2 21.5392 22.7C21.9392 20.7 23.0392 15.2 23.5392 12.7Z" stroke="white" stroke-width="1.5" stroke-linecap="round" stroke-linejoin="round"/>
<path d="M4.73923 5.5V2C4.73923 1.4 5.13923 1 5.73923 1H18.7392C19.3392 1 19.7392 1.4 19.7392 2V8.5" stroke="white" stroke-width="1.5" stroke-linecap="round" stroke-linejoin="round"/>
<path d="M7.83923 4H16.0392" stroke="white" stroke-width="1.5" stroke-linecap="round" stroke-linejoin="round"/>
<path d="M12.2392 7H16.0392" stroke="white" stroke-width="1.5" stroke-linecap="round" stroke-linejoin="round"/>
</svg>
