<svg viewBox="0 0 25 25" fill="none" xmlns="http://www.w3.org/2000/svg">
<path d="M17.5 18.3C18.3 18.3 19 17.6 19 16.8C19 16 18.3 15.3 17.5 15.3C16.7 15.3 16 16 16 16.8C16 17.6 16.7 18.3 17.5 18.3Z" stroke="white" stroke-width="1.5" stroke-linecap="round" stroke-linejoin="round"/>
<path d="M18.8 11L19.2 12.5C19.4 13 19.9 13.3 20.4 13.2L21.9 12.9C22.5 12.8 23.1 13 23.4 13.5C23.7 14 23.6 14.6 23.2 15.1L22.2 16.2C21.8 16.6 21.8 17.2 22.2 17.6L23.2 18.7C23.6 19.1 23.7 19.8 23.4 20.3C23.1 20.8 22.5 21.1 21.9 20.9L20.4 20.6C19.9 20.5 19.4 20.8 19.2 21.3L18.8 22.8C18.6 23.4 18.1 23.7 17.5 23.7C16.9 23.7 16.4 23.3 16.2 22.8L15.8 21.3C15.6 20.8 15.1 20.5 14.6 20.6L13.1 20.9C12.5 21 11.9 20.8 11.6 20.3C11.3 19.8 11.4 19.1 11.8 18.7L12.8 17.6C13.2 17.2 13.2 16.6 12.8 16.2L11.8 15.1C11.4 14.7 11.3 14 11.6 13.5C11.9 13 12.5 12.7 13.1 12.9L14.6 13.2C15.1 13.3 15.6 13 15.8 12.5L16.2 11C16.4 10.4 16.9 10.1 17.5 10.1C18.1 10.1 18.6 10.4 18.8 11Z" stroke="white" stroke-width="1.5" stroke-linecap="round" stroke-linejoin="round"/>
<path d="M5.5 10.8H10" stroke="white" stroke-width="1.5" stroke-linecap="round" stroke-linejoin="round"/>
<path d="M5.5 14.6H7.70001" stroke="white" stroke-width="1.5" stroke-linecap="round" stroke-linejoin="round"/>
<path d="M5.5 18.3H7.70001" stroke="white" stroke-width="1.5" stroke-linecap="round" stroke-linejoin="round"/>
<path d="M10 23.6H2.5C1.7 23.6 1 22.9 1 22.1V6.29999C1 5.49999 1.7 4.79999 2.5 4.79999H6.29999C6.29999 2.69999 7.99998 1 10.1 1C12.2 1 13.9 2.69999 13.9 4.79999H17.7C18.5 4.79999 19.2 5.49999 19.2 6.29999V7.09998" stroke="white" stroke-width="1.5" stroke-linecap="round" stroke-linejoin="round"/>
<path d="M10 4.09998C10.2 4.09998 10.4 4.3 10.4 4.5C10.4 4.7 10.2 4.89996 10 4.89996C9.8 4.89996 9.59998 4.7 9.59998 4.5C9.69998 4.2 9.8 4.09998 10 4.09998Z" stroke="white" stroke-width="1.5" stroke-linecap="round" stroke-linejoin="round"/>
</svg>
