<svg viewBox="0 0 25 25" fill="none" xmlns="http://www.w3.org/2000/svg">
<path d="M1 14.3999V23.3999" stroke="white" stroke-width="1.5" stroke-linecap="round" stroke-linejoin="round"/>
<path d="M1 21.8999H16C16 20.1999 14.7 18.8999 13 18.8999H9.29999C9.29999 17.1999 7.99999 15.8999 6.29999 15.8999H1" stroke="white" stroke-width="1.5" stroke-linecap="round" stroke-linejoin="round"/>
<path d="M6.29999 18.8999H9.29999" stroke="white" stroke-width="1.5" stroke-linecap="round" stroke-linejoin="round"/>
<path d="M17.1 9.19995C19.4 9.19995 21.2 7.39998 21.2 5.09998C21.2 2.79998 19.4 1 17.1 1C14.8 1 13 2.79998 13 5.09998C13 7.39998 14.9 9.19995 17.1 9.19995Z" stroke="white" stroke-width="1.5" stroke-linecap="round" stroke-linejoin="round"/>
<path d="M23.5 15.2C22.5 12.5 20 10.7 17.1 10.7C14.2 10.7 11.7 12.5 10.7 15.2" stroke="white" stroke-width="1.5" stroke-linecap="round" stroke-linejoin="round"/>
</svg>
