<svg viewBox="0 0 25 25" fill="none" xmlns="http://www.w3.org/2000/svg">
<path d="M1 2C1 1.4 1.4 1 2 1H22.5C23.1 1 23.5 1.4 23.5 2V22.5C23.5 23.1 23.1 23.5 22.5 23.5H2C1.4 23.5 1 23.1 1 22.5V2Z" stroke="white" stroke-width="1.5" stroke-linecap="round" stroke-linejoin="round"/>
<path d="M20.5 7L17.5 4" stroke="white" stroke-width="1.5" stroke-linecap="round" stroke-linejoin="round"/>
<path d="M20.5 4L17.5 7" stroke="white" stroke-width="1.5" stroke-linecap="round" stroke-linejoin="round"/>
<path d="M20.5 10.7H19C18.2 10.7 17.5 11.4 17.5 12.2C17.5 14.4 20.5 14.4 20.5 16.7C20.5 17.5 19.8 18.2 19 18.2H17.5" stroke="white" stroke-width="1.5" stroke-linecap="round" stroke-linejoin="round"/>
<path d="M5.5 18.2V12.2C5.5 11.4 6.2 10.7 7 10.7C7.8 10.7 8.5 11.4 8.5 12.2V18.2" stroke="white" stroke-width="1.5" stroke-linecap="round" stroke-linejoin="round"/>
<path d="M5.5 15.2H8.5" stroke="white" stroke-width="1.5" stroke-linecap="round" stroke-linejoin="round"/>
<path d="M11.5 18.2C13.2 18.2 14.5 16.9 14.5 15.2V13.7C14.5 12 13.2 10.7 11.5 10.7V18.2Z" stroke="white" stroke-width="1.5" stroke-linecap="round" stroke-linejoin="round"/>
</svg>
