<svg viewBox="0 0 25 25" fill="none" xmlns="http://www.w3.org/2000/svg">
<path d="M17.1 3.8999L14.9 11.3999H8.90002L7.40002 6.8999H16.2" stroke="white" stroke-width="1.5" stroke-linecap="round" stroke-linejoin="round"/>
<path d="M9.19998 13.7C9.39998 13.7 9.59999 13.9 9.59999 14.1C9.59999 14.3 9.39998 14.5 9.19998 14.5C8.99998 14.5 8.79999 14.3 8.79999 14.1C8.79999 14 8.79999 13.8999 8.89999 13.7999C8.99999 13.6999 9.09998 13.7 9.19998 13.7Z" stroke="white" stroke-width="1.5" stroke-linecap="round" stroke-linejoin="round"/>
<path d="M14.5 13.7C14.7 13.7 14.9 13.9 14.9 14.1C14.9 14.3 14.7 14.5 14.5 14.5C14.3 14.5 14.1 14.3 14.1 14.1C14.1 14 14.1 13.8999 14.2 13.7999C14.3 13.6999 14.4 13.7 14.5 13.7Z" stroke="white" stroke-width="1.5" stroke-linecap="round" stroke-linejoin="round"/>
<path d="M23.5 16.7C23.5 17.5 22.8 18.2 22 18.2H18.2V23.3999L10.7 18.2H2.5C1.7 18.2 1 17.5 1 16.7V2.5C1 1.7 1.7 1 2.5 1H22C22.8 1 23.5 1.7 23.5 2.5V16.7Z" stroke="white" stroke-width="1.5" stroke-linecap="round" stroke-linejoin="round"/>
</svg>
