<svg width="324" height="325" viewBox="0 0 324 325" fill="none" xmlns="http://www.w3.org/2000/svg">
<path d="M243.228 114.631C245.368 95.7572 245.811 75.9283 237.717 58.7939C234.047 51.1531 228.811 44.3679 222.35 38.8788C215.89 33.3898 208.349 29.3197 200.217 26.9328C192.057 24.6428 183.509 24.0937 175.127 25.3211C166.746 26.5486 158.718 29.5252 151.566 34.0577C126.447 50.1684 117.214 81.9593 98.9266 105.541C87.5538 120.261 72.6363 131.825 60.1018 145.562C47.5673 159.3 37.0476 176.537 37.8616 195.183C38.6834 215.999 53.7543 234.173 72.0029 244.297C101.173 260.493 169.639 278.35 194.089 246.561C222.921 209.082 238.134 161.105 243.228 114.631Z" fill="#CFEBD6"/>
<path opacity="0.3" d="M253.766 130.197C255.861 111.388 256.405 91.6033 248.375 74.5408C244.781 66.8997 239.593 60.1197 233.159 54.6542C226.725 49.1887 219.193 45.1636 211.066 42.8479C202.939 40.5323 194.405 39.9795 186.034 41.2265C177.663 42.4735 169.648 45.4915 162.525 50.0789C137.428 66.2382 128.123 97.9384 109.84 121.513C98.4597 136.217 83.5531 147.749 71.0327 161.494C58.5123 175.239 47.9601 192.433 48.691 211.02C49.4763 231.754 64.4614 249.87 82.6393 259.883C111.676 275.974 179.939 293.589 204.388 261.851C233.258 224.396 248.552 176.526 253.766 130.197Z" stroke="url(#paint0_linear_84_3)" stroke-width="2.5" stroke-miterlimit="10"/>
<defs>
<linearGradient id="paint0_linear_84_3" x1="104.294" y1="101.261" x2="230.635" y2="239.424" gradientUnits="userSpaceOnUse">
<stop stop-color="#38FFB4"/>
<stop offset="1" stop-color="#068B01"/>
</linearGradient>
</defs>
</svg>
