<svg xmlns="http://www.w3.org/2000/svg" xmlns:xlink="http://www.w3.org/1999/xlink" viewBox="0 0 84 108.16"><defs><style>.cls-1{fill:#481ba6;opacity:0.1;}.cls-2{fill:none;stroke-miterlimit:10;stroke-width:0.5px;stroke:url(#Безымянный_градиент_24);}</style><linearGradient id="Безымянный_градиент_24" x1="6.66" y1="55.66" x2="84" y2="55.66" gradientUnits="userSpaceOnUse"><stop offset="0" stop-color="#38ffb4"/><stop offset="1" stop-color="#068b01"/></linearGradient></defs><title>abstraction2</title><g id="Слой_2" data-name="Слой 2"><g id="Режим_изоляции" data-name="Режим изоляции"><path class="cls-1" d="M50.23,14.89C45.1,9,39.21,3.36,31.77,1.06A24.84,24.84,0,0,0,11.71,3.6,24.85,24.85,0,0,0,.38,20.35c-2.08,12.1,5,23.73,7.08,35.83,1.31,7.54.68,15.28,1.37,22.9s3,15.6,8.88,20.53c6.54,5.53,16.23,6,24.36,3.27,13-4.36,37.4-20.19,34.54-36.44C73.24,47.28,62.91,29.34,50.23,14.89Z"/><path class="cls-2" d="M57.15,18.3C52,12.44,46.12,6.78,38.68,4.48A24.5,24.5,0,0,0,7.29,23.76c-2.07,12.11,5,23.74,7.09,35.84,1.31,7.54.67,15.27,1.37,22.89s3,15.6,8.87,20.54c6.54,5.52,16.24,6,24.36,3.26,13-4.35,37.4-20.19,34.54-36.43C80.15,50.69,69.82,32.75,57.15,18.3Z"/></g></g></svg>