<svg width="24" height="25" viewBox="0 0 24 25" fill="none" xmlns="http://www.w3.org/2000/svg">
<path d="M6.7998 1.20001H17.2998" stroke="white" stroke-width="1.5" stroke-linecap="round" stroke-linejoin="round"/>
<path d="M15.8001 8.70001V1.20001H8.30006V8.70001L1.60008 19.1C1.00008 20 1.00007 21.2 1.50007 22.2C2.00007 23.2 3.00008 23.8 4.10008 23.8H20.0001C21.1001 23.8 22.1001 23.2 22.6001 22.2C23.1001 21.2 23.1001 20.1 22.5001 19.1L15.8001 8.70001Z" stroke="white" stroke-width="1.5" stroke-linecap="round" stroke-linejoin="round"/>
<path d="M5.3999 13.2H18.7999" stroke="white" stroke-width="1.5" stroke-linecap="round" stroke-linejoin="round"/>
<path d="M14.2998 17.7H17.2998" stroke="white" stroke-width="1.5" stroke-linecap="round" stroke-linejoin="round"/>
<path d="M15.7998 16.2V19.2" stroke="white" stroke-width="1.5" stroke-linecap="round" stroke-linejoin="round"/>
<path d="M6.7998 19.6C6.9998 19.6 7.19983 19.8 7.19983 20" stroke="white" stroke-width="1.5" stroke-linecap="round" stroke-linejoin="round"/>
<path d="M6.3999 20C6.3999 19.8 6.5999 19.6 6.7999 19.6" stroke="white" stroke-width="1.5" stroke-linecap="round" stroke-linejoin="round"/>
<path d="M6.7999 20.4C6.5999 20.4 6.3999 20.2 6.3999 20" stroke="white" stroke-width="1.5" stroke-linecap="round" stroke-linejoin="round"/>
<path d="M7.19983 20C7.19983 20.2 6.9998 20.4 6.7998 20.4" stroke="white" stroke-width="1.5" stroke-linecap="round" stroke-linejoin="round"/>
<path d="M9.7998 16.6C9.9998 16.6 10.1998 16.8 10.1998 17" stroke="white" stroke-width="1.5" stroke-linecap="round" stroke-linejoin="round"/>
<path d="M9.3999 17C9.3999 16.8 9.5999 16.6 9.7999 16.6" stroke="white" stroke-width="1.5" stroke-linecap="round" stroke-linejoin="round"/>
<path d="M9.7999 17.4C9.5999 17.4 9.3999 17.2 9.3999 17" stroke="white" stroke-width="1.5" stroke-linecap="round" stroke-linejoin="round"/>
<path d="M10.1998 17C10.1998 17.2 9.9998 17.4 9.7998 17.4" stroke="white" stroke-width="1.5" stroke-linecap="round" stroke-linejoin="round"/>
<path d="M15.7998 4.20001H12.7998" stroke="white" stroke-width="1.5" stroke-linecap="round" stroke-linejoin="round"/>
<path d="M15.7998 7.20001H12.7998" stroke="white" stroke-width="1.5" stroke-linecap="round" stroke-linejoin="round"/>
</svg>
