<svg width="25" height="22" viewBox="0 0 25 22" fill="none" xmlns="http://www.w3.org/2000/svg">
<path d="M23.2999 13.7V17.6C23.2999 18.2 22.9999 18.8 22.4999 19.2C14.3999 24.9 13.9999 16.4 12.0999 16.4C10.4999 16.4 9.39992 24.7 1.69992 19.2C1.19992 18.8 0.899902 18.2 0.899902 17.6V13.7" stroke="white" stroke-width="1.5" stroke-linecap="round" stroke-linejoin="round"/>
<path d="M11.7999 4.10001L8.59991 2.00001C7.79991 1.50001 6.69991 1.7 6.09991 2.4L4.8999 3.8" stroke="white" stroke-width="1.5" stroke-linecap="round" stroke-linejoin="round"/>
<path d="M14.8999 5.9L22.8999 10C23.1999 10.2 23.3999 10.5 23.3999 10.8V13.7H0.899902V10.8C0.899902 10.5 1.0999 10.1 1.3999 10L15.6999 2.00001C16.4999 1.50001 17.5999 1.7 18.1999 2.4L19.3999 3.8" stroke="white" stroke-width="1.5" stroke-linecap="round" stroke-linejoin="round"/>
<path d="M0.799805 10.7H23.2998" stroke="white" stroke-width="1.5" stroke-linecap="round" stroke-linejoin="round"/>
</svg>
