<svg viewBox="0 0 25 25" fill="none" xmlns="http://www.w3.org/2000/svg">
<path d="M4.5 23.5L13 10C13.2 9.7 13.6 9.5 14 9.5C14.4 9.5 14.8 9.7 15 10L23.5 23.5H4.5Z" stroke="#2F035B" stroke-width="1.5" stroke-linecap="round" stroke-linejoin="round"/>
<path d="M4.5 23.5H1L4.79999 16.7L7 19.6" stroke="#2F035B" stroke-width="1.5" stroke-linecap="round" stroke-linejoin="round"/>
<path d="M9 16.5L11.3 18.5C11.7 18.8 12.3 18.8 12.7 18.4L13.3 17.8C13.7 17.4 14.3 17.4 14.7 17.8L15.3 18.4C15.7 18.8 16.3 18.8 16.7 18.5L19 16.5" stroke="#2F035B" stroke-width="1.5" stroke-linecap="round" stroke-linejoin="round"/>
<path d="M13.8 9.59998V1.09998" stroke="#2F035B" stroke-width="1.5" stroke-linecap="round" stroke-linejoin="round"/>
<path d="M13.8 1H21C21.2 1 21.4 1.09999 21.5 1.29999C21.6 1.49999 21.6 1.69996 21.4 1.89996L20.3 3.29999C20.1 3.49999 20.1 3.8 20.3 4L21.4 5.39996C21.5 5.59996 21.5 5.8 21.5 6C21.4 6.2 21.2 6.29999 21 6.29999H13.8" stroke="#2F035B" stroke-width="1.5" stroke-linecap="round" stroke-linejoin="round"/>
</svg>
