<svg viewBox="0 0 22 25" fill="none" xmlns="http://www.w3.org/2000/svg">
<path d="M20.6 13.8C20.6 19.2 16.2 23.6 10.8 23.6C5.4 23.6 1 19.2 1 13.8C1 8.40001 5.4 2.60001 10.8 2.60001C16.3 2.50001 20.6 8.40001 20.6 13.8Z" stroke="#2F035B" stroke-width="1.5" stroke-linecap="round" stroke-linejoin="round"/>
<path d="M1.09999 4.79999L10.9 9.99998L20.7 4.79999" stroke="#2F035B" stroke-width="1.5" stroke-linecap="round" stroke-linejoin="round"/>
<path d="M13.5 10C13.7 10 13.9 10.2 13.9 10.4" stroke="#2F035B" stroke-width="1.5" stroke-linecap="round" stroke-linejoin="round"/>
<path d="M13.1 10.4C13.1 10.2 13.3 10 13.5 10" stroke="#2F035B" stroke-width="1.5" stroke-linecap="round" stroke-linejoin="round"/>
<path d="M13.5 10.8C13.3 10.8 13.1 10.6 13.1 10.4" stroke="#2F035B" stroke-width="1.5" stroke-linecap="round" stroke-linejoin="round"/>
<path d="M13.9 10.4C13.9 10.6 13.7 10.8 13.5 10.8" stroke="#2F035B" stroke-width="1.5" stroke-linecap="round" stroke-linejoin="round"/>
<path d="M8.3 10C8.1 10 7.89999 10.2 7.89999 10.4" stroke="#2F035B" stroke-width="1.5" stroke-linecap="round" stroke-linejoin="round"/>
<path d="M8.59999 10.4C8.59999 10.2 8.4 10 8.2 10" stroke="#2F035B" stroke-width="1.5" stroke-linecap="round" stroke-linejoin="round"/>
<path d="M8.3 10.8C8.5 10.8 8.7 10.6 8.7 10.4" stroke="#2F035B" stroke-width="1.5" stroke-linecap="round" stroke-linejoin="round"/>
<path d="M7.89999 10.4C7.89999 10.6 8.1 10.8 8.3 10.8" stroke="#2F035B" stroke-width="1.5" stroke-linecap="round" stroke-linejoin="round"/>
<path d="M12 15.7C11.3 15.4 10.5 15.4 9.8 15.7L7.2 16.8L9.89999 19.5C10.2 19.8 10.6 19.9 11 19.9C11.4 19.9 11.8 19.7 12.1 19.5L14.8 16.8L12 15.7Z" stroke="#2F035B" stroke-width="1.5" stroke-linecap="round" stroke-linejoin="round"/>
<path d="M10.9 1V2.5L7.09999 1" stroke="#2F035B" stroke-width="1.5" stroke-linecap="round" stroke-linejoin="round"/>
<path d="M6.99999 7.90002C5.49999 8.40002 4.69999 9.90002 4.99999 11.4C5.29999 12.9 6.69999 13.9 8.19999 13.8C9.69999 13.6 10.9 12.4 10.9 10.8V10" stroke="#2F035B" stroke-width="1.5" stroke-linecap="round" stroke-linejoin="round"/>
<path d="M14.8 7.90002C16.3 8.40002 17.1 9.90002 16.8 11.4C16.5 12.9 15.1 13.9 13.6 13.8C12.1 13.6 10.9 12.4 10.9 10.8V10" stroke="#2F035B" stroke-width="1.5" stroke-linecap="round" stroke-linejoin="round"/>
</svg>
