<svg viewBox="0 0 25 25" fill="none" xmlns="http://www.w3.org/2000/svg">
<path d="M19 14.5C22.7 4 16.3 1 12.2 1C8.1 1 1.69998 4 5.39998 14.5" stroke="#2F035B" stroke-width="1.5" stroke-linecap="round" stroke-linejoin="round"/>
<path d="M22 23.5L22.8 17.9C22.9 17 22.7 16.2 22.1 15.5C21.5 14.8 20.7 14.5 19.8 14.5H4.6C3.7 14.5 2.89998 14.9 2.29998 15.5C1.69998 16.2 1.5 17 1.6 17.9L2.39998 23.5" stroke="#2F035B" stroke-width="1.5" stroke-linecap="round" stroke-linejoin="round"/>
<path d="M15.2 10C16 10 16.7 9.3 16.7 8.5C16.7 7.7 16 7 15.2 7C14.4 7 13.7 7.7 13.7 8.5C13.7 9.3 14.4 10 15.2 10Z" stroke="#2F035B" stroke-width="1.5" stroke-linecap="round" stroke-linejoin="round"/>
<path d="M9.20001 10C10 10 10.7 9.3 10.7 8.5C10.7 7.7 10 7 9.20001 7C8.40001 7 7.70001 7.7 7.70001 8.5C7.70001 9.3 8.40001 10 9.20001 10Z" stroke="#2F035B" stroke-width="1.5" stroke-linecap="round" stroke-linejoin="round"/>
<path d="M16 19H19" stroke="#2F035B" stroke-width="1.5" stroke-linecap="round" stroke-linejoin="round"/>
<path d="M16 22H19" stroke="#2F035B" stroke-width="1.5" stroke-linecap="round" stroke-linejoin="round"/>
<path d="M20.1 9.29999H23.5" stroke="#2F035B" stroke-width="1.5" stroke-linecap="round" stroke-linejoin="round"/>
<path d="M4.29999 9.29999H1" stroke="#2F035B" stroke-width="1.5" stroke-linecap="round" stroke-linejoin="round"/>
<path d="M5.5 19.8C5.5 19.4 5.79999 19 6.29999 19H12.3C12.7 19 13.1 19.3 13.1 19.8V22.8C13.1 23.2 12.8 23.6 12.3 23.6H6.29999C5.89999 23.6 5.5 23.3 5.5 22.8V19.8Z" stroke="#2F035B" stroke-width="1.5" stroke-linecap="round" stroke-linejoin="round"/>
</svg>
