<svg xmlns="http://www.w3.org/2000/svg" viewBox="0 0 23.9 23.2"><defs><style>.cls-1{fill:none;stroke:#2f035b;stroke-linecap:round;stroke-linejoin:round;stroke-width:1.5px;}</style></defs><title>B2C</title><g id="Слой_2" data-name="Слой 2"><g id="Слой_1-2" data-name="Слой 1"><path class="cls-1" d="M9.75,11.25,5.55,7a2.62,2.62,0,0,1-.5-2.8,2.42,2.42,0,0,1,1.8-1.3,2.29,2.29,0,0,1,2.1.7l.7.7.7-.7a2.47,2.47,0,0,1,2.1-.7,2.25,2.25,0,0,1,1.8,1.3,2.3,2.3,0,0,1-.5,2.8Z"/><path class="cls-1" d="M6.35,22.45a1.9,1.9,0,1,0-1.9-1.9A1.84,1.84,0,0,0,6.35,22.45Z"/><path class="cls-1" d="M13.85,22.45a1.9,1.9,0,1,0-1.9-1.9A1.84,1.84,0,0,0,13.85,22.45Z"/><path class="cls-1" d="M.75,6.75l2.3,7.9a1.47,1.47,0,0,0,1.4,1.1h10.8a1.63,1.63,0,0,0,1.5-1.1L20,2.45a2.34,2.34,0,0,1,2.2-1.7h1"/></g></g></svg>