<svg viewBox="0 0 25 25" fill="none" xmlns="http://www.w3.org/2000/svg">
<path d="M16 8.50012V7.7002C16 6.9002 15.3 6.2002 14.5 6.2002H2.5C1.7 6.2002 1 6.9002 1 7.7002V21.9001C1 22.7001 1.7 23.4001 2.5 23.5001H10.7" stroke="#2F035B" stroke-width="1.5" stroke-linecap="round" stroke-linejoin="round"/>
<path d="M14.5 15.2C14.5 14.8 14.8 14.3999 15.3 14.3999H22.8C23.2 14.3999 23.6 14.7 23.6 15.2V22.7C23.6 23.1 23.3 23.4999 22.8 23.4999H15.3C14.9 23.4999 14.5 23.2 14.5 22.7V15.2Z" stroke="#2F035B" stroke-width="1.5" stroke-linecap="round" stroke-linejoin="round"/>
<path d="M11.5 10V4C11.5 2.3 10.2 1 8.5 1C6.8 1 5.5 2.3 5.5 4V10" stroke="#2F035B" stroke-width="1.5" stroke-linecap="round" stroke-linejoin="round"/>
<path d="M19 14.5V23.5" stroke="#2F035B" stroke-width="1.5" stroke-linecap="round" stroke-linejoin="round"/>
<path d="M14.5 19H23.5" stroke="#2F035B" stroke-width="1.5" stroke-linecap="round" stroke-linejoin="round"/>
<path d="M16.7 11.5L18.9 14.5" stroke="#2F035B" stroke-width="1.5" stroke-linecap="round" stroke-linejoin="round"/>
<path d="M21.2 11.5L19 14.5" stroke="#2F035B" stroke-width="1.5" stroke-linecap="round" stroke-linejoin="round"/>
</svg>
