<svg viewBox="0 0 25 25" fill="none" xmlns="http://www.w3.org/2000/svg">
<path d="M8.5 13.8193V9.31934" stroke="#2F035B" stroke-width="1.5" stroke-linecap="round" stroke-linejoin="round"/>
<path d="M20.5 9.31934V20.5193C20.5 22.2193 19.2 23.5193 17.5 23.5193H11.5C9.8 23.5193 8.5 22.2193 8.5 20.5193V17.5193" stroke="#2F035B" stroke-width="1.5" stroke-linecap="round" stroke-linejoin="round"/>
<path d="M14.5 19.0193H20.5" stroke="#2F035B" stroke-width="1.5" stroke-linecap="round" stroke-linejoin="round"/>
<path d="M8.5 17.5193H11.8C12.5 17.5193 13.1 17.2193 13.5 16.6193C13.9 16.0193 13.9 15.3193 13.5 14.7193C13.1 14.1193 12.5 13.8193 11.8 13.8193H6.39999" stroke="#2F035B" stroke-width="1.5" stroke-linecap="round" stroke-linejoin="round"/>
<path d="M6.5 20.4193C7.7 19.9193 8.5 18.8193 8.5 17.5193" stroke="#2F035B" stroke-width="1.5" stroke-linecap="round" stroke-linejoin="round"/>
<path d="M2.5 9.31934C1.5 10.4193 1 11.8193 1 13.3193V18.7193C1 20.2193 1.99998 20.9193 3.19998 21.6193V23.6193" stroke="#2F035B" stroke-width="1.5" stroke-linecap="round" stroke-linejoin="round"/>
<path d="M17.5 6.81937C17.7 8.31937 19 9.41937 20.5 9.31937C22 9.41937 23.3 8.31937 23.5 6.81937L21.7 1.61936C21.6 1.21936 21.2 0.919383 20.7 1.01938H8.29999C7.89999 1.01938 7.49999 1.21936 7.29999 1.61936L5.5 6.81937C5.7 8.31937 7 9.41937 8.5 9.31937C10 9.41937 11.3 8.31937 11.5 6.81937C11.7 8.31937 13 9.41937 14.5 9.31937C16 9.41937 17.3 8.31937 17.5 6.81937Z" stroke="#2F035B" stroke-width="1.5" stroke-linecap="round" stroke-linejoin="round"/>
<path d="M11.5 1.01929V6.81927" stroke="#2F035B" stroke-width="1.5" stroke-linecap="round" stroke-linejoin="round"/>
<path d="M17.5 1.01929V6.81927" stroke="#2F035B" stroke-width="1.5" stroke-linecap="round" stroke-linejoin="round"/>
</svg>
