<svg viewBox="0 0 24 25" fill="none" xmlns="http://www.w3.org/2000/svg">
<path d="M23.1 23.5001L23.2 22.4001C23.3 20.9001 22.3 19.5 20.9 19.2L16.7 18.3V12.3C16.7 11.5 16 10.8 15.2 10.8C14.4 10.8 13.7 11.5 13.7 12.3V22.1L12 20.8C11.4 20.3 10.5 20.4001 10 20.9001C9.5 21.4001 9.40002 22.3001 9.90002 22.9001L10.4 23.5001" stroke="#2F035B" stroke-width="1.5" stroke-linecap="round" stroke-linejoin="round"/>
<path d="M10.7 14.5H2.5C1.7 14.5 1 13.8 1 13V2.5C1 1.7 1.7 1 2.5 1H4.70001" stroke="#2F035B" stroke-width="1.5" stroke-linecap="round" stroke-linejoin="round"/>
<path d="M16.7 1H18.9C19.7 1 20.4 1.7 20.4 2.5V13C20.4 13.8 19.7 14.5 18.9 14.5" stroke="#2F035B" stroke-width="1.5" stroke-linecap="round" stroke-linejoin="round"/>
<path d="M10 14.5V17.5" stroke="#2F035B" stroke-width="1.5" stroke-linecap="round" stroke-linejoin="round"/>
<path d="M7.70001 17.5H10.7" stroke="#2F035B" stroke-width="1.5" stroke-linecap="round" stroke-linejoin="round"/>
<path d="M15.5 7.80005L15.9 6.80005C16.1 6.30005 16 5.80005 15.7 5.40005C15.4 5.00005 15 4.80005 14.5 4.80005H6.80002C6.30002 4.80005 5.8 5.00005 5.6 5.40005C5.3 5.80005 5.30002 6.30005 5.40002 6.80005L6.70001 10.3C6.80001 10.6 7.10002 10.8 7.40002 10.8H10.7" stroke="#2F035B" stroke-width="1.5" stroke-linecap="round" stroke-linejoin="round"/>
<path d="M6.90002 4.79999L8.40002 1" stroke="#2F035B" stroke-width="1.5" stroke-linecap="round" stroke-linejoin="round"/>
<path d="M14.4 4.79999L12.9 1" stroke="#2F035B" stroke-width="1.5" stroke-linecap="round" stroke-linejoin="round"/>
</svg>
