<svg  viewBox="0 0 24 24" fill="none" xmlns="http://www.w3.org/2000/svg">
<path d="M5.39998 22.0999C4.09998 23.3999 1.49999 22.8 1.49999 22.8C1.49999 22.8 0.900002 20.2 2.2 18.9C2.6 18.5 3.2 18.2 3.7 18.3C4.3 18.3 4.8 18.5999 5.1 19.0999C5.6 19.3999 5.89998 20 5.89998 20.5C6.09998 21.1 5.89998 21.6999 5.39998 22.0999Z" stroke="white" stroke-width="1.5" stroke-linecap="round" stroke-linejoin="round"/>
<path d="M19.3 5L20.6 3.70001" stroke="white" stroke-width="1.5" stroke-linecap="round" stroke-linejoin="round"/>
<path d="M19.5 9.59998L19.3 5L14.7 4.79999C13.3 4.79999 12.1 5.50001 11.3 6.70001L6.29999 14.9L9.29999 17.9L17.5 12.9C18.7 12.2 19.4 11 19.5 9.59998Z" stroke="white" stroke-width="1.5" stroke-linecap="round" stroke-linejoin="round"/>
<path d="M8.50001 11.5L7.4 11.1C6.7 10.8 5.9 11 5.4 11.5L3.50001 13.4C3.40001 13.5 3.3 13.7 3.4 13.9C3.5 14.1 3.6 14.2 3.8 14.3L6.4 15" stroke="white" stroke-width="1.5" stroke-linecap="round" stroke-linejoin="round"/>
<path d="M12.8 15.9L13.2 17C13.5 17.7 13.3 18.5 12.8 19L10.9 20.9C10.8 21 10.6 21.1 10.4 21C10.2 20.9 10.1 20.8 10 20.6L9.39999 18" stroke="white" stroke-width="1.5" stroke-linecap="round" stroke-linejoin="round"/>
<path d="M14.8 11.1C15.6 11.1 16.3 10.4 16.3 9.59998C16.3 8.79998 15.6 8.09998 14.8 8.09998C14 8.09998 13.3 8.79998 13.3 9.59998C13.3 10.4 13.9 11.1 14.8 11.1Z" stroke="white" stroke-width="1.5" stroke-linecap="round" stroke-linejoin="round"/>
<path d="M22.1 17.4H20.3C19.8 17.4 19.4 17.9 19.4 18.4C19.4 18.8 19.6 19.2 20 19.3L21.8 19.9C22.2 20.1 22.4 20.4 22.4 20.8C22.4 21.3 22 21.8 21.5 21.8H19.4" stroke="white" stroke-width="1.5" stroke-linecap="round" stroke-linejoin="round"/>
<path d="M20.9 17.4V16.4" stroke="white" stroke-width="1.5" stroke-linecap="round" stroke-linejoin="round"/>
<path d="M20.9 22.9V21.9" stroke="white" stroke-width="1.5" stroke-linecap="round" stroke-linejoin="round"/>
<path d="M4.10001 2.40002H2.39999C1.89999 2.40002 1.5 2.90002 1.5 3.40002C1.5 3.80002 1.70001 4.19999 2.10001 4.29999L3.89999 4.90002C4.29999 5.10002 4.5 5.39999 4.5 5.79999C4.5 6.29999 4.10001 6.79999 3.60001 6.79999H1.5" stroke="white" stroke-width="1.5" stroke-linecap="round" stroke-linejoin="round"/>
<path d="M2.89999 2.40002V1.40002" stroke="white" stroke-width="1.5" stroke-linecap="round" stroke-linejoin="round"/>
<path d="M2.89999 7.90002V6.90002" stroke="white" stroke-width="1.5" stroke-linecap="round" stroke-linejoin="round"/>
</svg>
