<svg viewBox="0 0 25 25" fill="none" xmlns="http://www.w3.org/2000/svg">
<path d="M13.5 1C13.7 1 14 1.09998 14.2 1.09998" stroke="white" stroke-width="1.5" stroke-linecap="round" stroke-linejoin="round"/>
<path d="M18.4 2.80005L19 3.19995" stroke="white" stroke-width="1.5" stroke-linecap="round" stroke-linejoin="round"/>
<path d="M22 6.5C22.1 6.7 22.2 6.89995 22.4 7.19995" stroke="white" stroke-width="1.5" stroke-linecap="round" stroke-linejoin="round"/>
<path d="M9.2 23C9 22.9 8.7 22.9 8.5 22.8" stroke="white" stroke-width="1.5" stroke-linecap="round" stroke-linejoin="round"/>
<path d="M4.7 20.5L4.2 20" stroke="white" stroke-width="1.5" stroke-linecap="round" stroke-linejoin="round"/>
<path d="M1.79999 16.2C1.69999 16 1.59999 15.7 1.59999 15.5" stroke="white" stroke-width="1.5" stroke-linecap="round" stroke-linejoin="round"/>
<path d="M17.5 23.4C20.8 23.4 23.5 20.7 23.5 17.4C23.5 14.1 20.8 11.4 17.5 11.4C14.2 11.4 11.5 14.1 11.5 17.4C11.5 20.8 14.2 23.4 17.5 23.4Z" stroke="white" stroke-width="1.5" stroke-linecap="round" stroke-linejoin="round"/>
<path d="M20.2 15.7L17.3 19.6C17.2 19.8 17 19.9 16.8 19.9C16.6 19.9 16.4 19.8 16.2 19.7L14.7 18.2" stroke="white" stroke-width="1.5" stroke-linecap="round" stroke-linejoin="round"/>
<path d="M8.5 3.90002H6.5C5.9 3.90002 5.3 4.4 5.2 5C5.1 5.6 5.4 6.3 6 6.5L8.09999 7.30005C8.69999 7.50005 8.99999 8.20005 8.89999 8.80005C8.79999 9.40005 8.19999 9.90002 7.59999 9.90002H5.59999" stroke="white" stroke-width="1.5" stroke-linecap="round" stroke-linejoin="round"/>
<path d="M7 3.90002V3.09998" stroke="white" stroke-width="1.5" stroke-linecap="round" stroke-linejoin="round"/>
<path d="M7 10.7V9.90002" stroke="white" stroke-width="1.5" stroke-linecap="round" stroke-linejoin="round"/>
<path d="M7 12.9C10.3 12.9 13 10.2 13 6.90002C13 3.60002 10.3 0.900024 7 0.900024C3.7 0.900024 1 3.60002 1 6.90002C1 10.3 3.7 12.9 7 12.9Z" stroke="white" stroke-width="1.5" stroke-linecap="round" stroke-linejoin="round"/>
</svg>
