<svg  viewBox="0 0 17 25" fill="none" xmlns="http://www.w3.org/2000/svg">
<path d="M13.7737 13.0202L11.5737 20.5202H5.57368L4.07368 16.0202H12.8737" stroke="white" stroke-width="1.5" stroke-linecap="round" stroke-linejoin="round"/>
<path d="M5.97368 22.8202C6.17368 22.8202 6.37369 23.0202 6.37369 23.2202C6.37369 23.4202 6.17368 23.6202 5.97368 23.6202C5.77368 23.6202 5.57368 23.4202 5.57368 23.2202C5.57368 23.0202 5.77368 22.8202 5.97368 22.8202Z" stroke="white" stroke-width="1.5" stroke-linecap="round" stroke-linejoin="round"/>
<path d="M11.1737 22.8202C11.3737 22.8202 11.5737 23.0202 11.5737 23.2202C11.5737 23.4202 11.3737 23.6202 11.1737 23.6202C10.9737 23.6202 10.7737 23.4202 10.7737 23.2202C10.7737 23.0202 10.9737 22.8202 11.1737 22.8202Z" stroke="white" stroke-width="1.5" stroke-linecap="round" stroke-linejoin="round"/>
<path d="M6.27368 10.8202L8.47368 13.0202V7.82019" stroke="white" stroke-width="1.5" stroke-linecap="round" stroke-linejoin="round"/>
<path d="M10.7737 10.8202L8.57368 13.0202" stroke="white" stroke-width="1.5" stroke-linecap="round" stroke-linejoin="round"/>
<path d="M3.47368 9.52021C1.57368 8.52021 0.573674 6.32019 1.17367 4.22019C1.77367 2.12019 3.77368 0.820213 5.97368 1.02021C8.17368 1.22021 9.77368 2.92019 9.97368 5.12019C10.7737 4.12019 12.0737 3.82019 13.2737 4.22019C14.4737 4.62019 15.2737 5.72021 15.2737 7.02021C15.2737 8.32021 14.4737 9.4202 13.3737 9.8202" stroke="white" stroke-width="1.5" stroke-linecap="round" stroke-linejoin="round"/>
</svg>
