<svg  viewBox="0 0 25 24" fill="none" xmlns="http://www.w3.org/2000/svg">
<path d="M1 14C1 13.2 1.7 12.5 2.5 12.5H11.5C12.3 12.5 13 13.2 13 14V18.2C13 19 12.3 19.7 11.5 19.7H2.5C1.7 19.7 1 19 1 18.2V14Z" stroke="white" stroke-width="1.5" stroke-linecap="round" stroke-linejoin="round"/>
<path d="M7 19.7V22.6" stroke="white" stroke-width="1.5" stroke-linecap="round" stroke-linejoin="round"/>
<path d="M4.70001 22.6H9.20001" stroke="white" stroke-width="1.5" stroke-linecap="round" stroke-linejoin="round"/>
<path d="M11.5 2.5C11.5 1.7 12.2 1 13 1H22C22.8 1 23.5 1.7 23.5 2.5V6.70001C23.5 7.50001 22.8 8.20001 22 8.20001H13C12.2 8.20001 11.5 7.50001 11.5 6.70001V2.5Z" stroke="white" stroke-width="1.5" stroke-linecap="round" stroke-linejoin="round"/>
<path d="M17.5 8.20001V11.1" stroke="white" stroke-width="1.5" stroke-linecap="round" stroke-linejoin="round"/>
<path d="M15.2 11.1H19.7" stroke="white" stroke-width="1.5" stroke-linecap="round" stroke-linejoin="round"/>
<path d="M8.5 3.89996C6.8 3.89996 5.5 5.19999 5.5 6.79999V9.70001" stroke="white" stroke-width="1.5" stroke-linecap="round" stroke-linejoin="round"/>
<path d="M3.20001 7.5L5.40002 9.70001L7.60004 7.5" stroke="white" stroke-width="1.5" stroke-linecap="round" stroke-linejoin="round"/>
</svg>
