<svg viewBox="0 0 25 25" fill="none" xmlns="http://www.w3.org/2000/svg">
<path d="M15.3 8.79999C16.5 8.79999 17.5 7.80001 17.5 6.60001C17.5 5.40001 16.5 4.39999 15.3 4.39999C14.1 4.39999 13.1 5.40001 13.1 6.60001C13 7.70001 14 8.79999 15.3 8.79999Z" stroke="white" stroke-width="1.5" stroke-linecap="round" stroke-linejoin="round"/>
<path d="M15.3 9.5C17.4 9.5 19.1 11.2 19.1 13.3" stroke="white" stroke-width="1.5" stroke-linecap="round" stroke-linejoin="round"/>
<path d="M2.5 5V2.79999C2.5 1.99999 3.2 1.29999 4 1.29999H22C22.8 1.29999 23.5 1.99999 23.5 2.79999V14.8C23.5 15.6 22.8 16.3 22 16.3H14.5" stroke="white" stroke-width="1.5" stroke-linecap="round" stroke-linejoin="round"/>
<path d="M17.5 16.3V19.3" stroke="white" stroke-width="1.5" stroke-linecap="round" stroke-linejoin="round"/>
<path d="M16 19.3H19.8" stroke="white" stroke-width="1.5" stroke-linecap="round" stroke-linejoin="round"/>
<path d="M1 23.8C1 20.1 3.99999 17 7.79999 17C11.6 17 14.6 20 14.6 23.8" stroke="white" stroke-width="1.5" stroke-linecap="round" stroke-linejoin="round"/>
<path d="M7.79999 15.5C10.1 15.5 11.9 13.7 11.9 11.4C11.9 9.09999 10.1 7.29999 7.79999 7.29999C5.49999 7.29999 3.70001 9.09999 3.70001 11.4C3.70001 13.7 5.49999 15.5 7.79999 15.5Z" stroke="white" stroke-width="1.5" stroke-linecap="round" stroke-linejoin="round"/>
</svg>
