<svg width="58" height="58" viewBox="0 0 58 58" fill="none" xmlns="http://www.w3.org/2000/svg">
<path fill-rule="evenodd" clip-rule="evenodd" d="M23.5548 3.64208C18.4953 4.48851 14.4452 8.9903 14.4452 14.5C14.4452 19.8449 18.3588 24.504 23.5548 25.3605V3.64208ZM11 14.5C11 6.40114 17.5873 0 25.2774 0C26.2288 0 27 0.783266 27 1.74947V27.2505C27 28.2167 26.2288 29 25.2774 29C17.3029 29 11 22.3099 11 14.5Z" fill="white"/>
<path fill-rule="evenodd" clip-rule="evenodd" d="M3.62819 54.5683H24.4412V34.4986C13.3703 35.3338 4.49432 43.8928 3.62819 54.5683ZM0 56.2841C0 42.3499 11.7703 31 26.2206 31C27.2033 31 28 31.7682 28 32.7159V56.2841C28 57.2318 27.2033 58 26.2206 58H1.77942C0.796673 58 0 57.2318 0 56.2841Z" fill="white"/>
<path fill-rule="evenodd" clip-rule="evenodd" d="M43.4477 4.48326C44.1841 5.12761 44.1841 6.17231 43.4477 6.81666L39.2191 10.5167C38.4827 11.1611 37.2887 11.1611 36.5523 10.5167C35.8159 9.87239 35.8159 8.82769 36.5523 8.18334L40.7809 4.48327C41.5173 3.83891 42.7113 3.83891 43.4477 4.48326Z" fill="white"/>
<path fill-rule="evenodd" clip-rule="evenodd" d="M36.5523 18.4833C37.2887 17.8389 38.4827 17.8389 39.2191 18.4833L43.4477 22.1833C44.1841 22.8277 44.1841 23.8724 43.4477 24.5167C42.7113 25.1611 41.5173 25.1611 40.7809 24.5167L36.5523 20.8167C35.8159 20.1723 35.8159 19.1276 36.5523 18.4833Z" fill="white"/>
<path fill-rule="evenodd" clip-rule="evenodd" d="M31 7.72919C31 6.77419 31.7937 6 32.7728 6C37.9761 6 42 9.92487 42 15C42 20.0751 37.9761 24 32.7728 24C31.7937 24 31 23.2258 31 22.2708C31 21.3158 31.7937 20.5416 32.7728 20.5416C36.0178 20.5416 38.4543 18.1651 38.4543 15C38.4543 11.8349 36.0178 9.45839 32.7728 9.45839C31.7937 9.45839 31 8.6842 31 7.72919Z" fill="white"/>
<path fill-rule="evenodd" clip-rule="evenodd" d="M33 0C34.1046 0 35 0.792655 35 1.77044V7.22956C35 8.20735 34.1046 9 33 9C31.8954 9 31 8.20735 31 7.22956V1.77044C31 0.792655 31.8954 0 33 0Z" fill="white"/>
<path fill-rule="evenodd" clip-rule="evenodd" d="M33 20C34.1046 20 35 20.7927 35 21.7704V27.2296C35 28.2073 34.1046 29 33 29C31.8954 29 31 28.2073 31 27.2296V21.7704C31 20.7927 31.8954 20 33 20Z" fill="white"/>
<path fill-rule="evenodd" clip-rule="evenodd" d="M38 14.5C38 13.6716 38.7927 13 39.7704 13H45.2296C46.2073 13 47 13.6716 47 14.5C47 15.3284 46.2073 16 45.2296 16H39.7704C38.7927 16 38 15.3284 38 14.5Z" fill="white"/>
<path fill-rule="evenodd" clip-rule="evenodd" d="M31 32.7313C31 31.7751 31.7751 31 32.7313 31H36.3711C37.3273 31 38.1024 31.7751 38.1024 32.7313V37.2214C39.5913 37.6725 41.0445 38.3065 42.402 39.0539L45.581 35.8749C46.2571 35.1987 47.3533 35.1988 48.0294 35.8749L53.1251 40.9706C53.8013 41.6467 53.8012 42.7429 53.1251 43.419L49.9461 46.598C50.6935 47.9555 51.3275 49.4087 51.7786 50.8976H56.2687C57.2249 50.8976 58 51.6727 58 52.6289V56.2687C58 57.2249 57.2249 58 56.2687 58C55.3125 58 54.5374 57.2249 54.5374 56.2687V54.3602H50.445C49.6336 54.3602 48.931 53.7966 48.755 53.0045C48.3202 51.048 47.4379 49.0458 46.3077 47.2375C45.8804 46.5539 45.9816 45.6658 46.5516 45.0957L49.4525 42.1948L46.8052 39.5475L43.9043 42.4484C43.3342 43.0184 42.4461 43.1196 41.7625 42.6923C39.9542 41.5621 37.952 40.6799 35.9955 40.2451C35.2034 40.069 34.6398 39.3665 34.6398 38.555V34.4626H32.7313C31.7751 34.4626 31 33.6875 31 32.7313Z" fill="white"/>
<path fill-rule="evenodd" clip-rule="evenodd" d="M31 47.638C31 46.7334 31.7945 46 32.7745 46C38.9774 46 44 50.6362 44 56.362C44 57.2666 43.2055 58 42.2255 58C41.2455 58 40.451 57.2666 40.451 56.362C40.451 52.4455 37.0174 49.276 32.7745 49.276C31.7945 49.276 31 48.5426 31 47.638Z" fill="white"/>
</svg>
