<svg width="58" height="59" viewBox="0 0 58 59" fill="none" xmlns="http://www.w3.org/2000/svg">
<path fill-rule="evenodd" clip-rule="evenodd" d="M24.1215 48.1072C25.0054 47.7726 25.9826 48.2473 26.304 49.1674C26.9581 51.0397 27.8556 52.7876 29.0015 54.4138C30.1533 52.7905 31.0578 51.0742 31.7153 49.3633C32.0646 48.4542 33.0557 48.0121 33.929 48.3757C34.8023 48.7393 35.2271 49.771 34.8777 50.68C33.8515 53.3508 32.3162 56.0121 30.2729 58.405C29.9497 58.7835 29.4864 59 29 59C28.5135 59 28.0503 58.7835 27.7271 58.405C25.6788 56.0063 24.1334 53.3288 23.103 50.3791C22.7816 49.459 23.2376 48.4418 24.1215 48.1072Z" fill="white"/>
<path fill-rule="evenodd" clip-rule="evenodd" d="M29 0C30.1046 0 31 0.791922 31 1.76881V6.23119C31 7.20808 30.1046 8 29 8C27.8954 8 27 7.20808 27 6.23119V1.76881C27 0.791922 27.8954 0 29 0Z" fill="white"/>
<path fill-rule="evenodd" clip-rule="evenodd" d="M27.9251 5.31321C28.538 4.8956 29.3567 4.8956 29.9696 5.31321L38.3985 11.0571C41.1944 12.8693 42.8238 16.4919 41.5733 19.9299L35.8783 40.7262C35.6726 41.477 34.969 42 34.1646 42H23.7301C22.9256 42 22.222 41.477 22.0164 40.7262L16.3039 19.8661C15.3865 16.6076 16.5733 12.952 19.4962 11.0572L27.9251 5.31321ZM28.9473 8.80581L21.5226 13.8654L21.4836 13.8912C19.9519 14.8771 19.1587 16.9639 19.7261 18.9724L19.7297 18.9853L19.7297 18.9853L25.095 38.5776H32.7997L38.165 18.9853C38.1786 18.9355 38.1946 18.8863 38.2128 18.8379C38.8935 17.031 38.0532 14.9481 36.411 13.8912L36.3721 13.8654L28.9473 8.80581Z" fill="white"/>
<path fill-rule="evenodd" clip-rule="evenodd" d="M23.3869 29.9861C23.8151 30.8669 23.468 31.938 22.6116 32.3784L20.1818 33.6281C20.1514 33.6437 20.1206 33.6584 20.0894 33.6721C19.0867 34.1141 18.4673 35.175 18.4673 36.2817V42.0735L23.3647 39.0073C24.1826 38.4952 25.2491 38.7621 25.747 39.6033C26.2448 40.4445 25.9854 41.5415 25.1675 42.0536L19.6963 45.4791C19.195 45.883 18.6145 46 18.1612 46C17.6323 46 17.125 45.8494 16.6873 45.6243C16.3738 45.4631 15.9206 45.1981 15.5621 44.7371C15.1541 44.2125 15 43.612 15 43.0297V36.2817C15 33.9064 16.3059 31.4861 18.673 30.4168L21.061 29.1886C21.9174 28.7482 22.9587 29.1053 23.3869 29.9861Z" fill="white"/>
<path fill-rule="evenodd" clip-rule="evenodd" d="M35.6131 29.9861C36.0413 29.1053 37.0826 28.7482 37.939 29.1886L40.327 30.4168C42.6941 31.4861 44 33.9064 44 36.2817V43.0297C44 43.612 43.8459 44.2125 43.4379 44.7371C43.0794 45.1981 42.6262 45.4631 42.3127 45.6243C41.875 45.8494 41.3677 46 40.8388 46C40.3855 46 39.805 45.883 39.3037 45.4791L33.8325 42.0536C33.0146 41.5415 32.7552 40.4445 33.253 39.6033C33.7509 38.7621 34.8174 38.4952 35.6353 39.0073L40.5327 42.0735V36.2817C40.5327 35.175 39.9133 34.1141 38.9106 33.6721C38.8794 33.6584 38.8486 33.6437 38.8182 33.6281L36.3884 32.3784C35.532 31.938 35.1849 30.8669 35.6131 29.9861Z" fill="white"/>
<path fill-rule="evenodd" clip-rule="evenodd" d="M24 18.5C24 15.5331 26.5331 13 29.5 13C32.4669 13 35 15.5331 35 18.5C35 21.4669 32.4669 24 29.5 24C26.5331 24 24 21.4669 24 18.5ZM29.5 16.5457C28.4913 16.5457 27.5457 17.4913 27.5457 18.5C27.5457 19.5087 28.4913 20.4543 29.5 20.4543C30.5087 20.4543 31.4543 19.5087 31.4543 18.5C31.4543 17.4913 30.5087 16.5457 29.5 16.5457Z" fill="white"/>
<path fill-rule="evenodd" clip-rule="evenodd" d="M48.9867 10.3423C49.5935 9.59763 50.5199 9 51.6447 9H55.7107C56.6008 9 57.3223 9.76748 57.3223 10.7142C57.3223 11.661 56.6008 12.4284 55.7107 12.4284H51.6447C51.64 12.4284 51.5499 12.4315 51.4226 12.5877C51.2913 12.7489 51.2233 12.9572 51.2233 13.1168C51.2233 13.3276 51.2754 13.4874 51.3231 13.5699C51.3337 13.5882 51.3426 13.6003 51.3486 13.6075C51.352 13.6115 51.3545 13.6141 51.356 13.6157C51.3566 13.6158 51.3572 13.616 51.3579 13.6162C51.3979 13.6268 51.4375 13.6391 51.4767 13.653L55.5427 15.0945C55.615 15.1201 55.6856 15.1512 55.7538 15.1875C56.3968 15.5295 56.9758 16.0093 57.3905 16.6709C57.8119 17.3433 58 18.1027 58 18.8832C58 19.9248 57.6161 20.9178 57.0133 21.6577C56.4065 22.4024 55.4801 23 54.3553 23H49.6117C48.7216 23 48 22.2325 48 21.2858C48 20.339 48.7216 19.5716 49.6117 19.5716H54.3553C54.36 19.5716 54.4501 19.5685 54.5774 19.4123C54.7087 19.2511 54.7767 19.0428 54.7767 18.8832C54.7767 18.7026 54.7388 18.621 54.7085 18.5726C54.6759 18.5205 54.5955 18.4206 54.3991 18.3029L50.5074 16.9232C48.6658 16.392 48 14.5024 48 13.1168C48 12.0751 48.3839 11.0822 48.9867 10.3423Z" fill="white"/>
<path fill-rule="evenodd" clip-rule="evenodd" d="M52.5 7C53.3284 7 54 7.6581 54 8.46991V10.5301C54 11.3419 53.3284 12 52.5 12C51.6716 12 51 11.3419 51 10.5301V8.46991C51 7.6581 51.6716 7 52.5 7Z" fill="white"/>
<path fill-rule="evenodd" clip-rule="evenodd" d="M52.5 20C53.3284 20 54 20.7897 54 21.7639V24.2361C54 25.2103 53.3284 26 52.5 26C51.6716 26 51 25.2103 51 24.2361V21.7639C51 20.7897 51.6716 20 52.5 20Z" fill="white"/>
<path fill-rule="evenodd" clip-rule="evenodd" d="M1.0854 4.34233C1.75288 3.59763 2.77191 3 4.00916 3H8.48172C9.46083 3 10.2546 3.76748 10.2546 4.71422C10.2546 5.66096 9.46083 6.42844 8.48172 6.42844H4.00916C4.00402 6.42844 3.90489 6.43146 3.76481 6.58774C3.62038 6.74888 3.54568 6.95722 3.54568 7.11683C3.54568 7.32755 3.60289 7.48738 3.65543 7.56993C3.66708 7.58825 3.67689 7.6003 3.68351 7.60754C3.68716 7.61154 3.68991 7.61415 3.69165 7.61569C3.69224 7.61584 3.69292 7.61602 3.6937 7.61621C3.73771 7.62685 3.78128 7.63911 3.82432 7.65299L8.29692 9.0945C8.37651 9.12015 8.45412 9.15123 8.52916 9.18751C9.23646 9.52947 9.87341 10.0093 10.3296 10.6709C10.7931 11.3433 11 12.1027 11 12.8832C11 13.9248 10.5778 14.9178 9.91464 15.6577C9.24716 16.4024 8.22814 17 6.99088 17H1.77284C0.793727 17 0 16.2325 0 15.2858C0 14.339 0.793727 13.5716 1.77284 13.5716H6.99088C6.99601 13.5716 7.09513 13.5685 7.23519 13.4123C7.37962 13.2511 7.45432 13.0428 7.45432 12.8832C7.45432 12.7026 7.41273 12.621 7.37933 12.5726C7.34344 12.5205 7.25509 12.4206 7.03896 12.3029L2.75812 10.9232C0.732424 10.392 0 8.50243 0 7.11683C0 6.07514 0.422268 5.08217 1.0854 4.34233Z" fill="white"/>
<path fill-rule="evenodd" clip-rule="evenodd" d="M5.5 0C6.32843 0 7 0.789719 7 1.76389V4.23611C7 5.21028 6.32843 6 5.5 6C4.67157 6 4 5.21028 4 4.23611V1.76389C4 0.789719 4.67157 0 5.5 0Z" fill="white"/>
<path fill-rule="evenodd" clip-rule="evenodd" d="M5.5 14C6.32843 14 7 14.7897 7 15.7639V18.2361C7 19.2103 6.32843 20 5.5 20C4.67157 20 4 19.2103 4 18.2361V15.7639C4 14.7897 4.67157 14 5.5 14Z" fill="white"/>
</svg>
