<svg width="58" height="59" viewBox="0 0 58 59" fill="none" xmlns="http://www.w3.org/2000/svg">
<path fill-rule="evenodd" clip-rule="evenodd" d="M3 9.5C3 4.14292 6.92487 0 12 0C17.0751 0 21 4.14292 21 9.5C21 14.8571 17.0751 19 12 19C7.20492 19 3 14.8964 3 9.5ZM12 3.65052C8.83489 3.65052 6.45839 6.15905 6.45839 9.5C6.45839 12.8016 9.03955 15.3495 12 15.3495C15.1651 15.3495 17.5416 12.841 17.5416 9.5C17.5416 6.15905 15.1651 3.65052 12 3.65052Z" fill="white"/>
<path fill-rule="evenodd" clip-rule="evenodd" d="M12.5 19C13.3284 19 14 19.7742 14 20.7292V35.2708C14 36.2258 13.3284 37 12.5 37C11.6716 37 11 36.2258 11 35.2708V20.7292C11 19.7742 11.6716 19 12.5 19Z" fill="white"/>
<path fill-rule="evenodd" clip-rule="evenodd" d="M0 31.6949C0 24.6479 5.56115 19 12.5 19C19.4388 19 25 24.6479 25 31.6949V39C25 39.9595 24.2341 40.7373 23.2893 40.7373H21.2308L19.4758 57.4469C19.383 58.3301 18.6493 59 17.7747 59H7.22518C6.35064 59 5.61693 58.3301 5.52417 57.4469L3.76921 40.7373H1.71066C0.765891 40.7373 0 39.9595 0 39V31.6949ZM12.5 22.4747C7.4507 22.4747 3.42133 26.5669 3.42133 31.6949V37.2627H5.30711C6.18165 37.2627 6.91537 37.9326 7.00812 38.8157L8.76308 55.5253H16.2368L17.9919 38.8157C18.0846 37.9326 18.8184 37.2627 19.6929 37.2627H21.5787V31.6949C21.5787 26.5669 17.5493 22.4747 12.5 22.4747Z" fill="white"/>
<path fill-rule="evenodd" clip-rule="evenodd" d="M25 1.76853C25 0.791799 25.7851 0 26.7536 0H52.5598C55.4945 0 58 2.52691 58 5.48664V31.5134C58 34.4731 55.4945 37 52.5598 37H30.4402C29.4717 37 28.6866 36.2082 28.6866 35.2315C28.6866 34.2547 29.4717 33.4629 30.4402 33.4629H52.5598C53.5576 33.4629 54.4929 32.5196 54.4929 31.5134V5.48664C54.4929 4.48038 53.5576 3.53706 52.5598 3.53706H26.7536C25.7851 3.53706 25 2.74527 25 1.76853Z" fill="white"/>
<path fill-rule="evenodd" clip-rule="evenodd" d="M50.479 11.5198C51.1737 12.2128 51.1737 13.3363 50.479 14.0293L41.0056 23.4803C40.311 24.1732 39.1848 24.1732 38.4901 23.4803L34.2633 19.2634L30.0364 23.4803C29.3418 24.1733 28.2156 24.1732 27.521 23.4802C26.8263 22.7872 26.8264 21.6637 27.521 20.9707L33.0056 15.4991C33.7002 14.8061 34.8264 14.8061 35.5211 15.4991L39.7479 19.7159L47.9636 11.5197C48.6582 10.8267 49.7844 10.8268 50.479 11.5198Z" fill="white"/>
<path fill-rule="evenodd" clip-rule="evenodd" d="M40 12.7728C40 11.7937 40.7937 11 41.7728 11H49.2272C50.2063 11 51 11.7937 51 12.7728V20.2272C51 21.2063 50.2063 22 49.2272 22C48.248 22 47.4543 21.2063 47.4543 20.2272V14.5457H41.7728C40.7937 14.5457 40 13.752 40 12.7728Z" fill="white"/>
<path fill-rule="evenodd" clip-rule="evenodd" d="M38 33C39.1046 33 40 33.7712 40 34.7226V47.2774C40 48.2288 39.1046 49 38 49C36.8954 49 36 48.2288 36 47.2774V34.7226C36 33.7712 36.8954 33 38 33Z" fill="white"/>
<path fill-rule="evenodd" clip-rule="evenodd" d="M29 48C29 46.8954 29.7742 46 30.7292 46H45.2708C46.2258 46 47 46.8954 47 48C47 49.1046 46.2258 50 45.2708 50H30.7292C29.7742 50 29 49.1046 29 48Z" fill="white"/>
</svg>
