<svg width="56" height="58" viewBox="0 0 56 58" fill="none" xmlns="http://www.w3.org/2000/svg">
<path fill-rule="evenodd" clip-rule="evenodd" d="M9 36C9 29.9216 13.9216 25 20 25C26.0784 25 31 29.9216 31 36C31 42.0784 26.0784 47 20 47C13.9216 47 9 42.0784 9 36ZM20 28.4777C15.8423 28.4777 12.4777 31.8423 12.4777 36C12.4777 40.1577 15.8423 43.5223 20 43.5223C24.1577 43.5223 27.5223 40.1577 27.5223 36C27.5223 31.8423 24.1577 28.4777 20 28.4777Z" fill="white"/>
<path fill-rule="evenodd" clip-rule="evenodd" d="M0 36C0 25.0569 9.05691 16 20 16C30.9431 16 40 25.0569 40 36C40 46.9431 30.9431 56 20 56C9.05691 56 0 46.9431 0 36ZM20 19.4747C10.9759 19.4747 3.47468 26.9759 3.47468 36C3.47468 45.0241 10.9759 52.5253 20 52.5253C29.0241 52.5253 36.5253 45.0241 36.5253 36C36.5253 26.9759 29.0241 19.4747 20 19.4747Z" fill="white"/>
<path fill-rule="evenodd" clip-rule="evenodd" d="M42.499 13.501C43.167 14.1691 43.167 15.2522 42.499 15.9203L20.9203 37.499C20.2522 38.167 19.1691 38.167 18.501 37.499C17.833 36.8309 17.833 35.7478 18.501 35.0797L40.0797 13.501C40.7478 12.833 41.8309 12.833 42.499 13.501Z" fill="white"/>
<path fill-rule="evenodd" clip-rule="evenodd" d="M8.53296 49.4671C9.15568 50.0898 9.15568 51.0994 8.53295 51.7221L2.72212 57.533C2.09939 58.1557 1.08976 58.1557 0.467036 57.5329C-0.155684 56.9102 -0.155678 55.9006 0.467049 55.2779L6.27788 49.467C6.90061 48.8443 7.91025 48.8443 8.53296 49.4671Z" fill="white"/>
<path fill-rule="evenodd" clip-rule="evenodd" d="M30.5189 49.4671C31.2108 48.8443 32.3327 48.8443 33.0246 49.467L39.4811 55.2779C40.173 55.9006 40.173 56.9102 39.4811 57.5329C38.7892 58.1557 37.6673 58.1557 36.9754 57.533L30.5189 51.7221C29.827 51.0994 29.827 50.0898 30.5189 49.4671Z" fill="white"/>
<path fill-rule="evenodd" clip-rule="evenodd" d="M44.2422 0.058818C44.8532 0.219347 45.3316 0.689511 45.4979 1.29289L47.4683 8.44049L54.6931 10.3898C55.2935 10.5517 55.7641 11.0132 55.9332 11.6057C56.1023 12.1982 55.9452 12.835 55.5191 13.2837L47.8137 21.3987C47.8011 21.412 47.7882 21.4251 47.7752 21.4381C46.6763 22.5252 44.8773 23.2601 43.0045 22.9134L35.5987 21.9365C34.8052 21.8319 34.181 21.2143 34.0752 20.4293L33.0878 13.1029C32.7192 11.1606 33.5784 9.67341 34.4143 8.57069C34.4647 8.50427 34.5197 8.44147 34.5791 8.38276L42.533 0.513906C42.98 0.0716709 43.6312 -0.101711 44.2422 0.058818ZM37.1801 10.772C36.5959 11.5642 36.4832 12.0081 36.5778 12.4762C36.5853 12.5134 36.5916 12.5508 36.5967 12.5884L37.4117 18.6356L43.5242 19.4419C43.5622 19.4469 43.6001 19.4531 43.6377 19.4606C44.2199 19.5758 44.8687 19.3398 45.2512 18.9724L50.915 13.0075L45.5574 11.5621C44.9516 11.3986 44.4783 10.9304 44.3131 10.331L42.8801 5.13291L37.1801 10.772Z" fill="white"/>
</svg>
