<svg viewBox="0 0 25 25" fill="none" xmlns="http://www.w3.org/2000/svg">
<path d="M12.3 13.8V16.8" stroke="white" stroke-width="1.5" stroke-linecap="round" stroke-linejoin="round"/>
<path d="M12.3 1V4.8" stroke="white" stroke-width="1.5" stroke-linecap="round" stroke-linejoin="round"/>
<path d="M12.3 16.8L17.7 20.4C18.5 21 19 21.9 19 22.9V23.5" stroke="white" stroke-width="1.5" stroke-linecap="round" stroke-linejoin="round"/>
<path d="M12.3 16.8L6.90001 20.4C6.10001 21 5.60001 21.9 5.60001 22.9V23.5" stroke="white" stroke-width="1.5" stroke-linecap="round" stroke-linejoin="round"/>
<path d="M12.3 16.8V23.6" stroke="white" stroke-width="1.5" stroke-linecap="round" stroke-linejoin="round"/>
<path d="M20.1 8C20.7 8.8 20.7 9.80001 20.1 10.6" stroke="white" stroke-width="1.5" stroke-linecap="round" stroke-linejoin="round"/>
<path d="M21.3 5C22.7 6 23.6 7.6 23.6 9.3C23.6 11 22.8 12.6 21.3 13.6" stroke="white" stroke-width="1.5" stroke-linecap="round" stroke-linejoin="round"/>
<path d="M4.49999 8C3.89999 8.8 3.89999 9.80001 4.49999 10.6" stroke="white" stroke-width="1.5" stroke-linecap="round" stroke-linejoin="round"/>
<path d="M3.3 5C1.9 6 1 7.6 1 9.3C1 11 1.8 12.6 3.3 13.6" stroke="white" stroke-width="1.5" stroke-linecap="round" stroke-linejoin="round"/>
<path d="M12.3 10.8C13.1 10.8 13.8 10.1 13.8 9.29999C13.8 8.49999 13.1 7.79999 12.3 7.79999C11.5 7.79999 10.8 8.49999 10.8 9.29999C10.8 10.1 11.5 10.8 12.3 10.8Z" stroke="white" stroke-width="1.5" stroke-linecap="round" stroke-linejoin="round"/>
<path d="M7.79999 6.29999C7.79999 5.49999 8.49999 4.79999 9.29999 4.79999H15.3C16.1 4.79999 16.8 5.49999 16.8 6.29999V12.3C16.8 13.1 16.1 13.8 15.3 13.8H9.29999C8.49999 13.8 7.79999 13.1 7.79999 12.3V6.29999Z" stroke="white" stroke-width="1.5" stroke-linecap="round" stroke-linejoin="round"/>
</svg>
