<svg viewBox="0 0 25 25" fill="none" xmlns="http://www.w3.org/2000/svg">
<path d="M1 14.2C1 13.7 1.4 13.2 2 13.2H22.5C23 13.2 23.5 13.6 23.5 14.2V22.7C23.5 23.2 23.1 23.7 22.5 23.7H2C1.5 23.7 1 23.3 1 22.7V14.2Z" stroke="white" stroke-width="1.5" stroke-linecap="round" stroke-linejoin="round"/>
<path d="M2.5 13.2V7.40002C2.5 6.90002 2.9 6.40002 3.5 6.40002H11.9C12.2 6.40002 12.5 6.50005 12.7 6.80005L13.9 8.70001H20.3C20.8 8.70001 21.3 9.10001 21.3 9.70001V13.3" stroke="white" stroke-width="1.5" stroke-linecap="round" stroke-linejoin="round"/>
<path d="M9.29999 16.1H15.2" stroke="white" stroke-width="1.5" stroke-linecap="round" stroke-linejoin="round"/>
<path d="M20 5.60004V4.30005C20 3.80005 19.6 3.30005 19 3.30005H13.9L12.7 1.40002C12.5 1.20002 12.2 1 11.9 1H4.79999C4.49999 1 4.30001 1.10005 4.10001 1.30005C3.90001 1.50005 3.79999 1.7 3.79999 2V3" stroke="white" stroke-width="1.5" stroke-linecap="round" stroke-linejoin="round"/>
</svg>
