<svg viewBox="0 0 25 25" fill="none" xmlns="http://www.w3.org/2000/svg">
<path d="M20.5394 11.4V14.4C20.5394 15.2 19.8394 15.9 19.0394 15.9H5.53937C4.73937 15.9 4.03937 15.2 4.03937 14.4V6.90002C4.03937 6.10002 4.73937 5.40002 5.53937 5.40002" stroke="white" stroke-width="1.5" stroke-linecap="round" stroke-linejoin="round"/>
<path d="M22.0394 23.4001H2.53939C2.03939 23.4001 1.53938 23.1 1.23938 22.7C0.939382 22.3 0.939392 21.7 1.13939 21.2L2.93939 17.5C3.43939 16.5 4.43939 15.8 5.63939 15.8H18.8394C19.9394 15.8 21.0394 16.4 21.5394 17.5L23.3394 21.2C23.5394 21.7 23.5394 22.2 23.2394 22.7C23.0394 23.2 22.5394 23.4001 22.0394 23.4001Z" stroke="white" stroke-width="1.5" stroke-linecap="round" stroke-linejoin="round"/>
<path d="M10.7394 20.4H13.7394" stroke="white" stroke-width="1.5" stroke-linecap="round" stroke-linejoin="round"/>
<path d="M11.1394 6.5H9.13939C8.53939 6.5 7.93938 7.00001 7.83938 7.60001C7.73938 8.20001 8.03939 8.90001 8.63939 9.10001L10.7394 9.90002C11.3394 10.1 11.6394 10.8 11.5394 11.4C11.4394 12 10.8394 12.5 10.2394 12.5H8.23938" stroke="white" stroke-width="1.5" stroke-linecap="round" stroke-linejoin="round"/>
<path d="M9.6394 6.5V5.70001" stroke="white" stroke-width="1.5" stroke-linecap="round" stroke-linejoin="round"/>
<path d="M9.6394 13.3V12.5" stroke="white" stroke-width="1.5" stroke-linecap="round" stroke-linejoin="round"/>
<path d="M23.5394 4.70001L22.7394 1.70001C22.6394 1.30001 22.2394 1 21.8394 1H19.7394C19.7394 1.8 19.1394 2.40002 18.3394 2.40002C17.5394 2.40002 16.9394 1.8 16.9394 1H14.8394C14.4394 1 14.0394 1.30001 13.9394 1.70001L13.1394 4.70001H15.3394V8.5H21.3394V4.70001H23.5394Z" stroke="white" stroke-width="1.5" stroke-linecap="round" stroke-linejoin="round"/>
</svg>
