<svg viewBox="0 0 25 25" fill="none" xmlns="http://www.w3.org/2000/svg">
<path d="M12.3 1.20001V2.70001" stroke="white" stroke-width="1.5" stroke-linecap="round" stroke-linejoin="round"/>
<path d="M4.79999 8.70001H6.39998" stroke="white" stroke-width="1.5" stroke-linecap="round" stroke-linejoin="round"/>
<path d="M19.8 8.70001H18.2" stroke="white" stroke-width="1.5" stroke-linecap="round" stroke-linejoin="round"/>
<path d="M6.10001 3.80005L7.5 5.20004" stroke="white" stroke-width="1.5" stroke-linecap="round" stroke-linejoin="round"/>
<path d="M18.5 3.80005L17.1 5.20004" stroke="white" stroke-width="1.5" stroke-linecap="round" stroke-linejoin="round"/>
<path d="M16 8.70004C16 6.80004 14.6 5.20004 12.8 5.00004C10.9 4.70004 9.2 5.90004 8.7 7.70004C8.2 9.50004 9.1 11.4 10.8 12.2V14H13.8V12.2C15.1 11.6 16 10.2 16 8.70004Z" stroke="white" stroke-width="1.5" stroke-linecap="round" stroke-linejoin="round"/>
<path d="M10.8 16.2H13.8" stroke="white" stroke-width="1.5" stroke-linecap="round" stroke-linejoin="round"/>
<path d="M19.3 20C20.7 20 21.9 18.8 21.9 17.4C21.9 16 20.7 14.8 19.3 14.8C17.9 14.8 16.7 16 16.7 17.4C16.7 18.8 17.9 20 19.3 20Z" stroke="white" stroke-width="1.5" stroke-linecap="round" stroke-linejoin="round"/>
<path d="M23.5 23.7C22.9 21.9 21.2 20.7 19.3 20.7C17.4 20.7 15.7 21.9 15.1 23.7" stroke="white" stroke-width="1.5" stroke-linecap="round" stroke-linejoin="round"/>
<path d="M5.29999 20C6.69999 20 7.89998 18.8 7.89998 17.4C7.89998 16 6.69999 14.8 5.29999 14.8C3.89999 14.8 2.69998 16 2.69998 17.4C2.59998 18.8 3.79999 20 5.29999 20Z" stroke="white" stroke-width="1.5" stroke-linecap="round" stroke-linejoin="round"/>
<path d="M9.5 23.7C8.9 21.9 7.2 20.7 5.3 20.7C3.4 20.7 1.70001 21.9 1.10001 23.7" stroke="white" stroke-width="1.5" stroke-linecap="round" stroke-linejoin="round"/>
</svg>
