<svg viewBox="0 0 25 25" fill="none" xmlns="http://www.w3.org/2000/svg">
<path d="M17.5 18.3C18.3 18.3 19 17.6 19 16.8C19 16 18.3 15.3 17.5 15.3C16.7 15.3 16 16 16 16.8C16 17.6 16.7 18.3 17.5 18.3Z" stroke="white" stroke-width="1.5" stroke-linecap="round" stroke-linejoin="round"/>
<path d="M18.8 11L19.2 12.5C19.4 13 19.9 13.3001 20.4 13.2001L21.9 12.9C22.5 12.8 23.1 13 23.4 13.5C23.7 14 23.6 14.7001 23.2 15.1001L22.2 16.2001C21.8 16.6001 21.8 17.2001 22.2 17.6001L23.2 18.7001C23.6 19.1001 23.7 19.8 23.4 20.3C23.1 20.8 22.5 21.1 21.9 20.9L20.4 20.6001C19.9 20.5001 19.4 20.8 19.2 21.3L18.8 22.7001C18.6 23.3001 18.1 23.6001 17.5 23.6001C16.9 23.6001 16.4 23.2001 16.2 22.7001L15.8 21.2001C15.6 20.7001 15.1 20.4 14.6 20.5L13.1 20.8C12.5 20.9 11.9 20.7001 11.6 20.2001C11.3 19.7001 11.4 19.1001 11.8 18.6001L12.8 17.5C13.2 17.1 13.2 16.5001 12.8 16.1001L11.8 15C11.4 14.6 11.3 13.9 11.6 13.4C11.9 12.9 12.5 12.6 13.1 12.8L14.6 13.1001C15.1 13.2001 15.6 12.9 15.8 12.4L16.2 10.9C16.4 10.3 16.9 10 17.5 10C18.1 10 18.6 10.4 18.8 11Z" stroke="white" stroke-width="1.5" stroke-linecap="round" stroke-linejoin="round"/>
<path d="M1 1.80005C1 1.40005 1.3 1 1.8 1H21.3C21.7 1 22.1 1.30005 22.1 1.80005V3.30005C22.1 3.70005 21.8 4.1001 21.3 4.1001H1.8C1.4 4.1001 1 3.80005 1 3.30005V1.80005Z" stroke="white" stroke-width="1.5" stroke-linecap="round" stroke-linejoin="round"/>
<path d="M2.5 17.5V4H20.5V7.80005" stroke="white" stroke-width="1.5" stroke-linecap="round" stroke-linejoin="round"/>
<path d="M1 17.5H8.5" stroke="white" stroke-width="1.5" stroke-linecap="round" stroke-linejoin="round"/>
</svg>
