<svg width="121" height="35" viewBox="0 0 121 35" fill="none" xmlns="http://www.w3.org/2000/svg">
<path d="M20.8206 32.5392C26.6028 31.532 31.3785 30.6985 31.4333 30.687L31.5331 30.6662L26.0741 24.2632C23.0717 20.7415 20.6152 17.8465 20.6152 17.8298C20.6152 17.7982 26.252 2.49135 26.2837 2.4369C26.2943 2.41869 30.1303 8.94945 35.5825 18.2679C40.6868 26.992 44.8952 34.185 44.9343 34.2524L45.0054 34.375L27.6565 34.3728L10.3076 34.3706L20.8206 32.5392V32.5392ZM87.3516 30.9907C84.7107 30.8238 83.1748 29.3409 82.7678 26.5653C82.6595 25.8269 82.6591 25.8078 82.648 21.0144L82.6373 16.3752H83.8061H84.9748L84.9841 20.8625C84.9923 24.9068 84.9976 25.381 85.0368 25.6655C85.1959 26.8201 85.5127 27.5966 86.0521 28.1539C86.4837 28.5999 86.9891 28.8611 87.6886 28.9997C88.0186 29.0651 88.9574 29.0652 89.2582 28.9999C89.9674 28.8461 90.5358 28.5417 91.0372 28.0475C91.6087 27.4841 92.0315 26.6849 92.2361 25.7811L92.305 25.4764L92.3127 20.9512L92.3204 16.4259H93.5136H94.7068V23.5398V30.6536H93.5259H92.3449V29.5249C92.3449 28.758 92.3364 28.399 92.3184 28.405C92.3037 28.4098 92.2431 28.5013 92.1836 28.6083C91.7766 29.3402 91.0986 30.0095 90.3556 30.4127C89.465 30.8961 88.5719 31.0679 87.3516 30.9908L87.3516 30.9907ZM114.156 30.9792C113.224 30.9101 112.243 30.5941 111.44 30.1047C109.749 29.0732 108.749 27.3731 108.456 25.0333C108.354 24.2237 108.342 23.1362 108.427 22.4482C108.616 20.911 109.228 19.4019 110.101 18.3246C110.324 18.0484 110.832 17.5482 111.112 17.3277C111.868 16.7322 112.753 16.3158 113.692 16.1132C114.239 15.9952 115.203 15.9397 115.784 15.9929C117.245 16.1264 118.583 16.8045 119.493 17.8718C120.417 18.9562 120.926 20.4714 120.99 22.3372C121.001 22.6296 121.003 23.1422 120.996 23.4764L120.983 24.084L115.868 24.0904L110.752 24.0968V24.3219C110.752 25.0071 110.921 25.7876 111.213 26.4517C111.465 27.0243 111.899 27.6496 112.254 27.9522C112.982 28.5727 113.872 28.944 114.847 29.0334C115.209 29.0666 116.13 29.0317 116.542 28.9693C117.717 28.7912 118.834 28.3367 119.736 27.6697C119.842 27.5912 119.944 27.5179 119.962 27.5067C119.988 27.4904 119.994 27.6955 119.994 28.5574L119.993 29.6282L119.751 29.7757C118.73 30.3981 117.561 30.7978 116.323 30.9474C115.954 30.9921 114.598 31.012 114.156 30.9792L114.156 30.9792ZM118.608 21.9475C118.608 20.7996 118.118 19.5245 117.423 18.8679C116.928 18.3993 116.329 18.113 115.617 18.0042C115.28 17.9528 114.571 17.9726 114.215 18.0434C113.465 18.1929 112.844 18.5184 112.302 19.0461C111.732 19.6015 111.305 20.276 111.036 21.0446C110.94 21.3209 110.827 21.7747 110.792 22.0271L110.775 22.1473H114.692H118.608V21.9475ZM49.2201 30.6219C49.2261 30.6045 50.9631 26.1046 53.0802 20.6221L56.9294 10.654L58.1661 10.6539L59.4029 10.6538L59.5055 10.9133C59.8191 11.7063 67.2113 30.6319 67.2113 30.6417C67.2113 30.6482 66.6192 30.6534 65.8956 30.6533L64.5798 30.6531L63.5144 27.8559L62.449 25.0587L58.1591 25.0586L53.8692 25.0586L53.832 25.1535C53.8115 25.2057 53.3563 26.4644 52.8204 27.9505L51.8461 30.6526L50.5277 30.653C49.484 30.6534 49.2115 30.6469 49.2201 30.6218V30.6219ZM61.666 22.9241C61.666 22.9196 60.949 21.0029 60.0727 18.6646C58.4332 14.2901 58.3415 14.0269 58.212 13.3246C58.1513 12.9953 58.1205 12.9862 58.0845 13.2867C58.0587 13.5015 57.947 13.9821 57.8608 14.2487C57.8181 14.381 57.0798 16.3791 56.2202 18.689C55.3606 20.9989 54.6573 22.8985 54.6573 22.9105C54.6573 22.9224 56.2343 22.9321 58.1616 22.9321C60.089 22.9321 61.666 22.9285 61.666 22.924V22.9241ZM68.0072 30.2892V29.9249L72.2812 24.1311L76.5552 18.3372L72.6855 18.3246L68.8158 18.3119L68.8091 17.3436L68.8024 16.3752H74.3994H79.9963V16.7023V17.0294L75.7218 22.8548C73.3708 26.0588 71.4473 28.6856 71.4473 28.6922C71.4473 28.6988 73.3477 28.7042 75.6705 28.7042H79.8936V29.6789V30.6535H73.9504H68.0072V30.2892ZM99.3707 30.6367C99.3613 30.6274 99.3536 27.4148 99.3536 23.4975V16.3752H100.522H101.69V17.8436C101.69 18.6512 101.7 19.3119 101.712 19.3119C101.724 19.3119 101.781 19.1797 101.838 19.0181C102.101 18.2778 102.556 17.586 103.143 17.0362C103.672 16.5408 104.276 16.2446 104.989 16.1313C105.189 16.0995 105.358 16.0934 105.759 16.1037C106.262 16.1166 106.525 16.1528 106.831 16.2514L106.927 16.2825V17.4781V18.6738L106.651 18.5375C106.164 18.2969 105.683 18.2017 105.104 18.2313C104.728 18.2506 104.481 18.2983 104.18 18.4096C103.561 18.6387 103.059 19.0431 102.708 19.5951C102.2 20.3942 101.838 21.4213 101.731 22.3653C101.712 22.5348 101.701 23.9145 101.696 26.6346L101.689 30.6535H100.539C99.9057 30.6535 99.3801 30.6459 99.3707 30.6367ZM0 30.5866C0 30.5776 2.57222 26.1745 5.71604 20.8019L11.4321 11.0335L18.0934 5.52094C21.7572 2.48902 24.7647 0.00465543 24.7767 0.000124541C24.7888 -0.00440545 24.7406 0.115213 24.6696 0.265944C24.5987 0.416675 21.3437 7.3013 17.4363 15.5651L10.332 30.5902L5.16602 30.5966C2.32471 30.6001 0 30.5956 0 30.5866V30.5866Z" fill="#0089D6"/>
</svg>
