<svg width="139" height="38" viewBox="0 0 139 38" fill="none" xmlns="http://www.w3.org/2000/svg">
<g clip-path="url(#clip0_48_143)">
<path d="M29.2789 37.9179C26.1755 37.9179 23.7984 37.1293 22.1431 35.5521C20.4901 33.9741 19.6632 31.7284 19.6632 28.8111C19.6632 25.9576 20.4346 23.6796 21.9752 21.9779C23.5166 20.2754 25.6725 19.4238 28.4446 19.4238C30.9622 19.4238 32.8556 20.1463 34.1226 21.5885C35.391 23.0313 36.0256 25.097 36.0256 27.7854V29.746H24.8005C24.8486 30.5556 25.0106 31.2347 25.2842 31.7764C25.5564 32.3227 25.9173 32.7541 26.367 33.0775C26.8056 33.3986 27.3182 33.6297 27.9032 33.7716C28.4882 33.9089 29.1258 33.9786 29.8203 33.9786C30.4164 33.9786 31.0014 33.9089 31.5753 33.7716C32.1522 33.6297 32.6796 33.4452 33.1574 33.2178C33.5752 33.0197 33.965 32.8066 34.32 32.5785C34.678 32.3519 34.9664 32.1486 35.1913 31.9723H35.7334V36.472C35.3148 36.6468 34.9302 36.8126 34.5841 36.9619C34.2372 37.112 33.7609 37.2643 33.1574 37.4219C32.6019 37.5757 32.0272 37.6973 31.4363 37.7866C30.8476 37.8728 30.1264 37.9179 29.2789 37.9179ZM30.9763 26.4618C30.9467 25.3093 30.6952 24.4337 30.2233 23.8304C29.7485 23.2287 29.0244 22.9263 28.0489 22.9263C27.0556 22.9263 26.276 23.2437 25.7139 23.8777C25.1526 24.5095 24.8434 25.3709 24.7865 26.4618H30.9763Z" fill="#231F21"/>
<path d="M54.9648 37.4504H49.8127V28.7811C49.8127 28.0751 49.7861 27.372 49.7306 26.6689C49.6788 25.9704 49.5797 25.4542 49.431 25.1225C49.2572 24.7286 49.0028 24.4457 48.6715 24.2739C48.3394 24.1028 47.8941 24.0165 47.3394 24.0165C46.9201 24.0165 46.4948 24.1006 46.0666 24.2656C45.6361 24.433 45.1776 24.6971 44.6894 25.0595V37.4504H39.5676V19.9708H44.6894V21.9006C45.5296 21.142 46.3461 20.5515 47.142 20.1238C47.9356 19.6999 48.8179 19.4875 49.7831 19.4875C51.462 19.4875 52.7438 20.051 53.6328 21.1765C54.521 22.302 54.9648 23.9347 54.9648 26.0709V37.4504Z" fill="#231F21"/>
<path d="M74.6901 28.7218C74.6901 31.5978 73.9512 33.8623 72.4727 35.5168C70.995 37.1728 68.9012 37.9997 66.1964 37.9997C63.5168 37.9997 61.4304 37.1728 59.9423 35.5168C58.4564 33.8623 57.7146 31.5978 57.7146 28.7218C57.7146 25.8158 58.4564 23.5408 59.9423 21.8954C61.4304 20.2506 63.5168 19.4275 66.1964 19.4275C68.8916 19.4275 70.9832 20.2566 72.4661 21.9104C73.949 23.5671 74.6901 25.8368 74.6901 28.7218ZM69.4337 28.7534C69.4337 27.7156 69.3516 26.852 69.1911 26.1617C69.0306 25.4699 68.8087 24.9184 68.5262 24.5042C68.2215 24.0661 67.8798 23.7637 67.5004 23.5926C67.1195 23.4223 66.6838 23.336 66.1964 23.336C65.7401 23.336 65.3244 23.4118 64.9539 23.5618C64.5841 23.7126 64.2431 24 63.9317 24.4255C63.6389 24.8306 63.4044 25.3859 63.2284 26.0912C63.0531 26.7972 62.9651 27.6834 62.9651 28.7534C62.9651 29.8226 63.0479 30.6862 63.2136 31.345C63.38 32.0045 63.593 32.5305 63.8585 32.9237C64.13 33.3304 64.4717 33.626 64.8814 33.8128C65.2897 33.9997 65.7438 34.0919 66.2401 34.0919C66.6505 34.0919 67.0692 33.9997 67.4922 33.8128C67.9168 33.626 68.2562 33.3461 68.5084 32.9725C68.8132 32.5268 69.0417 31.988 69.1992 31.3607C69.356 30.7327 69.4337 29.8638 69.4337 28.7534Z" fill="#231F21"/>
<path d="M88.5415 10.7177V20.8104C87.8078 20.4082 86.6193 19.8132 85.9751 19.6391C85.4152 19.4876 84.72 19.351 83.8606 19.351C82.9161 19.351 82.0167 19.5723 81.1691 20.0135C80.3178 20.4547 79.5974 21.052 79.0028 21.8098C78.8593 21.9906 78.7269 22.1827 78.6005 22.3793C77.4208 23.9678 76.8298 26.0544 76.8298 28.6416C76.8298 31.5146 77.5724 33.7798 79.0612 35.4365C80.5493 37.0918 82.635 37.9194 85.3191 37.9194C88.0223 37.9194 90.1125 37.0918 91.5902 35.4365C93.0228 33.8316 93.7757 31.6511 93.8201 28.9027V10.7177H88.5415ZM88.3182 31.279C88.1636 31.9085 87.9328 32.4442 87.6311 32.8914C87.3774 33.2643 87.0379 33.545 86.6126 33.7318C86.1903 33.9164 85.7717 34.0124 85.3627 34.0124C84.8649 34.0124 84.4108 33.9164 84.0018 33.7318C83.5913 33.545 83.2504 33.2486 82.9752 32.8449C82.7134 32.4495 82.4989 31.9227 82.3333 31.264C82.1661 30.6059 82.0833 29.7408 82.0833 28.6723C82.0833 27.6031 82.1728 26.7155 82.3473 26.0094C82.5226 25.3041 82.7593 24.7496 83.0499 24.3437C83.3613 23.9197 83.7045 23.6294 84.075 23.4793C84.4456 23.3307 84.859 23.2542 85.3191 23.2542C85.8065 23.2542 86.2406 23.342 86.6193 23.5116C87.0024 23.6826 87.3441 23.9858 87.6451 24.421C87.9291 24.8374 88.1503 25.3904 88.3108 26.0792C88.4727 26.7695 88.5526 27.6346 88.5526 28.6723C88.5526 29.7813 88.475 30.6517 88.3182 31.279Z" fill="#231F21"/>
<path d="M11.7124 10.7177V20.8104C10.978 20.4082 9.78946 19.8132 9.14452 19.6391C8.58537 19.4876 7.89014 19.351 7.03146 19.351C6.08698 19.351 5.18761 19.5723 4.33928 20.0135C3.48873 20.4547 2.76761 21.052 2.17223 21.8098C2.03023 21.9906 1.8971 22.1827 1.77062 22.3793C0.591687 23.9678 0 26.0544 0 28.6416C0 31.5146 0.743306 33.7798 2.2314 35.4365C3.72023 37.0918 5.80445 37.9194 8.48922 37.9194C11.1925 37.9194 13.2834 37.0918 14.7604 35.4365C16.193 33.8316 16.9466 31.6511 16.9903 28.9027V10.7177H11.7124ZM11.4898 31.279C11.3338 31.9085 11.1045 32.4442 10.8012 32.8914C10.5476 33.2643 10.2081 33.545 9.78354 33.7318C9.36048 33.9164 8.94186 34.0124 8.53286 34.0124C8.03511 34.0124 7.58173 33.9164 7.17272 33.7318C6.76224 33.545 6.4198 33.2486 6.14688 32.8449C5.88432 32.4495 5.66984 31.9227 5.50269 31.264C5.33627 30.6059 5.25344 29.7408 5.25344 28.6723C5.25344 27.6031 5.34293 26.7155 5.51748 26.0094C5.69277 25.3041 5.92796 24.7496 6.22085 24.3437C6.53296 23.9197 6.8754 23.6294 7.24594 23.4793C7.61575 23.3307 8.02919 23.2542 8.48922 23.2542C8.97737 23.2542 9.41078 23.342 9.7902 23.5116C10.1718 23.6826 10.5143 23.9858 10.8168 24.421C11.0993 24.8374 11.3204 25.3904 11.4824 26.0792C11.6437 26.7695 11.7228 27.6346 11.7228 28.6723C11.7228 29.7813 11.6451 30.6517 11.4898 31.279Z" fill="#231F21"/>
<path d="M113.548 28.6416C113.548 31.5146 112.81 33.7806 111.332 35.435C109.854 37.0918 107.762 37.9194 105.061 37.9194C102.377 37.9194 100.291 37.0918 98.8035 35.435C97.3147 33.7806 96.5714 31.5146 96.5714 28.6416C96.5714 25.7348 97.3147 23.4598 98.8035 21.8166C100.291 20.1704 102.377 19.348 105.061 19.348C107.753 19.348 109.84 20.1741 111.324 21.8316C112.808 23.4876 113.548 25.755 113.548 28.6416ZM108.294 28.6708C108.294 27.6339 108.215 26.7702 108.055 26.0814C107.893 25.3904 107.67 24.8374 107.387 24.4225C107.084 23.9865 106.741 23.6841 106.361 23.5123C105.982 23.342 105.548 23.2542 105.061 23.2542C104.603 23.2542 104.186 23.3307 103.817 23.4808C103.446 23.6309 103.104 23.9197 102.792 24.3452C102.501 24.7489 102.266 25.3041 102.089 26.0117C101.914 26.7155 101.825 27.6031 101.825 28.6708C101.825 29.74 101.907 30.6059 102.076 31.264C102.241 31.9242 102.455 32.4495 102.719 32.8442C102.991 33.2486 103.333 33.5465 103.744 33.7318C104.153 33.9194 104.605 34.0117 105.104 34.0117C105.515 34.0117 105.932 33.9194 106.354 33.7318C106.779 33.5465 107.118 33.2651 107.372 32.8914C107.675 32.445 107.905 31.907 108.06 31.279C108.216 30.6524 108.294 29.7821 108.294 28.6708Z" fill="#231F21"/>
<path d="M118.051 15.1071L120.693 19.7441L116.117 22.4228L113.475 17.7813L118.051 15.1071Z" fill="#F0534A"/>
<path d="M123.595 21.4414H128.88V26.8033H123.595V21.4414Z" fill="#F0534A"/>
<path d="M131.781 19.7434L134.425 15.1071L139.001 17.782L136.357 22.4221L131.781 19.7434Z" fill="#F0534A"/>
<path d="M134.425 11.7029L131.782 7.06059L136.356 4.37967L139.001 9.0227L134.425 11.7029Z" fill="#F0534A"/>
<path d="M128.88 16.0855H123.596V10.7222H128.88V16.0855Z" fill="#231F21"/>
<path d="M128.88 5.36112H123.596V-0.000732422L128.88 1.79067e-05V5.36112Z" fill="#F0534A"/>
<path d="M120.693 7.06061L118.051 11.7036L113.475 9.02347L116.117 4.38043L120.693 7.06061Z" fill="#F0534A"/>
</g>
<defs>
<clipPath id="clip0_48_143">
<rect width="139" height="38" fill="white"/>
</clipPath>
</defs>
</svg>
