<svg width="200" height="31" viewBox="0 0 200 31" fill="none" xmlns="http://www.w3.org/2000/svg">
<path d="M24.1437 8.20393H25.2487L28.3978 5.04857L28.5525 3.70893C26.7485 2.11349 24.5683 1.00519 22.2179 0.488731C19.8675 -0.0277292 17.4245 0.0646996 15.1197 0.757286C12.8148 1.44987 10.7243 2.71975 9.04543 4.44697C7.3666 6.17418 6.15494 8.30171 5.5249 10.6286C5.87573 10.4845 6.26437 10.4611 6.62987 10.5621L12.9282 9.52143C12.9282 9.52143 13.2487 8.99 13.4144 9.02322C14.7639 7.53817 16.629 6.62614 18.6277 6.47383C20.6264 6.32152 22.6076 6.94046 24.1658 8.20393H24.1437Z" fill="#EA4335"/>
<path d="M32.884 10.6286C32.1602 7.95774 30.674 5.55669 28.6078 3.72L24.1879 8.14857C25.109 8.90272 25.8472 9.8566 26.3468 10.9383C26.8464 12.02 27.0943 13.2012 27.0719 14.3929V15.1789C27.5884 15.1789 28.1 15.2809 28.5772 15.479C29.0545 15.677 29.4881 15.9674 29.8534 16.3333C30.2187 16.6993 30.5084 17.1338 30.7061 17.612C30.9038 18.0902 31.0056 18.6028 31.0056 19.1204C31.0056 19.638 30.9038 20.1505 30.7061 20.6287C30.5084 21.1069 30.2187 21.5414 29.8534 21.9074C29.4881 22.2734 29.0545 22.5637 28.5772 22.7618C28.1 22.9598 27.5884 23.0618 27.0719 23.0618H19.2045L18.4199 23.8589V28.5864L19.2045 29.3725H27.0719C29.2688 29.3896 31.4129 28.6978 33.187 27.3993C34.9611 26.1008 36.271 24.2647 36.9228 22.1625C37.5747 20.0603 37.5339 17.8037 36.8065 15.7265C36.0792 13.6493 34.7038 11.8619 32.884 10.6286Z" fill="#4285F4"/>
<path d="M11.326 29.3282H19.1934V23.0175H11.326C10.7654 23.0174 10.2115 22.8965 9.70166 22.6632L8.59668 23.0064L5.42541 26.1618L5.14917 27.2689C6.92755 28.6144 9.09754 29.3379 11.326 29.3282Z" fill="#34A853"/>
<path d="M11.326 8.85715C9.19426 8.86991 7.11978 9.54945 5.39224 10.8009C3.66471 12.0523 2.3704 13.813 1.69008 15.8373C1.00977 17.8615 0.977424 20.0481 1.59757 22.0916C2.21772 24.1351 3.45939 25.9336 5.14916 27.2357L9.71269 22.6632C9.13276 22.4007 8.62506 22.0011 8.23314 21.4988C7.84122 20.9964 7.57678 20.4063 7.46252 19.779C7.34826 19.1518 7.38759 18.5061 7.57713 17.8974C7.76668 17.2887 8.10077 16.7352 8.55075 16.2844C9.00074 15.8335 9.55317 15.4987 10.1607 15.3088C10.7681 15.1189 11.4126 15.0795 12.0386 15.194C12.6646 15.3085 13.2536 15.5734 13.7549 15.9661C14.2563 16.3588 14.6551 16.8675 14.9171 17.4486L19.4806 12.8761C18.5228 11.6214 17.2883 10.6058 15.8736 9.90857C14.4589 9.21137 12.9025 8.85152 11.326 8.85715Z" fill="#FBBC05"/>
<path d="M58.3315 24.9218C56.977 24.9391 55.6329 24.6823 54.3798 24.1667C53.1267 23.6512 51.9903 22.8875 51.0387 21.9214C50.0572 20.9964 49.2783 19.877 48.7514 18.6344C48.2245 17.3917 47.9611 16.0529 47.9779 14.7029C47.9618 13.3529 48.2254 12.0143 48.7523 10.7717C49.2792 9.5292 50.0577 8.40976 51.0387 7.48429C51.9856 6.50823 53.1199 5.73432 54.3732 5.20916C55.6266 4.68401 56.973 4.41848 58.3315 4.42857C59.6259 4.41129 60.9109 4.65197 62.1116 5.13664C63.3124 5.62131 64.405 6.34029 65.326 7.25179L63.3592 9.25572C62.0122 7.95145 60.2045 7.2349 58.3315 7.26286C57.3599 7.2509 56.3965 7.44158 55.5024 7.82279C54.6084 8.20399 53.8032 8.76738 53.1382 9.47715C52.447 10.1642 51.9017 10.9843 51.5352 11.8881C51.1687 12.7919 50.9885 13.7607 51.0056 14.7361C50.9975 15.7003 51.182 16.6565 51.5482 17.5482C51.9144 18.44 52.455 19.2493 53.1382 19.9286C54.5065 21.2949 56.3531 22.0722 58.2847 22.0949C60.2164 22.1176 62.0807 21.3841 63.4807 20.0504C64.3474 19.0993 64.8792 17.8898 64.9945 16.6071H58.3647V13.7729H67.7459C67.8381 14.3437 67.8751 14.9221 67.8564 15.5C67.9147 16.6962 67.7304 17.8918 67.3144 19.0145C66.8985 20.1373 66.2597 21.1638 65.4365 22.0321C64.5213 22.9869 63.4155 23.7377 62.1913 24.2356C60.9671 24.7335 59.652 24.9673 58.3315 24.9218ZM80.1437 23.0396C78.8847 24.2488 77.2081 24.9239 75.4641 24.9239C73.7201 24.9239 72.0436 24.2488 70.7846 23.0396C70.1579 22.4309 69.6644 21.6982 69.3353 20.8882C69.0063 20.0782 68.8488 19.2085 68.873 18.3343C68.8495 17.4602 69.0072 16.5907 69.3363 15.7807C69.6653 14.9708 70.1585 14.2381 70.7846 13.6289C72.0449 12.4223 73.7209 11.7489 75.4641 11.7489C77.2073 11.7489 78.8834 12.4223 80.1437 13.6289C80.7698 14.2381 81.2629 14.9708 81.592 15.7807C81.921 16.5907 82.0788 17.4602 82.0553 18.3343C82.078 19.2093 81.9188 20.0795 81.5878 20.8896C81.2568 21.6996 80.7613 22.4318 80.1326 23.0396H80.1437ZM72.8509 21.1907C73.1857 21.549 73.5905 21.8347 74.04 22.03C74.4895 22.2252 74.9742 22.326 75.4641 22.326C75.9541 22.326 76.4388 22.2252 76.8883 22.03C77.3378 21.8347 77.7425 21.549 78.0774 21.1907C78.4425 20.8126 78.7284 20.3651 78.9182 19.8745C79.108 19.3839 79.1978 18.8602 79.1824 18.3343C79.1986 17.8066 79.1093 17.281 78.9195 16.7885C78.7297 16.296 78.4434 15.8466 78.0774 15.4668C77.7381 15.1121 77.3307 14.8299 76.8797 14.6371C76.4287 14.4443 75.9434 14.3449 75.4531 14.3449C74.9627 14.3449 74.4775 14.4443 74.0265 14.6371C73.5755 14.8299 73.1681 15.1121 72.8288 15.4668C72.4628 15.8466 72.1765 16.296 71.9867 16.7885C71.7969 17.281 71.7075 17.8066 71.7238 18.3343C71.7098 18.861 71.8014 19.3851 71.9931 19.8757C72.1848 20.3664 72.4727 20.8135 72.8398 21.1907H72.8509ZM94.5304 23.0396C93.2714 24.2488 91.5949 24.9239 89.8509 24.9239C88.1069 24.9239 86.4303 24.2488 85.1713 23.0396C84.5447 22.4309 84.0512 21.6982 83.7221 20.8882C83.393 20.0782 83.2355 19.2085 83.2597 18.3343C83.2362 17.4602 83.394 16.5907 83.723 15.7807C84.0521 14.9708 84.5452 14.2381 85.1713 13.6289C86.4303 12.4197 88.1069 11.7446 89.8509 11.7446C91.5949 11.7446 93.2714 12.4197 94.5304 13.6289C95.1565 14.2381 95.6497 14.9708 95.9787 15.7807C96.3077 16.5907 96.4655 17.4602 96.442 18.3343C96.4662 19.2085 96.3087 20.0782 95.9796 20.8882C95.6506 21.6982 95.1571 22.4309 94.5304 23.0396ZM87.2376 21.1907C87.5725 21.549 87.9772 21.8347 88.4267 22.03C88.8762 22.2252 89.3609 22.326 89.8509 22.326C90.3408 22.326 90.8255 22.2252 91.275 22.03C91.7245 21.8347 92.1292 21.549 92.4641 21.1907C92.8293 20.8126 93.1151 20.3651 93.3049 19.8745C93.4947 19.3839 93.5845 18.8602 93.5691 18.3343C93.5854 17.8066 93.496 17.281 93.3062 16.7885C93.1164 16.296 92.8301 15.8466 92.4641 15.4668C92.1248 15.1121 91.7174 14.8299 91.2664 14.6371C90.8154 14.4443 90.3301 14.3449 89.8398 14.3449C89.3495 14.3449 88.8642 14.4443 88.4132 14.6371C87.9622 14.8299 87.5548 15.1121 87.2155 15.4668C86.8495 15.8466 86.5632 16.296 86.3734 16.7885C86.1836 17.281 86.0942 17.8066 86.1105 18.3343C86.0966 18.861 86.1881 19.3851 86.3798 19.8757C86.5715 20.3664 86.8594 20.8135 87.2266 21.1907H87.2376ZM103.989 30.8339C102.665 30.8761 101.366 30.4619 100.309 29.6604C99.3715 28.9539 98.6328 28.0154 98.1658 26.9368L100.685 25.885C100.959 26.5296 101.388 27.0963 101.934 27.5346C102.518 28.0063 103.25 28.2536 104 28.2321C104.475 28.2611 104.951 28.1871 105.396 28.0152C105.84 27.8432 106.242 27.5774 106.575 27.2357C107.24 26.4311 107.569 25.3994 107.492 24.3571V23.405H107.392C106.971 23.9061 106.439 24.3021 105.839 24.5615C105.239 24.8209 104.586 24.9367 103.934 24.8996C103.104 24.9022 102.283 24.7323 101.522 24.4007C100.761 24.0691 100.078 23.583 99.5138 22.9732C98.9021 22.3682 98.4192 21.6452 98.0945 20.8478C97.7697 20.0505 97.6097 19.1954 97.6243 18.3343C97.6091 17.4682 97.7686 16.6079 98.0933 15.805C98.418 15.0022 98.9011 14.2733 99.5138 13.6621C100.076 13.0498 100.76 12.5613 101.52 12.2277C102.281 11.8942 103.103 11.7229 103.934 11.7246C104.637 11.7234 105.331 11.8784 105.967 12.1786C106.517 12.4193 107.007 12.7784 107.403 13.2304H107.503V12.1786H110.243V23.9696C110.315 24.9024 110.197 25.8401 109.895 26.7253C109.592 27.6105 109.113 28.4247 108.486 29.1179C107.889 29.6903 107.183 30.1372 106.411 30.4319C105.639 30.7266 104.815 30.8633 103.989 30.8339ZM104.188 22.3311C104.66 22.3415 105.128 22.2477 105.56 22.0563C105.991 21.865 106.375 21.5808 106.685 21.2239C107.367 20.4411 107.726 19.428 107.691 18.3896C107.732 17.3338 107.372 16.3015 106.685 15.5C106.376 15.1425 105.992 14.8579 105.56 14.6666C105.128 14.4752 104.66 14.3817 104.188 14.3929C103.703 14.3829 103.222 14.4765 102.776 14.6674C102.33 14.8583 101.93 15.1421 101.602 15.5C100.871 16.2727 100.474 17.3031 100.497 18.3675C100.486 18.8896 100.578 19.4087 100.767 19.8951C100.957 20.3815 101.241 20.8256 101.602 21.2018C101.929 21.5631 102.328 21.8508 102.774 22.0455C103.219 22.2402 103.702 22.3375 104.188 22.3311ZM115.116 5.17036V24.5232H112.232V5.17036H115.116ZM123.028 24.9218C122.164 24.944 121.305 24.7874 120.505 24.4616C119.704 24.1358 118.979 23.648 118.376 23.0286C117.763 22.4137 117.282 21.6806 116.961 20.8736C116.64 20.0666 116.486 19.2027 116.508 18.3343C116.476 17.4637 116.618 16.5955 116.928 15.7814C117.237 14.9673 117.707 14.2239 118.309 13.5957C118.877 12.9962 119.563 12.522 120.325 12.2036C121.086 11.8852 121.905 11.7296 122.729 11.7468C123.488 11.7388 124.24 11.8857 124.939 12.1786C125.57 12.4335 126.144 12.8096 126.63 13.2857C127.047 13.6893 127.418 14.1387 127.735 14.6254C127.991 15.0362 128.209 15.4698 128.387 15.9207L128.685 16.6736L119.845 20.3161C120.113 20.9315 120.56 21.4514 121.128 21.8072C121.696 22.1629 122.358 22.3378 123.028 22.3089C123.679 22.3107 124.319 22.1434 124.887 21.8232C125.454 21.503 125.929 21.041 126.265 20.4821L128.475 21.9768C127.911 22.7852 127.189 23.4707 126.354 23.9918C125.36 24.621 124.203 24.9444 123.028 24.9218ZM119.337 18.135L125.215 15.6882C125.034 15.2568 124.711 14.901 124.298 14.6807C123.837 14.4196 123.314 14.2859 122.785 14.2932C121.885 14.3166 121.032 14.6945 120.409 15.345C120.036 15.7023 119.747 16.1376 119.562 16.6199C119.376 17.1022 119.3 17.6196 119.337 18.135Z" fill="#5F6368"/>
<path d="M143.79 24.9218C142.564 24.943 141.345 24.7157 140.209 24.2534C139.072 23.7912 138.04 23.1036 137.176 22.2319C136.311 21.3602 135.631 20.3224 135.176 19.1808C134.722 18.0392 134.502 16.8173 134.53 15.5886C134.502 14.3598 134.722 13.1379 135.176 11.9963C135.631 10.8547 136.311 9.81692 137.176 8.94523C138.04 8.07354 139.072 7.38594 140.209 6.9237C141.345 6.46147 142.564 6.23413 143.79 6.25535C145.031 6.21646 146.266 6.45914 147.4 6.96527C148.535 7.4714 149.541 8.22788 150.343 9.1782L148.751 10.7282C148.163 9.9863 147.408 9.39408 146.547 8.9997C145.687 8.60532 144.746 8.41991 143.801 8.45856C142.891 8.43802 141.987 8.60201 141.142 8.94067C140.297 9.27934 139.529 9.78568 138.884 10.4293C138.214 11.1046 137.69 11.9116 137.346 12.7995C137.002 13.6873 136.844 14.6369 136.884 15.5886C136.844 16.5402 137.002 17.4898 137.346 18.3777C137.69 19.2655 138.214 20.0725 138.884 20.7478C139.529 21.3914 140.297 21.8978 141.142 22.2364C141.987 22.5751 142.891 22.7391 143.801 22.7186C144.857 22.7304 145.902 22.5037 146.859 22.0551C147.815 21.6066 148.659 20.9479 149.326 20.1278L150.917 21.7221C150.084 22.7203 149.038 23.5186 147.856 24.0582C146.583 24.6475 145.193 24.9426 143.79 24.9218Z" fill="#5F6368"/>
<path d="M155.193 24.5232H152.906V6.64285H155.193V24.5232Z" fill="#5F6368"/>
<path d="M158.928 13.7618C160.127 12.5692 161.747 11.8998 163.436 11.8998C165.126 11.8998 166.746 12.5692 167.945 13.7618C168.531 14.3818 168.989 15.1118 169.292 15.9099C169.596 16.7079 169.738 17.5582 169.713 18.4118C169.738 19.2654 169.596 20.1157 169.292 20.9137C168.989 21.7117 168.531 22.4418 167.945 23.0618C166.746 24.2544 165.126 24.9237 163.436 24.9237C161.747 24.9237 160.127 24.2544 158.928 23.0618C158.342 22.4418 157.884 21.7117 157.581 20.9137C157.277 20.1157 157.134 19.2654 157.16 18.4118C157.134 17.5582 157.277 16.7079 157.581 15.9099C157.884 15.1118 158.342 14.3818 158.928 13.7618ZM160.63 21.6225C160.99 22.0041 161.424 22.3081 161.906 22.5158C162.388 22.7236 162.907 22.8307 163.431 22.8307C163.955 22.8307 164.474 22.7236 164.956 22.5158C165.437 22.3081 165.872 22.0041 166.232 21.6225C166.632 21.1927 166.942 20.6874 167.145 20.1362C167.348 19.585 167.44 18.9988 167.414 18.4118C167.44 17.8248 167.348 17.2386 167.145 16.6874C166.942 16.1361 166.632 15.6309 166.232 15.2011C165.872 14.8195 165.437 14.5155 164.956 14.3077C164.474 14.1 163.955 13.9929 163.431 13.9929C162.907 13.9929 162.388 14.1 161.906 14.3077C161.424 14.5155 160.99 14.8195 160.63 15.2011C160.23 15.6309 159.92 16.1361 159.717 16.6874C159.514 17.2386 159.422 17.8248 159.447 18.4118C159.425 18.9977 159.519 19.5823 159.724 20.1315C159.929 20.6808 160.24 21.1838 160.641 21.6114L160.63 21.6225Z" fill="#5F6368"/>
<path d="M182.387 24.5232H180.177V22.8293H180.111C179.717 23.4727 179.16 23.9999 178.497 24.3571C177.809 24.7568 177.028 24.9669 176.232 24.9661C175.586 25.0103 174.939 24.9079 174.338 24.6663C173.737 24.4248 173.199 24.0504 172.762 23.5711C171.925 22.5103 171.505 21.1791 171.58 19.8289V12.3004H173.867V19.4082C173.867 21.6889 174.873 22.8293 176.884 22.8293C177.331 22.8432 177.775 22.7501 178.178 22.5575C178.582 22.3649 178.934 22.0785 179.204 21.7221C179.797 20.9693 180.113 20.0349 180.099 19.0761V12.3004H182.387V24.5232Z" fill="#5F6368"/>
<path d="M190.155 24.9218C189.379 24.9244 188.612 24.7584 187.906 24.4354C187.2 24.1124 186.572 23.64 186.066 23.0507C184.921 21.783 184.307 20.1213 184.354 18.4118C184.307 16.7022 184.921 15.0406 186.066 13.7729C186.572 13.1835 187.2 12.7111 187.906 12.3881C188.612 12.0651 189.379 11.8992 190.155 11.9018C191.024 11.888 191.883 12.0936 192.652 12.4996C193.328 12.8404 193.9 13.3566 194.309 13.9943H194.409L194.309 12.3004V6.64285H196.597V24.5232H194.387V22.8293H194.287C193.878 23.467 193.306 23.9831 192.63 24.3239C191.867 24.7263 191.017 24.9318 190.155 24.9218ZM190.53 22.8293C191.047 22.8368 191.56 22.7341 192.034 22.528C192.509 22.3218 192.934 22.0169 193.282 21.6336C194.059 20.7471 194.456 19.5895 194.387 18.4118C194.456 17.234 194.059 16.0765 193.282 15.19C192.932 14.8045 192.505 14.4966 192.03 14.2859C191.554 14.0752 191.04 13.9663 190.519 13.9663C189.999 13.9663 189.485 14.0752 189.009 14.2859C188.534 14.4966 188.107 14.8045 187.757 15.19C187.371 15.626 187.075 16.134 186.885 16.685C186.695 17.236 186.616 17.819 186.652 18.4007C186.616 18.9824 186.695 19.5655 186.885 20.1164C187.075 20.6674 187.371 21.1754 187.757 21.6114C188.105 22.0017 188.533 22.3123 189.012 22.5225C189.49 22.7326 190.008 22.8372 190.53 22.8293Z" fill="#5F6368"/>
</svg>
