<svg width="150" height="43" viewBox="0 0 150 43" fill="none" xmlns="http://www.w3.org/2000/svg">
<path d="M33.9286 0H3.78151C1.68067 0 0 1.72 0 3.87V39.13C0 41.28 1.68067 43 3.78151 43H33.9286C36.0294 43 37.7101 41.28 37.7101 39.13V3.87C37.7101 1.72 36.0294 0 33.9286 0ZM35.6092 39.13C35.6092 40.0975 34.874 40.85 33.9286 40.85H3.78151C2.83613 40.85 2.10084 40.0975 2.10084 39.13V3.87C2.10084 2.9025 2.83613 2.15 3.78151 2.15H33.9286C34.874 2.15 35.6092 2.9025 35.6092 3.87V39.13ZM9.45378 36.55L14.1807 32.25L9.45378 27.95V36.55ZM26.4706 19.135C25.6302 18.275 24.0546 17.2 21.4286 17.2C18.5924 17.2 15.6513 17.9525 13.5504 18.705V6.45H9.34874V25.0475L12.2899 23.65C12.2899 23.65 17.1219 21.3925 21.3235 21.3925C23.4244 21.3925 23.9496 22.575 23.9496 23.65V36.55H28.1513V23.65C28.2563 23.3275 28.2563 20.9625 26.4706 19.135ZM20.9034 13.4375H25.105C26.9958 11.18 27.9412 8.9225 28.2563 6.45H24.0546C23.6345 8.9225 22.584 11.18 20.9034 13.4375ZM136.975 23.5425V14.0825H141.176V23.5425C141.176 25.6925 141.912 26.7675 143.592 26.7675C145.273 26.7675 145.903 25.8 145.903 23.5425V14.0825H150V23.65C150 27.8425 148.004 30.315 143.487 30.315C138.971 30.2075 136.975 27.735 136.975 23.5425ZM119.328 14.0825H123.529V19.8875L127.836 14.0825H132.668L127.416 20.3175L133.088 29.9925H128.361L124.685 23.65L123.529 25.0475V29.9925H119.328V14.0825ZM99.3698 21.93C99.3698 16.125 103.256 13.6525 107.038 13.6525C110.819 13.6525 114.706 16.125 114.706 21.93C114.706 27.735 110.819 30.2075 107.038 30.2075C103.256 30.2075 99.3698 27.8425 99.3698 21.93ZM110.399 21.93C110.399 19.0275 109.139 17.2 106.933 17.2C104.727 17.2 103.466 19.0275 103.466 21.93C103.466 24.8325 104.727 26.7675 106.933 26.7675C109.139 26.7675 110.399 24.94 110.399 21.93ZM82.458 14.0825H88.5504C92.542 14.0825 94.958 15.48 94.958 19.2425C94.958 21.715 93.9076 23.22 91.9118 23.865L95.1681 29.9925H90.7563L87.7101 24.51H86.5546V29.9925H82.458V14.0825ZM88.4454 21.1775C90.126 21.1775 90.9664 20.64 90.9664 19.35C90.9664 18.06 90.2311 17.5225 88.4454 17.5225H86.6597V21.1775H88.4454ZM66.3866 14.0825H77.521V17.63H70.5882V20.21H75.5252V23.5425H70.5882V26.445H77.8361V29.885H66.3866V14.0825ZM47.3739 14.0825H51.5756V19.995H56.7227V14.0825H60.9244V29.9925H56.7227V23.5425H51.5756V29.9925H47.3739V14.0825Z" fill="#430098"/>
</svg>
