<svg width="87" height="36" viewBox="0 0 87 36" fill="none" xmlns="http://www.w3.org/2000/svg">
<path d="M0 33.4933H16.9157V35.9911H0V33.4933Z" fill="#1F70C1"/>
<path d="M0 28.7022H16.9157V31.2088H0V28.7022Z" fill="#1F70C1"/>
<path d="M4.82574 23.92H12.0815V26.4267H4.82574V23.92Z" fill="#1F70C1"/>
<path d="M4.82574 19.1378H12.0815V21.6445H4.82574V19.1378Z" fill="#1F70C1"/>
<path d="M4.82574 14.3555H12.0815V16.8622H4.82574V14.3555Z" fill="#1F70C1"/>
<path d="M4.82574 9.56445H12.0815V12.0711H4.82574V9.56445Z" fill="#1F70C1"/>
<path d="M16.9157 4.7822H0V7.28888H16.9157V4.7822Z" fill="#1F70C1"/>
<path d="M16.9157 0H0V2.50668H16.9157V0Z" fill="#1F70C1"/>
<path d="M19.3286 31.2088H45.3441C45.7835 30.4355 46.111 29.591 46.3092 28.7021H19.3286V31.2088Z" fill="#1F70C1"/>
<path d="M43.3191 19.1378H24.1629V21.6445H45.3442C44.7926 20.6844 44.1118 19.84 43.3191 19.1378Z" fill="#1F70C1"/>
<path d="M24.1629 14.3555V16.8622H43.3191C44.1291 16.16 44.8098 15.3155 45.3442 14.3555H24.1629Z" fill="#1F70C1"/>
<path d="M45.3442 4.7822H19.3286V7.28888H46.3092C46.0852 6.39998 45.7578 5.55559 45.3442 4.7822Z" fill="#1F70C1"/>
<path d="M37.3473 0H19.3286V2.50668H43.5603C41.9403 0.959972 39.7429 0 37.3473 0Z" fill="#1F70C1"/>
<path d="M31.41 9.56445H24.1629V12.0711H31.41V9.56445Z" fill="#1F70C1"/>
<path d="M38.6657 12.0711H46.2489C46.4643 11.2712 46.5764 10.4267 46.5764 9.56445H38.6657V12.0711Z" fill="#1F70C1"/>
<path d="M24.1629 23.92H31.41V26.4267H24.1629V23.92Z" fill="#1F70C1"/>
<path d="M38.6657 23.92V26.4267H46.5764C46.5764 25.5644 46.4643 24.72 46.2489 23.92H38.6657Z" fill="#1F70C1"/>
<path d="M19.3286 35.9733L37.3473 36C39.7602 36 41.9403 35.04 43.5689 33.4933H19.3286V35.9733Z" fill="#1F70C1"/>
<path d="M48.3344 33.4933H60.4157V35.9911H48.3344V33.4933Z" fill="#1F70C1"/>
<path d="M48.3344 28.7022H60.4157V31.2088H48.3344V28.7022Z" fill="#1F70C1"/>
<path d="M53.16 23.92H60.4157V26.4267H53.16V23.92Z" fill="#1F70C1"/>
<path d="M53.16 19.1378H60.4157V21.6445H53.16V19.1378Z" fill="#1F70C1"/>
<path d="M63.7765 4.7822H48.3344V7.28888H64.6123L63.7765 4.7822Z" fill="#1F70C1"/>
<path d="M62.1736 0H48.3344V2.50668H63.0095L62.1736 0Z" fill="#1F70C1"/>
<path d="M74.91 33.4933H87V35.9911H74.91V33.4933Z" fill="#1F70C1"/>
<path d="M74.91 28.7022H87V31.2088H74.91V28.7022Z" fill="#1F70C1"/>
<path d="M74.91 23.92H82.1657V26.4267H74.91V23.92Z" fill="#1F70C1"/>
<path d="M74.91 19.1378H82.1657V21.6445H74.91V19.1378Z" fill="#1F70C1"/>
<path d="M74.91 16.8622H82.1657V14.3555H74.91H68.3436L67.6629 16.3823L66.9821 14.3555H60.4157H53.16V16.8622H60.4157V14.56L61.1827 16.8622H74.1431L74.91 14.56V16.8622Z" fill="#1F70C1"/>
<path d="M82.1657 9.56445H69.9464L69.1105 12.0711H82.1657V9.56445Z" fill="#1F70C1"/>
<path d="M73.1607 0L72.3248 2.50668H87V0H73.1607Z" fill="#1F70C1"/>
<path d="M67.6629 35.9733L68.4987 33.4933H66.827L67.6629 35.9733Z" fill="#1F70C1"/>
<path d="M66.0601 31.2088H69.2657L70.1274 28.7022H65.207L66.0601 31.2088Z" fill="#1F70C1"/>
<path d="M64.4314 26.4267H70.8943L71.7475 23.92H63.5782L64.4314 26.4267Z" fill="#1F70C1"/>
<path d="M62.8113 21.6445H72.5229L73.3502 19.1378H61.9754L62.8113 21.6445Z" fill="#1F70C1"/>
<path d="M53.16 12.0711H66.2151L65.3793 9.56445H53.16V12.0711Z" fill="#1F70C1"/>
<path d="M70.722 7.28888H87V4.7822H71.5493L70.722 7.28888Z" fill="#1F70C1"/>
</svg>
