<svg width="192" height="47" viewBox="0 0 192 47" fill="none" xmlns="http://www.w3.org/2000/svg">
<path d="M21.0331 27.2153L35.1189 35.1187L35.6288 29.1274L31.7408 24.9527L25.9727 23.9966L21.0331 27.2153Z" fill="#F15A22"/>
<path d="M23.4232 0L35.1189 35.1189L46.8146 23.3914L23.4232 0Z" fill="#F58220"/>
<path d="M21.5111 18.5792L21.0331 27.2155L39.0068 23.3913L21.5111 18.5792Z" fill="#0057A8"/>
<path d="M12.4924 35.8836L14.8188 32.7924L14.4045 29.0319L8.66819 25.3033L0 23.3912L12.4924 35.8836Z" fill="#EF4123"/>
<path d="M0 23.3912L14.4045 29.0319L22.1485 1.2746L0 23.3912Z" fill="#F15A22"/>
<path d="M12.4924 35.8837L23.4233 46.8145L33.653 36.5529L14.4045 29.032L12.4924 35.8837Z" fill="#F58220"/>
<path d="M185.315 23.6462V25.144C185.315 27.088 183.562 28.5539 181.267 28.5539C179.196 28.5539 178.272 27.2792 178.272 26.0682V26.0045C178.272 24.9209 178.877 23.6143 181.777 23.6143H185.315V23.6462ZM181.905 16.4121C179.865 16.4121 178.431 16.9538 177.284 17.5275L177.156 17.5912L177.794 19.4396L177.921 19.3758C178.941 18.8978 180.12 18.4198 181.65 18.4198C183.944 18.4198 185.251 19.4714 185.251 21.9253H181.522C178.049 21.9253 176.041 23.455 176.041 26.1001V26.1638C176.041 28.9363 178.463 30.3704 180.853 30.3704C183.052 30.3704 184.454 29.3506 185.251 28.3627V30.0836H187.29V21.9253C187.29 20.2363 186.844 18.8341 185.952 17.9099C185.092 16.922 183.689 16.4121 181.905 16.4121ZM62.3984 11.0901L60.1995 12.3648V30.0836H62.3984V11.0901ZM160.362 11.9505H158.099V12.556V14.3088H160.362V11.9505ZM72.182 16.4121C70.4292 16.4121 69.027 17.1451 68.0391 18.6429V16.6989H65.9039V30.0836H68.0391V22.4352C68.0391 20.1088 69.5369 18.4835 71.6402 18.4835C73.7116 18.4835 74.9545 19.9176 74.9545 22.3077V30.0836H77.0897V21.8297C77.0897 20.2363 76.6435 18.8978 75.7831 17.9418C74.9226 16.9538 73.6798 16.4121 72.182 16.4121ZM98.6327 23.3913V23.455C98.6327 26.2594 96.7206 28.3627 94.1711 28.3627C91.6535 28.3627 89.6777 26.1957 89.6777 23.4231V23.3594C89.6777 20.555 91.5898 18.4198 94.1074 18.4198C96.6568 18.4198 98.6327 20.6187 98.6327 23.3913ZM94.1711 16.4121C92.3228 16.4121 90.6337 17.1451 89.3909 18.4835C88.1799 19.7901 87.5106 21.5429 87.5106 23.3913V23.455C87.5106 27.3429 90.4107 30.3704 94.1393 30.3704C95.9876 30.3704 97.6766 29.6374 98.9514 28.299C100.162 26.9924 100.863 25.2396 100.863 23.3913V23.3275C100.832 19.4714 97.8997 16.4121 94.1711 16.4121ZM105.58 19.6308V16.6989H103.445V30.0836H105.58V24.7297C105.58 21.1605 107.46 18.7703 110.392 18.7703H110.679V16.4758H110.551C108.48 16.3802 106.664 17.5593 105.58 19.6308ZM127.219 16.4121C125.37 16.4121 123.936 17.2088 122.821 18.866C121.992 17.2725 120.59 16.4121 118.773 16.4121C116.766 16.4121 115.619 17.4956 114.886 18.5791V16.6989H112.75V30.0836H114.886V22.4671C114.886 20.1407 116.288 18.4835 118.232 18.4835C120.176 18.4835 121.323 19.8857 121.323 22.244V30.0836H123.458V22.4033C123.458 21.2242 123.809 20.2044 124.446 19.5033C125.02 18.866 125.848 18.4835 126.772 18.4835C128.748 18.4835 129.864 19.8857 129.864 22.3077V30.0836H131.999V21.8297C131.999 18.4835 130.182 16.4121 127.219 16.4121ZM155.518 18.7066V16.6989H151.502V12.0461L149.367 13.289V16.6989H147.041V18.7066H149.367V26.4825C149.367 29.8287 151.662 30.3067 153.032 30.3067C153.892 30.3067 154.625 30.1155 155.358 29.7331L155.422 29.7012V27.7253L155.231 27.8209C154.594 28.1396 154.115 28.2671 153.478 28.2671C152.14 28.2671 151.502 27.5979 151.502 26.2275V18.7066H155.518ZM173.3 26.4506C172.153 27.7253 170.942 28.3627 169.572 28.3627C167.086 28.3627 165.11 26.1957 165.11 23.4231V23.3594C165.11 20.5868 167.022 18.4198 169.444 18.4198C171.165 18.4198 172.217 19.344 173.141 20.3638L173.236 20.4912L174.671 18.9297L174.575 18.8341C173.587 17.7187 172.089 16.444 169.476 16.444C167.691 16.444 166.034 17.1769 164.791 18.5154C163.58 19.822 162.911 21.5748 162.911 23.4231V23.4869C162.911 25.3352 163.58 27.0561 164.791 28.3627C166.034 29.7012 167.691 30.4342 169.476 30.4342C172.121 30.4342 173.651 29.0638 174.702 27.8528L174.798 27.7572L173.428 26.3869L173.3 26.4506ZM143.567 23.6462V25.144C143.567 27.088 141.814 28.5539 139.52 28.5539C137.448 28.5539 136.524 27.2792 136.524 26.0682V26.0045C136.524 24.9209 137.13 23.6143 140.03 23.6143H143.567V23.6462ZM140.157 16.4121C138.118 16.4121 136.683 16.9538 135.536 17.5275L135.409 17.5912L136.046 19.4396L136.174 19.3758C137.193 18.8978 138.373 18.4198 139.902 18.4198C142.197 18.4198 143.503 19.4714 143.503 21.9253H139.775C136.301 21.9253 134.293 23.455 134.293 26.1001V26.1638C134.293 28.9363 136.715 30.3704 139.105 30.3704C141.304 30.3704 142.707 29.3506 143.535 28.3627V30.0836H145.575V21.9253C145.575 20.2363 145.129 18.8341 144.268 17.9099C143.344 16.922 141.974 16.4121 140.157 16.4121ZM83.1447 15.456C83.1447 13.5439 83.6546 12.811 85.1524 12.811C85.726 12.811 86.204 12.9066 86.937 13.1296L87.0645 13.1615V11.1857L87.0326 11.1538C86.3952 10.8989 85.7897 10.8033 84.9293 10.8033C83.782 10.8033 82.7941 11.1857 82.1568 11.8549C81.4238 12.6198 81.0414 13.8308 81.0414 15.3286V16.667H78.715V18.6747H81.0414V30.0517H83.1765V18.6747H87.1919V16.667H83.1765V15.456H83.1447ZM160.298 16.6989H158.163V18.133V30.0836H160.298V16.6989ZM188.151 16.6989V16.9539H188.629V18.2604H188.916V16.9539H189.394V16.6989H188.151ZM189.681 18.2604H189.936V17.1451L190.414 17.878L190.892 17.1451V18.2604H191.178V16.6989H190.892L190.414 17.4319L189.936 16.6989H189.649V18.2604H189.681Z" fill="#414042"/>
</svg>
