<svg width="166" height="36" viewBox="0 0 166 36" fill="none" xmlns="http://www.w3.org/2000/svg">
<path d="M165.061 15.9414V13.0386H161.457V8.52574L161.335 8.5631L157.949 9.59906L157.883 9.61934V13.0387H152.539V11.1338C152.539 10.2469 152.737 9.56808 153.128 9.11541C153.516 8.66816 154.071 8.44079 154.779 8.44079C155.288 8.44079 155.815 8.5607 156.346 8.79718L156.479 8.85658V5.79948L156.416 5.77649C155.921 5.59861 155.248 5.50903 154.414 5.50903C153.363 5.50903 152.407 5.73785 151.574 6.19132C150.741 6.64543 150.085 7.2937 149.625 8.11793C149.168 8.94121 148.935 9.89206 148.935 10.9443V13.0386H146.425V15.9414H148.935V28.1706H152.539V15.9414H157.883V23.7129C157.883 26.9135 159.392 28.5355 162.37 28.5355C162.859 28.5355 163.374 28.4782 163.9 28.3659C164.435 28.2506 164.8 28.1355 165.014 28.0126L165.062 27.9844V25.0548L164.915 25.1517C164.719 25.282 164.476 25.3885 164.19 25.4677C163.904 25.5483 163.664 25.5887 163.479 25.5887C162.781 25.5887 162.265 25.4008 161.945 25.0299C161.621 24.6556 161.457 24.0011 161.457 23.0855V15.9414H165.061ZM138.378 25.5892C137.07 25.5892 136.039 25.1555 135.313 24.3013C134.581 23.4427 134.211 22.2187 134.211 20.6634C134.211 19.0589 134.581 17.8031 135.313 16.9293C136.04 16.0613 137.061 15.6208 138.349 15.6208C139.598 15.6208 140.593 16.0415 141.305 16.872C142.021 17.7068 142.385 18.9525 142.385 20.5758C142.385 22.219 142.043 23.4812 141.369 24.3255C140.7 25.1635 139.694 25.5892 138.378 25.5892ZM138.538 12.674C136.043 12.674 134.061 13.4052 132.648 14.8472C131.236 16.2894 130.52 18.2851 130.52 20.7795C130.52 23.1488 131.219 25.0544 132.598 26.4428C133.976 27.8316 135.852 28.5352 138.174 28.5352C140.592 28.5352 142.535 27.7938 143.947 26.3318C145.36 24.8715 146.075 22.8946 146.075 20.4584C146.075 18.0521 145.404 16.1322 144.079 14.7531C142.753 13.3734 140.889 12.674 138.538 12.674ZM124.71 12.674C123.013 12.674 121.609 13.1082 120.537 13.9642C119.458 14.8253 118.91 15.9547 118.91 17.3213C118.91 18.0317 119.028 18.6627 119.261 19.198C119.495 19.7349 119.857 20.2077 120.338 20.6045C120.815 20.9981 121.552 21.4104 122.528 21.8299C123.349 22.1676 123.961 22.4532 124.349 22.6784C124.729 22.899 124.999 23.1208 125.151 23.3368C125.299 23.5483 125.375 23.8376 125.375 24.1946C125.375 25.2112 124.613 25.7059 123.047 25.7059C122.466 25.7059 121.803 25.5846 121.077 25.3454C120.356 25.1098 119.676 24.7648 119.059 24.3225L118.91 24.2152V27.6844L118.965 27.71C119.475 27.9453 120.117 28.1438 120.875 28.3C121.631 28.4563 122.318 28.5358 122.915 28.5358C124.757 28.5358 126.24 28.0996 127.323 27.2385C128.412 26.3714 128.964 25.2154 128.964 23.8015C128.964 22.7815 128.667 21.9068 128.081 21.2014C127.499 20.5017 126.49 19.8593 125.081 19.2915C123.96 18.8413 123.241 18.4675 122.944 18.1805C122.658 17.9033 122.513 17.5113 122.513 17.0149C122.513 16.5749 122.693 16.2223 123.06 15.9368C123.431 15.6499 123.947 15.5039 124.594 15.5039C125.194 15.5039 125.808 15.5988 126.419 15.7846C127.03 15.9705 127.566 16.2194 128.013 16.5239L128.161 16.6245V13.3336L128.104 13.3094C127.691 13.1323 127.147 12.9808 126.485 12.8578C125.827 12.7357 125.23 12.674 124.71 12.674ZM109.516 25.5892C108.209 25.5892 107.177 25.1555 106.451 24.3013C105.72 23.4427 105.35 22.219 105.35 20.6634C105.35 19.0589 105.72 17.8031 106.452 16.9293C107.178 16.0613 108.199 15.6208 109.488 15.6208C110.737 15.6208 111.731 16.0415 112.444 16.872C113.16 17.7068 113.523 18.9525 113.523 20.5758C113.523 22.219 113.181 23.4812 112.507 24.3255C111.838 25.1635 110.832 25.5892 109.516 25.5892ZM109.677 12.674C107.181 12.674 105.199 13.4052 103.787 14.8472C102.375 16.2894 101.658 18.2851 101.658 20.7795C101.658 23.1497 102.358 25.0544 103.736 26.4428C105.115 27.8316 106.991 28.5352 109.312 28.5352C111.73 28.5352 113.673 27.7938 115.086 26.3318C116.498 24.8715 117.214 22.8946 117.214 20.4584C117.214 18.0521 116.542 16.1322 115.217 14.7531C113.891 13.3734 112.027 12.674 109.677 12.674ZM96.1885 15.6591V13.0386H92.6291V28.1703H96.1885V20.4298C96.1885 19.1137 96.487 18.0323 97.0758 17.2156C97.6572 16.4086 98.4319 15.9997 99.3779 15.9997C99.6985 15.9997 100.058 16.0526 100.448 16.1571C100.834 16.2611 101.113 16.374 101.278 16.4928L101.428 16.6012V13.0127L101.37 12.988C101.039 12.8471 100.57 12.7761 99.9763 12.7761C99.0818 12.7761 98.2814 13.0635 97.5957 13.6294C96.9939 14.1267 96.559 14.8087 96.2264 15.6591H96.1885ZM86.2548 12.674C84.6218 12.674 83.1653 13.0242 81.9264 13.7145C80.6849 14.4063 79.7248 15.3941 79.0716 16.6501C78.4212 17.903 78.091 19.3666 78.091 20.9988C78.091 22.4285 78.4112 23.7405 79.044 24.8969C79.6771 26.0551 80.5732 26.9613 81.7075 27.5897C82.8402 28.2174 84.1494 28.5356 85.5989 28.5356C87.2904 28.5356 88.7347 28.1975 89.8926 27.5305L89.9394 27.5037V24.2427L89.7898 24.3519C89.2653 24.734 88.6791 25.039 88.0484 25.2587C87.4193 25.4782 86.8458 25.5892 86.3428 25.5892C84.9461 25.5892 83.8249 25.1522 83.011 24.2906C82.1954 23.4279 81.7819 22.2164 81.7819 20.692C81.7819 19.158 82.2132 17.9155 83.0631 16.9986C83.9105 16.0845 85.0338 15.6208 86.4015 15.6208C87.5715 15.6208 88.7115 16.017 89.7901 16.7994L89.9394 16.9078V13.4718L89.8912 13.4446C89.4853 13.2174 88.9317 13.0298 88.2445 12.8875C87.5601 12.7456 86.8908 12.674 86.2548 12.674ZM75.6396 13.0387H72.0802V28.1703H75.6396V13.0387ZM73.8963 6.59257C73.3104 6.59257 72.7995 6.79201 72.3797 7.1872C71.9582 7.58351 71.7444 8.08248 71.7444 8.67136C71.7444 9.25097 71.9556 9.74085 72.3732 10.1266C72.788 10.5113 73.3005 10.7062 73.8964 10.7062C74.4922 10.7062 75.0066 10.5113 75.4264 10.1273C75.8489 9.74085 76.0632 9.25113 76.0632 8.67136C76.0632 8.10308 75.8547 7.60921 75.4438 7.20316C75.0333 6.79791 74.5125 6.59257 73.8963 6.59257ZM65.0153 11.9223V28.1703H68.6478V7.05579H63.6202L57.2298 22.739L51.0282 7.05579H45.7959V28.1701H49.2095V11.9207H49.3267L55.8754 28.1703H58.4516L64.8981 11.9223H65.0153Z" fill="#706D6E"/>
<path d="M16.7446 16.7446H0V0H16.7446V16.7446Z" fill="#F1511B"/>
<path d="M35.2326 16.7446H18.4883V0H35.2326V16.7446Z" fill="#80CC28"/>
<path d="M16.7441 35.2391H0V18.4946H16.7441V35.2391Z" fill="#00ADEF"/>
<path d="M35.2326 35.2391H18.4883V18.4946H35.2326V35.2391Z" fill="#FBBC09"/>
</svg>
