<svg width="154" height="20" viewBox="0 0 154 20" fill="none" xmlns="http://www.w3.org/2000/svg">
<g clip-path="url(#clip0_48_109)">
<path d="M66.3933 13.0133H76.5533L71.1867 4.34667L61.32 20H56.8333L68.8333 1.22C69.0949 0.845253 69.4425 0.538652 69.847 0.325884C70.2515 0.113116 70.701 0.000377121 71.1581 -0.00288724C71.6151 -0.00615159 72.0662 0.100153 72.4737 0.307122C72.8812 0.51409 73.2331 0.815695 73.5 1.18667L85.5333 20H81.0467L78.9333 16.5H68.6534L66.4133 13.0133H66.3933ZM113.033 16.5V0.186669H109.22V18.1067C109.219 18.3557 109.269 18.6023 109.367 18.8315C109.464 19.0606 109.607 19.2677 109.787 19.44C109.967 19.6247 110.183 19.7712 110.421 19.8708C110.659 19.9704 110.915 20.0212 111.173 20.02H128.507L130.767 16.52H113.013L113.033 16.5ZM49.9867 13.5867C51.7636 13.5867 53.4678 12.8808 54.7243 11.6243C55.9808 10.3678 56.6867 8.66362 56.6867 6.88667C56.6867 5.10972 55.9808 3.40555 54.7243 2.14905C53.4678 0.892559 51.7636 0.186669 49.9867 0.186669H33.32V20H37.1267V3.69334H49.7533C50.6038 3.69334 51.4194 4.03118 52.0208 4.63255C52.6222 5.23391 52.96 6.04954 52.96 6.9C52.96 7.75046 52.6222 8.56609 52.0208 9.16746C51.4194 9.76882 50.6038 10.1067 49.7533 10.1067H39.0133L50.3867 20H55.9133L48.2733 13.5867H49.9867ZM9.90668 20H21.42C24.0021 19.933 26.4558 18.8602 28.2584 17.0103C30.0609 15.1604 31.0697 12.6796 31.0697 10.0967C31.0697 7.51376 30.0609 5.03298 28.2584 3.18305C26.4558 1.33312 24.0021 0.260334 21.42 0.193335H9.90668C8.58453 0.159029 7.2689 0.389813 6.03737 0.872077C4.80585 1.35434 3.68335 2.07832 2.73609 3.00133C1.78882 3.92433 1.03597 5.02767 0.521922 6.24627C0.00787446 7.46488 -0.256958 8.77408 -0.256958 10.0967C-0.256958 11.4193 0.00787446 12.7285 0.521922 13.9471C1.03597 15.1657 1.78882 16.269 2.73609 17.192C3.68335 18.115 4.80585 18.839 6.03737 19.3213C7.2689 19.8035 8.58453 20.0343 9.90668 20ZM21.16 16.5133H10.16C8.49576 16.4597 6.91762 15.7608 5.75933 14.5646C4.60105 13.3683 3.95343 11.7685 3.95343 10.1033C3.95343 8.43821 4.60105 6.83837 5.75933 5.64212C6.91762 4.44587 8.49576 3.74701 10.16 3.69334H21.16C22.0192 3.66562 22.8751 3.81092 23.6771 4.12058C24.479 4.43024 25.2104 4.89795 25.828 5.49591C26.4455 6.09387 26.9366 6.80988 27.2719 7.60138C27.6073 8.39288 27.7801 9.24372 27.7801 10.1033C27.7801 10.9629 27.6073 11.8138 27.2719 12.6053C26.9366 13.3968 26.4455 14.1128 25.828 14.7108C25.2104 15.3087 24.479 15.7764 23.6771 16.0861C22.8751 16.3958 22.0192 16.541 21.16 16.5133ZM93.4867 20H105.24L107.467 16.5133H93.7467C92.8875 16.541 92.0315 16.3958 91.2296 16.0861C90.4277 15.7764 89.6963 15.3087 89.0787 14.7108C88.4612 14.1128 87.9701 13.3968 87.6348 12.6053C87.2994 11.8138 87.1266 10.9629 87.1266 10.1033C87.1266 9.24372 87.2994 8.39288 87.6348 7.60138C87.9701 6.80988 88.4612 6.09387 89.0787 5.49591C89.6963 4.89795 90.4277 4.43024 91.2296 4.12058C92.0315 3.81092 92.8875 3.66562 93.7467 3.69334H104.913L107.167 0.193335H93.4867C92.1645 0.159029 90.8489 0.389813 89.6174 0.872077C88.3858 1.35434 87.2633 2.07832 86.3161 3.00133C85.3688 3.92433 84.616 5.02767 84.1019 6.24627C83.5879 7.46488 83.323 8.77408 83.323 10.0967C83.323 11.4193 83.5879 12.7285 84.1019 13.9471C84.616 15.1657 85.3688 16.269 86.3161 17.192C87.2633 18.115 88.3858 18.839 89.6174 19.3213C90.8489 19.8035 92.1645 20.0343 93.4867 20ZM140.067 16.5133C138.67 16.5139 137.311 16.0584 136.197 15.216C135.083 14.3737 134.274 13.1907 133.893 11.8467H150.173L152.413 8.35333H133.893C134.273 7.00877 135.081 5.82508 136.196 4.9826C137.31 4.14013 138.67 3.68504 140.067 3.68667H151.24L153.473 0.186669H139.807C137.225 0.253667 134.771 1.32645 132.968 3.17638C131.166 5.02631 130.157 7.50709 130.157 10.09C130.157 12.6729 131.166 15.1537 132.968 17.0036C134.771 18.8536 137.225 19.9263 139.807 19.9933H151.56L153.793 16.5067H140.06" fill="#C74634"/>
</g>
<defs>
<clipPath id="clip0_48_109">
<rect width="154" height="20" fill="white"/>
</clipPath>
</defs>
</svg>
