<svg width="141" height="34" viewBox="0 0 141 34" fill="none" xmlns="http://www.w3.org/2000/svg">
<path d="M140.478 7.79579V25.5135H138.19V7.79579H140.478ZM126.237 23.774C126.688 23.8384 127.332 23.8706 128.17 23.8706C130.522 23.8706 132.713 23.0008 132.713 20.4237C132.713 18.0076 130.651 17.009 128.138 17.009H126.237V23.774ZM126.237 15.2695H128.299C130.715 15.2695 132.133 14.0131 132.133 12.3058C132.133 10.2441 130.554 9.4065 128.235 9.4065C127.171 9.4065 126.591 9.47092 126.205 9.56757V15.2695H126.237ZM123.949 8.0213C124.948 7.7958 126.527 7.66694 128.138 7.66694C130.425 7.66694 131.908 8.05351 133.003 8.9555C133.937 9.632 134.485 10.6951 134.485 12.0803C134.485 13.7876 133.357 15.3017 131.489 15.9782V16.0426C133.164 16.4614 135.13 17.8466 135.13 20.4881C135.13 22.0022 134.517 23.1619 133.647 24.0317C132.423 25.1592 130.425 25.6746 127.526 25.6746C125.947 25.6746 124.755 25.5779 123.982 25.4491V8.0213H123.949ZM109.708 16.7513C109.708 15.2372 109.676 13.9809 109.612 12.789H111.641L111.706 15.3017H111.802C112.382 13.5943 113.768 12.5313 115.314 12.5313C115.572 12.5313 115.766 12.5635 115.959 12.5957V14.7862C115.733 14.7218 115.476 14.7218 115.186 14.7218C113.542 14.7218 112.415 15.9459 112.092 17.6855C112.028 18.0076 111.996 18.362 111.996 18.7486V25.5135H109.708V16.7513ZM104.585 17.911C104.617 16.4292 103.973 14.142 101.363 14.142C99.0112 14.142 98.0124 16.3003 97.8191 17.911H104.585ZM97.8191 19.5539C97.8836 22.6787 99.8812 23.9672 102.169 23.9672C103.812 23.9672 104.811 23.6773 105.681 23.323L106.067 24.9659C105.262 25.3202 103.844 25.739 101.847 25.739C97.9158 25.739 95.596 23.1619 95.596 19.3284C95.596 15.4949 97.8513 12.4668 101.557 12.4668C105.713 12.4668 106.808 16.107 106.808 18.4586C106.808 18.9419 106.744 19.2962 106.744 19.5217H97.8191V19.5539ZM78.3584 12.789L80.0338 19.264C80.3882 20.6814 80.7427 22.0022 80.9682 23.323H81.0326C81.3226 22.0344 81.7415 20.6814 82.1603 19.2962L84.2224 12.789H86.1556L88.121 19.1351C88.6043 20.6492 88.9587 22.0022 89.2487 23.2907H89.3131C89.5387 22.0022 89.8608 20.6492 90.2797 19.1673L92.084 12.789H94.3716L90.2797 25.5135H88.2821L86.3489 19.4573C85.8978 18.0399 85.5434 16.7835 85.2212 15.2695H85.1568C84.8346 16.7835 84.4479 18.1043 83.9968 19.4895L81.9348 25.5457H79.8405L76.0064 12.8212H78.3584V12.789ZM64.6006 19.1673C64.6006 21.9378 66.2116 24.0639 68.4669 24.0639C70.6901 24.0639 72.3333 22.0022 72.3333 19.1351C72.3333 16.9768 71.2701 14.2386 68.5314 14.2386C65.7927 14.2386 64.6006 16.7513 64.6006 19.1673ZM74.7176 19.0385C74.7176 23.7417 71.4634 25.8034 68.3703 25.8034C64.9228 25.8034 62.2807 23.2907 62.2807 19.264C62.2807 15.0117 65.0516 12.499 68.5958 12.499C72.2366 12.499 74.7176 15.1406 74.7176 19.0385ZM52.2282 16.5258C52.7437 16.6547 53.3559 16.7191 54.1292 16.7191C56.9001 16.7191 58.5755 15.3661 58.5755 12.95C58.5755 10.5984 56.9323 9.47093 54.3869 9.47093C53.3881 9.47093 52.6148 9.53535 52.2282 9.66421V16.5258ZM49.9406 7.98908C51.0361 7.7958 52.486 7.63472 54.3225 7.63472C56.5779 7.63472 58.2533 8.15015 59.2843 9.11657C60.2509 9.95414 60.8309 11.2427 60.8309 12.8212C60.8309 14.4319 60.3476 15.6882 59.4776 16.5902C58.2533 17.8788 56.2879 18.5231 54.0647 18.5231C53.3881 18.5231 52.7437 18.4909 52.2282 18.362V25.4491H49.9406V7.98908ZM32.0586 8.31122L3.99525 0.0966431C3.76971 0.032215 3.57639 0 3.38307 0C2.19094 0 1.15991 0.966424 1.15991 2.22277V15.4627H2.83534V2.22277C2.83534 1.86842 3.12531 1.67513 3.38307 1.67513C3.44751 1.67513 3.47973 1.67513 3.54417 1.70734L31.6076 9.88971C31.8331 9.95413 31.9942 10.1796 31.9942 10.4373V28.0906C31.9942 28.445 31.7042 28.6383 31.4465 28.6383C31.382 28.6383 31.3498 28.6383 31.2854 28.6061L24.8736 26.7376V28.4772L30.8021 30.2168C31.0276 30.2812 31.2209 30.3134 31.4142 30.3134C32.6064 30.3134 33.6374 29.347 33.6374 28.0906V10.4373C33.6696 9.43871 33.0252 8.56893 32.0586 8.31122ZM22.8438 30.9255V13.0145C22.8438 11.8548 21.9094 10.9206 20.7495 10.9206C19.5896 10.9206 18.6552 11.8548 18.6552 13.0145V30.9255C18.6552 32.0852 19.5896 33.0194 20.7495 33.0194C21.9094 33.0194 22.8438 32.0852 22.8438 30.9255ZM16.6254 28.9604V15.205C16.6254 14.0453 15.691 13.1111 14.5311 13.1111C13.3712 13.1111 12.4368 14.0453 12.4368 15.205V28.9604C12.4368 30.1201 13.3712 31.0543 14.5311 31.0543C15.691 31.0543 16.6254 30.1201 16.6254 28.9604ZM10.407 26.8343V17.2345C10.407 16.0748 9.4726 15.1406 8.31269 15.1406C7.15278 15.1406 6.21841 16.0748 6.21841 17.2345V26.8343C6.21841 27.994 7.15278 28.9282 8.31269 28.9282C9.4726 28.9282 10.407 27.994 10.407 26.8343ZM2.09428 27.0276C0.934372 27.0276 0 26.0934 0 24.9337V19.3928C0 18.2331 0.934372 17.2989 2.09428 17.2989C3.25419 17.2989 4.18857 18.2331 4.18857 19.3928V24.9337C4.22079 26.0934 3.25419 27.0276 2.09428 27.0276Z" fill="#030404"/>
</svg>
