<svg width="77" height="54" viewBox="0 0 77 54" fill="none" xmlns="http://www.w3.org/2000/svg">
<mask id="mask0_48_135" style="mask-type:alpha" maskUnits="userSpaceOnUse" x="0" y="0" width="77" height="54">
<path d="M0 0H76.7179V53.7173H0V0Z" fill="white"/>
</mask>
<g mask="url(#mask0_48_135)">
<path fill-rule="evenodd" clip-rule="evenodd" d="M31.8549 5.88064C34.3313 3.29655 37.778 1.69634 41.5857 1.69634C46.6626 1.69634 51.0626 4.52357 53.4318 8.73613C55.5349 7.79375 57.8128 7.30722 60.1164 7.30838C69.2549 7.30838 76.6728 14.8005 76.6728 24.0456C76.6728 33.2906 69.2549 40.7827 60.1164 40.7827C58.9995 40.7827 57.9108 40.6702 56.8446 40.4576C54.7716 44.1613 50.8087 46.6775 46.2959 46.6775C44.4586 46.6811 42.6448 46.2634 40.9934 45.4561C38.8921 50.4038 33.9985 53.8813 28.301 53.8813C22.3498 53.8813 17.301 50.1211 15.3549 44.8341C14.4887 45.0174 13.6058 45.1095 12.7205 45.1089C5.64105 45.1089 -0.0845947 39.2849 -0.0845947 32.132C-0.0845947 27.3257 2.49335 23.1414 6.31797 20.8796C5.50658 19.006 5.08892 16.985 5.09105 14.9425C5.09105 6.68696 11.7757 0.0147095 20.0116 0.0147095C24.8346 0.0147095 29.15 2.3189 31.8577 5.89534" fill="#00A1E0"/>
<path fill-rule="evenodd" clip-rule="evenodd" d="M11.0959 27.933C11.0477 28.0591 11.1131 28.0854 11.1287 28.1077C11.2728 28.2123 11.4192 28.2881 11.5658 28.3732C12.3499 28.7888 13.0889 28.9103 13.8617 28.9103C15.4356 28.9103 16.4143 28.0707 16.4143 26.7192V26.6927C16.4143 25.443 15.3087 24.9878 14.2763 24.6627L14.1412 24.6189C13.36 24.365 12.6859 24.1439 12.6859 23.6294V23.6031C12.6859 23.162 13.0807 22.8369 13.69 22.8369C14.3669 22.8369 15.1736 23.0628 15.6897 23.3486C15.6897 23.3486 15.8426 23.4476 15.8981 23.2997C15.9283 23.2197 16.1915 22.5137 16.2197 22.4346C16.2496 22.3517 16.1971 22.2893 16.1432 22.257C15.5509 21.8951 14.733 21.6492 13.8868 21.6492L13.7297 21.6497C12.2884 21.6497 11.2815 22.5234 11.2815 23.773V23.7998C11.2815 25.1173 12.3928 25.5471 13.4308 25.8439L13.5977 25.8959C14.3536 26.1289 15.008 26.3313 15.008 26.8629V26.8894C15.008 27.3785 14.5821 27.7433 13.8995 27.7433C13.6341 27.7433 12.7882 27.7387 11.8716 27.158C11.7607 27.0933 11.6976 27.0466 11.6121 26.9943C11.567 26.9669 11.4541 26.9174 11.4051 27.0656L11.0948 27.9307L11.0959 27.933ZM34.1384 27.9307C34.0902 28.0568 34.1556 28.0831 34.1717 28.1054C34.3152 28.21 34.4622 28.2858 34.6089 28.3709C35.393 28.7865 36.1319 28.9081 36.9048 28.9081C38.4786 28.9081 39.4573 28.0684 39.4573 26.717V26.6904C39.4573 25.4408 38.3545 24.9856 37.3194 24.6605L37.1843 24.6166C36.403 24.3627 35.7289 24.1417 35.7289 23.6271V23.6008C35.7289 23.1598 36.1238 22.8346 36.733 22.8346C37.4099 22.8346 38.2138 23.0605 38.7327 23.3464C38.7327 23.3464 38.8856 23.4453 38.9414 23.2974C38.9713 23.2174 39.2348 22.5115 39.2602 22.4323C39.2903 22.3495 39.2376 22.287 39.184 22.2548C38.5917 21.8929 37.7738 21.6469 36.9276 21.6469L36.7702 21.6475C35.3289 21.6475 34.322 22.5211 34.322 23.7707V23.7976C34.322 25.1151 35.4333 25.5448 36.4712 25.8417L36.6379 25.8937C37.3966 26.1266 38.0482 26.3291 38.0482 26.8606V26.8872C38.0482 27.3763 37.6223 27.741 36.9397 27.741C36.6738 27.741 35.8256 27.7365 34.9118 27.1558C34.8009 27.091 34.7361 27.0463 34.652 26.9921C34.6235 26.974 34.4907 26.9219 34.4453 27.0633L34.135 27.9284L34.1384 27.9307ZM49.8735 25.2822C49.8735 26.0455 49.7313 26.6477 49.4532 27.0746C49.1757 27.4959 48.7565 27.7023 48.1727 27.7023C47.5889 27.7023 47.1714 27.4976 46.8978 27.0774C46.6223 26.6534 46.4832 26.0483 46.4832 25.285C46.4832 24.5216 46.6231 23.9223 46.8978 23.501C47.1709 23.0826 47.586 22.8818 48.1727 22.8818C48.7594 22.8818 49.1768 23.0846 49.4532 23.501C49.733 23.9223 49.8735 24.5216 49.8735 25.285V25.2822ZM51.1878 23.8685C51.0584 23.4303 50.8578 23.0458 50.5899 22.7235C50.3217 22.4012 49.9835 22.1411 49.5801 21.9545C49.1796 21.7665 48.7058 21.6718 48.1699 21.6718C47.634 21.6718 47.163 21.7671 46.7596 21.9545C46.3591 22.1422 46.0178 22.4012 45.7499 22.7235C45.4825 23.0458 45.2817 23.4303 45.1519 23.8685C45.0236 24.3039 44.9584 24.7789 44.9584 25.285C44.9584 25.7911 45.0236 26.266 45.1519 26.7014C45.2808 27.1396 45.4819 27.5241 45.7499 27.8465C46.0181 28.1688 46.3591 28.426 46.7596 28.6098C47.163 28.793 47.6368 28.8863 48.1699 28.8863C48.703 28.8863 49.1768 28.793 49.5773 28.6098C49.9778 28.4266 50.3191 28.1688 50.5871 27.8465C50.8547 27.5241 51.0553 27.1396 51.185 26.7014C51.3131 26.266 51.3782 25.7911 51.3782 25.285C51.3782 24.7817 51.3131 24.3039 51.185 23.8685H51.1878ZM61.9876 27.4874C61.9444 27.3593 61.8198 27.4077 61.8198 27.4077C61.6288 27.4809 61.4249 27.5487 61.2077 27.5827C60.9888 27.6172 60.7451 27.6344 60.4885 27.6344C59.8539 27.6344 59.3462 27.4447 58.9851 27.069C58.6213 26.6929 58.4182 26.0879 58.421 25.268C58.423 24.5216 58.603 23.9618 58.9259 23.5321C59.2446 23.108 59.7354 22.8875 60.3841 22.8875C60.9257 22.8875 61.3403 22.9505 61.7746 23.0868C61.7746 23.0868 61.8776 23.1318 61.9269 22.9958C62.0423 22.6763 62.1275 22.4473 62.2513 22.0967C62.2863 21.9964 62.2005 21.9539 62.1692 21.9418C61.9989 21.8751 61.5966 21.7657 61.292 21.7196C61.0072 21.676 60.6772 21.6534 60.3049 21.6534C59.752 21.6534 59.2613 21.7481 58.841 21.9359C58.4208 22.1233 58.0654 22.3826 57.7833 22.7049C57.5013 23.0272 57.2869 23.4117 57.1431 23.8499C57.0006 24.2853 56.9287 24.7631 56.9287 25.2692C56.9287 26.3605 57.222 27.2454 57.8031 27.8928C58.3841 28.5431 59.2584 28.871 60.3979 28.871C61.072 28.871 61.7631 28.7345 62.2595 28.5374C62.2595 28.5374 62.3542 28.4916 62.3131 28.3808L61.9887 27.4874H61.9876ZM64.2874 24.5471C64.3503 24.123 64.4662 23.7696 64.6484 23.4954C64.9212 23.0769 65.3367 22.8479 65.9205 22.8479C66.5043 22.8479 66.8908 23.0781 67.1672 23.4954C67.3505 23.771 67.4306 24.1371 67.4605 24.5471L64.2733 24.5465L64.2874 24.5471ZM68.7156 23.6141C68.6037 23.1928 68.3264 22.7659 68.1459 22.5708C67.8582 22.2627 67.579 22.045 67.2997 21.9262C66.8966 21.7544 66.4629 21.6662 66.0249 21.667C65.4692 21.667 64.9643 21.7611 64.5554 21.9525C64.1464 22.1454 63.8023 22.4077 63.5315 22.7357C63.261 23.0636 63.0577 23.451 62.9279 23.8948C62.7982 24.3331 62.7328 24.8137 62.7328 25.3169C62.7328 25.8315 62.8007 26.3093 62.9344 26.7419C63.0695 27.1772 63.287 27.5589 63.5803 27.8756C63.8737 28.195 64.2488 28.4438 64.7001 28.6191C65.1485 28.793 65.6929 28.8832 66.3162 28.8812C67.6024 28.877 68.2793 28.59 68.5557 28.4345C68.6051 28.4068 68.6516 28.359 68.5935 28.2213L68.303 27.4043C68.2584 27.2824 68.1354 27.3265 68.1354 27.3265C67.8167 27.4458 67.3654 27.6601 66.3078 27.6573C65.6167 27.6562 65.1062 27.4518 64.7847 27.1314C64.4575 26.8035 64.2939 26.3257 64.2685 25.6472L68.7249 25.6505C68.7249 25.6505 68.8423 25.6494 68.8544 25.5346C68.8592 25.4871 69.007 24.6186 68.7215 23.6149L68.7156 23.6141ZM28.6643 24.5471C28.7272 24.123 28.8434 23.7696 29.0254 23.4954C29.2984 23.0769 29.7136 22.8479 30.2974 22.8479C30.8813 22.8479 31.2677 23.0781 31.5441 23.4954C31.7271 23.771 31.8072 24.1371 31.8374 24.5471L28.6502 24.5465L28.6643 24.5471ZM33.0925 23.6141C32.9809 23.1928 32.7033 22.7659 32.5228 22.5708C32.2351 22.2627 31.9559 22.045 31.6766 21.9262C31.2735 21.7544 30.8398 21.6662 30.4018 21.667C29.8461 21.667 29.3413 21.7611 28.9323 21.9525C28.5233 22.1454 28.1792 22.4077 27.9084 22.7357C27.6385 23.0636 27.4346 23.451 27.3049 23.8948C27.1754 24.3331 27.1102 24.8137 27.1102 25.3169C27.1102 25.8315 27.1777 26.3093 27.3122 26.7419C27.447 27.1772 27.6648 27.5589 27.9553 27.8756C28.2486 28.195 28.6237 28.4438 29.075 28.6191C29.5235 28.793 30.065 28.8832 30.6912 28.8812C31.9773 28.877 32.6542 28.59 32.9307 28.4345C32.9797 28.4068 33.0265 28.359 32.9682 28.2213L32.6777 27.4043C32.6328 27.2824 32.5098 27.3265 32.5098 27.3265C32.1911 27.4458 31.7398 27.6601 30.6821 27.6573C29.9939 27.6562 29.4806 27.4518 29.1591 27.1314C28.8319 26.8035 28.6683 26.3257 28.6429 25.6472L33.0993 25.6505C33.0993 25.6505 33.2167 25.6494 33.2288 25.5346C33.2336 25.4871 33.3814 24.6186 33.0957 23.6149L33.0925 23.6141ZM19.0464 27.4591C18.8718 27.3195 18.8476 27.2852 18.7897 27.1945C18.7014 27.0579 18.6563 26.8637 18.6563 26.6149C18.6563 26.2248 18.7861 25.942 19.054 25.7526C19.0512 25.7532 19.4376 25.419 20.3458 25.4303C20.7501 25.4376 21.1534 25.472 21.553 25.5335V27.5606H21.5535C21.5535 27.5606 20.9894 27.6825 20.352 27.7209C19.4466 27.7755 19.0461 27.4597 19.0489 27.4605L19.0464 27.4591ZM20.8177 24.3209C20.6372 24.3076 20.4031 24.3011 20.1238 24.3011C19.7431 24.3011 19.3736 24.3486 19.0295 24.4419C18.6825 24.5358 18.3695 24.6811 18.1015 24.8745C17.8328 25.0666 17.6118 25.3181 17.4556 25.6096C17.298 25.9036 17.2176 26.2485 17.2176 26.6387C17.2176 27.0345 17.2861 27.3766 17.4215 27.6565C17.5542 27.9341 17.7539 28.1741 18.0025 28.3548C18.2499 28.5352 18.5553 28.6686 18.9079 28.7478C19.2577 28.8278 19.6525 28.8682 20.0869 28.8682C20.5438 28.8682 20.9979 28.8298 21.4379 28.7554C21.8127 28.6906 22.186 28.6178 22.5577 28.5371C22.706 28.5029 22.8707 28.458 22.8707 28.458C22.9807 28.43 22.9723 28.3121 22.9723 28.3121L22.9697 24.2409C22.9697 23.3475 22.7317 22.6831 22.2618 22.2731C21.7936 21.8632 21.1082 21.6568 20.2197 21.6568C19.8869 21.6568 19.3482 21.702 19.0267 21.7668C19.0267 21.7668 18.0564 21.9556 17.6559 22.27C17.6559 22.27 17.5679 22.3243 17.6158 22.4473L17.9317 23.2955C17.9709 23.4054 18.0778 23.3678 18.0778 23.3678C18.0778 23.3678 18.1114 23.3546 18.1509 23.3311C19.0055 22.8646 20.0886 22.8787 20.0886 22.8787C20.5681 22.8787 20.9404 22.9763 21.1886 23.1671C21.4314 23.354 21.5552 23.6364 21.5552 24.2301V24.4187C21.1745 24.3633 20.8219 24.3314 20.8219 24.3314L20.8177 24.3209ZM56.6382 22.0224C56.6446 22.0075 56.648 21.9914 56.6481 21.9752C56.6481 21.9589 56.645 21.9428 56.6387 21.9279C56.6325 21.9129 56.6233 21.8993 56.6117 21.888C56.6002 21.8766 56.5864 21.8677 56.5713 21.8618C56.4955 21.8329 56.1172 21.7529 55.8267 21.7348C55.2683 21.6998 54.958 21.7942 54.6788 21.9197C54.4029 22.0444 54.0978 22.2449 53.9285 22.4767L53.928 21.9339C53.928 21.8592 53.8752 21.799 53.8002 21.799H52.6607C52.5868 21.799 52.5332 21.8592 52.5332 21.9339V28.5779C52.5333 28.6137 52.5476 28.6481 52.5729 28.6735C52.5982 28.6989 52.6325 28.7132 52.6683 28.7133H53.836C53.8718 28.7132 53.9061 28.6989 53.9314 28.6735C53.9566 28.6481 53.9708 28.6137 53.9708 28.5779V25.2417C53.9708 24.795 54.0199 24.3512 54.1178 24.0713C54.2142 23.7945 54.3454 23.5737 54.507 23.4153C54.6612 23.2624 54.8498 23.149 55.057 23.0846C55.2514 23.0286 55.4527 23.0003 55.655 23.0003C55.8877 23.0003 56.1429 23.0602 56.1429 23.0602C56.2287 23.0699 56.2763 23.0173 56.3054 22.9398C56.3818 22.736 56.5987 22.1256 56.641 22.004" fill="#FFFFFE"/>
<path fill-rule="evenodd" clip-rule="evenodd" d="M45.732 18.956C45.5877 18.9123 45.4409 18.8773 45.2923 18.8514C45.0925 18.818 44.8902 18.8023 44.6876 18.8045C43.8829 18.8045 43.2486 19.0323 42.8032 19.4824C42.361 19.9291 42.06 20.6096 41.9091 21.505L41.8547 21.8073H40.8447C40.8447 21.8073 40.7214 21.8022 40.6954 21.937L40.5296 22.8644C40.518 22.9531 40.5561 23.0085 40.6746 23.008H41.6578L40.6602 28.5898C40.5821 29.0393 40.4927 29.4091 40.3937 29.6893C40.2961 29.9658 40.2007 30.173 40.0834 30.3234C39.9697 30.469 39.862 30.5762 39.6761 30.6387C39.5227 30.6904 39.3461 30.7142 39.1526 30.7142C39.0449 30.7142 38.9016 30.6961 38.7958 30.6749C38.6901 30.6539 38.6351 30.6302 38.5558 30.5968C38.5558 30.5968 38.4404 30.5527 38.395 30.6686C38.3581 30.7633 38.0961 31.4857 38.065 31.575C38.0334 31.6632 38.0777 31.7328 38.1336 31.7529C38.2644 31.7998 38.3618 31.8298 38.54 31.8719C38.7877 31.9304 38.9964 31.9341 39.1918 31.9341C39.6014 31.9341 39.9745 31.8764 40.2839 31.7645C40.5953 31.6517 40.8664 31.4552 41.1061 31.1891C41.3653 30.9022 41.5283 30.6016 41.6843 30.1917C41.8386 29.7854 41.97 29.281 42.0752 28.6932L43.0776 23.008H44.5432C44.5432 23.008 44.6667 23.0125 44.6924 22.8782L44.8582 21.9509C44.8698 21.8621 44.832 21.8067 44.713 21.8073H43.2906C43.2977 21.775 43.3622 21.2735 43.5256 20.8013C43.5952 20.5998 43.7264 20.4372 43.8375 20.3255C43.9413 20.2192 44.0691 20.1394 44.2101 20.0931C44.3647 20.0452 44.5258 20.0219 44.6876 20.0241C44.8216 20.0241 44.953 20.0402 45.0531 20.0612C45.1911 20.0906 45.2446 20.1061 45.2808 20.1169C45.4257 20.1612 45.4452 20.1183 45.4737 20.0479L45.8138 19.1115C45.8488 19.0109 45.7636 18.9684 45.732 18.956ZM25.8548 28.6016C25.8548 28.6763 25.8017 28.7371 25.7273 28.7371H24.5474C24.4727 28.7371 24.4197 28.6763 24.4197 28.6016V19.0829C24.4197 19.0086 24.4727 18.9484 24.5474 18.9484H25.7273C25.8017 18.9484 25.8548 19.0086 25.8548 19.0829V28.6016Z" fill="#FFFFFE"/>
</g>
</svg>
