<svg width="93" height="46" viewBox="0 0 93 46" fill="none" xmlns="http://www.w3.org/2000/svg">
<path fill-rule="evenodd" clip-rule="evenodd" d="M0 46H47.002L93 0H0V46" fill="url(#paint0_linear_48_132)"/>
<path fill-rule="evenodd" clip-rule="evenodd" d="M55.1911 9.20001H46.0062L46.0369 30.7996L38.039 9.19184H30.1086L23.2812 27.2371C22.5554 22.6453 17.8075 21.0609 14.0718 19.8741C11.6049 19.0818 8.98661 17.9165 9.01319 16.6285C9.03364 15.5715 10.4138 14.5912 13.1568 14.7374C14.9971 14.8365 16.6226 14.9848 19.8563 16.5467L23.0359 11.0063C20.0874 9.50566 16.0102 8.55806 12.6671 8.55499H12.6467C8.7484 8.55499 5.50241 9.81744 3.4904 11.8977C2.08772 13.3492 1.33118 15.1953 1.30051 17.2367C1.24939 20.0458 2.27891 22.0371 4.44222 23.6287C6.2702 24.9678 8.60834 25.8367 10.6684 26.4745C13.209 27.2617 15.2843 27.9465 15.2588 29.4042C15.2383 29.9358 15.038 30.4326 14.6556 30.8333C14.0217 31.4875 13.0505 31.7329 11.7061 31.7594C9.11236 31.8146 7.19032 31.4068 4.12733 29.5964L1.29846 35.2084C4.35839 36.9482 7.60642 37.8212 11.2971 37.8212L12.1273 37.8151C15.3396 37.7568 17.9466 36.9871 20.0179 35.3209C20.1365 35.2258 20.2428 35.1297 20.3532 35.0326L20.0056 36.8235L27.7551 36.799L29.1455 33.2396C30.6075 33.7385 32.2698 34.0145 34.0344 34.0145C35.754 34.0145 37.3714 33.7528 38.8058 33.2825L39.775 36.799L53.6791 36.8123L53.7128 28.6979H56.6715C63.8229 28.6979 68.0504 25.0588 68.0504 18.9561C68.0481 12.1593 63.9385 9.19899 55.1911 9.19899L55.1911 9.20001ZM34.0344 27.6634C32.966 27.6634 31.9641 27.4773 31.1023 27.1502L34.0017 17.9962H34.0579L36.9103 27.1758C36.0515 27.4825 35.0731 27.6634 34.0334 27.6634H34.0344ZM55.7289 22.4041H53.7107V15.0267H55.7299C58.4187 15.0267 60.5657 15.9221 60.5657 18.6678C60.5633 21.5096 58.4187 22.4041 55.7299 22.4041" fill="white"/>
<defs>
<linearGradient id="paint0_linear_48_132" x1="46.5" y1="0" x2="46.5" y2="46.001" gradientUnits="userSpaceOnUse">
<stop stop-color="#00AEEF"/>
<stop offset="0.212" stop-color="#0097DC"/>
<stop offset="0.519" stop-color="#007CC5"/>
<stop offset="0.792" stop-color="#006CB8"/>
<stop offset="1" stop-color="#0066B3"/>
</linearGradient>
</defs>
</svg>
