<svg width="159" height="38" viewBox="0 0 159 38" fill="none" xmlns="http://www.w3.org/2000/svg">
<g clip-path="url(#clip0_48_113)">
<path d="M32.2007 26.6113L24.2716 22.0334C23.1577 21.3924 21.7333 21.7736 21.0885 22.8869C20.8388 23.3255 20.7409 23.8079 20.7881 24.2768V33.2236C20.7881 34.5022 21.8278 35.5412 23.1105 35.5412C24.3898 35.5412 25.4294 34.5022 25.4294 33.2236V28.0789L29.8716 30.6428C30.9855 31.2871 32.4134 30.9025 33.0547 29.7893C33.6994 28.676 33.318 27.2523 32.2007 26.6113Z" fill="#29B5E8"/>
<path d="M12.481 16.801C12.4945 15.9744 12.0591 15.2053 11.3435 14.7903L3.41439 10.2157C3.07009 10.0167 2.67516 9.91211 2.28022 9.91211C1.46672 9.91211 0.710609 10.3473 0.305547 11.049C-0.322297 12.1353 0.0523849 13.5286 1.1393 14.1561L5.70974 16.7908L1.1393 19.429C0.612719 19.7326 0.234662 20.2218 0.079389 20.8088C-0.0792602 21.3958 0.00175203 22.0098 0.305547 22.536C0.710609 23.2377 1.46672 23.6729 2.27684 23.6729C2.67516 23.6729 3.07009 23.5684 3.41439 23.3693L11.3435 18.7947C12.0523 18.3832 12.4878 17.6207 12.481 16.801Z" fill="#29B5E8"/>
<path d="M5.21355 6.97372L13.1426 11.5483C14.0675 12.0847 15.2084 11.9093 15.9375 11.1974C16.4 10.7724 16.6869 10.1651 16.6869 9.49041V0.321023C16.6869 -0.960938 15.6472 -2 14.3679 -2C13.0852 -2 12.0456 -0.960938 12.0456 0.321023V5.53995L7.54265 2.94229C6.42873 2.29794 5.00426 2.67915 4.35954 3.79244C3.71482 4.90572 4.09963 6.32937 5.21355 6.97372Z" fill="#29B5E8"/>
<path d="M23.0429 17.1721C23.0429 17.3475 22.9417 17.5904 22.8168 17.7186L19.6742 20.8594C19.5493 20.9842 19.3029 21.0854 19.1273 21.0854H18.3274C18.1518 21.0854 17.9054 20.9842 17.7805 20.8594L14.6345 17.7186C14.5097 17.5904 14.4084 17.3475 14.4084 17.1721V16.3725C14.4084 16.1937 14.5097 15.9508 14.6345 15.826L17.7805 12.6818C17.9054 12.557 18.1518 12.4558 18.3274 12.4558H19.1273C19.3029 12.4558 19.5493 12.557 19.6742 12.6818L22.8168 15.826C22.9417 15.9508 23.0429 16.1937 23.0429 16.3725V17.1721ZM20.2379 16.7875V16.7538C20.2379 16.6256 20.1636 16.4468 20.0725 16.3523L19.1442 15.4279C19.0531 15.3335 18.8742 15.2593 18.7425 15.2593H18.7088C18.5805 15.2593 18.4016 15.3335 18.3071 15.4279L17.3822 16.3523C17.2911 16.4434 17.2168 16.6222 17.2168 16.7538V16.7875C17.2168 16.9191 17.2911 17.0979 17.3822 17.1889L18.3071 18.1167C18.4016 18.2078 18.5805 18.282 18.7088 18.282H18.7425C18.8742 18.282 19.0531 18.2078 19.1442 18.1167L20.0725 17.1889C20.1636 17.0979 20.2379 16.9191 20.2379 16.7875Z" fill="#29B5E8"/>
<path d="M24.2716 11.5483L32.2007 6.97372C33.3146 6.33274 33.6994 4.90572 33.0547 3.79244C32.41 2.67915 30.9855 2.29794 29.8716 2.94229L25.4294 5.50621V0.321023C25.4294 -0.960938 24.3898 -2 23.1105 -2C21.8278 -2 20.7881 -0.960938 20.7881 0.321023V9.30824C20.7442 9.77379 20.8354 10.2596 21.0885 10.6982C21.7333 11.8114 23.1577 12.1926 24.2716 11.5483Z" fill="#29B5E8"/>
<path d="M14.7325 21.7635C14.2059 21.6623 13.6422 21.7466 13.1426 22.0334L5.21355 26.6113C4.09963 27.2523 3.71482 28.6759 4.35954 29.7892C5.00426 30.9059 6.42873 31.2871 7.54265 30.6427L12.0456 28.0451V33.2235C12.0456 34.5021 13.0852 35.5412 14.3679 35.5412C15.6472 35.5412 16.6869 34.5021 16.6869 33.2235V24.0541C16.6869 22.897 15.8397 21.9389 14.7325 21.7635Z" fill="#29B5E8"/>
<path d="M37.156 11.022C36.5146 9.90537 35.0868 9.52415 33.9728 10.1685L26.0438 14.7431C25.2843 15.1816 24.8657 15.9846 24.8792 16.801C24.8725 17.614 25.291 18.4068 26.0438 18.8386L33.9728 23.4166C35.0868 24.0575 36.5112 23.6763 37.156 22.563C37.8007 21.4498 37.4159 20.0261 36.3019 19.3818L31.8125 16.7908L36.3019 14.1999C37.4192 13.559 37.8007 12.1353 37.156 11.022Z" fill="#29B5E8"/>
<path d="M158.998 16.2544V16.2578V16.3421C158.998 16.774 158.637 17.0945 158.192 17.0945H147.052C147.073 17.3576 147.106 17.614 147.16 17.867C147.677 20.2791 149.743 22.0739 152.197 22.0941C152.203 22.0941 152.328 22.0941 152.521 22.0941C152.551 22.0941 152.581 22.0941 152.612 22.0941H152.845C152.895 22.0941 152.946 22.0941 153 22.0907C153.047 22.0907 153.095 22.0874 153.142 22.084C153.145 22.084 153.149 22.084 153.152 22.0806C153.965 22.0165 154.786 21.6893 155.518 21.163C155.518 21.163 155.518 21.163 155.522 21.163C155.559 21.136 155.599 21.1056 155.636 21.0753C155.643 21.0719 155.65 21.0652 155.66 21.0584C155.69 21.0348 155.724 21.0078 155.758 20.9808C155.771 20.9707 155.781 20.9606 155.795 20.9505C155.822 20.9302 155.849 20.9066 155.876 20.883C155.893 20.8695 155.913 20.8526 155.93 20.8391C155.95 20.8189 155.971 20.7986 155.994 20.7818C156.014 20.7615 156.038 20.7413 156.058 20.7211C156.075 20.7076 156.092 20.6907 156.109 20.6738C156.136 20.6502 156.16 20.6266 156.187 20.603C156.2 20.5895 156.214 20.5726 156.227 20.5591C156.254 20.5321 156.281 20.5051 156.308 20.4782C156.322 20.4647 156.332 20.4545 156.345 20.441C156.372 20.4107 156.399 20.3803 156.426 20.35C156.44 20.3398 156.45 20.3263 156.46 20.3128C156.49 20.2825 156.517 20.2521 156.544 20.2218C156.554 20.2083 156.568 20.1948 156.578 20.1813C156.605 20.1475 156.629 20.1172 156.656 20.0868C156.669 20.07 156.683 20.0531 156.696 20.0362C156.72 20.0059 156.743 19.9789 156.764 19.9519C156.784 19.9249 156.801 19.9013 156.818 19.8777C156.835 19.854 156.852 19.8338 156.868 19.8102C156.895 19.7731 156.922 19.736 156.946 19.6989C156.956 19.6854 156.963 19.6752 156.97 19.6651C157.037 19.5673 157.101 19.4661 157.165 19.3615C157.165 19.3615 157.165 19.3581 157.169 19.3548C157.182 19.3311 157.199 19.3109 157.216 19.2873C157.223 19.2772 157.23 19.267 157.24 19.2603C157.25 19.2434 157.263 19.2333 157.273 19.2198C157.284 19.2097 157.294 19.1996 157.304 19.1894C157.317 19.1793 157.327 19.1692 157.341 19.1591C157.351 19.149 157.361 19.1388 157.375 19.1321C157.392 19.1186 157.412 19.1051 157.432 19.095C157.446 19.0849 157.462 19.0747 157.476 19.068C157.493 19.0613 157.506 19.0545 157.52 19.0478C157.533 19.041 157.547 19.0376 157.557 19.0309C157.577 19.0241 157.594 19.0208 157.614 19.014C157.625 19.0106 157.631 19.0073 157.641 19.0039C157.706 18.9904 157.773 18.9803 157.837 18.9803C157.908 18.9803 157.982 18.9904 158.05 19.0106C158.053 19.0106 158.053 19.0106 158.057 19.0106C158.084 19.0208 158.114 19.0275 158.141 19.041C158.148 19.0444 158.154 19.0444 158.161 19.0478C158.192 19.0613 158.219 19.0747 158.246 19.0916L158.259 19.0984C158.63 19.3682 158.745 19.8405 158.519 20.2285L158.516 20.2319C158.489 20.2757 158.462 20.3196 158.435 20.3601C158.428 20.3702 158.421 20.3803 158.414 20.3904C157.625 21.5914 156.551 22.5495 155.353 23.123C155.326 23.1332 155.302 23.1467 155.275 23.1602C155.272 23.1602 155.265 23.1635 155.262 23.1635C154.708 23.4199 154.114 23.5987 153.479 23.6729C153.466 23.6729 153.452 23.6763 153.439 23.6763C153.385 23.6831 153.331 23.6898 153.277 23.6932C153.246 23.6932 153.216 23.6966 153.182 23.6999C153.145 23.6999 153.105 23.7033 153.068 23.7067C152.993 23.7067 152.919 23.71 152.845 23.71C152.835 23.71 152.554 23.71 152.365 23.71C152.257 23.71 152.197 23.71 152.19 23.71C148.443 23.6831 145.425 20.5591 145.425 16.7335C145.425 12.8437 148.463 9.70294 152.241 9.70294C152.352 9.70294 152.463 9.70632 152.575 9.70969C153.891 9.77716 155.106 10.2258 156.116 10.9613C156.119 10.9647 156.122 10.968 156.126 10.968C156.183 11.0085 156.237 11.0524 156.291 11.0929C156.318 11.1165 156.349 11.1401 156.379 11.1637C156.406 11.1839 156.433 11.2076 156.46 11.2278C157.881 12.4119 158.84 14.1898 158.998 16.2477V16.2544ZM147.16 15.5055H157.243C156.743 13.0765 154.654 11.3189 152.241 11.3189C149.783 11.3189 147.711 13.0428 147.16 15.5055Z" fill="#29B5E8"/>
<path d="M130.519 9.93909C130.644 10.0639 130.728 10.2326 130.749 10.4283C130.749 10.4553 130.752 10.4822 130.752 10.5092V22.9004C130.752 23.3423 130.381 23.71 129.942 23.71C129.503 23.71 129.135 23.3423 129.135 22.9004V21.2541C128.828 21.6252 128.491 21.9625 128.123 22.256C128.112 22.2662 128.102 22.2729 128.092 22.283C128.058 22.31 128.021 22.337 127.988 22.3606C126.874 23.2175 125.52 23.71 124.106 23.71C121.827 23.71 119.822 22.4989 118.627 20.6637C118.617 20.6502 118.604 20.6333 118.594 20.6198C118.56 20.5625 118.526 20.5051 118.489 20.4444C118.465 20.4073 118.445 20.3702 118.421 20.3331C118.398 20.296 118.377 20.2555 118.357 20.215C118.323 20.1577 118.29 20.0969 118.259 20.0396C118.249 20.0193 118.242 19.9991 118.232 19.9789C117.79 19.1017 117.517 18.1133 117.469 17.0641C117.463 16.946 117.459 16.8279 117.459 16.7065C117.459 16.585 117.463 16.467 117.469 16.3489C117.517 15.2997 117.79 14.3113 118.232 13.4307C118.242 13.4139 118.249 13.3936 118.259 13.3734C118.29 13.316 118.323 13.2553 118.357 13.198C118.377 13.1575 118.398 13.117 118.421 13.0799C118.442 13.0428 118.465 13.0057 118.489 12.9686C118.523 12.9112 118.56 12.8505 118.594 12.7931C118.604 12.7796 118.617 12.7628 118.627 12.7493C119.822 10.9141 121.827 9.70294 124.106 9.70294C125.645 9.70294 127.1 10.2663 128.258 11.248C128.575 11.5146 128.869 11.8081 129.135 12.1319V10.5092C129.135 10.4822 129.135 10.4553 129.139 10.4283C129.159 10.2326 129.243 10.0639 129.368 9.93909C129.368 9.93909 129.368 9.93909 129.368 9.93572C129.382 9.92222 129.399 9.9121 129.412 9.89861C129.415 9.89524 129.422 9.88849 129.426 9.88512C129.436 9.87499 129.449 9.86825 129.459 9.8615C129.469 9.85475 129.48 9.84463 129.49 9.83789C129.496 9.83451 129.503 9.83114 129.51 9.82439C129.527 9.81764 129.54 9.80752 129.557 9.7974C129.561 9.7974 129.564 9.79403 129.567 9.79403C129.588 9.78391 129.608 9.77379 129.628 9.76367C129.628 9.76367 129.628 9.76367 129.631 9.76367C129.679 9.74342 129.729 9.72993 129.78 9.71981C129.783 9.71981 129.79 9.71644 129.793 9.71644C129.814 9.71306 129.837 9.70969 129.861 9.70632C129.888 9.70632 129.915 9.70294 129.942 9.70294C129.972 9.70294 129.999 9.70632 130.026 9.70632C130.05 9.70969 130.07 9.71306 130.094 9.71644C130.097 9.71644 130.101 9.71981 130.107 9.71981C130.158 9.72993 130.209 9.74342 130.256 9.76367H130.259C130.28 9.77379 130.3 9.78391 130.317 9.79403C130.323 9.79403 130.327 9.7974 130.33 9.7974C130.344 9.80752 130.361 9.81764 130.374 9.82439C130.381 9.83114 130.391 9.83451 130.398 9.83789C130.408 9.84463 130.418 9.85475 130.428 9.8615C130.438 9.86825 130.448 9.87499 130.458 9.88512C130.465 9.88849 130.469 9.89524 130.475 9.89861C130.489 9.9121 130.506 9.92222 130.516 9.93572C130.519 9.93909 130.519 9.93909 130.519 9.93909ZM124.106 22.0941C126.877 22.0941 129.135 19.6786 129.135 16.7065C129.135 13.7209 126.877 11.2919 124.106 11.2919C121.355 11.2919 119.076 13.7175 119.076 16.7065C119.076 16.801 119.08 16.892 119.083 16.9831C119.083 17.0236 119.09 17.0607 119.09 17.0978C119.093 17.1518 119.096 17.2058 119.103 17.2564C119.107 17.3002 119.113 17.3407 119.117 17.3812C119.123 17.4284 119.127 17.479 119.134 17.5263C119.14 17.5634 119.147 17.5971 119.15 17.6309C119.161 17.6848 119.167 17.7388 119.177 17.7928C119.184 17.8198 119.191 17.8434 119.194 17.867C119.208 17.9311 119.221 17.9918 119.235 18.0559C119.238 18.0694 119.242 18.0829 119.248 18.0964C119.822 20.4039 121.794 22.0941 124.106 22.0941Z" fill="#29B5E8"/>
<path d="M110.229 3.85992H110.01C109.983 3.85992 109.952 3.85992 109.925 3.8633C109.895 3.85992 109.868 3.85992 109.837 3.85992C109.76 3.85992 109.682 3.85992 109.605 3.8633C109.591 3.8633 109.574 3.86667 109.561 3.86667C109.5 3.86667 109.439 3.87005 109.378 3.87679C109.368 3.87679 109.355 3.87679 109.345 3.87679C109.28 3.88354 109.22 3.88691 109.159 3.89366C109.152 3.89703 109.145 3.89703 109.139 3.89703C109.071 3.90716 109.007 3.9139 108.946 3.92402C108.943 3.92402 108.94 3.92402 108.94 3.92402C108.531 3.98812 108.163 4.10282 107.836 4.26475C107.836 4.26813 107.832 4.26813 107.829 4.26813C107.782 4.29512 107.731 4.3221 107.684 4.34909C107.674 4.35247 107.667 4.35921 107.657 4.36596C107.616 4.38958 107.576 4.41319 107.535 4.44018C107.518 4.4503 107.505 4.4638 107.491 4.47392C107.458 4.49416 107.427 4.51777 107.394 4.54139C107.37 4.56163 107.346 4.58187 107.323 4.59874C107.302 4.61561 107.282 4.63248 107.262 4.64934C107.225 4.68308 107.191 4.71344 107.157 4.74718C107.151 4.75392 107.144 4.76067 107.137 4.76742C107.097 4.81127 107.056 4.85176 107.016 4.89561C107.009 4.90573 107.002 4.91585 106.995 4.9226C106.962 4.95971 106.928 4.99682 106.897 5.03393C106.887 5.0508 106.874 5.06767 106.864 5.08453C106.837 5.11827 106.813 5.14863 106.789 5.18237C106.783 5.19586 106.776 5.20598 106.766 5.2161C106.739 5.25659 106.712 5.29707 106.688 5.33755C106.685 5.3443 106.681 5.34767 106.678 5.35442C106.459 5.71539 106.303 6.14046 106.205 6.65325C106.205 6.66 106.205 6.67012 106.202 6.67686C106.189 6.74096 106.178 6.80843 106.168 6.8759C106.165 6.89615 106.162 6.91639 106.162 6.93663C106.151 6.99398 106.145 7.05133 106.138 7.11206C106.135 7.14579 106.131 7.17953 106.128 7.21664C106.121 7.26387 106.114 7.30772 106.111 7.35833C106.108 7.40893 106.104 7.45953 106.101 7.51351C106.097 7.54725 106.097 7.58098 106.094 7.61809C106.091 7.68894 106.087 7.76316 106.084 7.83738C106.084 7.85762 106.081 7.87111 106.081 7.88798C106.077 7.98244 106.077 8.08027 106.077 8.17473V9.5073H104.396C104.291 9.50392 104.187 9.52416 104.092 9.5579C103.789 9.66923 103.573 9.95598 103.573 10.29C103.573 10.6037 103.728 10.8702 103.971 11.0254C104.092 11.103 104.234 11.1502 104.389 11.157H104.396V11.1604H106.077V22.9274C106.074 22.9443 106.077 22.9578 106.077 22.9746C106.077 22.9847 106.077 22.9949 106.077 23.005C106.087 23.1939 106.165 23.366 106.29 23.4975L106.293 23.5009C106.31 23.5178 106.33 23.5346 106.347 23.5515C106.351 23.5549 106.354 23.5549 106.357 23.5583C106.371 23.5718 106.388 23.5819 106.401 23.592C106.408 23.5987 106.418 23.6055 106.425 23.6089C106.432 23.6156 106.438 23.619 106.448 23.6224C106.58 23.7067 106.735 23.7539 106.901 23.7539C106.928 23.7539 106.955 23.7505 106.978 23.7472C107.137 23.7337 107.282 23.6662 107.4 23.5684L107.404 23.565C107.421 23.5515 107.434 23.538 107.448 23.5211C107.451 23.5178 107.458 23.5144 107.461 23.511C107.475 23.4975 107.485 23.484 107.495 23.4739C107.623 23.3187 107.694 23.1264 107.684 22.9274V11.1604H109.493V11.157H109.5C109.979 11.1334 110.33 10.7589 110.317 10.2933C110.317 10.29 110.317 10.29 110.317 10.2866C110.32 10.2697 110.317 10.2529 110.317 10.236C110.317 10.2292 110.317 10.2225 110.317 10.2191C110.303 10.0403 110.226 9.87839 110.104 9.75357C110.104 9.75357 110.104 9.75357 110.104 9.75019C110.101 9.75019 110.101 9.75019 110.101 9.75019C110.084 9.73333 110.07 9.71983 110.053 9.70634C110.047 9.69959 110.04 9.69622 110.037 9.68947C110.023 9.67935 110.013 9.6726 109.999 9.66248C109.989 9.65574 109.976 9.64561 109.966 9.63887C109.959 9.63549 109.949 9.62875 109.942 9.62537C109.925 9.61525 109.908 9.60513 109.891 9.59838C109.888 9.59501 109.881 9.59164 109.878 9.59164C109.858 9.58152 109.837 9.5714 109.817 9.56465C109.814 9.56127 109.81 9.56127 109.804 9.5579C109.783 9.55115 109.763 9.54441 109.743 9.53766C109.736 9.53766 109.729 9.53429 109.723 9.53429C109.702 9.53091 109.686 9.52416 109.665 9.52079C109.655 9.52079 109.645 9.52079 109.635 9.51742C109.621 9.51404 109.605 9.51404 109.588 9.51067C109.574 9.51067 109.561 9.51067 109.551 9.51067C109.54 9.51067 109.53 9.5073 109.52 9.5073C109.51 9.5073 109.497 9.5073 109.493 9.5073H107.684V8.17811C107.684 8.16799 107.684 8.15787 107.684 8.15112C107.687 8.08365 107.687 8.01617 107.691 7.95208C107.691 7.93521 107.691 7.91497 107.694 7.8981C107.694 7.84075 107.697 7.7834 107.701 7.72942C107.701 7.7193 107.704 7.7058 107.704 7.69568C107.708 7.63159 107.714 7.56749 107.721 7.50676C107.785 6.84892 107.927 6.43397 108.075 6.18095C108.079 6.1742 108.079 6.17083 108.082 6.16408C108.092 6.14721 108.106 6.13034 108.116 6.11348C108.123 6.09998 108.133 6.08649 108.143 6.07299C108.146 6.06625 108.153 6.05275 108.16 6.046C108.177 6.02239 108.194 6.00215 108.214 5.98191C108.426 5.74238 108.757 5.59732 109.237 5.53997C109.243 5.53997 109.247 5.53659 109.257 5.53659C109.284 5.53322 109.314 5.52985 109.341 5.52985C109.355 5.52647 109.372 5.52647 109.385 5.5231C109.412 5.5231 109.436 5.51973 109.463 5.51973C109.483 5.51973 109.5 5.51635 109.524 5.51635C109.547 5.51298 109.571 5.51298 109.594 5.51298C109.618 5.51298 109.642 5.5096 109.665 5.5096C109.689 5.5096 109.713 5.5096 109.736 5.5096C109.77 5.5096 109.804 5.5096 109.837 5.5096H109.841C109.868 5.5096 109.891 5.50623 109.918 5.50286C109.949 5.50623 109.979 5.5096 110.01 5.5096H110.229C110.681 5.5096 111.053 5.13851 111.053 4.68308C111.053 4.22765 110.681 3.85992 110.229 3.85992Z" fill="#29B5E8"/>
<path d="M114.583 3.88351C114.583 3.88351 114.58 3.88014 114.577 3.88014C114.56 3.87339 114.546 3.86664 114.526 3.86327C114.519 3.8599 114.509 3.85652 114.499 3.85315C114.486 3.84978 114.472 3.8464 114.459 3.84303C114.445 3.83966 114.432 3.83291 114.421 3.83291C114.405 3.82953 114.391 3.82616 114.374 3.82616C114.361 3.82279 114.351 3.82279 114.337 3.81941C114.31 3.81604 114.28 3.81604 114.253 3.81604C113.814 3.81604 113.443 4.18376 113.443 4.62233V22.9004C113.443 23.3423 113.814 23.71 114.253 23.71C114.28 23.71 114.31 23.71 114.337 23.7067C114.34 23.7067 114.347 23.7033 114.351 23.7033C114.374 23.6999 114.398 23.6965 114.421 23.6932C114.425 23.6932 114.432 23.6898 114.438 23.6898C114.459 23.6831 114.479 23.6797 114.499 23.6729C114.502 23.6729 114.506 23.6729 114.509 23.6696C114.82 23.5717 115.049 23.3086 115.083 22.9847C115.086 22.9577 115.09 22.9307 115.09 22.9004V4.62233C115.09 4.59534 115.086 4.56835 115.083 4.54136C115.053 4.24449 114.857 3.99821 114.583 3.88351Z" fill="#29B5E8"/>
<path d="M52.6057 19.4087C52.5989 19.3615 52.5989 19.3176 52.5922 19.2738C52.5888 19.2401 52.5854 19.2097 52.5821 19.1793C52.5753 19.1422 52.5719 19.1085 52.5652 19.0714C52.5584 19.0376 52.5517 19.0039 52.5449 18.9668C52.5416 18.9398 52.5348 18.9094 52.5281 18.8825C52.5179 18.842 52.5112 18.8049 52.5011 18.7644C52.4943 18.7441 52.4876 18.7205 52.4808 18.7003C52.4707 18.6564 52.4572 18.6159 52.4403 18.5755C52.4369 18.5586 52.4302 18.5417 52.4268 18.5282C52.4099 18.481 52.393 18.4371 52.3728 18.3899C52.3694 18.3832 52.366 18.373 52.3627 18.3629C52.339 18.3157 52.3188 18.2651 52.2951 18.2179C52.2918 18.2145 52.2918 18.2111 52.2884 18.2077C52.096 17.8198 51.8226 17.4959 51.4884 17.2227C51.4884 17.2193 51.4884 17.2193 51.485 17.2193C51.4378 17.1822 51.3905 17.1417 51.3399 17.1046C51.3399 17.1046 51.3365 17.1012 51.3331 17.0978C51.3298 17.0978 51.3264 17.0945 51.323 17.0911C51.2926 17.0708 51.2622 17.0472 51.2352 17.027C50.82 16.7335 50.361 16.5007 49.6926 16.2443C49.6825 16.2409 49.6724 16.2376 49.6622 16.2342C49.6521 16.2274 49.6386 16.2241 49.6285 16.2173C49.2504 16.0756 48.8589 15.9407 48.4572 15.8091C48.4572 15.8091 48.4572 15.8091 48.4538 15.8091C48.4538 15.8091 48.4504 15.8091 48.4504 15.8057C48.4437 15.8057 48.4369 15.8024 48.4268 15.799C48.3897 15.7855 48.3492 15.772 48.2952 15.7551C48.2682 15.7484 48.2479 15.7416 48.2277 15.7349C48.0926 15.6877 47.9542 15.6438 47.8158 15.5966C47.718 15.5628 47.6133 15.5291 47.4884 15.4886C47.4547 15.4785 47.3737 15.4515 47.3061 15.4313C47.3028 15.4313 47.3028 15.4279 47.2994 15.4279C47.2589 15.4144 47.2184 15.4009 47.1745 15.3874C46.8369 15.2795 46.5602 15.185 46.3239 15.0973C45.9391 14.9556 45.588 14.8038 45.3011 14.6216C45.2943 14.6182 45.2876 14.6149 45.2842 14.6115C44.8927 14.3619 44.6226 14.0549 44.5585 13.6534L44.5551 13.65C44.5517 13.623 44.5484 13.5927 44.5484 13.5657C44.545 13.5589 44.545 13.5556 44.545 13.5522C44.5416 13.5185 44.5416 13.4881 44.5416 13.4544C44.5416 13.4071 44.545 13.3599 44.5484 13.316C44.5484 13.3026 44.5484 13.2924 44.5517 13.2823C44.5551 13.2452 44.5585 13.2115 44.5619 13.1777C44.5652 13.1676 44.5652 13.1575 44.5686 13.1474C44.5754 13.1103 44.5821 13.0765 44.5889 13.0394C44.5922 13.036 44.5922 13.0293 44.5956 13.0225C44.6057 12.9821 44.6159 12.945 44.6294 12.9078C44.6294 12.9045 44.6294 12.9045 44.6294 12.9045C44.8049 12.3816 45.2201 11.9936 45.7095 11.7203C45.7433 11.7035 45.777 11.6866 45.8074 11.6697C45.8412 11.6529 45.8716 11.636 45.9019 11.6225C45.9526 11.5989 46.0032 11.5753 46.0538 11.555C46.0842 11.5415 46.1112 11.528 46.1416 11.5179C46.1956 11.4977 46.2496 11.4774 46.3036 11.4572C46.3306 11.4471 46.361 11.437 46.3914 11.4268C46.4454 11.41 46.496 11.3931 46.55 11.3796C46.5838 11.3695 46.6142 11.3594 46.6479 11.3526C46.6986 11.3391 46.7492 11.329 46.7964 11.3155C46.8302 11.3088 46.864 11.302 46.8977 11.2953C46.9517 11.2852 47.0023 11.275 47.0496 11.2683C47.08 11.2649 47.107 11.2615 47.1374 11.2548C47.1947 11.248 47.2555 11.2413 47.3163 11.2379C47.3298 11.2345 47.3433 11.2345 47.3602 11.2312C47.4344 11.2278 47.5087 11.2244 47.5796 11.2244C47.6639 11.2244 47.7483 11.2278 47.8293 11.2312C47.8428 11.2312 47.8563 11.2312 47.8665 11.2312C48.4639 11.2683 48.9466 11.4133 49.3449 11.6056C49.3753 11.6191 49.4057 11.636 49.4361 11.6495C49.453 11.6596 49.4698 11.6697 49.4867 11.6765C49.5239 11.6967 49.561 11.717 49.6015 11.7406C49.6082 11.744 49.615 11.7473 49.6217 11.7507C49.6622 11.7743 49.7028 11.8013 49.7433 11.8249C49.7466 11.8283 49.75 11.8283 49.75 11.8283C49.7939 11.8553 49.8378 11.8856 49.8817 11.9126C49.8817 11.916 49.885 11.916 49.885 11.9194C49.9289 11.9464 49.9694 11.9734 50.0099 12.0037C50.0268 12.0172 50.0403 12.0273 50.0572 12.0375C50.1517 12.1083 50.3002 12.223 50.4352 12.3343C50.4521 12.3445 50.4656 12.3546 50.4757 12.3647C50.577 12.449 50.6715 12.5233 50.7627 12.5907C50.7795 12.6042 50.793 12.6143 50.8032 12.6211C50.8065 12.6245 50.8099 12.6278 50.8133 12.6278C50.8234 12.6346 50.8336 12.6413 50.8437 12.6481C50.8673 12.6649 50.8943 12.6818 50.9179 12.6987C50.9281 12.7054 50.9382 12.7088 50.9483 12.7155C50.9719 12.729 50.9956 12.7425 51.0192 12.756C51.0293 12.7594 51.0361 12.7628 51.0462 12.7662C51.0732 12.7796 51.0968 12.7898 51.1238 12.7999C51.1306 12.8033 51.134 12.8033 51.1407 12.8066C51.1711 12.8168 51.2015 12.8269 51.2319 12.8303C51.2319 12.8303 51.2319 12.8303 51.2352 12.8336C51.3027 12.8437 51.3669 12.8471 51.4344 12.8303C51.4411 12.8303 51.4479 12.8269 51.4546 12.8269C51.4715 12.8235 51.4918 12.8168 51.5087 12.8134C51.5154 12.81 51.5188 12.8066 51.5255 12.8033C51.5323 12.8033 51.539 12.7999 51.5458 12.7965C51.5728 12.783 51.5998 12.7695 51.6268 12.7527C51.6335 12.7527 51.6369 12.7493 51.6403 12.7459C51.6707 12.7257 51.6977 12.7054 51.7247 12.6818C51.7281 12.6784 51.7281 12.6784 51.7281 12.6784C51.7517 12.6582 51.7719 12.6346 51.7922 12.611C51.8057 12.5941 51.8192 12.5739 51.8293 12.5536C51.8327 12.5502 51.8361 12.5469 51.8361 12.5435C51.9778 12.3073 51.8968 11.997 51.647 11.6596C51.6437 11.6529 51.6403 11.6461 51.6335 11.6394C51.6234 11.6259 51.6167 11.6158 51.6065 11.6023C51.0327 10.8601 49.7264 10.047 48.5146 9.78728C48.5078 9.78728 48.5011 9.78728 48.4943 9.78391C48.4437 9.77379 48.3897 9.76367 48.339 9.75355C48.3255 9.75355 48.3087 9.75017 48.2952 9.7468C48.2513 9.74005 48.2074 9.7333 48.1635 9.72993C48.1466 9.72656 48.1298 9.72318 48.1129 9.72318C48.0724 9.71981 48.0285 9.71644 47.988 9.71306C47.9711 9.70969 47.9542 9.70969 47.9407 9.70632C47.8834 9.70632 47.8293 9.70294 47.7753 9.70294C47.6876 9.70294 47.5998 9.70294 47.5154 9.70632C47.4682 9.70632 47.4209 9.70969 47.3703 9.71306C47.3365 9.71644 47.296 9.71644 47.2623 9.71644C47.1947 9.72318 47.1306 9.72656 47.0665 9.7333C47.0496 9.7333 47.0294 9.7333 47.0125 9.73668C46.9382 9.74342 46.864 9.75017 46.7931 9.76029C46.7829 9.76029 46.7762 9.76029 46.7694 9.76029C46.6918 9.77041 46.6175 9.78053 46.5433 9.79403C46.5399 9.79403 46.5331 9.79403 46.5298 9.79403C46.4555 9.80415 46.3813 9.81764 46.3104 9.83114C46.307 9.83114 46.3036 9.83451 46.2969 9.83451C46.145 9.8615 45.9964 9.89524 45.8547 9.93235C45.8513 9.93235 45.8513 9.93572 45.8513 9.93572C45.7804 9.95259 45.7095 9.97283 45.6386 9.99307C45.5711 10.0133 45.507 10.0369 45.4462 10.0572C45.4395 10.0572 45.4361 10.0605 45.4294 10.0605C45.3686 10.0842 45.3078 10.1044 45.2471 10.128C45.2403 10.1314 45.2336 10.1348 45.2302 10.1348C45.1694 10.1584 45.1154 10.182 45.0581 10.209C45.0513 10.2124 45.0412 10.2124 45.0344 10.2191C44.9838 10.2393 44.9298 10.2663 44.8825 10.2899C44.869 10.2967 44.8589 10.3001 44.8488 10.3068C44.7981 10.3304 44.7509 10.354 44.7036 10.381C44.6901 10.3878 44.68 10.3945 44.6665 10.4013C44.6226 10.4249 44.5787 10.4519 44.5348 10.4789C44.5213 10.4856 44.5078 10.4924 44.4943 10.5025C44.437 10.5362 44.383 10.5733 44.3289 10.6071C44.2648 10.6543 44.2007 10.6981 44.1433 10.7454C44.1365 10.7454 44.1332 10.7488 44.1332 10.7521C43.8462 10.9647 43.5998 11.1907 43.3973 11.4538C43.3906 11.464 43.3804 11.4741 43.3737 11.4842C43.35 11.5213 43.323 11.555 43.2994 11.5888C43.2825 11.6158 43.2657 11.6428 43.2488 11.6697C43.2353 11.69 43.2218 11.7102 43.2116 11.7305C43.1846 11.7743 43.161 11.8182 43.1374 11.8654C43.134 11.8722 43.1306 11.8755 43.1273 11.8823C42.945 12.2432 42.8403 12.6582 42.7998 13.1609C42.7998 13.1676 42.7998 13.1744 42.7965 13.1811C42.7931 13.2688 42.7863 13.3565 42.783 13.451C42.783 13.5218 42.783 13.5927 42.7863 13.6635C42.7863 13.6736 42.7863 13.6838 42.7863 13.6939C42.8235 14.6587 43.2623 15.384 44.0555 15.9474C44.0623 15.9508 44.069 15.9576 44.0758 15.9609C44.1095 15.9845 44.1433 16.0082 44.177 16.0318C44.2007 16.0486 44.2277 16.0621 44.2513 16.079C44.2581 16.0858 44.2682 16.0891 44.2749 16.0925C45.0581 16.5884 46.0167 16.8718 46.8167 17.0978C47.2083 17.2125 47.5593 17.3104 47.6639 17.3407C47.6876 17.3475 47.7112 17.3542 47.7315 17.3643C48.2108 17.5229 48.5787 17.6511 48.8825 17.7725C48.9061 17.7793 48.9264 17.7894 48.95 17.7962C48.9568 17.7995 48.9669 17.8029 48.977 17.8097C49.1492 17.8805 49.3179 17.9547 49.48 18.0357C49.615 18.1032 49.7399 18.174 49.8648 18.2482C50.1855 18.4473 50.4319 18.6632 50.5973 18.8993C50.604 18.9061 50.6074 18.9128 50.6108 18.9196C50.6276 18.9398 50.6411 18.96 50.6513 18.9837C50.6614 18.9972 50.6681 19.0073 50.6749 19.0208C50.685 19.0376 50.6952 19.0545 50.7019 19.0714C50.712 19.0882 50.7188 19.1085 50.7289 19.1253C50.7357 19.1388 50.7424 19.1523 50.7492 19.1658C50.7559 19.1861 50.766 19.2063 50.7728 19.2299C50.7762 19.2401 50.7829 19.2535 50.7863 19.267C50.793 19.2907 50.7998 19.3143 50.8065 19.3379C50.8099 19.348 50.8133 19.3581 50.8167 19.3716C50.8234 19.3952 50.8302 19.4222 50.8336 19.4458C50.8369 19.456 50.8403 19.4695 50.8403 19.4796C50.8437 19.5066 50.8471 19.5336 50.8504 19.5605C50.8538 19.5707 50.8538 19.5808 50.8538 19.5909C50.8572 19.6314 50.8606 19.6685 50.8606 19.709C50.8606 19.7697 50.8572 19.8271 50.8538 19.8844C50.8538 19.9013 50.8504 19.9181 50.8504 19.935C50.8471 19.9789 50.8403 20.0227 50.8302 20.0666C50.8302 20.0801 50.8268 20.0936 50.8234 20.1071C50.8032 20.2251 50.7694 20.3365 50.7255 20.4478C50.7222 20.4512 50.7222 20.4545 50.7222 20.4579C50.6985 20.5085 50.6749 20.5625 50.6479 20.6097C50.6445 20.6165 50.6445 20.6198 50.6411 20.6232C50.5838 20.7312 50.5163 20.8358 50.4319 20.9336C50.3914 20.9842 50.3475 21.0314 50.3036 21.0787C50.3002 21.0787 50.3002 21.0787 50.3002 21.082C50.2091 21.1731 50.1078 21.2575 50.0032 21.335C49.9998 21.3384 49.9964 21.3384 49.9964 21.3418C49.9458 21.3755 49.8952 21.4126 49.8445 21.443C49.8378 21.4497 49.831 21.4531 49.8243 21.4565C49.7365 21.5105 49.642 21.5644 49.5475 21.6117C49.5137 21.6285 49.48 21.6454 49.4428 21.6623C49.4057 21.6791 49.3652 21.6994 49.3247 21.7163C49.2909 21.7298 49.2606 21.7432 49.2268 21.7567C49.1357 21.7905 49.0479 21.8242 48.9568 21.8546C48.9433 21.8579 48.9298 21.8613 48.9163 21.8681C48.8623 21.8849 48.8082 21.8984 48.7542 21.9153C48.7407 21.9187 48.7239 21.9254 48.7104 21.9288C48.5315 21.976 48.3559 22.0131 48.1905 22.0401C48.1872 22.0401 48.1838 22.0401 48.1804 22.0401C48.096 22.0536 48.015 22.0637 47.9374 22.0739C47.907 22.0772 47.88 22.0806 47.8496 22.0806C47.8226 22.084 47.7956 22.084 47.7652 22.0874C47.7011 22.0907 47.6336 22.0941 47.5728 22.0941C47.4479 22.0941 47.3264 22.0907 47.2083 22.084C47.161 22.084 47.1137 22.0806 47.0665 22.0772C47.0023 22.0705 46.9348 22.0671 46.8741 22.0604C46.8167 22.057 46.7559 22.0502 46.7019 22.0435C46.6513 22.0367 46.604 22.03 46.5568 22.0233C46.4521 22.0064 46.3543 21.9929 46.2564 21.9727C46.2125 21.9625 46.1652 21.9558 46.1213 21.9457C46.0707 21.9322 46.0201 21.922 45.9694 21.9086C45.9121 21.8951 45.858 21.8816 45.804 21.8647C45.7669 21.8546 45.7264 21.8445 45.6926 21.8343C45.6015 21.8073 45.5104 21.777 45.4226 21.7432C45.4024 21.7365 45.3821 21.7298 45.3619 21.723C45.1661 21.6488 44.9737 21.5678 44.7846 21.4734C44.7779 21.47 44.7678 21.4632 44.7576 21.4599C44.6361 21.3991 44.4302 21.2844 44.2344 21.1731C44.2176 21.163 44.1973 21.1529 44.1804 21.1428C44.042 21.0618 43.9239 20.9943 43.8125 20.9403C43.8024 20.9336 43.7956 20.9302 43.7889 20.9268C43.7821 20.9235 43.7754 20.9201 43.772 20.9201C43.7416 20.9066 43.718 20.8931 43.691 20.883C43.6808 20.8796 43.6741 20.8762 43.6673 20.8729C43.5965 20.8459 43.5323 20.8256 43.4682 20.8189C43.4479 20.8155 43.4277 20.8155 43.4074 20.8155C43.4007 20.8121 43.3939 20.8121 43.3872 20.8121C43.2589 20.8121 43.1475 20.856 43.0429 20.9538C43.0192 20.9741 42.999 20.9943 42.9787 21.0179C42.9754 21.0247 42.9686 21.0314 42.9619 21.0382C42.9484 21.055 42.9382 21.0685 42.9281 21.082C42.9214 21.0921 42.9146 21.1023 42.9112 21.109C42.9011 21.1225 42.891 21.136 42.8842 21.1495C42.8775 21.1596 42.8741 21.1697 42.8707 21.1799C42.864 21.1934 42.8572 21.2068 42.8505 21.2203C42.8471 21.2305 42.8437 21.2372 42.8403 21.2473C42.8336 21.2642 42.8302 21.2777 42.8268 21.2912C42.8235 21.3013 42.8201 21.3081 42.8201 21.3182C42.8167 21.335 42.8133 21.3519 42.81 21.3688C42.81 21.3755 42.8066 21.3823 42.8066 21.389C42.8032 21.4126 42.8032 21.4329 42.8032 21.4531C42.8032 21.4565 42.8032 21.4599 42.8032 21.4632C42.8032 21.4902 42.8066 21.5138 42.8133 21.5408C42.8133 21.5442 42.8133 21.551 42.8133 21.5543C42.8201 21.5746 42.8235 21.5982 42.8302 21.6184C42.8336 21.6285 42.837 21.6387 42.8403 21.6488C42.8471 21.6657 42.8505 21.6859 42.8606 21.7028C42.864 21.7129 42.8673 21.7196 42.8707 21.7264C42.9146 21.8276 42.9855 21.9322 43.0766 22.0334C43.1745 22.1413 43.2994 22.2493 43.4446 22.3606C43.4479 22.3606 43.4479 22.3606 43.4479 22.364C43.4884 22.391 43.5289 22.4213 43.5728 22.4517C43.583 22.4584 43.5897 22.4652 43.5998 22.4686C43.718 22.5495 43.8429 22.6271 43.9846 22.7081C44.0184 22.7283 44.0522 22.7486 44.0859 22.7654C44.1197 22.7857 44.1534 22.8026 44.1872 22.8194C44.2277 22.843 44.2749 22.8666 44.3188 22.8903C44.3492 22.9038 44.3762 22.9206 44.4066 22.9341C44.4741 22.9679 44.545 23.0016 44.6159 23.0353C44.626 23.0421 44.6327 23.0454 44.6429 23.0488C44.7205 23.0859 44.7981 23.1197 44.8758 23.15C44.9095 23.1635 44.9399 23.177 44.9737 23.1905C44.9804 23.1939 44.9872 23.1973 44.9939 23.1973C45.7163 23.4806 46.6074 23.6696 47.3939 23.7033C47.4513 23.7067 47.512 23.71 47.5694 23.71H47.5728C47.5998 23.71 47.6234 23.71 47.6504 23.7067C47.7112 23.7067 47.772 23.7067 47.8327 23.7067C47.8395 23.7067 47.8462 23.7067 47.853 23.7033C49.1323 23.6628 50.1821 23.3322 51.0766 22.6777C51.0766 22.6744 51.0766 22.6744 51.0766 22.6744C52.069 21.9254 52.6158 20.8695 52.6158 19.7056C52.6158 19.6314 52.6124 19.5572 52.6091 19.4863C52.6091 19.4593 52.6057 19.4323 52.6057 19.4087Z" fill="#29B5E8"/>
<path d="M60.8588 9.72992C60.8554 9.72992 60.8521 9.72992 60.8487 9.72992C59.2757 9.72992 57.7905 10.3709 56.7171 11.5044V10.5396C56.7171 10.0943 56.3728 9.72992 55.9373 9.72992C55.9069 9.72992 55.8799 9.73329 55.8529 9.73329C55.6605 9.75353 55.4918 9.83787 55.3669 9.9627C55.3635 9.9627 55.3635 9.9627 55.3601 9.96607C55.35 9.97956 55.3365 9.99306 55.3264 10.0066C55.3196 10.0099 55.3128 10.0167 55.3095 10.0234C55.2993 10.0335 55.2926 10.0437 55.2858 10.0538C55.2791 10.0639 55.2723 10.074 55.2622 10.0841C55.2588 10.0909 55.2555 10.0976 55.2521 10.1044C55.242 10.1213 55.2318 10.1381 55.2217 10.1516C55.2217 10.155 55.2217 10.1584 55.2183 10.1617C55.2082 10.182 55.1981 10.2022 55.188 10.2225C55.1711 10.2731 55.1542 10.3237 55.1441 10.3743C55.1441 10.3776 55.1441 10.381 55.1407 10.381C55.1373 10.408 55.1339 10.4316 55.1306 10.4552C55.1306 10.4822 55.1272 10.5092 55.1272 10.5396V23.0691L55.1171 23.123L55.1576 23.1568C55.1576 23.1736 55.1609 23.1972 55.1711 23.2209C55.1711 23.2242 55.1744 23.231 55.1744 23.2344C55.1812 23.2512 55.1913 23.2715 55.2082 23.2883C55.3128 23.4874 55.5053 23.6392 55.7314 23.7067L55.7483 23.71H55.9373C55.9677 23.71 55.9981 23.71 56.0285 23.7067C56.0487 23.7033 56.069 23.6965 56.0892 23.6932C56.0993 23.6932 56.1061 23.6932 56.1162 23.6898C56.1432 23.683 56.1702 23.6763 56.1972 23.6662C56.1972 23.6662 56.1972 23.6662 56.2006 23.6662C56.3424 23.6156 56.4639 23.5279 56.5449 23.4098C56.5483 23.4064 56.5517 23.403 56.555 23.3997C56.609 23.3423 56.6394 23.2816 56.6698 23.1972C56.6732 23.1871 56.6766 23.1804 56.6766 23.1736C56.6799 23.1703 56.6799 23.1703 56.6799 23.1669C56.6934 23.1264 56.7036 23.0859 56.7137 23.0454L56.7171 23.0319V15.4481C56.7711 13.1878 58.6208 11.3492 60.8419 11.3459C60.8453 11.3459 60.8453 11.3459 60.8487 11.3459C63.1103 11.3459 64.9499 13.1845 64.9499 15.4448V22.9004C64.9499 22.9307 64.9533 22.9577 64.9567 22.9847C64.9736 23.1804 65.0579 23.3491 65.1828 23.4739C65.1828 23.4739 65.1862 23.4739 65.1862 23.4773C65.1997 23.4908 65.2132 23.5009 65.2267 23.5144C65.2335 23.5211 65.2368 23.5245 65.2436 23.5279C65.2537 23.538 65.2639 23.5447 65.274 23.5515C65.2841 23.5616 65.2942 23.5683 65.3044 23.5751C65.3145 23.5785 65.3212 23.5818 65.328 23.5886C65.3415 23.5987 65.3584 23.6055 65.3719 23.6156C65.3752 23.6156 65.3786 23.6189 65.3854 23.6189C65.4022 23.6291 65.4225 23.6392 65.4428 23.6493H65.4461C65.4934 23.6695 65.544 23.683 65.5946 23.6932C65.6014 23.6932 65.6048 23.6965 65.6082 23.6965C65.6318 23.6999 65.652 23.7033 65.6757 23.7067C65.7027 23.71 65.7297 23.71 65.76 23.71C65.7871 23.71 65.8141 23.71 65.8411 23.7067C65.8647 23.7033 65.8883 23.6999 65.9086 23.6965C65.9119 23.6965 65.9187 23.6932 65.9221 23.6932C65.9761 23.683 66.0233 23.6695 66.074 23.6493C66.0942 23.6392 66.1145 23.6291 66.1347 23.6189C66.1381 23.6189 66.1415 23.6156 66.1449 23.6156C66.1617 23.6055 66.1752 23.5987 66.1921 23.5886C66.1989 23.5818 66.2056 23.5785 66.2124 23.5751C66.2225 23.5683 66.2326 23.5616 66.2427 23.5515C66.2529 23.5447 66.2664 23.538 66.2765 23.5279C66.2799 23.5245 66.2866 23.5211 66.29 23.5144C66.3035 23.5009 66.3204 23.4908 66.3339 23.4773C66.3339 23.4739 66.3339 23.4739 66.3339 23.4739C66.4622 23.3491 66.5465 23.1804 66.5634 22.9847C66.5668 22.9577 66.5668 22.9307 66.5668 22.9004V15.4448C66.5668 12.2972 64.0082 9.73667 60.8588 9.72992Z" fill="#29B5E8"/>
<path d="M75.4207 9.70294C79.0865 9.70294 82.0671 12.8437 82.0671 16.7065C82.0671 20.5692 79.0865 23.71 75.4207 23.71C75.306 23.71 75.1946 23.7067 75.0832 23.6999C75.0663 23.6999 75.0528 23.6999 75.0359 23.6966C74.938 23.6932 74.8401 23.6831 74.7456 23.6729C74.7423 23.6729 74.7389 23.6729 74.7355 23.6729C73.2874 23.5144 71.9338 22.8532 70.857 21.7702C70.8132 21.7264 70.7659 21.6825 70.7254 21.6353C70.722 21.6353 70.722 21.6319 70.7186 21.6319C70.695 21.6083 70.6748 21.5813 70.6511 21.5543C70.6005 21.5003 70.5499 21.443 70.4992 21.3856C70.4587 21.3418 70.4216 21.2912 70.3811 21.244C70.3541 21.2068 70.3237 21.1697 70.2933 21.1326C70.2326 21.0584 70.1752 20.9808 70.1212 20.9032C70.1144 20.8931 70.1077 20.883 70.1009 20.8729C69.4427 19.9519 69.014 18.8892 68.852 17.7624C68.8351 17.6578 68.825 17.5533 68.8149 17.4487C68.8115 17.4386 68.8115 17.4251 68.8081 17.4116C68.798 17.3137 68.7912 17.2193 68.7879 17.1214C68.7845 17.1012 68.7845 17.081 68.7845 17.0573C68.7777 16.9426 68.7744 16.8246 68.7744 16.7065C68.7744 16.5884 68.7777 16.4703 68.7845 16.3556C68.7845 16.332 68.7845 16.3118 68.7879 16.2915C68.7912 16.1937 68.798 16.0959 68.8081 16.0014C68.8115 15.9879 68.8115 15.9744 68.8149 15.9643C68.825 15.8597 68.8351 15.7551 68.852 15.6506C69.014 14.5238 69.4427 13.4611 70.1009 12.5401C70.1043 12.53 70.1111 12.5199 70.1178 12.5131C70.1752 12.4322 70.2326 12.3546 70.2933 12.277C70.3203 12.2432 70.3507 12.2095 70.3777 12.1724C70.4182 12.1218 70.4587 12.0746 70.4992 12.024C70.5465 11.97 70.5938 11.9194 70.6444 11.8654C70.668 11.8384 70.695 11.8081 70.7186 11.7811C70.722 11.7811 70.722 11.7777 70.7254 11.7777C70.7625 11.7338 70.8064 11.6934 70.8469 11.6529C71.9237 10.5666 73.2807 9.89861 74.7355 9.74005C74.7389 9.74005 74.7423 9.74005 74.7456 9.74005C74.8401 9.72993 74.938 9.72318 75.0359 9.71644C75.0528 9.71644 75.0663 9.71306 75.0832 9.71306C75.1946 9.70632 75.306 9.70294 75.4207 9.70294ZM80.4232 16.1566C80.4232 16.1532 80.4232 16.1532 80.4232 16.1499C80.3051 14.9354 79.8055 13.839 79.0595 12.9922C79.0258 12.9551 78.9954 12.918 78.9616 12.8809C78.9414 12.8606 78.9211 12.8404 78.9009 12.8201C78.8604 12.7796 78.8232 12.7392 78.7827 12.6987C78.7456 12.6616 78.7051 12.6278 78.668 12.5941C78.6443 12.5739 78.6241 12.5502 78.6005 12.53C78.5397 12.476 78.4789 12.4254 78.4182 12.3748C78.4182 12.3748 78.4148 12.3748 78.4148 12.3714C77.7093 11.8013 76.8621 11.4268 75.9507 11.3223C75.9406 11.3223 75.9338 11.3189 75.9271 11.3189C75.8562 11.3088 75.7887 11.3054 75.7178 11.302C75.7009 11.2986 75.6874 11.2986 75.6739 11.2986C75.5895 11.2919 75.5051 11.2919 75.4207 11.2919C75.3363 11.2919 75.252 11.2919 75.1676 11.2986C75.1541 11.2986 75.1406 11.2986 75.1237 11.302C75.0528 11.3054 74.9853 11.3088 74.9144 11.3189C74.9077 11.3189 74.9009 11.3223 74.8908 11.3223C73.9794 11.4268 73.1321 11.8013 72.4267 12.3714C72.4267 12.3748 72.4233 12.3748 72.4233 12.3748C72.3625 12.4254 72.3018 12.476 72.241 12.53C72.2174 12.5502 72.1971 12.5705 72.1735 12.5907C72.1364 12.6278 72.0959 12.6616 72.0587 12.6987C72.0216 12.7358 71.9845 12.7763 71.944 12.8168C71.9237 12.837 71.9035 12.8572 71.8798 12.8809C71.8494 12.9146 71.8191 12.9517 71.7853 12.9888C71.0393 13.8356 70.5364 14.9354 70.4182 16.1499C70.4182 16.1532 70.4182 16.1532 70.4182 16.1566C70.4115 16.2342 70.4047 16.3118 70.4013 16.3928C70.4013 16.4062 70.398 16.4197 70.398 16.4332C70.3946 16.5243 70.3912 16.6154 70.3912 16.7065C70.3912 19.6719 72.6731 22.0941 75.4207 22.0941C78.1684 22.0941 80.4502 19.6719 80.4502 16.7065C80.4502 16.6154 80.4469 16.5243 80.4435 16.4332C80.4435 16.4197 80.4401 16.4062 80.4401 16.3928C80.4367 16.3118 80.43 16.2342 80.4232 16.1566Z" fill="#29B5E8"/>
<path d="M101.601 10.0504C101.594 10.0437 101.591 10.0369 101.584 10.0302C101.503 9.92898 101.395 9.84801 101.274 9.79741C101.274 9.79741 101.274 9.79741 101.27 9.79741C101.257 9.78729 101.24 9.78391 101.227 9.77717C101.22 9.77717 101.213 9.77379 101.203 9.77042C101.095 9.73331 100.977 9.72656 100.862 9.74343H100.859C100.626 9.78054 100.403 9.92223 100.278 10.1314C100.278 10.1314 100.278 10.1314 100.275 10.1314C100.258 10.1651 100.238 10.1989 100.224 10.2326L100.221 10.236V10.2393L96.3523 20.8223L93.3143 13.5961C93.284 13.5286 93.2435 13.4679 93.1962 13.4105C93.0308 13.2182 92.7776 13.0968 92.5177 13.0968C92.4772 13.0968 92.4401 13.0968 92.3996 13.1069C92.3962 13.1069 92.3928 13.1069 92.3861 13.1069C92.116 13.1541 91.8629 13.343 91.7481 13.5961C91.7481 13.5994 91.7481 13.5994 91.7481 13.5994L88.7101 20.8256L87.2384 16.8279L84.8148 10.2393C84.8013 10.2022 84.7878 10.1719 84.7709 10.1381C84.7675 10.1348 84.7675 10.1348 84.7642 10.1314C84.6899 9.99308 84.5718 9.88512 84.43 9.81765C84.43 9.81765 84.4266 9.81765 84.4266 9.81428C84.3557 9.78391 84.2815 9.7603 84.2038 9.7468C84.1971 9.7468 84.1937 9.7468 84.187 9.74343C84.1498 9.74006 84.1093 9.73668 84.0722 9.73668H84.0688C84.0587 9.73668 84.0519 9.73668 84.0452 9.73668C84.0283 9.73668 84.0114 9.73668 83.9946 9.74006C83.9844 9.74006 83.9709 9.74343 83.9608 9.74343C83.9439 9.7468 83.9304 9.7468 83.9169 9.75018C83.9068 9.75355 83.8967 9.75355 83.8865 9.75692C83.8697 9.7603 83.8528 9.76367 83.8359 9.77042C83.8292 9.77379 83.8224 9.77379 83.8157 9.77717C83.7988 9.78391 83.7819 9.78729 83.765 9.79741C83.765 9.79741 83.765 9.79741 83.7616 9.79741C83.6233 9.85813 83.5119 9.96271 83.4308 10.0842C83.4275 10.0909 83.4241 10.0943 83.4207 10.101C83.4173 10.1078 83.414 10.1145 83.4106 10.1213C83.3498 10.2225 83.3127 10.3406 83.2992 10.4586C83.2857 10.5835 83.3026 10.715 83.3532 10.8365L86.1583 18.3697L87.9574 23.2006C87.9574 23.2006 87.9574 23.2006 87.9574 23.204C88.0317 23.3862 88.1397 23.511 88.2882 23.5785C88.2916 23.5819 88.2983 23.5852 88.3017 23.5886C88.3051 23.592 88.3085 23.5953 88.3152 23.5987C88.3152 23.6021 88.3186 23.6021 88.322 23.6055C88.3287 23.6088 88.3321 23.6122 88.3388 23.619C88.3422 23.619 88.3422 23.619 88.3456 23.619C88.3726 23.6358 88.4063 23.6493 88.4502 23.6527C88.4536 23.6527 88.457 23.6561 88.4604 23.6561C88.4739 23.6594 88.4874 23.6662 88.5009 23.6696C88.5076 23.6696 88.5144 23.6729 88.5211 23.6729C88.6055 23.6999 88.6595 23.71 88.727 23.71C88.7642 23.71 88.7979 23.7067 88.835 23.6999C88.862 23.6966 88.8924 23.6898 88.9194 23.6797C88.9262 23.6763 88.9329 23.6763 88.9397 23.6729C88.9667 23.6662 88.9937 23.6561 89.0207 23.6426C89.0308 23.6392 89.0409 23.6358 89.0511 23.6291C89.0679 23.619 89.0882 23.6088 89.1085 23.5987C89.122 23.5886 89.1388 23.5785 89.1557 23.5684C89.1658 23.5616 89.176 23.5515 89.1861 23.5447C89.2097 23.5279 89.23 23.511 89.2536 23.4908C89.257 23.4874 89.2604 23.484 89.2637 23.4773C89.2874 23.4537 89.311 23.43 89.3346 23.4031C89.3346 23.3997 89.338 23.3963 89.3414 23.3929C89.3616 23.3659 89.3819 23.3356 89.3987 23.3052C89.4156 23.2715 89.4325 23.2344 89.446 23.1973L89.4494 23.1871L89.4595 23.1737L89.4696 23.15L92.5177 15.8766L95.5928 23.177C95.6164 23.2512 95.6536 23.3187 95.7042 23.3828C95.711 23.3929 95.7177 23.3997 95.7245 23.4098C95.7413 23.43 95.7582 23.4503 95.7785 23.4705C95.7886 23.4773 95.7987 23.4874 95.8088 23.4941C95.8257 23.511 95.846 23.5279 95.8662 23.5447C95.8764 23.5515 95.8831 23.5582 95.8932 23.5616C95.9169 23.5785 95.9405 23.5953 95.9641 23.6088C95.9709 23.6122 95.9776 23.6156 95.9844 23.619C96.0114 23.6325 96.035 23.646 96.0654 23.6561C96.0721 23.6594 96.0789 23.6628 96.089 23.6628C96.1126 23.6729 96.1363 23.6831 96.1633 23.6898C96.197 23.6966 96.2308 23.7033 96.2612 23.71H96.3624C96.4029 23.71 96.4401 23.7067 96.4772 23.6999C96.4873 23.6999 96.4941 23.6999 96.5042 23.6966C96.538 23.6898 96.5683 23.6831 96.5987 23.6729C96.6088 23.6696 96.6156 23.6662 96.6223 23.6628C96.6561 23.6527 96.6898 23.6358 96.7202 23.619C96.7236 23.619 96.727 23.6156 96.7304 23.6156C96.7675 23.592 96.8046 23.5684 96.835 23.5447C96.97 23.4435 97.0679 23.312 97.1354 23.15V23.1467L99.0358 18.0323L101.709 10.8365C101.814 10.5835 101.773 10.3068 101.628 10.0909C101.621 10.0774 101.611 10.0639 101.601 10.0504Z" fill="#29B5E8"/>
<path d="M144.528 10.2764C144.528 10.263 144.524 10.2461 144.521 10.2326C144.521 10.2225 144.517 10.2123 144.514 10.2022C144.511 10.1854 144.507 10.1685 144.504 10.155C144.501 10.1449 144.497 10.1348 144.494 10.128C144.49 10.1078 144.484 10.0909 144.474 10.074C144.474 10.0673 144.47 10.0639 144.467 10.0572C144.457 10.0335 144.447 10.0133 144.433 9.99306C144.433 9.98969 144.433 9.98969 144.433 9.98969C144.393 9.91884 144.342 9.85812 144.285 9.80414C144.281 9.80077 144.281 9.80077 144.281 9.80077C144.278 9.7974 144.278 9.7974 144.278 9.7974C143.991 9.51064 143.586 9.47353 143.269 9.69619C143.258 9.70294 143.252 9.70968 143.241 9.71306C143.228 9.72318 143.214 9.7333 143.201 9.74342C143.181 9.76366 143.16 9.78053 143.14 9.80077C143.14 9.80077 143.137 9.80077 143.137 9.80414L135.228 17.5094V4.62233C135.228 4.59534 135.228 4.56835 135.225 4.54136C135.194 4.24449 134.995 3.99821 134.725 3.88351C134.722 3.88351 134.722 3.88014 134.718 3.88014C134.701 3.87339 134.685 3.86664 134.668 3.86327C134.661 3.8599 134.651 3.85652 134.641 3.85315C134.627 3.84978 134.614 3.8464 134.597 3.84303C134.587 3.83966 134.573 3.83628 134.56 3.83291C134.546 3.82953 134.529 3.82616 134.516 3.82616C134.502 3.82279 134.492 3.82279 134.479 3.81941C134.448 3.81604 134.421 3.81604 134.394 3.81604C133.952 3.81604 133.584 4.18376 133.584 4.62233V22.9004C133.584 23.3423 133.952 23.71 134.394 23.71C134.421 23.71 134.452 23.71 134.479 23.7067C134.482 23.7067 134.485 23.7033 134.492 23.7033C134.516 23.6999 134.539 23.6999 134.56 23.6932C134.566 23.6932 134.573 23.6898 134.58 23.6898C134.6 23.6831 134.62 23.6797 134.641 23.6729C134.644 23.6729 134.647 23.6696 134.651 23.6696C134.961 23.5717 135.191 23.3052 135.225 22.9847C135.228 22.9577 135.228 22.9307 135.228 22.9004V19.8169L137.891 17.1585L143.066 23.3997C143.1 23.4536 143.137 23.5009 143.184 23.538C143.194 23.5481 143.201 23.5549 143.211 23.5616C143.225 23.5717 143.238 23.5818 143.252 23.5886C143.269 23.6021 143.285 23.6088 143.302 23.619C143.309 23.6223 143.319 23.6291 143.326 23.6324C143.35 23.6426 143.37 23.6493 143.393 23.6594C143.4 23.6628 143.407 23.6628 143.41 23.6662C143.437 23.6729 143.461 23.6797 143.488 23.6864C143.491 23.6864 143.498 23.6898 143.505 23.6898C143.532 23.6965 143.555 23.6999 143.586 23.7033C143.593 23.7033 143.599 23.7033 143.606 23.7067C143.64 23.7067 143.674 23.71 143.711 23.71C143.765 23.71 143.815 23.7067 143.863 23.6999C143.866 23.6999 143.866 23.6999 143.866 23.6999C143.96 23.6864 144.048 23.6561 144.129 23.6156C144.133 23.6156 144.133 23.6122 144.133 23.6122C144.17 23.592 144.207 23.5683 144.244 23.5414L144.254 23.5312C144.561 23.2242 144.609 22.8059 144.386 22.4584C144.366 22.4281 144.345 22.3977 144.322 22.3674L139.066 15.9879L144.285 10.9478C144.423 10.8061 144.507 10.634 144.528 10.4485C144.528 10.4451 144.528 10.4418 144.531 10.4384C144.531 10.4215 144.531 10.4013 144.531 10.3844C144.531 10.3743 144.534 10.3642 144.534 10.3574C144.534 10.3507 144.534 10.3473 144.534 10.3439C144.534 10.3304 144.531 10.3203 144.531 10.3068C144.531 10.2967 144.528 10.2866 144.528 10.2764Z" fill="#29B5E8"/>
</g>
<defs>
<clipPath id="clip0_48_113">
<rect width="159" height="38" fill="white"/>
</clipPath>
</defs>
</svg>
