<svg width="126" height="32" viewBox="0 0 126 32" fill="none" xmlns="http://www.w3.org/2000/svg">
<path fill-rule="evenodd" clip-rule="evenodd" d="M114.5 27.784C115.168 27.4712 115.669 27.0123 116.002 26.4282V14.7472C115.898 14.4344 115.669 14.1006 115.314 13.7669C114.959 13.4331 114.542 13.1411 114.104 12.9325C113.645 12.7239 113.228 12.5988 112.832 12.5988C110.913 12.5988 109.536 13.308 108.722 14.7472C107.909 16.1656 107.492 18.2098 107.492 20.838C107.492 25.7816 109.161 28.2638 112.498 28.2638C113.165 28.2638 113.833 28.1178 114.5 27.784ZM104.613 29.7239C103.299 28.7853 102.34 27.5337 101.735 26.011C101.13 24.4675 100.838 22.7571 100.838 20.8589C100.838 19.0233 101.213 17.3337 101.985 15.7693C102.736 14.2049 103.883 12.9534 105.385 11.9939C106.908 11.0344 108.743 10.5546 110.913 10.5546C112.039 10.5546 112.978 10.638 113.749 10.8258C114.521 10.9926 115.335 11.3472 116.169 11.8687L115.981 4.33865C115.981 3.48344 115.648 2.85767 114.959 2.52392C114.271 2.19018 113.291 1.96074 111.997 1.8773C111.851 1.81472 111.726 1.73129 111.643 1.60613C111.559 1.48098 111.518 1.31411 111.518 1.10552C111.518 0.917792 111.559 0.73006 111.643 0.542329C111.747 0.354599 111.851 0.250305 111.976 0.229446C114.021 0.104293 116.67 0.020857 119.903 0.020857H121.53C121.676 0.020857 121.801 0.0834356 121.926 0.208589C122.051 0.333742 122.114 0.54233 122.114 0.813496V27.1374C122.114 27.6589 122.218 28.0552 122.448 28.3264C122.656 28.5975 122.927 28.7644 123.219 28.8479C123.511 28.9313 123.887 28.9939 124.325 29.0564C124.617 29.0773 124.805 29.1399 124.888 29.2233C124.992 29.3067 125.034 29.4945 125.034 29.7865C125.034 29.9534 124.972 30.1411 124.846 30.308C124.721 30.4957 124.554 30.5791 124.367 30.5791H117.567C117.066 30.5791 116.711 30.4957 116.503 30.3497C116.294 30.2037 116.148 29.9742 116.107 29.7239C116.065 29.4528 116.065 29.0356 116.065 28.4307C115.439 29.3068 114.5 29.9742 113.291 30.4331C112.122 30.892 110.871 31.1215 109.599 31.1215C107.617 31.1423 105.927 30.6626 104.613 29.7239ZM65.044 13.746C64.5851 12.7239 63.855 12.2233 62.8329 12.2233C61.7691 12.2233 60.8513 12.7448 60.0795 13.8086C59.3078 14.8724 58.8489 16.4994 58.6611 18.6896H65.7323C65.7323 16.416 65.5029 14.7681 65.044 13.746ZM54.6771 28.4307C52.8206 26.6368 51.882 24.0294 51.882 20.6503C51.882 18.5227 52.3826 16.708 53.3838 15.1853C54.3851 13.6626 55.72 12.5153 57.3887 11.7227C59.0575 10.9509 60.893 10.5546 62.8955 10.5546C65.8157 10.5546 67.9851 11.1178 69.4243 12.265C70.8636 13.4123 71.7605 15.0601 72.136 17.2712C72.2611 17.9804 72.3029 19.065 72.3029 20.5252L58.5986 20.546C58.5986 22.465 58.8906 24.0086 59.4955 25.1975C60.0795 26.3865 60.8513 27.2209 61.7691 27.7423C62.666 28.2429 63.6673 28.5141 64.6894 28.5141C65.8992 28.5141 66.9213 28.3472 67.7348 28.0344C68.5483 27.7215 69.2783 27.2 69.8832 26.4699C69.9249 26.4282 69.9458 26.3865 69.9875 26.3448C70.0292 26.2822 70.0918 26.2196 70.1752 26.1988C70.2378 26.1779 70.3213 26.1571 70.3838 26.1779L71.2599 26.5951C71.3851 26.6368 71.4685 26.7202 71.4685 26.8245C71.4685 26.908 71.4268 27.0123 71.3433 27.1583C70.6341 28.389 69.5912 29.3693 68.2145 30.0785C66.8587 30.7877 65.1691 31.1423 63.1667 31.1423C59.3703 31.1423 56.5335 30.2454 54.6771 28.4307ZM74.0341 30.2871C73.9299 30.1202 73.8673 29.9325 73.8673 29.7448C73.8673 29.5153 73.909 29.3485 73.9924 29.2233C74.0967 29.0982 74.2636 29.0356 74.5139 29.0147C75.9114 28.8479 76.5998 28.4307 76.5998 27.7423V15.1853C76.5998 14.5804 76.4955 14.1215 76.266 13.8086C76.0366 13.4957 75.7863 13.2871 75.4943 13.1828C75.2022 13.0785 74.8059 12.9951 74.347 12.9325C73.9716 12.8699 73.7421 12.8491 73.6795 12.8074C73.5335 12.7448 73.4084 12.6613 73.3249 12.5362C73.2415 12.411 73.1998 12.2442 73.1998 12.0147C73.1998 11.827 73.2415 11.6393 73.3249 11.4515C73.4084 11.2638 73.5335 11.1595 73.6795 11.1387C76.7667 10.9509 79.5409 10.8675 82.0231 10.8675C82.1483 10.8675 82.2734 10.9301 82.3986 11.0344C82.5237 11.1595 82.5863 11.3681 82.6071 11.6393V13.8503C82.8992 13.4957 83.4624 13.0577 84.2967 12.5153C85.1311 11.9939 86.0906 11.5141 87.1961 11.1178C88.3016 10.7215 89.3863 10.5129 90.4501 10.5129C92.39 10.5129 93.9335 10.9301 95.0808 11.7644C96.228 12.5988 96.7912 14.1423 96.7912 16.3951V27.0749C96.7912 27.8049 96.9789 28.2847 97.3544 28.5141C97.7299 28.7436 98.1053 28.8687 98.5016 28.9104L99.2943 28.9939C99.5237 29.0147 99.6906 29.0773 99.7949 29.1816C99.8992 29.2859 99.9409 29.4528 99.9409 29.7239C99.9409 29.9117 99.8783 30.0994 99.7532 30.2663C99.6489 30.4331 99.4611 30.5374 99.2525 30.5374H88.6562C88.4476 30.5374 88.2599 30.4331 88.1556 30.2663C88.0305 30.0994 87.9887 29.9117 87.9679 29.7239C87.9679 29.4945 88.0096 29.3067 88.093 29.2025C88.1765 29.0982 88.3433 29.0147 88.5937 28.9939C89.0526 28.9521 89.4906 28.8061 89.9078 28.5767C90.3041 28.3472 90.4918 28.0761 90.4918 27.7215V16.5202C90.4918 16.0613 90.4501 15.6025 90.3667 15.1436C90.2832 14.7472 90.0746 14.3718 89.72 14.038C89.3654 13.7043 88.844 13.5374 88.1348 13.5374C87.4673 13.5374 86.7789 13.6626 86.0697 13.9129C85.3605 14.1632 84.7139 14.4969 84.1299 14.8724C83.5458 15.2479 83.0869 15.6233 82.7532 15.9988V27.0957C82.7532 27.6172 82.8575 28.0135 83.0452 28.2847C83.2329 28.5558 83.4624 28.7227 83.7544 28.827C84.0256 28.9104 84.3802 28.973 84.8182 29.0147C85.1102 29.0356 85.298 29.0982 85.3814 29.1816C85.4857 29.265 85.5274 29.4528 85.5274 29.7448C85.5274 29.9117 85.4648 30.0994 85.3397 30.2663C85.2145 30.454 85.0476 30.5374 84.8599 30.5374H74.493C74.3262 30.5791 74.1384 30.4748 74.0341 30.2871ZM28.374 26.6994C27.5605 27.7006 26.4967 28.2012 25.2035 28.2012C24.39 28.2012 23.7433 27.9509 23.3053 27.4294C22.8464 26.908 22.617 26.3031 22.617 25.5939C22.617 24.3215 22.8881 23.3202 23.4513 22.5902C24.0145 21.8601 24.682 21.3595 25.4955 21.0466C26.309 20.7546 27.2685 20.5043 28.3949 20.3374V26.6994H28.374ZM51.0268 29.2025C50.9225 29.119 50.7348 29.0564 50.4636 29.0356C50.0673 28.9939 49.6501 28.9313 49.2538 28.8479C48.9409 28.7853 48.6489 28.6184 48.4194 28.3681C48.1691 28.1178 48.044 27.7632 48.044 27.3043V0.792639C48.044 0.521473 47.9814 0.312882 47.8562 0.187729C47.7311 0.0625754 47.5851 0 47.4599 0C44.4354 0 41.5151 0.104295 38.6783 0.271166C38.5532 0.292025 38.428 0.375461 38.3446 0.58405C38.2611 0.77178 38.2194 0.959509 38.2194 1.14724C38.2194 1.37669 38.2611 1.54356 38.3446 1.66871C38.428 1.79387 38.5532 1.89816 38.6992 1.93988C38.7618 1.93988 38.9912 1.98159 39.4501 2.06503C39.9924 2.12761 40.4305 2.21104 40.7851 2.31534C41.1188 2.41963 41.4317 2.62822 41.682 2.9411C41.9323 3.25399 42.0575 3.73374 42.0575 4.33865L42.0366 27.9509C42.0366 28.2847 39.8673 28.7644 38.4489 28.7644C37.0096 28.7644 35.2575 28.2847 35.1114 27.9509C34.9654 27.5963 34.9029 27.1791 34.9029 26.6577V16.0405C34.9029 14.9558 34.6108 14.0172 33.9851 13.1828C33.3802 12.3693 32.4415 11.7227 31.1691 11.2429C29.8967 10.7841 28.2697 10.5546 26.3298 10.5546C24.9532 10.5546 23.5556 10.7215 22.0955 11.0552C20.6354 11.389 19.4047 11.9104 18.4035 12.6196C17.4022 13.3288 16.9016 14.2049 16.9016 15.2479C16.9016 16.0613 17.1937 16.7288 17.7986 17.2503C18.1949 17.6049 18.6955 17.8135 19.2378 17.9386C19.8219 18.0221 20.4268 17.8969 20.3642 17.1252C20.3642 17.0626 20.3642 17.0417 20.3642 17C20.2391 15.3939 21.0317 13.7043 23.0341 12.8282C23.1384 12.7865 23.201 12.7656 23.2845 12.7239C23.6391 12.5571 24.39 12.411 25.4746 12.411C26.4341 12.411 27.1851 12.6405 27.6648 13.0785C28.1654 13.5166 28.3949 14.3301 28.3949 15.4982V18.7522C26.1421 18.9816 24.1188 19.3362 22.3458 19.7742C20.5519 20.2123 19.0501 20.9215 17.7986 21.9018C16.547 22.8613 15.9213 24.1755 15.9213 25.7816C15.9213 26.9706 16.2341 27.9509 16.8391 28.7436C17.4231 29.5153 18.2157 30.1202 19.1127 30.4748C20.0096 30.8294 20.9065 31.038 21.8035 31.038C23.201 31.038 24.5151 30.8086 25.7041 30.3497C26.893 29.8908 27.9151 29.2233 28.7495 28.3472V28.4098C28.7495 28.8479 28.8329 29.5571 28.8329 29.5571C28.8329 29.5571 28.9164 30.1202 29.5838 30.4748C30.2513 30.8294 34.7151 30.5583 35.466 30.5583H50.4845C50.693 30.5583 50.8808 30.454 50.9851 30.2871C51.1102 30.1202 51.1519 29.9325 51.1519 29.7448C51.1728 29.4736 51.1311 29.2859 51.0268 29.2025ZM14.5446 28.4724C14.628 28.7018 14.628 28.8479 14.5446 28.8896C14.2108 29.2442 13.7102 29.5988 13.0219 29.9534C12.3335 30.308 11.6035 30.5791 10.8108 30.8086C10.0182 31.038 9.35071 31.1423 8.7458 31.1423C6.84764 31.1423 5.3458 30.7669 4.21942 30.0368C3.09304 29.3067 2.52985 27.9926 2.52985 26.1571V13.0785H0.423101C0.297948 13.0577 0.172795 12.9742 0.0893591 12.7656C0.0685002 12.7031 0.0476407 12.6405 0.0267818 12.5988C-0.140089 11.9104 0.527396 11.7436 0.527396 11.7436C3.73967 10.7423 6.34703 8.38528 7.682 5.29816C7.682 5.29816 7.97402 4.75583 8.45378 4.9227C8.72494 5.02699 8.87095 5.19387 8.87095 5.42331V10.9301H13.2305C13.3765 10.9509 13.5016 11.0344 13.5642 11.1595C13.6476 11.2847 13.6894 11.4515 13.6894 11.6184C13.6894 12.0356 13.6268 12.3693 13.5016 12.6405C13.3765 12.9117 13.2513 13.0577 13.1053 13.0577H8.87095V24.4049C8.87095 25.5313 8.93353 26.3656 9.03782 26.9706C9.14212 27.5546 9.32985 27.9509 9.60102 28.1804C9.85132 28.389 10.2268 28.5141 10.7065 28.5141C11.1446 28.5141 11.6452 28.4307 12.2501 28.2638C12.8341 28.0969 13.3765 27.8883 13.8771 27.638C13.9605 27.5963 14.0648 27.6798 14.2108 27.8675C14.336 28.0344 14.4611 28.2429 14.5446 28.4724Z" fill="#F17176"/>
</svg>
