<svg width="163" height="36" viewBox="0 0 163 36" fill="none" xmlns="http://www.w3.org/2000/svg">
<path fill-rule="evenodd" clip-rule="evenodd" d="M14.2079 5.83409C16.3704 4.65387 17.4516 4.06375 18.639 4.06375C19.8263 4.06375 20.9075 4.65387 23.0701 5.83409L27.2552 8.1182C29.4177 9.29837 30.499 9.8885 31.0926 10.8605C31.6863 11.8325 31.6863 13.0127 31.6863 15.3732V19.9413C31.6863 22.3017 31.6863 23.482 31.0926 24.454C30.499 25.426 29.4177 26.016 27.2552 27.1963L23.07 29.4804C20.9076 30.6606 19.8263 31.2507 18.639 31.2507C17.4517 31.2507 16.3704 30.6606 14.2079 29.4803L10.0228 27.1963C7.86023 26.016 6.77898 25.426 6.18533 24.454C5.59167 23.482 5.59167 22.3017 5.59167 19.9413V15.3732C5.59167 13.0127 5.59167 11.8325 6.18533 10.8605C6.77898 9.8885 7.86023 9.29837 10.0228 8.1182L14.2079 5.83409ZM13.2337 12.8907C12.9248 12.8907 12.6745 13.1278 12.6745 13.4203V15.2903C12.6745 15.5828 12.9248 15.8199 13.2337 15.8199H16.5334C16.8423 15.8199 17.0926 16.057 17.0926 16.3495V23.6595C17.0926 23.952 17.343 24.1891 17.6518 24.1891H19.6262C19.935 24.1891 20.1854 23.952 20.1854 23.6595V16.3495C20.1854 16.057 20.4357 15.8199 20.7445 15.8199H24.0443C24.3531 15.8199 24.6035 15.5828 24.6035 15.2903V13.4203C24.6035 13.1278 24.3531 12.8907 24.0443 12.8907H13.2337Z" fill="#313131"/>
<path fill-rule="evenodd" clip-rule="evenodd" d="M0 16.789C0 8.87619 0 4.91975 2.59538 2.46155C5.19075 0.00335693 9.36797 0.00335693 17.7223 0.00335693H19.5557C27.9101 0.00335693 32.0872 0.00335693 34.6827 2.46155C37.278 4.91975 37.278 8.87619 37.278 16.789V18.5254C37.278 26.4382 37.278 30.3946 34.6827 32.8529C32.0872 35.3111 27.9101 35.3111 19.5557 35.3111H17.7223C9.36797 35.3111 5.19075 35.3111 2.59538 32.8529C0 30.3946 0 26.4382 0 18.5254V16.789ZM17.7223 1.06259H19.5557C23.7645 1.06259 26.8086 1.06484 29.1298 1.36042C31.4188 1.6519 32.8366 2.21105 33.8919 3.21055C34.9471 4.21003 35.5375 5.5529 35.8452 7.72094C36.1573 9.91943 36.1597 12.8026 36.1597 16.789V18.5254C36.1597 22.5117 36.1573 25.395 35.8452 27.5935C35.5375 29.7615 34.9471 31.1044 33.8919 32.1039C32.8366 33.1034 31.4188 33.6625 29.1298 33.954C26.8086 34.2495 23.7645 34.2518 19.5557 34.2518H17.7223C13.5135 34.2518 10.4694 34.2495 8.14825 33.954C5.85924 33.6625 4.44143 33.1034 3.38616 32.1039C2.33089 31.1044 1.74054 29.7615 1.43279 27.5935C1.12072 25.395 1.11834 22.5117 1.11834 18.5254V16.789C1.11834 12.8026 1.12072 9.91943 1.43279 7.72094C1.74054 5.5529 2.33089 4.21003 3.38616 3.21055C4.44143 2.21105 5.85924 1.6519 8.14825 1.36042C10.4694 1.06484 13.5135 1.06259 17.7223 1.06259Z" fill="#313131"/>
<path d="M59.2829 26.6607H56.1963V12.1651H50.0231V9.48523H65.4562V12.1651H59.2829V26.6607Z" fill="#313131"/>
<path d="M70.2793 13.7487C71.9941 13.7487 73.3405 14.2603 74.3178 15.2835C75.3119 16.2905 75.8096 17.7116 75.8096 19.5469V26.6607H73.6234L73.0058 24.663C72.6285 25.2639 72.0712 25.7918 71.3339 26.2466C70.5965 26.6851 69.722 26.9043 68.7102 26.9043C67.8186 26.9043 67.0126 26.7337 66.2924 26.3927C65.5893 26.0516 65.0406 25.5725 64.6462 24.9553C64.2518 24.3382 64.0546 23.6398 64.0546 22.8601C64.0546 21.6583 64.5519 20.7001 65.5465 19.9854C66.5582 19.2545 68.0243 18.8891 69.9449 18.8891H72.8257C72.7572 18.0445 72.4828 17.3787 72.0027 16.8914C71.5396 16.3879 70.9137 16.1362 70.125 16.1362C69.4905 16.1362 68.9417 16.2823 68.4787 16.5747C68.0158 16.867 67.6728 17.2243 67.4499 17.6467L64.7234 17.2081C65.0492 16.1362 65.718 15.2916 66.7297 14.6744C67.7585 14.0572 68.9417 13.7487 70.2793 13.7487ZM69.4048 24.5411C70.4336 24.5411 71.2653 24.2245 71.8998 23.591C72.5342 22.9576 72.8515 22.1212 72.8515 21.0818H70.0478C68.0415 21.0818 67.0383 21.6339 67.0383 22.7384C67.0383 23.2906 67.2527 23.7291 67.6814 24.0539C68.1101 24.3787 68.6845 24.5411 69.4048 24.5411Z" fill="#313131"/>
<path d="M79.0184 26.6607V13.9923H81.2303L81.7967 15.8194C82.2251 15.1536 82.7309 14.6825 83.3142 14.4064C83.9143 14.1304 84.6343 13.9923 85.4748 13.9923H86.0406L86.2979 16.6722H84.5999C82.8508 16.6722 81.9766 17.5086 81.9766 19.1814V26.6607H79.0184Z" fill="#313131"/>
<path d="M93.1877 13.7487C94.9025 13.7487 96.2489 14.2603 97.2262 15.2835C98.221 16.2905 98.718 17.7116 98.718 19.5469V26.6607H96.5318L95.9141 24.663C95.537 25.2639 94.98 25.7918 94.2425 26.2466C93.5049 26.6851 92.6307 26.9043 91.6184 26.9043C90.7274 26.9043 89.9211 26.7337 89.2012 26.3927C88.498 26.0516 87.9491 25.5725 87.5543 24.9553C87.1604 24.3382 86.963 23.6398 86.963 22.8601C86.963 21.6583 87.4601 20.7001 88.4549 19.9854C89.4665 19.2545 90.9328 18.8891 92.8537 18.8891H95.7343C95.6656 18.0445 95.3915 17.3787 94.9113 16.8914C94.4479 16.3879 93.8222 16.1362 93.0335 16.1362C92.399 16.1362 91.8501 16.2823 91.3874 16.5747C90.924 16.867 90.5812 17.2243 90.3582 17.6467L87.6318 17.2081C87.9578 16.1362 88.6266 15.2916 89.6383 14.6744C90.6667 14.0572 91.8501 13.7487 93.1877 13.7487ZM92.3135 24.5411C93.3419 24.5411 94.1738 24.2245 94.8082 23.591C95.4427 22.9576 95.7599 22.1212 95.7599 21.0818H92.956C90.9496 21.0818 89.9467 21.6339 89.9467 22.7384C89.9467 23.2906 90.1609 23.7291 90.5899 24.0539C91.0183 24.3787 91.5928 24.5411 92.3135 24.5411Z" fill="#313131"/>
<path d="M101.927 26.6607V13.9923H104.139L104.731 15.8926C105.159 15.2266 105.725 14.7069 106.428 14.3333C107.149 13.9436 107.92 13.7487 108.743 13.7487C109.703 13.7487 110.57 13.976 111.341 14.4308C112.113 14.8856 112.721 15.5109 113.167 16.3067C113.613 17.1026 113.836 18.004 113.836 19.0109V26.6607H110.878V19.3276C110.878 18.4181 110.604 17.6791 110.055 17.1107C109.506 16.5422 108.804 16.258 107.946 16.258C107.054 16.258 106.317 16.5503 105.734 17.135C105.168 17.7035 104.885 18.4344 104.885 19.3276V26.6607H101.927Z" fill="#313131"/>
<path d="M125.022 24.2245L124.765 26.6607H122.27C120.812 26.6607 119.706 26.3359 118.952 25.6862C118.198 25.0203 117.821 24.0621 117.821 22.8115V16.4285H115.634V13.9923H117.821L118.566 10.338H120.779V13.9923H124.765V16.4285H120.779V22.8115C120.779 23.7534 121.276 24.2245 122.27 24.2245H125.022Z" fill="#313131"/>
<path d="M133.475 26.9043C132.103 26.9043 130.868 26.6282 129.771 26.076C128.691 25.5075 127.842 24.7279 127.225 23.7372C126.625 22.7303 126.324 21.5934 126.324 20.3265C126.324 19.0597 126.625 17.9309 127.225 16.9402C127.842 15.9331 128.691 15.1536 129.771 14.6013C130.868 14.0329 132.103 13.7487 133.475 13.7487C134.847 13.7487 136.073 14.0329 137.153 14.6013C138.251 15.1536 139.1 15.9331 139.7 16.9402C140.317 17.9309 140.626 19.0597 140.626 20.3265C140.626 21.5934 140.317 22.7303 139.7 23.7372C139.1 24.7279 138.251 25.5075 137.153 26.076C136.073 26.6282 134.847 26.9043 133.475 26.9043ZM133.475 24.3463C134.675 24.3463 135.653 23.9809 136.408 23.25C137.162 22.5029 137.539 21.5284 137.539 20.3265C137.539 19.1246 137.162 18.1583 136.408 17.4274C135.653 16.6803 134.675 16.3067 133.475 16.3067C132.275 16.3067 131.298 16.6803 130.543 17.4274C129.788 18.1583 129.411 19.1246 129.411 20.3265C129.411 21.5284 129.788 22.5029 130.543 23.25C131.298 23.9809 132.275 24.3463 133.475 24.3463Z" fill="#313131"/>
<path d="M149.576 26.9043C148.205 26.9043 146.97 26.6282 145.873 26.076C144.792 25.5075 143.944 24.7279 143.326 23.7372C142.726 22.7303 142.425 21.5934 142.425 20.3265C142.425 19.0597 142.726 17.9309 143.326 16.9402C143.944 15.9331 144.792 15.1536 145.873 14.6013C146.97 14.0329 148.205 13.7487 149.576 13.7487C150.948 13.7487 152.174 14.0329 153.254 14.6013C154.352 15.1536 155.201 15.9331 155.801 16.9402C156.419 17.9309 156.727 19.0597 156.727 20.3265C156.727 21.5934 156.419 22.7303 155.801 23.7372C155.201 24.7279 154.352 25.5075 153.254 26.076C152.174 26.6282 150.948 26.9043 149.576 26.9043ZM149.576 24.3463C150.777 24.3463 151.754 23.9809 152.509 23.25C153.263 22.5029 153.64 21.5284 153.64 20.3265C153.64 19.1246 153.263 18.1583 152.509 17.4274C151.754 16.6803 150.777 16.3067 149.576 16.3067C148.376 16.3067 147.399 16.6803 146.644 17.4274C145.889 18.1583 145.512 19.1246 145.512 20.3265C145.512 21.5284 145.889 22.5029 146.644 23.25C147.399 23.9809 148.376 24.3463 149.576 24.3463Z" fill="#313131"/>
<path d="M162.385 26.6607H159.427V9.48523H162.385V26.6607Z" fill="#313131"/>
</svg>
