<svg width="189" height="27" viewBox="0 0 189 27" fill="none" xmlns="http://www.w3.org/2000/svg">
<path d="M11.4457 23.625V20.1735C11.4457 17.5703 11.124 16.8098 10.1295 14.6453L4.92299 3.29626H1.23749L7.90649 17.8043V23.625H11.4457ZM13.7565 13.1243L18.0855 3.29626H14.4877L10.1587 13.1243H13.7565ZM50.7285 23.9175C52.3665 23.9175 53.712 23.157 54.648 21.7238L54.8235 23.625H58.041V3.29626H54.5602V10.638C53.6827 9.32176 52.3957 8.61976 50.8747 8.61976C47.511 8.61976 45.171 11.457 45.171 16.371C45.171 21.2265 47.4525 23.9175 50.7285 23.9175ZM72.1102 22.6305V19.7933C71.028 20.5245 69.2145 21.168 67.518 21.168C64.9732 21.168 64.008 19.9688 63.8617 17.5118H72.2565V15.669C72.2565 10.5503 70.0042 8.61976 66.5235 8.61976C62.2822 8.61976 60.264 11.8665 60.264 16.3125C60.264 21.4313 62.7795 23.9175 67.2255 23.9175C69.4485 23.9175 71.0865 23.3325 72.1102 22.6305ZM28.323 13.5923C28.323 10.0238 26.5095 8.67826 22.824 8.67826C20.5425 8.67826 18.6997 9.64352 17.6467 10.404V13.4168C18.7582 12.51 20.4547 11.457 22.4145 11.457C24.0817 11.457 24.8422 12.042 24.8422 13.6215V14.5575H24.2865C18.963 14.5575 16.5937 16.2833 16.5937 19.3545C16.5937 22.1918 18.4072 23.8298 21.0982 23.8298C23.1457 23.8298 24.0232 23.157 24.696 22.455H24.8422C24.8715 22.8353 24.9885 23.3325 25.1055 23.625H28.4985C28.3815 22.4258 28.323 21.2265 28.323 20.0273V13.5923ZM34.641 13.0658C35.2845 12.276 36.3082 11.6033 37.566 11.6033C38.7945 11.6033 39.3502 12.1298 39.3502 13.2413V23.625H42.831V12.8903C42.831 9.96526 41.661 8.67826 38.8237 8.67826C36.747 8.67826 35.5185 9.43876 34.8165 10.1408H34.641L34.5532 8.91226H31.1602V23.625H34.641V13.0658ZM82.8157 23.625H86.7352L81.9382 16.0493L86.0917 8.91226H82.611L80.0955 13.3583L77.2875 8.91226H73.368L77.814 15.9615L73.1925 23.625H76.7317L79.686 18.6525L82.8157 23.625ZM51.7522 11.3693C53.6242 11.3693 54.5602 12.861 54.5602 16.254C54.5602 19.6763 53.5657 21.168 51.606 21.168C49.7047 21.168 48.7687 19.7055 48.7687 16.371C48.7687 12.8903 49.7632 11.3693 51.7522 11.3693ZM66.465 11.3693C68.1907 11.3693 68.7172 12.8025 68.7172 14.6453V14.9378H63.8617C63.9495 12.5978 64.7977 11.3693 66.465 11.3693ZM24.8422 20.115C24.4035 20.7585 23.5845 21.285 22.356 21.285C20.8935 21.285 20.1622 20.4368 20.1622 19.1498C20.1622 17.4533 21.3615 16.8683 24.345 16.8683H24.8422V20.115Z" fill="black"/>
<path d="M96.75 13.5C96.75 8.52943 100.78 4.5 105.75 4.5C110.72 4.5 114.75 8.52943 114.75 13.5C114.75 18.4706 110.72 22.5 105.75 22.5C100.78 22.5 96.75 18.4706 96.75 13.5Z" fill="white"/>
<path d="M105.75 27C102.395 26.919 101.067 24.6764 100.662 22.5106C100.442 21.3332 100.538 19.3756 100.662 18.6769C100.863 17.538 101.187 15.9012 101.546 14.0019C102.059 11.2802 103.422 9.73219 106.364 9.18016L111.175 8.26126C111.303 7.54706 111.544 5.65555 111.324 4.48969C110.915 2.30083 109.228 0.034744 105.804 0C98.3457 6.52032e-07 92.25 6.04161 92.25 13.5C92.25 20.9584 98.2915 27 105.75 27Z" fill="#9EB9FF"/>
<path d="M105.75 0C109.105 0.0810695 110.765 2.32785 111.17 4.49356C111.39 5.67101 110.961 7.62439 110.838 8.32313C110.637 9.46197 110.313 11.0988 109.954 12.9981C109.44 15.7198 108.078 17.2678 105.136 17.8198L100.658 18.699C100.531 19.4132 100.11 21.3434 100.33 22.5092C100.739 24.698 102.272 26.9653 105.696 27C113.154 27 119.25 20.9584 119.25 13.5C119.25 6.04161 113.208 0 105.75 0Z" fill="#5282FF"/>
<path d="M132.701 23.9175C134.894 23.9175 136.386 23.1278 137.293 22.5135V19.6763C136.123 20.5245 134.836 21.168 132.964 21.168C129.746 21.168 128.225 18.5648 128.225 13.4753C128.225 8.2395 129.688 5.75325 133.139 5.75325C134.748 5.75325 136.24 6.45525 137.293 7.128V4.29075C136.357 3.618 134.836 3.00375 132.964 3.00375C127.552 3.00375 124.628 6.98175 124.628 13.4753C124.628 20.1443 127.67 23.9175 132.701 23.9175Z" fill="black"/>
<path d="M143.118 3.29626H139.637V23.625H143.118V3.29626Z" fill="black"/>
<path d="M151.945 8.61975C148.113 8.61975 145.451 11.34 145.451 16.2833C145.451 21.1973 148.113 23.9175 151.945 23.9175C155.776 23.9175 158.438 21.1973 158.438 16.254C158.438 11.34 155.776 8.61975 151.945 8.61975ZM151.945 21.168C150.014 21.168 149.049 19.6763 149.049 16.2833C149.049 12.861 150.014 11.3693 151.945 11.3693C153.875 11.3693 154.84 12.861 154.84 16.254C154.84 19.6763 153.875 21.168 151.945 21.168Z" fill="black"/>
<path d="M168.819 19.4715C168.176 20.2613 167.152 20.934 165.894 20.934C164.666 20.934 164.11 20.4075 164.11 19.296V8.91226H160.629V19.647C160.629 22.572 161.799 23.859 164.636 23.859C166.713 23.859 167.942 23.0985 168.644 22.3965H168.819L168.907 23.625H172.3V8.91226H168.819V19.4715Z" fill="black"/>
<path d="M180.201 23.9175C181.839 23.9175 183.185 23.157 184.121 21.7238L184.296 23.625H187.514V3.29626H184.033V10.638C183.156 9.32176 181.869 8.61976 180.348 8.61976C176.984 8.61976 174.644 11.457 174.644 16.371C174.644 21.2265 176.925 23.9175 180.201 23.9175ZM181.225 11.3693C183.097 11.3693 184.033 12.861 184.033 16.254C184.033 19.6763 183.039 21.168 181.079 21.168C179.178 21.168 178.242 19.7055 178.242 16.371C178.242 12.8903 179.236 11.3693 181.225 11.3693Z" fill="black"/>
</svg>
