<svg viewBox="0 0 63 67" fill="none" xmlns="http://www.w3.org/2000/svg">
<path fill-rule="evenodd" clip-rule="evenodd" d="M33.3721 2.10049C33.3721 0.940423 34.3125 0 35.4726 0C50.5241 0 62.5505 12.3342 62.5505 27.0779C62.5505 28.238 61.61 29.1784 60.45 29.1784H35.4726C34.3125 29.1784 33.3721 28.238 33.3721 27.0779V2.10049ZM37.5731 4.29682V24.9774H58.2524C57.2487 14.1541 48.5733 5.30554 37.5731 4.29682Z" fill="#DCD3EE"/>
<path fill-rule="evenodd" clip-rule="evenodd" d="M1.2811 31.4252C4.8863 20.3092 15.3932 12.4888 27.1464 12.4888C28.3065 12.4888 29.2469 13.4292 29.2469 14.5893V38.838L44.3372 57.9702C44.6842 58.4102 44.8411 58.9706 44.7728 59.5268C44.7046 60.083 44.4169 60.5889 43.9738 60.9319C34.6434 68.1555 21.4311 68.4542 11.8026 61.8346L11.7915 61.8269C1.89755 54.9311 -2.33746 42.8838 1.27615 31.4407L1.28104 31.4252L1.2811 31.4252ZM5.27968 32.7136C2.23768 42.358 5.77155 52.5071 14.188 58.3766C21.7391 63.5646 31.9403 63.7134 39.6637 58.8285L25.4972 40.8675C25.2049 40.4969 25.046 40.0387 25.046 39.5667V16.7893C16.0126 17.6468 8.11931 23.9686 5.27968 32.7136Z" fill="#DCD3EE"/>
<path fill-rule="evenodd" clip-rule="evenodd" d="M33.5826 34.4876C33.9337 33.7635 34.6678 33.3036 35.4726 33.3036H60.45C61.6101 33.3036 62.5505 34.244 62.5505 35.4041C62.5505 43.8274 58.6417 51.6362 52.3357 56.741C51.8991 57.0944 51.3392 57.2583 50.781 57.1959C50.2227 57.1336 49.7127 56.8502 49.3649 56.4092L33.8233 36.7049C33.3249 36.073 33.2314 35.2118 33.5826 34.4876ZM39.8045 37.5046L51.2854 52.0606C55.2041 48.2441 57.7403 43.0886 58.2532 37.5046H39.8045Z" fill="#DCD3EE"/>
</svg>
