<svg viewBox="0 0 25 25" fill="none" xmlns="http://www.w3.org/2000/svg">
<path d="M11.5097 13.0405C11.5097 12.2405 12.2097 11.5405 13.0097 11.5405H22.0097C22.8097 11.5405 23.5097 12.2405 23.5097 13.0405V22.0405C23.5097 22.8405 22.8097 23.5405 22.0097 23.5405H13.0097C12.2097 23.5405 11.5097 22.8405 11.5097 22.0405V13.0405Z" stroke="#2F035B" stroke-width="1.5" stroke-linecap="round" stroke-linejoin="round"/>
<path d="M14.5097 14.5405H20.5097" stroke="#2F035B" stroke-width="1.5" stroke-linecap="round" stroke-linejoin="round"/>
<path d="M14.5097 17.5405H20.5097" stroke="#2F035B" stroke-width="1.5" stroke-linecap="round" stroke-linejoin="round"/>
<path d="M14.5097 20.5405H16.7097" stroke="#2F035B" stroke-width="1.5" stroke-linecap="round" stroke-linejoin="round"/>
<path d="M22.7098 8.54052C22.0098 7.44052 20.9098 6.64057 19.6098 6.34057C18.3098 6.04057 17.0098 6.34061 15.9098 7.14061C15.2098 3.24061 11.5098 0.640517 7.60976 1.04052C3.70975 1.44052 0.809749 5.04054 1.00975 8.94054C1.20975 12.9405 4.50975 15.9405 8.50975 15.9405" stroke="#2F035B" stroke-width="1.5" stroke-linecap="round" stroke-linejoin="round"/>
</svg>
