<svg xmlns="http://www.w3.org/2000/svg" viewBox="0 0 24.04 24"><defs><style>.cls-1{fill:none;stroke:#fff;stroke-linecap:round;stroke-linejoin:round;stroke-width:1.5px;}</style></defs><title>commercecloud</title><g id="Слой_2" data-name="Слой 2"><g id="Слой_1-2" data-name="Слой 1"><path class="cls-1" d="M21,15.85a5.2,5.2,0,0,0-10.4,0,5.16,5.16,0,0,0,5.2,5.2,5.23,5.23,0,0,0,5.2-5.2"/><path class="cls-1" d="M23.29,23.25l-3.8-3.8"/><path class="cls-1" d="M7.49,17.25H4.29a1.5,1.5,0,0,1-1.4-1.1l-2.1-9A2,2,0,0,1,1,5.85a1.38,1.38,0,0,1,1.1-.6h18.1a1.15,1.15,0,0,1,1.1.6"/><path class="cls-1" d="M3.79,5.25,8.29.75"/><path class="cls-1" d="M18.79,5.25,14.29.75"/></g></g></svg>