<svg xmlns="http://www.w3.org/2000/svg" viewBox="0 0 24.07 24.1"><defs><style>.cls-1{fill:none;stroke:#fff;stroke-linecap:round;stroke-linejoin:round;stroke-width:1.5px;}</style></defs><title>expiriencecloud</title><g id="Слой_2" data-name="Слой 2"><g id="Слой_1-2" data-name="Слой 1"><path class="cls-1" d="M6,6.75a3,3,0,0,0,3-3,3,3,0,0,0-3-3,3,3,0,0,0-3,3A3,3,0,0,0,6,6.75Z"/><path class="cls-1" d="M9.65,9.75a5.23,5.23,0,0,0-8.9,3.7v2.2H3l.8,7.5h4.5l.5-5.2"/><path class="cls-1" d="M17.25,18.05a1.5,1.5,0,1,0-1.5-1.5A1.54,1.54,0,0,0,17.25,18.05Z"/><path class="cls-1" d="M18.55,10.75l.4,1.5a1.09,1.09,0,0,0,1.2.7l1.5-.3a1.43,1.43,0,0,1,1.5.6,1.38,1.38,0,0,1-.2,1.6L22,16a1,1,0,0,0,0,1.4l1,1.1a1.36,1.36,0,0,1,.2,1.6,1.29,1.29,0,0,1-1.5.6l-1.5-.3a1.09,1.09,0,0,0-1.2.7l-.4,1.4a1.29,1.29,0,0,1-1.3.9,1.42,1.42,0,0,1-1.3-.9l-.4-1.5a1.09,1.09,0,0,0-1.2-.7l-1.5.3a1.43,1.43,0,0,1-1.5-.6,1.36,1.36,0,0,1,.2-1.6l1-1.1a1,1,0,0,0,0-1.4l-1-1.1a1.36,1.36,0,0,1-.2-1.6,1.29,1.29,0,0,1,1.5-.6l1.5.3a1.09,1.09,0,0,0,1.2-.7l.4-1.5a1.29,1.29,0,0,1,1.3-.9A1.52,1.52,0,0,1,18.55,10.75Z"/><path class="cls-1" d="M16.45,6.05a2.65,2.65,0,0,0,2.6-2.6,2.6,2.6,0,0,0-5.2,0A2.65,2.65,0,0,0,16.45,6.05Z"/><path class="cls-1" d="M20.35,9.05a4.22,4.22,0,0,0-3.5-2.2,4.52,4.52,0,0,0-3.8,1.5"/></g></g></svg>