<svg xmlns="http://www.w3.org/2000/svg" viewBox="0 0 21.52 21.52"><defs><style>.cls-1{fill:none;stroke:#fff;stroke-linecap:round;stroke-linejoin:round;stroke-width:1.5px;}</style></defs><title>marketingcloud</title><g id="Слой_2" data-name="Слой 2"><g id="Слой_1-2" data-name="Слой 1"><path class="cls-1" d="M12,16.27a8.09,8.09,0,0,0-6.3-14.9A8.13,8.13,0,0,0,1.37,12,8.16,8.16,0,0,0,12,16.27Z"/><path class="cls-1" d="M14.57,14.57l6.2,6.2"/><path class="cls-1" d="M8.87,12.17a3.3,3.3,0,1,0-3.3-3.3A3.27,3.27,0,0,0,8.87,12.17Z"/><path class="cls-1" d="M8.87,5.57V4"/><path class="cls-1" d="M8.87,13.77v-1.6"/><path class="cls-1" d="M12.17,8.87h1.6"/><path class="cls-1" d="M3.87,8.87h1.6"/><path class="cls-1" d="M5.67,5.37l1,1"/><path class="cls-1" d="M12,5.37l-1,1"/><path class="cls-1" d="M5.67,12.37l1-1"/><path class="cls-1" d="M12,12.37l-1-1"/><path class="cls-1" d="M8.87,8.17a.7.7,0,1,1-.7.7A.68.68,0,0,1,8.87,8.17Z"/></g></g></svg>