<svg xmlns="http://www.w3.org/2000/svg" viewBox="0 0 540.57 551.22"><defs><style>.cls-1{fill:#068b01;}.cls-2{fill:#fff;}</style></defs><title>offers</title><g id="Слой_2" data-name="Слой 2"><g id="Слой_1-2" data-name="Слой 1"><path class="cls-1" d="M71.57,0H455.48a85.09,85.09,0,0,1,85.09,85.08V459.51c0,25.86-5.85,51.75-19.25,73.86-2.37,3.91-5.07,6.67-8.35,7.4-14.47,3.3-36-34.75-51-33.1-14.67,1.65-27.33,43.55-42.42,43.55s-27.75-41.9-42.42-43.55c-15-1.65-36.55,36.4-51,33.1-14.67-3.29-17.66-46.95-31.61-51.89-14.16-4.94-43.7,27.34-57.09,20.85s-6.64-49.73-19.26-57.66S169.58,469,158,459.69s4.63-49.94-5.92-60.49-51.17,5.71-60.49-5.92,15.54-47.68,7.56-60.34S48,327.22,41.5,313.73s25.79-42.93,20.79-57.09c-4.89-14-48.54-17-51.84-31.61-3.29-14.47,34.75-36,33.1-51C41.91,159.39,0,146.72,0,131.64s41.91-27.75,43.55-42.42c1.65-15-36.39-36.55-33.1-51,3.3-14.67,47-17.66,51.89-31.61h0A10.43,10.43,0,0,1,71.57,0Z"/><path class="cls-2" d="M200.07,118.93A43.05,43.05,0,0,1,187,90l14.15-1.27q1.26,13.29,8.76,20.79a13.25,13.25,0,0,0,6.51,4,5.69,5.69,0,0,0,5.44-1.63,5.58,5.58,0,0,0,1.45-5.41q-.66-3.28-5.12-10.85a82.36,82.36,0,0,1-4.78-8.95,32.31,32.31,0,0,1-2.26-7.7A14.15,14.15,0,0,1,212,71.2a22.23,22.23,0,0,1,5.1-7.28,19,19,0,0,1,15.66-6q8.94.73,16.58,8.37A40.4,40.4,0,0,1,261.38,91l-13.86,2.55q-2.11-11.88-8-17.75a10.94,10.94,0,0,0-5.94-3.46,5.4,5.4,0,0,0-4.88,1.55,5.54,5.54,0,0,0-1.55,5.66q.84,3.26,5.72,11.52,5.94,10.19,6.44,17.33t-5.73,13.36q-7.22,7.21-16.26,6.3T200.07,118.93Z"/><path class="cls-2" d="M216,156.06l49.22-49.22L276,117.59,270.5,123q10.68-1.64,18,5.65a23,23,0,0,1,6.86,17.47q-.21,10.4-9.33,19.51t-19.38,9.27A23,23,0,0,1,249.15,168,20.89,20.89,0,0,1,243,150.54l-16.27,16.27Zm35.93-9.41a12,12,0,0,0,3.6,9.48,12.15,12.15,0,0,0,9.51,3.64q5.63-.26,10.36-5a15.15,15.15,0,0,0,4.85-10.21,12.12,12.12,0,0,0-3.65-9.51,11.94,11.94,0,0,0-9.47-3.61q-5.6.28-10.32,5A15.21,15.21,0,0,0,251.91,146.65Z"/><path class="cls-2" d="M292.14,211.28q-8.62-8.62-8.73-19.69t8.66-19.84a28.06,28.06,0,0,1,19.3-8.69,24.76,24.76,0,0,1,19.17,7.7q9,9,7.77,19.66t-9.9,19.38c-.56.56-1.55,1.46-3,2.68l-26.37-26.37a13,13,0,0,0-2.33,8.7,13.44,13.44,0,0,0,4.17,8q5,5,13.08,5.3l.71,11.6Q301.89,221,292.14,211.28Zm13.51-32,16.19,16.19a14.55,14.55,0,0,0,3.29-8.45,10.12,10.12,0,0,0-3.22-7.6,10.37,10.37,0,0,0-7.57-3.25A15,15,0,0,0,305.65,179.25Z"/><path class="cls-2" d="M335.41,254.56q-8.48-8.49-8.37-19.84a28.49,28.49,0,0,1,28-27.93q11.41-.1,20,8.45A27.34,27.34,0,0,1,383.43,237l-12.66.07a17.79,17.79,0,0,0-5.09-12.59,11.74,11.74,0,0,0-9.62-3.53,16.74,16.74,0,0,0-14.85,14.92,12.55,12.55,0,0,0,4,10q4.45,4.46,12.73,4.66l-.07,12.66A32.59,32.59,0,0,1,346,261.63,28,28,0,0,1,335.41,254.56Z"/><path class="cls-2" d="M359.24,276.69l37.9-37.9,10.75,10.74L370,287.44ZM401,234.33l9.55-9.54,11.31,11.31-9.54,9.55Z"/><path class="cls-2" d="M390.14,309A19.77,19.77,0,0,1,384,296.59q-.6-6.82,4.91-12.34,6-6,13.19-4.91t14.18,8.1a40.08,40.08,0,0,1,7.7,10.81l.64-.63q6.93-6.93-1.2-15.06a43,43,0,0,0-12.52-8.42l5.52-10.89a51.36,51.36,0,0,1,17.75,11.67q8.55,8.55,8.55,17,0,8.21-8,16.19l-22,22-10.39-10.39,4.1-4.1Q397.29,316.15,390.14,309Zm10.68-4.17a13.33,13.33,0,0,0,8,4.21,8.3,8.3,0,0,0,7.1-2.44l1.91-1.91a22.68,22.68,0,0,0-5.44-8.27q-3.54-3.54-6.86-4.11a6.5,6.5,0,0,0-5.94,2.06,5.59,5.59,0,0,0-1.73,5A9.59,9.59,0,0,0,400.82,304.83Z"/><path class="cls-2" d="M422.46,339.9l51.62-51.62L484.83,299l-51.62,51.62Z"/><path class="cls-2" d="M179,256.43q-11.64-.18-20.4-8.94t-8.91-20.3a27.81,27.81,0,0,1,28.11-28q11.63.17,20.4,8.94t8.91,20.3a27.83,27.83,0,0,1-28.11,28Zm-11-18.07a12.9,12.9,0,0,0,10.15,4.14,15.25,15.25,0,0,0,10.15-4.77,15,15,0,0,0,4.59-10.18,13.09,13.09,0,0,0-4.1-10.26,12.85,12.85,0,0,0-10.14-4.13,15.23,15.23,0,0,0-10.15,4.77,15,15,0,0,0-4.6,10.18A13.09,13.09,0,0,0,168,238.36Z"/><path class="cls-2" d="M189.68,276.83l28.71-28.71-4.46-4.45,8.84-8.84,4.46,4.45,2.4-2.4q6.15-6.15,12.23-6.15t11.67,5.72a35.62,35.62,0,0,1,6.58,8.7l-8.91,8.91a20.6,20.6,0,0,0-4-5.8q-3.9-3.88-8,.21L237.76,250l8.7,8.7-8.77,8.77-8.55-8.56-28.71,28.71Z"/><path class="cls-2" d="M216.69,303.84l28.71-28.71-4.46-4.45,8.84-8.84,4.46,4.45,2.4-2.4q6.15-6.15,12.24-6.15,5.92,0,11.66,5.73a35.39,35.39,0,0,1,6.58,8.69l-8.91,8.91a20.39,20.39,0,0,0-4-5.8q-3.88-3.88-8,.22L264.77,277l8.7,8.7-8.77,8.77-8.55-8.56-28.71,28.71Z"/><path class="cls-2" d="M259,347.82q-8.63-8.62-8.73-19.69t8.66-19.83a28.05,28.05,0,0,1,19.31-8.7,24.74,24.74,0,0,1,19.16,7.7q9,9,7.78,19.66t-9.9,19.38c-.57.56-1.56,1.46-3,2.68L265.9,322.65a13.1,13.1,0,0,0-2.33,8.7,13.41,13.41,0,0,0,4.17,8,18.72,18.72,0,0,0,13.08,5.3l.71,11.6Q268.74,357.58,259,347.82Zm13.51-32L288.67,332a14.48,14.48,0,0,0,3.29-8.45,10.08,10.08,0,0,0-3.22-7.6,10.35,10.35,0,0,0-7.56-3.25A15,15,0,0,0,272.48,315.79Z"/><path class="cls-2" d="M285.21,372.36l37.9-37.9,10.75,10.75-7.64,7.63q12.38-5,20.44,3.75l-11.25,11.24-.56-.56q-5.52-5.52-11.88-5.16t-13,7l-14,14Z"/></g></g></svg>