<svg xmlns="http://www.w3.org/2000/svg" viewBox="0 0 18.92 23.83"><defs><style>.cls-1{fill:none;stroke:#fff;stroke-linecap:round;stroke-linejoin:round;stroke-width:1.5px;}</style></defs><title>salesforceplatform</title><g id="Слой_2" data-name="Слой 2"><g id="Слой_1-2" data-name="Слой 1"><path class="cls-1" d="M13.15,9.87a1.56,1.56,0,0,1-.5-1.69A1.63,1.63,0,0,1,13.85,7a1.75,1.75,0,0,1,1.7.5,1.93,1.93,0,0,1,.4.59l.3.3a.59.59,0,0,0,.4-.09L18,7a.91.91,0,0,0,0-1.2l-1.4-1.41a2.14,2.14,0,0,0,.8-.39,1.82,1.82,0,0,0,0-2.4,1.63,1.63,0,0,0-2.4,0,1.21,1.21,0,0,0-.4.79L13.15,1A.89.89,0,0,0,12,1l-1.2,1.2a.36.36,0,0,0-.1.29c0,.11.1.21.2.31s.2.1.3.19a1.59,1.59,0,0,1,.5,1.71,1.61,1.61,0,0,1-1.2,1.19,1.57,1.57,0,0,1-1.7-.5c-.1-.1-.2-.2-.2-.29s-.2-.21-.3-.21S8,4.87,8,5l-1.2,1.2a.9.9,0,0,0,0,1.19l4.9,4.91a.91.91,0,0,0,1.2,0L14.15,11c.1-.1.1-.19.1-.39a.32.32,0,0,0-.3-.3C13.45,10.18,13.25,10.07,13.15,9.87Z"/><path class="cls-1" d="M12.75,15.58v4.8a2.69,2.69,0,0,1-2.7,2.7H3.55a2.69,2.69,0,0,1-2.7-2.7V4.88a2.69,2.69,0,0,1,2.7-2.7h3.3"/><path class="cls-1" d="M.75,17.07h12"/><path class="cls-1" d="M6.75,19.68a.4.4,0,1,0,.4.4A.37.37,0,0,0,6.75,19.68Z"/></g></g></svg>