<svg xmlns="http://www.w3.org/2000/svg" viewBox="0 0 23.98 22.5"><defs><style>.cls-1{fill:none;stroke:#fff;stroke-linecap:round;stroke-linejoin:round;stroke-width:1.5px;}</style></defs><title>salescloud</title><g id="Слой_2" data-name="Слой 2"><g id="Слой_1-2" data-name="Слой 1"><path class="cls-1" d="M17.29.75l-2.2,7.5h-6l-1.5-4.5h8.8"/><path class="cls-1" d="M9.39,10.45a.4.4,0,1,1-.4.4A.43.43,0,0,1,9.39,10.45Z"/><path class="cls-1" d="M14.59,10.45a.4.4,0,1,1-.4.4C14.29,10.65,14.39,10.45,14.59,10.45Z"/><path class="cls-1" d="M19.79,2.65a1.5,1.5,0,0,1,.4,1.1v9a1.54,1.54,0,0,1-1.5,1.5H5.19a1.54,1.54,0,0,1-1.5-1.5v-9a1.54,1.54,0,0,1,1.5-1.5"/><path class="cls-1" d="M21.79,21.75H2.29a1.71,1.71,0,0,1-1.3-.7,1.58,1.58,0,0,1-.1-1.5l1.8-3.7a3,3,0,0,1,2.7-1.7h13.2a3,3,0,0,1,2.7,1.7l1.8,3.7a1.6,1.6,0,0,1-.1,1.5A1.39,1.39,0,0,1,21.79,21.75Z"/><path class="cls-1" d="M10.49,18.75h3"/></g></g></svg>