<svg xmlns="http://www.w3.org/2000/svg" viewBox="0 0 24 16.5"><defs><style>.cls-1{fill:none;stroke:#fff;stroke-linecap:round;stroke-linejoin:round;stroke-width:1.5px;}</style></defs><title>servicecloud</title><g id="Слой_2" data-name="Слой 2"><g id="Слой_1-2" data-name="Слой 1"><path class="cls-1" d="M3.75,15.75l-2-2.5a4.78,4.78,0,0,1-1-2.8V5.25a1.54,1.54,0,0,1,1.5-1.5,1.54,1.54,0,0,1,1.5,1.5v3.8"/><path class="cls-1" d="M8.25,15.65v-3a4.38,4.38,0,0,0-.8-2.5l-1.1-1.7a1.15,1.15,0,0,0-.9-.6,1.39,1.39,0,0,0-1.1.2,1.44,1.44,0,0,0-.5,1.8l1.4,2.2"/><path class="cls-1" d="M20.25,15.75l2-2.5a4.78,4.78,0,0,0,1-2.8V5.25a1.5,1.5,0,0,0-3,0v3.8"/><path class="cls-1" d="M15.75,15.65v-3a4.38,4.38,0,0,1,.8-2.5l1.1-1.7a1.15,1.15,0,0,1,.9-.6,1.39,1.39,0,0,1,1.1.2,1.44,1.44,0,0,1,.5,1.8l-1.4,2.2"/><path class="cls-1" d="M16,1.35a1.93,1.93,0,0,0-2.8,0L12,2.55l-1.2-1.2a1.93,1.93,0,0,0-2.8,0,1.93,1.93,0,0,0,0,2.8l3.5,3.6a.76.76,0,0,0,.4.2.52.52,0,0,0,.4-.2l3.5-3.6A1.8,1.8,0,0,0,16,1.35Z"/></g></g></svg>