<svg viewBox="0 0 25 25" fill="none" xmlns="http://www.w3.org/2000/svg">
<path d="M7.6 9.73745C7.8 10.0375 8.2 10.1375 8.6 10.1375C9 10.1375 9.3 9.93745 9.6 9.73745L10.2 9.03745C10.6 8.63745 11.2 8.53745 11.7 8.73745C12.2 8.93745 12.5 9.43745 12.5 10.0375V10.9375C12.5 11.3375 12.6 11.6375 12.9 11.9375C13.2 12.2375 13.5 12.3374 13.9 12.3374H14.8C15.4 12.3374 15.9 12.6375 16.1 13.1375C16.3 13.6375 16.2 14.2375 15.8 14.6375L15.1 15.2375C14.8 15.4375 14.7 15.8375 14.7 16.2375C14.7 16.6375 14.9 16.9375 15.1 17.2375L15.8 17.8374C16.2 18.2374 16.3 18.8374 16.1 19.3374C15.9 19.8374 15.4 20.1375 14.8 20.1375H13.9C13.5 20.1375 13.2 20.2374 12.9 20.5374C12.6 20.8374 12.5 21.1374 12.5 21.5374V22.4375C12.5 23.0375 12.2 23.5375 11.7 23.7375C11.2 23.9375 10.6 23.8375 10.2 23.4375L9.6 22.7375C9.4 22.4375 9 22.3374 8.6 22.3374C8.2 22.3374 7.9 22.5375 7.6 22.7375L7 23.4375C6.6 23.8375 6 23.9375 5.5 23.7375C5 23.5375 4.69998 23.0375 4.69998 22.4375V21.5374C4.69998 21.1374 4.59998 20.8374 4.29998 20.5374C3.99998 20.2374 3.69998 20.1375 3.29998 20.1375H2.39999C1.79999 20.1375 1.3 19.8374 1.1 19.3374C0.900003 18.8374 0.999991 18.2374 1.39999 17.8374L2.1 17.2375C2.4 17.0375 2.5 16.6375 2.5 16.2375C2.5 15.8375 2.3 15.5375 2.1 15.2375L1.39999 14.6375C0.999991 14.2375 0.900003 13.6375 1.1 13.1375C1.3 12.6375 1.79999 12.3374 2.39999 12.3374H3.29998C3.69998 12.3374 3.99998 12.2375 4.29998 11.9375C4.59998 11.6375 4.69998 11.3375 4.69998 10.9375V10.0375C4.69998 9.43745 5 8.93745 5.5 8.73745C6 8.53745 6.6 8.63745 7 9.03745L7.6 9.73745Z" stroke="#2F035B" stroke-width="1.5" stroke-linecap="round" stroke-linejoin="round"/>
<path d="M18.9 5.33752C18.7 5.33752 18.5 5.53753 18.5 5.73753C18.5 5.93753 18.7 6.13753 18.9 6.13753C19.1 6.13753 19.3 5.93753 19.3 5.73753C19.3 5.63753 19.3 5.53753 19.2 5.43753C19.1 5.33753 19 5.33752 18.9 5.33752Z" stroke="#2F035B" stroke-width="1.5" stroke-linecap="round" stroke-linejoin="round"/>
<path d="M21.5 2.1375C21.8 2.0375 22.1 2.1375 22.3 2.3375C22.5 2.5375 22.6 2.8375 22.5 3.1375L22 4.4375C21.9 4.7375 22 5.1375 22.2 5.3375L23.3 6.2375C23.5 6.4375 23.6 6.7375 23.6 7.0375C23.5 7.3375 23.3 7.5375 23 7.5375L21.6 7.7375C21.3 7.8375 21 8.0375 21 8.3375L20.8 9.7375C20.8 10.0375 20.5 10.2375 20.3 10.3375C20 10.4375 19.7 10.3375 19.5 10.0375L18.6 8.9375C18.4 8.6375 18 8.6375 17.7 8.7375L16.4 9.2375C16.1 9.3375 15.8 9.2375 15.6 9.0375C15.4 8.8375 15.3 8.5375 15.4 8.2375L15.9 6.9375C16 6.6375 15.9 6.2375 15.7 6.0375L14.6 5.1375C14.4 4.9375 14.3 4.6375 14.3 4.3375C14.4 4.0375 14.6 3.8375 14.9 3.8375L16.3 3.6375C16.6 3.6375 16.9 3.3375 16.9 3.0375L17.1 1.6375C17.1 1.3375 17.4 1.1375 17.6 1.0375C17.9 0.937501 18.2 1.0375 18.4 1.3375L19.3 2.4375C19.5 2.7375 19.9 2.7375 20.2 2.6375L21.5 2.1375Z" stroke="#2F035B" stroke-width="1.5" stroke-linecap="round" stroke-linejoin="round"/>
<path d="M9.69998 13.9375H7.89999C7.39999 13.9375 7 14.4375 7 14.9375C7 15.3375 7.20001 15.7375 7.60001 15.8375L9.39999 16.4375C9.79999 16.6375 10 16.9375 10 17.3375C10 17.8375 9.60001 18.3375 9.10001 18.3375H7" stroke="#2F035B" stroke-width="1.5" stroke-linecap="round" stroke-linejoin="round"/>
<path d="M8.5 13.9375V12.9375" stroke="#2F035B" stroke-width="1.5" stroke-linecap="round" stroke-linejoin="round"/>
<path d="M8.5 19.4375V18.4375" stroke="#2F035B" stroke-width="1.5" stroke-linecap="round" stroke-linejoin="round"/>
</svg>
