<svg viewBox="0 0 25 25" fill="none" xmlns="http://www.w3.org/2000/svg">
<path d="M1 14.3999V23.3999" stroke="#068B01" stroke-width="1.5" stroke-linecap="round" stroke-linejoin="round"/>
<path d="M1 21.8999H16C16 20.1999 14.7 18.8999 13 18.8999H9.29999C9.29999 17.1999 7.99999 15.8999 6.29999 15.8999H1" stroke="#068B01" stroke-width="1.5" stroke-linecap="round" stroke-linejoin="round"/>
<path d="M6.29999 18.8999H9.29999" stroke="#068B01" stroke-width="1.5" stroke-linecap="round" stroke-linejoin="round"/>
<path d="M11 14C12.6 11.4 15.7 10.2 18.6 11C21.5 11.8 23.5 14.5 23.5 17.5H16.8" stroke="#068B01" stroke-width="1.5" stroke-linecap="round" stroke-linejoin="round"/>
<path d="M13.2 3C14.5 4.3 16.3 5.09998 18.1 5.09998C19 5.09998 20 4.9 20.8 4.5" stroke="#068B01" stroke-width="1.5" stroke-linecap="round" stroke-linejoin="round"/>
<path d="M16.8 9.19995C19.1 9.19995 20.9 7.39998 20.9 5.09998C20.9 2.79998 19.1 1 16.8 1C14.5 1 12.7 2.79998 12.7 5.09998C12.7 7.39998 14.5 9.19995 16.8 9.19995Z" stroke="#068B01" stroke-width="1.5" stroke-linecap="round" stroke-linejoin="round"/>
<path d="M16.8 10.7V13.7" stroke="#068B01" stroke-width="1.5" stroke-linecap="round" stroke-linejoin="round"/>
</svg>
