<svg viewBox="0 0 25 25" fill="none" xmlns="http://www.w3.org/2000/svg">
<path d="M3.60001 23.5C5.00001 23.5 6.19998 22.3 6.19998 20.9C6.19998 19.5 5.00001 18.3 3.60001 18.3C2.20001 18.3 1 19.5 1 20.9C1 22.3 2.20001 23.5 3.60001 23.5Z" stroke="#068B01" stroke-width="1.5" stroke-linecap="round" stroke-linejoin="round"/>
<path d="M9.69998 18.5H14.7V23.5H9.69998V18.5Z" stroke="#068B01" stroke-width="1.5" stroke-linecap="round" stroke-linejoin="round"/>
<path d="M23.4 23.4H17.4L20.4 17.9L23.4 23.4Z" stroke="#068B01" stroke-width="1.5" stroke-linecap="round" stroke-linejoin="round"/>
<path d="M15.9 4.89999C15.9 2.99999 14.5 1.5 12.7 1.2C10.9 0.899996 9.09999 2.09999 8.59999 3.89999C8.09999 5.69999 8.99997 7.59999 10.7 8.29999V10.1H13.7V8.29999C15 7.69999 15.9 6.39999 15.9 4.89999Z" stroke="#068B01" stroke-width="1.5" stroke-linecap="round" stroke-linejoin="round"/>
<path d="M3.69998 15.7V13.2H20.6V15.7" stroke="#068B01" stroke-width="1.5" stroke-linecap="round" stroke-linejoin="round"/>
<path d="M20 5.5H21.5" stroke="#068B01" stroke-width="1.5" stroke-linecap="round" stroke-linejoin="round"/>
<path d="M19.6 8.90002L20.7 10" stroke="#068B01" stroke-width="1.5" stroke-linecap="round" stroke-linejoin="round"/>
<path d="M19.6 2.10001L20.7 1" stroke="#068B01" stroke-width="1.5" stroke-linecap="round" stroke-linejoin="round"/>
<path d="M4.39999 5.5H2.89999" stroke="#068B01" stroke-width="1.5" stroke-linecap="round" stroke-linejoin="round"/>
<path d="M4.69998 8.90002L3.60001 10" stroke="#068B01" stroke-width="1.5" stroke-linecap="round" stroke-linejoin="round"/>
<path d="M4.69998 2.10001L3.60001 1" stroke="#068B01" stroke-width="1.5" stroke-linecap="round" stroke-linejoin="round"/>
<path d="M12.2 10.1V15.2" stroke="#068B01" stroke-width="1.5" stroke-linecap="round" stroke-linejoin="round"/>
</svg>
