<svg viewBox="0 0 25 25" fill="none" xmlns="http://www.w3.org/2000/svg">
<path d="M1 2.40002L2.5 4.30002V8.80002C2.5 10.5 4.4 12 6.2 13.6" stroke="#068B01" stroke-width="1.5" stroke-linecap="round" stroke-linejoin="round"/>
<path d="M5.5 7.60004L7.29999 9.40002C7.59999 9.70002 8.1 9.80004 8.5 9.70004C8.9 9.60004 9.29999 9.30002 9.39999 8.80002C9.49999 8.40002 9.39999 7.90004 9.09999 7.60004L6.29999 4.80002V3.30002C6.19999 2.40002 5.79999 1.60002 5.29999 0.900024" stroke="#068B01" stroke-width="1.5" stroke-linecap="round" stroke-linejoin="round"/>
<path d="M6.29999 8.30005V20.4001C6.29999 21.2001 6.99999 21.9001 7.79999 21.9001H15.3" stroke="#068B01" stroke-width="1.5" stroke-linecap="round" stroke-linejoin="round"/>
<path d="M23.5 22L22 20.1V15.6C22 14.1 20.6 12.8 19 11.5V16.8L17.2 15C16.7 14.5 16 14.5 15.5 15C15 15.5 15 16.2 15.5 16.7L18.3 19.5V21C18.4 21.9 18.8 22.7 19.3 23.4" stroke="#068B01" stroke-width="1.5" stroke-linecap="round" stroke-linejoin="round"/>
<path d="M13.3 18.2001H9.29999" stroke="#068B01" stroke-width="1.5" stroke-linecap="round" stroke-linejoin="round"/>
<path d="M10.8 14.5H9.29999" stroke="#068B01" stroke-width="1.5" stroke-linecap="round" stroke-linejoin="round"/>
<path d="M20.5 5.5C20.5 8 18.5 10 16 10C13.5 10 11.5 8 11.5 5.5C11.5 3 13.5 1 16 1" stroke="#068B01" stroke-width="1.5" stroke-linecap="round" stroke-linejoin="round"/>
<path d="M20.5 2.1001L16.4 6.2001C16.3 6.3001 16.2 6.40009 16 6.40009C15.8 6.40009 15.7 6.3001 15.6 6.2001L14.3 4.90009" stroke="#068B01" stroke-width="1.5" stroke-linecap="round" stroke-linejoin="round"/>
</svg>
