<svg viewBox="0 0 25 25" fill="none" xmlns="http://www.w3.org/2000/svg">
<path d="M5.39999 7.19995C7.09999 7.19995 8.39999 5.89995 8.39999 4.19995C8.39999 2.49995 7.09999 1.19995 5.39999 1.19995C3.69999 1.19995 2.39999 2.49995 2.39999 4.19995C2.39999 5.89995 3.79999 7.19995 5.39999 7.19995Z" stroke="#2F035B" stroke-width="1.5" stroke-linecap="round" stroke-linejoin="round"/>
<path d="M5.39999 8.69995V14.7" stroke="#2F035B" stroke-width="1.5" stroke-linecap="round" stroke-linejoin="round"/>
<path d="M9.89999 12.5C9.49999 10.2 7.40001 8.60006 5.10001 8.80006C2.80001 9.00006 1 10.9001 1 13.3001V16.3001H2.5L3.29999 23.8001H7.79999L8.60001 16.3001" stroke="#2F035B" stroke-width="1.5" stroke-linecap="round" stroke-linejoin="round"/>
<path d="M11.4 15.7C11.4 15.1 11.8 14.7 12.4 14.7H22.4C23 14.7 23.4 15.1 23.4 15.7V22.7C23.4 23.3 23 23.7 22.4 23.7H12.4C11.8 23.7 11.4 23.3 11.4 22.7V15.7Z" stroke="#2F035B" stroke-width="1.5" stroke-linecap="round" stroke-linejoin="round"/>
<path d="M11.4 18.5H23.4" stroke="#2F035B" stroke-width="1.5" stroke-linecap="round" stroke-linejoin="round"/>
<path d="M17.4 17.7V19.9" stroke="#2F035B" stroke-width="1.5" stroke-linecap="round" stroke-linejoin="round"/>
<path d="M15.2 14.7V13.9C15.2 12.7 16.2 11.7 17.4 11.7C18.6 11.7 19.6 12.7 19.6 13.9V14.7" stroke="#2F035B" stroke-width="1.5" stroke-linecap="round" stroke-linejoin="round"/>
</svg>
