<svg viewBox="0 0 25 25" fill="none" xmlns="http://www.w3.org/2000/svg">
<path d="M4.89999 20.7C6.29999 20.7 7.5 19.5 7.5 18.1C7.5 16.7 6.29999 15.5 4.89999 15.5C3.49999 15.5 2.30002 16.7 2.30002 18.1C2.30002 19.5 3.39999 20.7 4.89999 20.7Z" stroke="#068B01" stroke-width="1.5" stroke-linecap="round" stroke-linejoin="round"/>
<path d="M8.60001 23.7C7.90001 22.3 6.40002 21.5 4.80002 21.5C3.20002 21.5 1.8 22.4 1 23.7" stroke="#068B01" stroke-width="1.5" stroke-linecap="round" stroke-linejoin="round"/>
<path d="M19.9 20.7C21.3 20.7 22.5 19.5 22.5 18.1C22.5 16.7 21.3 15.5 19.9 15.5C18.5 15.5 17.3 16.7 17.3 18.1C17.3 19.5 18.4 20.7 19.9 20.7Z" stroke="#068B01" stroke-width="1.5" stroke-linecap="round" stroke-linejoin="round"/>
<path d="M23.6 23.7C22.9 22.3 21.4 21.5 19.8 21.5C18.2 21.5 16.8 22.4 16 23.7" stroke="#068B01" stroke-width="1.5" stroke-linecap="round" stroke-linejoin="round"/>
<path d="M12.4 6.5C13.8 6.5 15 5.30002 15 3.90002C15 2.50002 13.8 1.30005 12.4 1.30005C11 1.30005 9.80002 2.50002 9.80002 3.90002C9.80002 5.30002 10.9 6.5 12.4 6.5Z" stroke="#068B01" stroke-width="1.5" stroke-linecap="round" stroke-linejoin="round"/>
<path d="M15.6 8.69995C14.8 7.69995 13.6 7.19995 12.4 7.19995C11.1 7.19995 10 7.69995 9.20001 8.69995" stroke="#068B01" stroke-width="1.5" stroke-linecap="round" stroke-linejoin="round"/>
<path d="M9.39999 20.2C11.3 20.9 13.4 20.9 15.3 20.2" stroke="#068B01" stroke-width="1.5" stroke-linecap="round" stroke-linejoin="round"/>
<path d="M6.70001 6.5C5.00001 8.1 4.10001 10.2 4.10001 12.5C4.10001 12.8 4.10001 13 4.10001 13.3" stroke="#068B01" stroke-width="1.5" stroke-linecap="round" stroke-linejoin="round"/>
<path d="M20.6 13.2C20.6 13 20.6 12.7 20.6 12.4C20.6 10.1 19.7 8.00002 18 6.40002" stroke="#068B01" stroke-width="1.5" stroke-linecap="round" stroke-linejoin="round"/>
<path d="M12.4 16.2C13.6 16.2 14.6 15.2 14.6 14C14.6 12.8 13.6 11.8 12.4 11.8C11.2 11.8 10.2 12.8 10.2 14C10.1 15.2 11.1 16.2 12.4 16.2Z" stroke="#068B01" stroke-width="1.5" stroke-linecap="round" stroke-linejoin="round"/>
<path d="M14.6 14H16.1" stroke="#068B01" stroke-width="1.5" stroke-linecap="round" stroke-linejoin="round"/>
<path d="M8.60001 14H10.1" stroke="#068B01" stroke-width="1.5" stroke-linecap="round" stroke-linejoin="round"/>
<path d="M12.4 16.2V17.7" stroke="#068B01" stroke-width="1.5" stroke-linecap="round" stroke-linejoin="round"/>
<path d="M12.4 10.2V11.7" stroke="#068B01" stroke-width="1.5" stroke-linecap="round" stroke-linejoin="round"/>
<path d="M14 15.6L15.1 16.7" stroke="#068B01" stroke-width="1.5" stroke-linecap="round" stroke-linejoin="round"/>
<path d="M9.70001 11.3L10.8 12.4" stroke="#068B01" stroke-width="1.5" stroke-linecap="round" stroke-linejoin="round"/>
<path d="M10.8 15.6L9.70001 16.7" stroke="#068B01" stroke-width="1.5" stroke-linecap="round" stroke-linejoin="round"/>
<path d="M15 11.3L13.9 12.4" stroke="#068B01" stroke-width="1.5" stroke-linecap="round" stroke-linejoin="round"/>
</svg>
