<svg viewBox="0 0 25 25" fill="none" xmlns="http://www.w3.org/2000/svg">
<path d="M5.39999 7C7.09999 7 8.39999 5.7 8.39999 4C8.39999 2.3 7.09999 1 5.39999 1C3.69999 1 2.39999 2.3 2.39999 4C2.39999 5.7 3.79999 7 5.39999 7Z" stroke="#2F035B" stroke-width="1.5" stroke-linecap="round" stroke-linejoin="round"/>
<path d="M5.39999 8.5V14.5" stroke="#2F035B" stroke-width="1.5" stroke-linecap="round" stroke-linejoin="round"/>
<path d="M7.69998 23.5L8.5 16H10V13C10 10.5 8 8.5 5.5 8.5C3 8.5 1 10.5 1 13V16H2.5L3.29999 23.5H7.69998Z" stroke="#2F035B" stroke-width="1.5" stroke-linecap="round" stroke-linejoin="round"/>
<path d="M12.9 14.5H21.9C22.7 14.5 23.4 13.8 23.4 13V2.5C23.4 1.7 22.7 1 21.9 1H11.4" stroke="#2F035B" stroke-width="1.5" stroke-linecap="round" stroke-linejoin="round"/>
<path d="M12.2 9.29993L14.4 7.09998L16.6 9.29993L20.4 5.5" stroke="#2F035B" stroke-width="1.5" stroke-linecap="round" stroke-linejoin="round"/>
<path d="M17.4 5.5H20.4V8.5" stroke="#2F035B" stroke-width="1.5" stroke-linecap="round" stroke-linejoin="round"/>
<path d="M15.9 14.5V19.7" stroke="#2F035B" stroke-width="1.5" stroke-linecap="round" stroke-linejoin="round"/>
<path d="M12.9 19.7999H18.9" stroke="#2F035B" stroke-width="1.5" stroke-linecap="round" stroke-linejoin="round"/>
</svg>
