<svg viewBox="0 0 25 25" fill="none" xmlns="http://www.w3.org/2000/svg">
<path d="M3.60001 19.8C5.00001 19.8 6.20001 18.6 6.20001 17.2C6.20001 15.8 5.00001 14.6 3.60001 14.6C2.20001 14.6 1 15.8 1 17.2C1 18.6 2.20001 19.8 3.60001 19.8Z" stroke="#2F035B" stroke-width="1.5" stroke-linecap="round" stroke-linejoin="round"/>
<path d="M7.80002 23.3C7.30002 22 6.20002 21.1 4.90002 20.7C3.60002 20.3 2.20001 20.6 1.10001 21.4" stroke="#2F035B" stroke-width="1.5" stroke-linecap="round" stroke-linejoin="round"/>
<path d="M20.9 19.8C22.3 19.8 23.5 18.6 23.5 17.2C23.5 15.8 22.3 14.6 20.9 14.6C19.5 14.6 18.3 15.8 18.3 17.2C18.3 18.6 19.4 19.8 20.9 19.8Z" stroke="#2F035B" stroke-width="1.5" stroke-linecap="round" stroke-linejoin="round"/>
<path d="M16.8 23.3C17.3 22 18.4 21.1 19.7 20.7C21 20.3 22.4 20.6 23.5 21.4" stroke="#2F035B" stroke-width="1.5" stroke-linecap="round" stroke-linejoin="round"/>
<path d="M12.3 19.8C14.2 19.8 15.7 18.3 15.7 16.4C15.7 14.5 14.2 13 12.3 13C10.4 13 8.90002 14.5 8.90002 16.4C8.90002 18.3 10.4 19.8 12.3 19.8Z" stroke="#2F035B" stroke-width="1.5" stroke-linecap="round" stroke-linejoin="round"/>
<path d="M17 23.5C15.8 22.1 14.1 21.3 12.3 21.3C10.5 21.3 8.70001 22.1 7.60001 23.5" stroke="#2F035B" stroke-width="1.5" stroke-linecap="round" stroke-linejoin="round"/>
<path d="M16 10H8.5V12.2L4.70001 10H1.70001V1H15.9V10H16Z" stroke="#2F035B" stroke-width="1.5" stroke-linecap="round" stroke-linejoin="round"/>
<path d="M6.30002 4L4.80002 5.5L6.30002 7" stroke="#2F035B" stroke-width="1.5" stroke-linecap="round" stroke-linejoin="round"/>
<path d="M11.5 4L13 5.5L11.5 7" stroke="#2F035B" stroke-width="1.5" stroke-linecap="round" stroke-linejoin="round"/>
<path d="M9.30002 4L8.5 7" stroke="#2F035B" stroke-width="1.5" stroke-linecap="round" stroke-linejoin="round"/>
</svg>
