<svg viewBox="0 0 23 22" fill="none" xmlns="http://www.w3.org/2000/svg">
<path d="M13.7 7V5.5H9.20001V7H8.5C8.1 7 7.70001 7.3 7.70001 7.8V15.3C7.70001 15.7 8 16.1 8.5 16.1H14.5C14.9 16.1 15.3 15.8 15.3 15.3V7.8C15.3 7.4 15 7 14.5 7H13.7Z" stroke="#2F035B" stroke-width="1.5" stroke-linecap="round" stroke-linejoin="round"/>
<path d="M19.7 17.5C19.7 19.2 18.4 20.5 16.7 20.5H6.20001C4.50001 20.5 3.20001 19.2 3.20001 17.5V7.70001" stroke="#2F035B" stroke-width="1.5" stroke-linecap="round" stroke-linejoin="round"/>
<path d="M3.20001 4C3.20001 2.3 4.50001 1 6.20001 1H16.7C18.4 1 19.7 2.3 19.7 4V13.8" stroke="#2F035B" stroke-width="1.5" stroke-linecap="round" stroke-linejoin="round"/>
<path d="M22 11.5L19.8 13.7L17.6 11.5" stroke="#2F035B" stroke-width="1.5" stroke-linecap="round" stroke-linejoin="round"/>
<path d="M1 10L3.20001 7.8L5.39999 10" stroke="#2F035B" stroke-width="1.5" stroke-linecap="round" stroke-linejoin="round"/>
</svg>
