<svg viewBox="0 0 23 22" fill="none" xmlns="http://www.w3.org/2000/svg">
<path d="M9.20001 14.6C9.20001 15.5 10.2 16.3 11.4 16.3C12.6 16.3 13.6 15.5 13.6 14.6C13.6 13.7 12.6 12.9 11.4 12.9C10.2 12.9 9.20001 12.1 9.20001 11.2C9.20001 10.3 10.2 9.5 11.4 9.5C12.6 9.5 13.6 10.3 13.6 11.2" stroke="#2F035B" stroke-width="1.5" stroke-linecap="round" stroke-linejoin="round"/>
<path d="M11.5 8.4V9.5" stroke="#2F035B" stroke-width="1.5" stroke-linecap="round" stroke-linejoin="round"/>
<path d="M11.5 16.3V17.4" stroke="#2F035B" stroke-width="1.5" stroke-linecap="round" stroke-linejoin="round"/>
<path d="M1 6.9C1 6.1 1.7 5.4 2.5 5.4H20.5C21.3 5.4 22 6.1 22 6.9V18.9C22 19.7 21.3 20.4 20.5 20.4H2.5C1.7 20.4 1 19.7 1 18.9V6.9Z" stroke="#2F035B" stroke-width="1.5" stroke-linecap="round" stroke-linejoin="round"/>
<path d="M14.8 2C14.6 1.4 14 1 13.4 1H9.60001C9.00001 1 8.40001 1.4 8.20001 2L7 5.5H16L14.8 2Z" stroke="#2F035B" stroke-width="1.5" stroke-linecap="round" stroke-linejoin="round"/>
</svg>
