<svg viewBox="0 0 23 25" fill="none" xmlns="http://www.w3.org/2000/svg">
<path d="M14.5 19.8C14.5 21.9 12.8 23.6 10.7 23.6C8.59998 23.6 6.89999 21.9 6.89999 19.8V1H14.4V19.8H14.5Z" stroke="#2F035B" stroke-width="1.5" stroke-linecap="round" stroke-linejoin="round"/>
<path d="M16.7 1H4.69998" stroke="#2F035B" stroke-width="1.5" stroke-linecap="round" stroke-linejoin="round"/>
<path d="M11.9 8.5C12.1 8.5 12.3 8.69999 12.3 8.89999" stroke="#2F035B" stroke-width="1.5" stroke-linecap="round" stroke-linejoin="round"/>
<path d="M11.5 8.89999C11.5 8.69999 11.7 8.5 11.9 8.5" stroke="#2F035B" stroke-width="1.5" stroke-linecap="round" stroke-linejoin="round"/>
<path d="M11.9 9.29999C11.7 9.29999 11.5 9.09999 11.5 8.89999" stroke="#2F035B" stroke-width="1.5" stroke-linecap="round" stroke-linejoin="round"/>
<path d="M12.2 8.89999C12.2 9.09999 12 9.29999 11.8 9.29999" stroke="#2F035B" stroke-width="1.5" stroke-linecap="round" stroke-linejoin="round"/>
<path d="M9.60001 13C9.80001 13 10 13.2 10 13.4" stroke="#2F035B" stroke-width="1.5" stroke-linecap="round" stroke-linejoin="round"/>
<path d="M9.19998 13.4C9.19998 13.2 9.40001 13 9.60001 13" stroke="#2F035B" stroke-width="1.5" stroke-linecap="round" stroke-linejoin="round"/>
<path d="M9.60001 13.8C9.40001 13.8 9.19998 13.6 9.19998 13.4" stroke="#2F035B" stroke-width="1.5" stroke-linecap="round" stroke-linejoin="round"/>
<path d="M10 13.4C10 13.6 9.80001 13.8 9.60001 13.8" stroke="#2F035B" stroke-width="1.5" stroke-linecap="round" stroke-linejoin="round"/>
<path d="M11.1 17.5C11.3 17.5 11.5 17.7 11.5 17.9" stroke="#2F035B" stroke-width="1.5" stroke-linecap="round" stroke-linejoin="round"/>
<path d="M10.7 17.9C10.7 17.7 10.9 17.5 11.1 17.5" stroke="#2F035B" stroke-width="1.5" stroke-linecap="round" stroke-linejoin="round"/>
<path d="M11.1 18.3C10.9 18.3 10.7 18.1 10.7 17.9" stroke="#2F035B" stroke-width="1.5" stroke-linecap="round" stroke-linejoin="round"/>
<path d="M11.5 17.9C11.5 18.1 11.3 18.3 11.1 18.3" stroke="#2F035B" stroke-width="1.5" stroke-linecap="round" stroke-linejoin="round"/>
<path d="M14.5 5.5H7" stroke="#2F035B" stroke-width="1.5" stroke-linecap="round" stroke-linejoin="round"/>
<path d="M1 13H4" stroke="#2F035B" stroke-width="1.5" stroke-linecap="round" stroke-linejoin="round"/>
<path d="M2.5 11.5V14.5" stroke="#2F035B" stroke-width="1.5" stroke-linecap="round" stroke-linejoin="round"/>
<path d="M20.5 7C21.3 7 22 6.3 22 5.5C22 4.7 21.3 4 20.5 4C19.7 4 19 4.7 19 5.5C19 6.3 19.7 7 20.5 7Z" stroke="#2F035B" stroke-width="1.5" stroke-linecap="round" stroke-linejoin="round"/>
</svg>
