<svg viewBox="0 0 25 23" fill="none" xmlns="http://www.w3.org/2000/svg">
<path d="M7 13C10.3 13 13 10.3 13 7C13 3.7 10.3 1 7 1C3.7 1 1 3.7 1 7C1 10.3 3.7 13 7 13Z" stroke="#2F035B" stroke-width="1.5" stroke-linecap="round" stroke-linejoin="round"/>
<path d="M4.29999 7H7V4.29999" stroke="#2F035B" stroke-width="1.5" stroke-linecap="round" stroke-linejoin="round"/>
<path d="M14.5 11.5H16C16.8 11.5 17.5 12.2 17.5 13V18.3" stroke="#2F035B" stroke-width="1.5" stroke-linecap="round" stroke-linejoin="round"/>
<path d="M7.70001 20.5H7C6.2 20.5 5.5 19.8 5.5 19V16" stroke="#2F035B" stroke-width="1.5" stroke-linecap="round" stroke-linejoin="round"/>
<path d="M17.5 13H20.5C22.2 13 23.5 14.3 23.5 16V19C23.5 19.8 22.8 20.5 22 20.5H19.7" stroke="#2F035B" stroke-width="1.5" stroke-linecap="round" stroke-linejoin="round"/>
<path d="M17.8 22C18.8 22 19.7 21.2 19.7 20.1C19.7 19 18.9 18.2 17.8 18.2C16.8 18.2 15.9 19 15.9 20.1C15.9 21.2 16.8 22 17.8 22Z" stroke="#2F035B" stroke-width="1.5" stroke-linecap="round" stroke-linejoin="round"/>
<path d="M9.60001 22C10.6 22 11.5 21.2 11.5 20.1C11.5 19 10.7 18.2 9.60001 18.2C8.60001 18.2 7.70001 19 7.70001 20.1C7.70001 21.2 8.60001 22 9.60001 22Z" stroke="#2F035B" stroke-width="1.5" stroke-linecap="round" stroke-linejoin="round"/>
<path d="M16 20.5H11.5" stroke="#2F035B" stroke-width="1.5" stroke-linecap="round" stroke-linejoin="round"/>
<path d="M23.5 16H20.5" stroke="#2F035B" stroke-width="1.5" stroke-linecap="round" stroke-linejoin="round"/>
</svg>
