<svg viewBox="0 0 24 24" fill="none" xmlns="http://www.w3.org/2000/svg">
<path d="M4.43243 18.9252C4.33243 19.0252 4.33243 19.2252 4.33243 19.3252C4.43243 19.4252 4.53243 19.5252 4.63243 19.5252C4.83243 19.5252 4.93243 19.4252 4.93243 19.3252C5.03243 19.2252 4.93243 19.0252 4.83243 18.9252C4.83243 18.7252 4.53243 18.7252 4.43243 18.9252Z" stroke="#2F035B" stroke-width="1.5" stroke-linecap="round" stroke-linejoin="round"/>
<path d="M18.2324 9.02518C17.0324 9.02518 16.0324 8.02518 16.0324 6.82518C16.0324 5.62518 17.0324 4.62518 18.2324 4.62518H23.0324C22.2324 2.62518 20.2324 1.22518 18.0324 1.02518C15.8324 0.825176 13.6324 1.82519 12.4324 3.72519C11.2324 5.52519 11.2324 7.82519 12.3324 9.72519L6.13243 15.7252C4.43243 15.1252 2.63243 15.7252 1.63243 17.1252C0.632429 18.5252 0.832429 20.4252 2.13243 21.6252C3.43243 22.8252 5.33243 23.0252 6.83243 22.1252C8.33243 21.2252 8.93244 19.4252 8.23244 17.8252L14.4324 11.8252C15.9324 12.7252 17.7324 12.8252 19.4324 12.3252C21.1324 11.8252 22.4324 10.6252 23.0324 9.02518H18.2324Z" stroke="#2F035B" stroke-width="1.5" stroke-linecap="round" stroke-linejoin="round"/>
</svg>
