<svg viewBox="0 0 25 25" fill="none" xmlns="http://www.w3.org/2000/svg">
<path d="M1 2C1 1.4 1.4 1 2 1H15C15.6 1 16 1.4 16 2V22.5C16 23.1 15.6 23.5 15 23.5H2C1.4 23.5 1 23.1 1 22.5V2Z" stroke="#2F035B" stroke-width="1.5" stroke-linecap="round" stroke-linejoin="round"/>
<path d="M13 5.5C13 4.7 12.3 4 11.5 4H5.5C4.7 4 4 4.7 4 5.5C4 6.3 4.7 7 5.5 7H11.5C12.3 7 13 6.4 13 5.5Z" stroke="#2F035B" stroke-width="1.5" stroke-linecap="round" stroke-linejoin="round"/>
<path d="M1 10H16" stroke="#2F035B" stroke-width="1.5" stroke-linecap="round" stroke-linejoin="round"/>
<path d="M16 5.5H17.5C18.3 5.5 19 6.2 19 7V22C19 22.8 19.7 23.5 20.5 23.5C21.3 23.5 22 22.8 22 22V13C22 12 22.3 11.1002 22.8 10.2002L23.5 9.2002" stroke="#2F035B" stroke-width="1.5" stroke-linecap="round" stroke-linejoin="round"/>
<path d="M22 13H23.5" stroke="#2F035B" stroke-width="1.5" stroke-linecap="round" stroke-linejoin="round"/>
</svg>
