<svg viewBox="0 0 25 22" fill="none" xmlns="http://www.w3.org/2000/svg">
<path d="M18.2 20.5H22C22.8 20.5 23.5 19.8 23.5 19V2.59998C23.5 1.69998 22.8 1 21.9 1H2.59998C1.69998 1 1 1.69998 1 2.59998V18.9C1 19.8 1.69998 20.5 2.59998 20.5H6.20001" stroke="#2F035B" stroke-width="1.5" stroke-linecap="round" stroke-linejoin="round"/>
<path d="M1 5.5H23.5" stroke="#2F035B" stroke-width="1.5" stroke-linecap="round" stroke-linejoin="round"/>
<path d="M17.5 9.29999L15.3 16.8H9.29999L7.79999 12.3H16.6" stroke="#2F035B" stroke-width="1.5" stroke-linecap="round" stroke-linejoin="round"/>
<path d="M9.59998 19C9.79998 19 10 19.2 10 19.4C10 19.6 9.79998 19.8 9.59998 19.8C9.39998 19.8 9.20001 19.6 9.20001 19.4C9.20001 19.2 9.39998 19 9.59998 19Z" stroke="#2F035B" stroke-width="1.5" stroke-linecap="round" stroke-linejoin="round"/>
<path d="M14.8 19C15 19 15.2 19.2 15.2 19.4C15.2 19.6 15 19.8 14.8 19.8C14.6 19.8 14.4 19.6 14.4 19.4C14.5 19.2 14.6 19 14.8 19Z" stroke="#2F035B" stroke-width="1.5" stroke-linecap="round" stroke-linejoin="round"/>
</svg>
