<svg viewBox="0 0 25 25" fill="none" xmlns="http://www.w3.org/2000/svg">
<path d="M9.80001 9.79999L10.4 10.4C11 11 12 11 12.6 10.4L13.4 9.59998C13.7 9.29998 13.7 8.8 13.4 8.5L11.8 6.90002C11.6 6.70002 11.4 6.70001 11.2 6.70001C11 6.70001 10.8 6.8 10.6 7C8.90001 9.3 9.90001 11.7 12 13.8C14.1 15.9 16.5 16.9 18.8 15.2C19 15.1 19.1 14.9 19.1 14.6C19.1 14.4 19 14.1 18.9 14L17.3 12.4C17.2 12.3 17 12.2 16.7 12.2C16.5 12.2 16.3 12.3 16.1 12.4L15.3 13.2C14.7 13.8 14.7 14.8 15.3 15.4L15.9 16" stroke="#2F035B" stroke-width="1.5" stroke-linecap="round" stroke-linejoin="round"/>
<path d="M5.5 13V7.09998C5.5 6.59998 5.8 6.09999 6.2 5.79999L14.5 1L22.8 5.79999C23.3 6.09999 23.5 6.59998 23.5 7.09998V19C23.5 19.8 22.8 20.5 22 20.5H12.6" stroke="#2F035B" stroke-width="1.5" stroke-linecap="round" stroke-linejoin="round"/>
<path d="M2.60001 20.9C4.20001 19.3 6.7 19.3 8.2 20.9" stroke="#2F035B" stroke-width="1.5" stroke-linecap="round" stroke-linejoin="round"/>
<path d="M1 18.2C3.5 15.7 7.5 15.7 10 18.2" stroke="#2F035B" stroke-width="1.5" stroke-linecap="round" stroke-linejoin="round"/>
<path d="M5.5 22.7C5.7 22.7 5.89999 22.9 5.89999 23.1C5.89999 23.3 5.7 23.5 5.5 23.5C5.3 23.5 5.10001 23.3 5.10001 23.1C5.10001 22.9 5.3 22.7 5.5 22.7Z" stroke="#2F035B" stroke-width="1.5" stroke-linecap="round" stroke-linejoin="round"/>
</svg>
