<svg viewBox="0 0 70 69" fill="none" xmlns="http://www.w3.org/2000/svg">
<path fill-rule="evenodd" clip-rule="evenodd" d="M0.997925 52.6945C0.997925 47.1035 5.80416 43.1782 10.7983 43.1782C15.9519 43.1782 20.3145 47.5409 20.3145 52.6945C20.3145 57.848 15.9519 62.2107 10.7983 62.2107C5.41315 62.2107 0.997925 57.8999 0.997925 52.6945ZM10.7983 47.4392C7.83853 47.4392 5.25894 49.7635 5.25894 52.6945C5.25894 55.4429 7.6614 57.9497 10.7983 57.9497C13.5986 57.9497 16.0535 55.4948 16.0535 52.6945C16.0535 49.8942 13.5986 47.4392 10.7983 47.4392Z" fill="#2F035B"/>
<path fill-rule="evenodd" clip-rule="evenodd" d="M2.16379 62.8979C8.14041 58.5814 16.123 59.2682 21.3937 64.5389C22.2257 65.3709 22.2257 66.7199 21.3937 67.5519C20.5617 68.3839 19.2128 68.3839 18.3807 67.5519C14.5613 63.7325 8.90838 63.2829 4.65857 66.3522C3.70469 67.0411 2.37294 66.8263 1.68402 65.8724C0.995108 64.9186 1.20991 63.5868 2.16379 62.8979Z" fill="#2F035B"/>
<path fill-rule="evenodd" clip-rule="evenodd" d="M50.1449 52.6945C50.1449 47.5408 54.5077 43.1782 59.6613 43.1782C64.8149 43.1782 69.1775 47.5409 69.1775 52.6945C69.1775 57.848 64.8149 62.2107 59.6613 62.2107C54.5077 62.2107 50.1449 57.8481 50.1449 52.6945ZM59.6613 47.4392C56.8609 47.4392 54.4059 49.8942 54.4059 52.6945C54.4059 55.4947 56.8609 57.9497 59.6613 57.9497C62.4615 57.9497 64.9164 55.4948 64.9164 52.6945C64.9164 49.8942 62.4615 47.4392 59.6613 47.4392Z" fill="#2F035B"/>
<path fill-rule="evenodd" clip-rule="evenodd" d="M65.7525 66.3179C61.8202 63.3109 56.1625 63.7061 52.3119 67.3161C51.4535 68.1208 50.1052 68.0773 49.3005 67.2189C48.4957 66.3605 48.5392 65.0123 49.3976 64.2075C54.6372 59.2954 62.6148 58.5544 68.3408 62.9331C69.2755 63.6479 69.4538 64.985 68.739 65.9197C68.0243 66.8544 66.6871 67.0326 65.7525 66.3179Z" fill="#2F035B"/>
<path fill-rule="evenodd" clip-rule="evenodd" d="M23.4404 50.4221C23.4404 43.8482 28.6552 38.6333 35.2291 38.6333C41.803 38.6333 47.018 43.8481 47.018 50.4221C47.018 56.996 41.803 62.2109 35.2291 62.2109C28.6552 62.2109 23.4404 56.996 23.4404 50.4221ZM35.2291 42.8943C31.0085 42.8943 27.7014 46.2014 27.7014 50.4221C27.7014 54.6428 31.0085 57.9499 35.2291 57.9499C39.4498 57.9499 42.757 54.6427 42.757 50.4221C42.757 46.2015 39.4498 42.8943 35.2291 42.8943Z" fill="#2F035B"/>
<path fill-rule="evenodd" clip-rule="evenodd" d="M26.5605 64.1626C32.0132 61.2759 38.4412 61.2759 43.8939 64.1626C44.9338 64.7131 45.3305 66.0025 44.78 67.0424C44.2294 68.0823 42.9401 68.479 41.9002 67.9284C37.6946 65.7019 32.7597 65.7019 28.5542 67.9284C27.5143 68.479 26.2249 68.0823 25.6744 67.0424C25.1239 66.0025 25.5206 64.7131 26.5605 64.1626Z" fill="#2F035B"/>
<path fill-rule="evenodd" clip-rule="evenodd" d="M22.9489 9.79824C24.6711 3.59833 30.8156 -0.0930597 36.8837 0.581171C43.1332 1.27556 47.8691 6.78492 47.8691 13.2091C47.8691 17.9041 45.3066 21.9362 41.6196 24.3593V28.2647C41.6196 29.4414 40.6657 30.3952 39.4891 30.3952H30.967C29.7904 30.3952 28.8365 29.4414 28.8365 28.2647V24.4237C23.8923 21.432 21.368 15.4896 22.9489 9.79824ZM36.4131 4.81612C32.2548 4.35408 28.1729 6.91217 27.0545 10.9387C25.9203 15.0216 27.9565 19.3802 31.8742 21.2238C32.6209 21.5752 33.0975 22.3262 33.0975 23.1515V26.1342H37.3586V23.1515C37.3586 22.3677 37.7889 21.6472 38.479 21.2757C41.5868 19.6022 43.6081 16.5739 43.6081 13.2091C43.6081 8.83879 40.3901 5.258 36.4131 4.81612Z" fill="#2F035B"/>
<path fill-rule="evenodd" clip-rule="evenodd" d="M28.8379 34.5141C28.8379 33.3374 29.7918 32.3835 30.9684 32.3835H39.4904C40.6671 32.3835 41.6209 33.3374 41.6209 34.5141C41.6209 35.6907 40.6671 36.6446 39.4904 36.6446H30.9684C29.7918 36.6446 28.8379 35.6907 28.8379 34.5141Z" fill="#2F035B"/>
<path fill-rule="evenodd" clip-rule="evenodd" d="M55.2548 14.9135C55.2548 13.7368 56.2086 12.783 57.3853 12.783H61.6463C62.8229 12.783 63.7768 13.7368 63.7768 14.9135C63.7768 16.0901 62.8229 17.044 61.6463 17.044H57.3853C56.2086 17.044 55.2548 16.0901 55.2548 14.9135Z" fill="#2F035B"/>
<path fill-rule="evenodd" clip-rule="evenodd" d="M55.0283 23.3494C55.8603 22.5173 57.2093 22.5173 58.0413 23.3493L61.1661 26.4741C61.9982 27.3061 61.9982 28.6551 61.1662 29.4871C60.3342 30.3191 58.9852 30.3191 58.1532 29.4871L55.0283 26.3624C54.1963 25.5304 54.1963 24.1814 55.0283 23.3494Z" fill="#2F035B"/>
<path fill-rule="evenodd" clip-rule="evenodd" d="M61.1662 0.624032C61.9982 1.45606 61.9982 2.80502 61.1661 3.63702L58.0413 6.76178C57.2093 7.59379 55.8603 7.59377 55.0283 6.76174C54.1963 5.92972 54.1963 4.58075 55.0283 3.74875L58.1532 0.62399C58.9852 -0.208013 60.3342 -0.207994 61.1662 0.624032Z" fill="#2F035B"/>
<path fill-rule="evenodd" clip-rule="evenodd" d="M6.68042 14.9135C6.68042 13.7368 7.63428 12.783 8.81093 12.783H13.0719C14.2486 12.783 15.2024 13.7368 15.2024 14.9135C15.2024 16.0901 14.2486 17.044 13.0719 17.044H8.81093C7.63428 17.044 6.68042 16.0901 6.68042 14.9135Z" fill="#2F035B"/>
<path fill-rule="evenodd" clip-rule="evenodd" d="M15.428 23.3493C16.2601 24.1813 16.2601 25.5303 15.4281 26.3623L12.3034 29.4871C11.4714 30.3191 10.1224 30.3191 9.29041 29.4871C8.45839 28.6551 8.45837 27.3062 9.29037 26.4741L12.415 23.3494C13.247 22.5173 14.596 22.5173 15.428 23.3493Z" fill="#2F035B"/>
<path fill-rule="evenodd" clip-rule="evenodd" d="M9.29041 0.62399C10.1224 -0.208013 11.4714 -0.207994 12.3034 0.624032L15.4281 3.74879C16.2601 4.58082 16.2601 5.92978 15.428 6.76178C14.596 7.59379 13.247 7.59377 12.415 6.76174L9.29037 3.63698C8.45837 2.80496 8.45839 1.45599 9.29041 0.62399Z" fill="#2F035B"/>
</svg>
