<svg viewBox="0 0 71 68" fill="none" xmlns="http://www.w3.org/2000/svg">
<path fill-rule="evenodd" clip-rule="evenodd" d="M11.898 16.8591C8.16064 16.8591 5.35797 19.6617 5.35797 23.3991V56.2448C5.35797 59.9822 8.16064 62.7848 11.898 62.7848H59.8585C63.5959 62.7848 66.3986 59.9822 66.3986 56.2448V23.3991C66.3986 19.6617 63.5959 16.8591 59.8585 16.8591H11.898ZM0.997925 23.3991C0.997925 17.2538 5.75266 12.499 11.898 12.499H59.8585C66.0039 12.499 70.7586 17.2538 70.7586 23.3991V56.2448C70.7586 62.3901 66.0039 67.1449 59.8585 67.1449H11.898C5.75266 67.1449 0.997925 62.3901 0.997925 56.2448V23.3991Z" fill="#2F035B"/>
<path fill-rule="evenodd" clip-rule="evenodd" d="M22.7976 6.2494C22.7976 2.52918 26.0085 0 29.3377 0H42.4178C44.2166 0 45.8283 0.780111 46.9751 1.87477C48.1094 2.95754 48.9579 4.5155 48.9579 6.2494V14.6788C48.9579 15.8828 47.9818 16.8588 46.7778 16.8588H24.9776C23.7736 16.8588 22.7976 15.8828 22.7976 14.6788V6.2494ZM29.3377 4.36004C28.0161 4.36004 27.1576 5.3189 27.1576 6.2494V12.4988H44.5978V6.2494C44.5978 5.94861 44.4289 5.47188 43.9646 5.02863C43.5127 4.59728 42.9444 4.36004 42.4178 4.36004H29.3377Z" fill="#2F035B"/>
<path fill-rule="evenodd" clip-rule="evenodd" d="M29.1907 39.9672C29.1907 36.247 32.4016 33.7178 35.7307 33.7178C39.0599 33.7178 42.2708 36.247 42.2708 39.9672C42.2708 43.6874 39.0599 46.2166 35.7307 46.2166C32.4016 46.2166 29.1907 43.6874 29.1907 39.9672ZM35.7307 38.0778C34.4092 38.0778 33.5507 39.0367 33.5507 39.9672C33.5507 40.8977 34.4092 41.8565 35.7307 41.8565C37.0523 41.8565 37.9108 40.8977 37.9108 39.9672C37.9108 39.0367 37.0523 38.0778 35.7307 38.0778Z" fill="#2F035B"/>
<path fill-rule="evenodd" clip-rule="evenodd" d="M34.0128 24.4156L32.8865 28.3579C32.8661 28.4293 32.842 28.4996 32.8145 28.5686C31.8934 30.8713 29.4865 32.4537 26.8747 31.9313L22.5532 31.067C21.46 30.8945 20.7423 31.3028 20.4516 31.7873C20.1306 32.3222 20.1985 32.9776 20.7051 33.4842C20.7295 33.5087 20.7534 33.5337 20.7767 33.5593L23.6524 36.7226C24.5362 37.6236 25.1223 38.7918 25.1223 40.1124C25.1223 41.433 24.5362 42.6013 23.6524 43.5023L20.7767 46.6656C20.7534 46.6912 20.7295 46.7162 20.7051 46.7407C20.1985 47.2473 20.1306 47.9027 20.4516 48.4376C20.7423 48.9221 21.46 49.3303 22.5532 49.1578L26.8747 48.2935C29.4866 47.7711 31.8934 49.3536 32.8145 51.6562C32.842 51.7252 32.8661 51.7956 32.8865 51.867L34.0128 55.8092C34.3234 56.4919 35.0122 56.9713 35.7317 56.9713C36.4512 56.9713 37.1401 56.4918 37.4506 55.8092L38.577 51.867C38.5974 51.7956 38.6214 51.7252 38.649 51.6562C39.5701 49.3536 41.9769 47.7711 44.5887 48.2935L48.9102 49.1578C50.0035 49.3303 50.7212 48.9221 51.0119 48.4376C51.3329 47.9027 51.265 47.2473 50.7584 46.7407C50.7339 46.7162 50.7101 46.6912 50.6868 46.6656L47.8111 43.5023C46.9272 42.6013 46.3412 41.433 46.3412 40.1124C46.3412 38.7918 46.9272 37.6236 47.8111 36.7226L50.6868 33.5593C50.7101 33.5337 50.7339 33.5087 50.7584 33.4842C51.265 32.9776 51.3329 32.3222 51.0119 31.7873C50.7212 31.3028 50.0035 30.8945 48.9102 31.067L44.5887 31.9313C41.9769 32.4537 39.5701 30.8713 38.649 28.5686C38.6214 28.4996 38.5974 28.4293 38.577 28.3579L37.4143 24.2885C37.3981 24.232 37.3843 24.1748 37.3728 24.1171C37.3692 24.0994 37.3003 23.8857 36.9351 23.6358C36.5857 23.3968 36.1389 23.2536 35.7317 23.2536C35.0122 23.2536 34.3234 23.733 34.0128 24.4156ZM29.9289 22.88C30.8009 20.7001 32.9921 18.8936 35.7317 18.8936C37.0685 18.8936 38.3657 19.3317 39.3971 20.0374C40.3888 20.7159 41.3165 21.7753 41.6268 23.1616L42.7319 27.0294C42.9841 27.5677 43.4522 27.7123 43.7336 27.656L48.0937 26.784C48.1166 26.7794 48.1397 26.7751 48.1628 26.7713C50.5404 26.375 53.3 27.1264 54.7506 29.5441C56.163 31.8981 55.6677 34.7061 53.882 36.5263L51.0063 39.6895C50.983 39.7151 50.9591 39.7401 50.9347 39.7646C50.804 39.8953 50.746 39.9941 50.7219 40.0469C50.7098 40.0733 50.705 40.0906 50.7031 40.0991C50.7012 40.1074 50.7012 40.1113 50.7012 40.1124C50.7012 40.1135 50.7012 40.1174 50.7031 40.1257C50.705 40.1342 50.7098 40.1515 50.7219 40.178C50.746 40.2308 50.804 40.3295 50.9347 40.4603C50.9591 40.4847 50.983 40.5097 51.0063 40.5353L53.882 43.6986C55.6677 45.5187 56.163 48.3268 54.7506 50.6808C53.3 53.0985 50.5404 53.8498 48.1628 53.4536C48.1397 53.4497 48.1166 53.4455 48.0937 53.4409L43.7336 52.5689C43.4522 52.5126 42.9841 52.6572 42.7319 53.1954L41.6066 57.1341C41.5862 57.2056 41.5621 57.2759 41.5345 57.3449C40.6626 59.5248 38.4712 61.3313 35.7317 61.3313C32.9921 61.3313 30.8009 59.5248 29.9289 57.3449C29.9013 57.2759 29.8773 57.2056 29.8569 57.1341L28.7315 53.1954C28.4794 52.6572 28.0112 52.5126 27.7298 52.5689L23.3698 53.4409C23.3468 53.4455 23.3238 53.4497 23.3006 53.4536C20.9231 53.8498 18.1635 53.0985 16.7128 50.6808C15.3004 48.3268 15.7957 45.5187 17.5815 43.6986L20.4572 40.5353C20.4804 40.5097 20.5043 40.4847 20.5288 40.4603C20.6595 40.3295 20.7175 40.2308 20.7416 40.178C20.7537 40.1515 20.7585 40.1342 20.7604 40.1257C20.7622 40.1174 20.7623 40.1135 20.7623 40.1124C20.7623 40.1113 20.7622 40.1074 20.7604 40.0991C20.7585 40.0906 20.7537 40.0733 20.7416 40.0469C20.7175 39.9941 20.6595 39.8953 20.5288 39.7646C20.5043 39.7401 20.4804 39.7151 20.4572 39.6895L17.5815 36.5263C15.7957 34.7061 15.3004 31.8981 16.7128 29.5441C18.1634 27.1264 20.9231 26.375 23.3006 26.7713C23.3238 26.7751 23.3468 26.7794 23.3698 26.784L27.7298 27.656C28.0112 27.7123 28.4794 27.5677 28.7315 27.0295L29.8569 23.0907C29.8773 23.0193 29.9013 22.9489 29.9289 22.88Z" fill="#2F035B"/>
</svg>
