<svg viewBox="0 0 70 71" fill="none" xmlns="http://www.w3.org/2000/svg">
<path fill-rule="evenodd" clip-rule="evenodd" d="M1.01718 41.7754C2.32071 31.999 10.7795 24.8716 20.4998 24.8716C24.0891 24.8716 27.3373 25.8544 30.2196 27.4557C31.2657 28.0369 31.6426 29.3561 31.0614 30.4022C30.4802 31.4483 29.161 31.8252 28.1149 31.2441C25.7968 29.9562 23.2666 29.2053 20.4998 29.2053C12.8853 29.2053 6.32065 34.7898 5.31287 42.3482C5.15471 43.5344 4.06487 44.3678 2.87865 44.2096C1.69243 44.0515 0.85902 42.9616 1.01718 41.7754Z" fill="#2F035B"/>
<path fill-rule="evenodd" clip-rule="evenodd" d="M8.51038 12.8819C8.51038 6.19599 13.8141 0.891602 20.5003 0.891602C27.1864 0.891602 32.4903 6.19596 32.4903 12.8819C32.4903 19.5681 27.1862 24.8716 20.5003 24.8716C14.1447 24.8716 8.51038 19.6091 8.51038 12.8819ZM20.5003 5.2253C16.2078 5.2253 12.8441 8.58917 12.8441 12.8819C12.8441 17.1334 16.455 20.5379 20.5003 20.5379C24.793 20.5379 28.1565 17.1745 28.1565 12.8819C28.1565 8.5892 24.7928 5.2253 20.5003 5.2253Z" fill="#2F035B"/>
<path fill-rule="evenodd" clip-rule="evenodd" d="M39.1311 10.86C39.1311 5.61863 43.5681 1.18115 48.8097 1.18115C54.0513 1.18115 58.4883 5.61863 58.4883 10.86C58.4883 16.1017 54.0511 20.5382 48.8097 20.5382C43.2254 20.5382 39.1311 16.0469 39.1311 10.86ZM48.8097 5.51485C45.9618 5.51485 43.4648 8.01187 43.4648 10.86C43.4648 13.7628 45.7267 16.2045 48.8097 16.2045C51.658 16.2045 54.1546 13.7079 54.1546 10.86C54.1546 8.01187 51.6577 5.51485 48.8097 5.51485Z" fill="#2F035B"/>
<path fill-rule="evenodd" clip-rule="evenodd" d="M50.1191 18.5209C45.5292 18.1945 40.4497 19.8118 37.3141 23.6442C36.5563 24.5704 36.6928 25.9356 37.619 26.6934C38.5452 27.4512 39.9104 27.3147 40.6682 26.3885C42.7318 23.8662 46.3171 22.5941 49.8154 22.844L49.8257 22.8447C53.4591 23.0869 56.5254 25.0042 58.1739 28.0659C58.7413 29.1196 60.0554 29.5138 61.1091 28.9464C62.1628 28.3791 62.557 27.065 61.9896 26.0113C59.5942 21.5627 55.1509 18.858 50.1191 18.5209Z" fill="#2F035B"/>
<path fill-rule="evenodd" clip-rule="evenodd" d="M37.8327 35.5612C36.7181 35.5612 35.6659 36.6135 35.6659 37.7281V52.8961H61.6681V37.7281C61.6681 36.5174 60.8108 35.5612 59.5012 35.5612H37.8327ZM31.3322 37.7281C31.3322 34.2201 34.3247 31.2275 37.8327 31.2275H59.5012C63.3921 31.2275 66.0018 34.3162 66.0018 37.7281V55.0629C66.0018 56.2596 65.0316 57.2298 63.8349 57.2298H33.499C32.3023 57.2298 31.3322 56.2596 31.3322 55.0629V37.7281Z" fill="#2F035B"/>
<path fill-rule="evenodd" clip-rule="evenodd" d="M31.4343 54.4137C31.7181 53.5108 32.555 52.8965 33.5015 52.8965H63.8374C64.7633 52.8965 65.5869 53.4847 65.8871 54.3606L69.3203 64.3737C69.689 65.2321 69.6074 66.0818 69.5014 66.6116C69.3797 67.2205 69.1525 67.7694 68.9536 68.1673C68.496 69.0824 67.7009 69.5778 67.1364 69.8285C66.5446 70.0912 65.8847 70.2313 65.282 70.2313H32.3459C31.7432 70.2313 31.0833 70.0912 30.4915 69.8285C29.9269 69.5778 29.1318 69.0824 28.6743 68.1673C28.6662 68.1511 28.6577 68.1343 28.6491 68.1171C28.3358 67.4927 27.6986 66.2231 28.2611 64.5104L31.4343 54.4137ZM35.0918 57.2302L32.3795 65.8606C32.3793 65.8611 32.3796 65.8601 32.3795 65.8606C32.3831 65.8703 32.3868 65.8835 32.3926 65.8976H65.2152C65.2237 65.8713 65.2308 65.8473 65.2367 65.8256L62.2897 57.2302H35.0918Z" fill="#2F035B"/>
</svg>
