<svg viewBox="0 0 67 66" fill="none" xmlns="http://www.w3.org/2000/svg">
<path fill-rule="evenodd" clip-rule="evenodd" d="M26.1768 34.2379C26.1768 30.0038 29.7071 26.9504 33.5914 26.9504C37.8994 26.9504 41.0059 30.4203 41.0059 34.2379V48.2484L49.6995 50.096C49.7002 50.0961 49.7009 50.0963 49.7016 50.0964C54.7231 51.1552 58.1319 55.9926 57.7888 61.0496L57.7849 61.0992L57.5051 64.1241C57.4001 65.2585 56.3794 66.0945 55.2252 65.9913C54.071 65.8882 53.2205 64.885 53.3254 63.7506L53.6028 60.7521C53.8072 57.5693 51.6248 54.7201 48.8201 54.1294L48.8163 54.1286L38.4639 51.9285C37.4982 51.7232 36.809 50.8837 36.809 49.9126V34.2379C36.809 32.5556 35.4388 31.0754 33.5914 31.0754C31.8798 31.0754 30.3737 32.4221 30.3737 34.2379V59.5374C30.3737 60.3147 29.9292 61.0259 29.2238 61.3772C28.5184 61.7285 27.672 61.6603 27.0343 61.2006L22.8374 58.1758C22.8025 58.1505 22.7683 58.1243 22.735 58.097C21.9575 57.4602 20.6616 57.5625 19.9663 58.2459C19.271 58.9293 19.167 60.2029 19.8148 60.967C19.8148 60.967 19.8148 60.967 19.8148 60.9671L21.2137 62.6169C21.9557 63.492 21.8354 64.7925 20.9451 65.5217C20.0548 66.251 18.7316 66.1328 17.9896 65.2577L16.5907 63.6078L16.5907 63.6078C14.4406 61.0719 14.8961 57.3956 16.9987 55.3291C19.0863 53.2773 22.7884 52.8214 25.3663 54.8832L26.1768 55.4674V34.2379Z" fill="#2F035B"/>
<path fill-rule="evenodd" clip-rule="evenodd" d="M23.3806 9.48844C23.3806 4.49938 27.6777 0.276123 32.7537 0.276123C37.8297 0.276123 42.1268 4.4994 42.1268 9.48844C42.1268 14.4775 37.8297 18.7007 32.7537 18.7007C27.3455 18.7007 23.3806 14.4253 23.3806 9.48844ZM32.7537 4.40107C29.9955 4.40107 27.5775 6.77759 27.5775 9.48844C27.5775 12.2515 29.7681 14.5758 32.7537 14.5758C35.5119 14.5758 37.9299 12.1993 37.9299 9.48844C37.9299 6.77757 35.5119 4.40107 32.7537 4.40107Z" fill="#2F035B"/>
<path fill-rule="evenodd" clip-rule="evenodd" d="M25.1872 18.7526C29.7956 15.8409 35.7189 15.8409 40.3272 18.7526C41.3021 19.3686 41.5844 20.6447 40.9577 21.6028C40.331 22.561 39.0326 22.8384 38.0577 22.2225C34.8319 20.1842 30.6826 20.1842 27.4567 22.2225C26.4818 22.8384 25.1835 22.561 24.5568 21.6028C23.9301 20.6447 24.2123 19.3686 25.1872 18.7526Z" fill="#2F035B"/>
<path fill-rule="evenodd" clip-rule="evenodd" d="M4.35291 27.9128C4.35291 22.9237 8.64998 18.7004 13.726 18.7004C18.802 18.7004 23.0991 22.9237 23.0991 27.9128C23.0991 32.9018 18.802 37.1251 13.726 37.1251C8.64998 37.1251 4.35291 32.9018 4.35291 27.9128ZM13.726 22.8254C10.9678 22.8254 8.54981 25.2019 8.54981 27.9128C8.54981 30.6236 10.9678 33.0001 13.726 33.0001C16.4842 33.0001 18.9022 30.6236 18.9022 27.9128C18.9022 25.2019 16.4842 22.8254 13.726 22.8254Z" fill="#2F035B"/>
<path fill-rule="evenodd" clip-rule="evenodd" d="M1.25795 42.3184C4.88001 35.8458 13.0845 33.2887 19.9471 36.5005C20.9934 36.9903 21.4377 38.221 20.9395 39.2494C20.4412 40.2778 19.189 40.7145 18.1427 40.2248C13.2539 37.9367 7.46873 39.7791 4.93534 44.3063C4.37682 45.3044 3.10084 45.6685 2.08536 45.1196C1.06988 44.5706 0.699432 43.3165 1.25795 42.3184Z" fill="#2F035B"/>
<path fill-rule="evenodd" clip-rule="evenodd" d="M11.6323 12.5132C11.6323 11.3741 12.5718 10.4507 13.7308 10.4507H17.9277C19.0866 10.4507 20.0261 11.3741 20.0261 12.5132C20.0261 13.6522 19.0866 14.5756 17.9277 14.5756H13.7308C12.5718 14.5756 11.6323 13.6522 11.6323 12.5132Z" fill="#2F035B"/>
<path fill-rule="evenodd" clip-rule="evenodd" d="M11.8796 1.09226C12.4251 0.0872081 13.6962 -0.292984 14.7187 0.243076L18.9156 2.44318C19.9382 2.97924 20.325 4.22856 19.7796 5.23361C19.2342 6.23866 17.9631 6.61885 16.9405 6.08279L12.7436 3.88268C11.7211 3.34663 11.3342 2.09731 11.8796 1.09226Z" fill="#2F035B"/>
<path fill-rule="evenodd" clip-rule="evenodd" d="M45.2074 12.5132C45.2074 11.3741 46.1469 10.4507 47.3058 10.4507H51.5027C52.6617 10.4507 53.6012 11.3741 53.6012 12.5132C53.6012 13.6522 52.6617 14.5756 51.5027 14.5756H47.3058C46.1469 14.5756 45.2074 13.6522 45.2074 12.5132Z" fill="#2F035B"/>
<path fill-rule="evenodd" clip-rule="evenodd" d="M53.3547 1.09226C53.9001 2.09731 53.5133 3.34663 52.4907 3.88268L48.2938 6.08279C47.2712 6.61885 46.0001 6.23866 45.4547 5.23361C44.9093 4.22856 45.2961 2.97924 46.3187 2.44318L50.5156 0.243076C51.5382 -0.292984 52.8093 0.0872081 53.3547 1.09226Z" fill="#2F035B"/>
<path fill-rule="evenodd" clip-rule="evenodd" d="M44.3649 27.9128C44.3649 22.9237 48.6619 18.7004 53.738 18.7004C58.814 18.7004 63.111 22.9237 63.111 27.9128C63.111 32.9018 58.814 37.1251 53.738 37.1251C48.3298 37.1251 44.3649 32.8496 44.3649 27.9128ZM53.738 22.8254C50.9798 22.8254 48.5618 25.2019 48.5618 27.9128C48.5618 30.6758 50.7524 33.0001 53.738 33.0001C56.4961 33.0001 58.9141 30.6236 58.9141 27.9128C58.9141 25.2019 56.4961 22.8254 53.738 22.8254Z" fill="#2F035B"/>
<path fill-rule="evenodd" clip-rule="evenodd" d="M62.5298 44.3063C59.9964 39.7791 54.2112 37.9367 49.3224 40.2248C48.2761 40.7145 47.0239 40.2778 46.5256 39.2494C46.0274 38.221 46.4717 36.9903 47.518 36.5005C54.3806 33.2887 62.5851 35.8458 66.2072 42.3184C66.7657 43.3165 66.3953 44.5706 65.3798 45.1196C64.3643 45.6685 63.0883 45.3044 62.5298 44.3063Z" fill="#2F035B"/>
</svg>
