<svg xmlns="http://www.w3.org/2000/svg" viewBox="0 0 202 60"><defs><style>.cls-1{fill:#64c0c3;}.cls-2{fill:#1a1a1a;}.cls-3{fill:#fff;}</style></defs><title>ct_mobile</title><g id="Слой_2" data-name="Слой 2"><g id="Слой_1-2" data-name="Слой 1"><path class="cls-1" d="M172,1a29,29,0,0,1,29,29h0a29,29,0,0,1-29,29H30A29,29,0,0,1,1,30H1A29,29,0,0,1,30,1H172m0-1H30a30,30,0,0,0,0,60H172a30,30,0,0,0,0-60Z"/><circle class="cls-1" cx="29.97" cy="30" r="26"/><path class="cls-2" d="M71.43,19l5.14,15.11h.06L81.5,19h6.8V41H83.77V25.4h-.06L78.33,41H74.6L69.22,25.55h-.07V41H64.63V19Z"/><path class="cls-2" d="M92.33,25.51a11,11,0,0,1,2.12-3.68,9.69,9.69,0,0,1,3.4-2.46,12,12,0,0,1,9.1,0,9.61,9.61,0,0,1,3.38,2.46,10.84,10.84,0,0,1,2.13,3.68,13.77,13.77,0,0,1,.74,4.57,13.37,13.37,0,0,1-.74,4.48,10.53,10.53,0,0,1-2.13,3.61A9.77,9.77,0,0,1,107,40.59a12.2,12.2,0,0,1-9.1,0,9.85,9.85,0,0,1-3.4-2.42,10.66,10.66,0,0,1-2.12-3.61,13.37,13.37,0,0,1-.74-4.48A13.77,13.77,0,0,1,92.33,25.51Zm4.42,7.26a7.27,7.27,0,0,0,1,2.36,5.38,5.38,0,0,0,1.84,1.67,6.4,6.4,0,0,0,5.54,0A5.32,5.32,0,0,0,107,35.13a7.27,7.27,0,0,0,1-2.36,11,11,0,0,0,.33-2.69,11.73,11.73,0,0,0-.33-2.8,7.32,7.32,0,0,0-1-2.42,5.18,5.18,0,0,0-1.85-1.69,6.4,6.4,0,0,0-5.54,0,5.24,5.24,0,0,0-1.84,1.69,7.32,7.32,0,0,0-1,2.42,11.73,11.73,0,0,0-.33,2.8A11,11,0,0,0,96.75,32.77Z"/><path class="cls-2" d="M126.83,19a14,14,0,0,1,2.86.27,6.28,6.28,0,0,1,2.22.91,4.18,4.18,0,0,1,1.43,1.68,5.89,5.89,0,0,1,.51,2.59,4.78,4.78,0,0,1-.76,2.77A5.46,5.46,0,0,1,130.86,29a5.27,5.27,0,0,1,3,2,6.13,6.13,0,0,1,1,3.52,6.06,6.06,0,0,1-.65,2.88,5.55,5.55,0,0,1-1.74,2A7.46,7.46,0,0,1,130,40.6a11.15,11.15,0,0,1-2.88.37H116.49V19Zm-.61,8.89a3.46,3.46,0,0,0,2.12-.61,2.34,2.34,0,0,0,.83-2,2.52,2.52,0,0,0-.28-1.27,2.05,2.05,0,0,0-.73-.76,3,3,0,0,0-1.07-.39,7.15,7.15,0,0,0-1.24-.11h-4.53v5.14Zm.27,9.33a6.67,6.67,0,0,0,1.36-.14,3.41,3.41,0,0,0,1.14-.46,2.38,2.38,0,0,0,.78-.88,3,3,0,0,0,.29-1.41,2.86,2.86,0,0,0-.95-2.42,4.09,4.09,0,0,0-2.52-.72h-5.27v6Z"/><path class="cls-2" d="M143,19V41h-4.83V19Z"/><path class="cls-2" d="M152.07,19V36.91h10.71V41H147.24V19Z"/><path class="cls-2" d="M181.92,19v4.06h-11.6v4.71H181v3.75H170.32v5.39h11.85V41H165.49V19Z"/><path class="cls-3" d="M44.19,24.12V40.87H38.7V24.12H33.37v-5H49.5v5ZM21.58,24c-3.25,0-5.39,2.45-5.39,6.05,0,3.19,2.11,6,5.39,6a4.62,4.62,0,0,0,4.84-3.5h5.46c-.81,6.14-5.68,8.56-10.3,8.56-5.52,0-11.09-3.69-11.13-11.07s5.61-11.11,11.13-11.11c4.5,0,9.37,2.45,10.21,8.25H26.33A4.56,4.56,0,0,0,21.58,24"/></g></g></svg>