<svg xmlns="http://www.w3.org/2000/svg" viewBox="0 0 187.76 60"><defs><style>.cls-1{fill:#64c0c3;}.cls-2{fill:#fff;}</style></defs><title>ct_vision</title><g id="Слой_2" data-name="Слой 2"><g id="Слой_1-2" data-name="Слой 1"><path class="cls-1" d="M157.76,1a29,29,0,0,1,29,29h0a29,29,0,0,1-29,29H30A29,29,0,0,1,1,30H1A29,29,0,0,1,30,1H157.76m0-1H30a30,30,0,0,0,0,60H157.76a30,30,0,0,0,0-60Z"/><circle class="cls-1" cx="29.97" cy="30" r="26"/><path class="cls-2" d="M44.19,24.12V40.87H38.7V24.12H33.37v-5H49.5v5ZM21.58,24c-3.25,0-5.39,2.45-5.39,6.05,0,3.19,2.11,6,5.39,6a4.62,4.62,0,0,0,4.84-3.5h5.46c-.81,6.14-5.68,8.56-10.3,8.56-5.52,0-11.09-3.69-11.13-11.07s5.61-11.11,11.13-11.11c4.5,0,9.37,2.45,10.21,8.25H26.33A4.56,4.56,0,0,0,21.58,24"/><path d="M69.4,41,62.29,19h5l4.89,15.46h.06l5-15.46h5l-7.3,22Z"/><path d="M88.87,19V41H84V19Z"/><path d="M96.81,35.57a3.52,3.52,0,0,0,1.07,1.25,4.59,4.59,0,0,0,1.55.7,7.11,7.11,0,0,0,1.85.23,10,10,0,0,0,1.39-.1,4.61,4.61,0,0,0,1.38-.42,3,3,0,0,0,1.08-.85,2.08,2.08,0,0,0,.43-1.37,1.92,1.92,0,0,0-.57-1.44,4.63,4.63,0,0,0-1.49-.93,15.43,15.43,0,0,0-2.1-.64c-.78-.19-1.57-.39-2.37-.62a23.89,23.89,0,0,1-2.4-.75,8.52,8.52,0,0,1-2.1-1.16A5.46,5.46,0,0,1,93,27.7a5.39,5.39,0,0,1-.57-2.57,5.77,5.77,0,0,1,.72-2.94,6.53,6.53,0,0,1,1.9-2.08,8,8,0,0,1,2.65-1.23,11.11,11.11,0,0,1,3-.41,13.77,13.77,0,0,1,3.31.39,8.21,8.21,0,0,1,2.82,1.25,6.29,6.29,0,0,1,2,2.2,6.79,6.79,0,0,1,.72,3.25h-4.68a3.94,3.94,0,0,0-.41-1.63,2.8,2.8,0,0,0-.94-1,3.86,3.86,0,0,0-1.34-.52,7.83,7.83,0,0,0-1.65-.16,5.18,5.18,0,0,0-1.17.13,2.92,2.92,0,0,0-1.06.43,2.64,2.64,0,0,0-.79.77,2,2,0,0,0-.31,1.17,1.88,1.88,0,0,0,.25,1,2.13,2.13,0,0,0,1,.74,12.32,12.32,0,0,0,2,.68c.85.23,2,.51,3.34.86.41.09,1,.23,1.71.45a8.39,8.39,0,0,1,2.17,1,6.65,6.65,0,0,1,1.87,1.9,5.41,5.41,0,0,1,.78,3,6.69,6.69,0,0,1-.58,2.8,6.08,6.08,0,0,1-1.74,2.24A8.52,8.52,0,0,1,105.05,41a13.53,13.53,0,0,1-4,.52A14.2,14.2,0,0,1,97.57,41a8.84,8.84,0,0,1-3-1.41,6.81,6.81,0,0,1-2.08-2.43,7.33,7.33,0,0,1-.74-3.51h4.68A4.11,4.11,0,0,0,96.81,35.57Z"/><path d="M117.94,19V41h-4.83V19Z"/><path d="M122,25.51a11.09,11.09,0,0,1,2.12-3.68,9.69,9.69,0,0,1,3.4-2.46,12,12,0,0,1,9.11,0A9.61,9.61,0,0,1,140,21.83a10.94,10.94,0,0,1,2.13,3.68,13.83,13.83,0,0,1,.74,4.58,13.37,13.37,0,0,1-.74,4.48A10.67,10.67,0,0,1,140,38.19a9.74,9.74,0,0,1-3.38,2.41,12.23,12.23,0,0,1-9.11,0,9.82,9.82,0,0,1-3.4-2.41A10.81,10.81,0,0,1,122,34.57a13.12,13.12,0,0,1-.74-4.48A13.58,13.58,0,0,1,122,25.51Zm4.42,7.27a7.27,7.27,0,0,0,1,2.36,5.25,5.25,0,0,0,1.85,1.68,6.4,6.4,0,0,0,5.54,0,5.25,5.25,0,0,0,1.85-1.68,7.49,7.49,0,0,0,1-2.36,10.94,10.94,0,0,0,.32-2.69,11.87,11.87,0,0,0-.32-2.81,7.48,7.48,0,0,0-1-2.41,5.21,5.21,0,0,0-1.85-1.7,6.4,6.4,0,0,0-5.54,0,5.21,5.21,0,0,0-1.85,1.7,7.26,7.26,0,0,0-1,2.41,11.87,11.87,0,0,0-.33,2.81A11,11,0,0,0,126.4,32.78Z"/><path d="M151,19l9.18,14.75h.06V19h4.53V41h-4.84l-9.15-14.72h-.06V41h-4.53V19Z"/></g></g></svg>