<svg xmlns="http://www.w3.org/2000/svg" viewBox="0 0 117.14 52"><defs><style>.cls-1{fill:#7fcfd2;}.cls-2{fill:#79c3c6;}.cls-3{fill:#fff;}</style></defs><title>dfg</title><g id="Слой_2" data-name="Слой 2"><g id="Слой_1-2" data-name="Слой 1"><path d="M66.08,13.82a11.34,11.34,0,0,1,4,.68,8.62,8.62,0,0,1,3.18,2,9.49,9.49,0,0,1,2.09,3.39,13.83,13.83,0,0,1,.75,4.78,15.21,15.21,0,0,1-.61,4.43,9.68,9.68,0,0,1-1.86,3.51A8.79,8.79,0,0,1,70.46,35a10.56,10.56,0,0,1-4.38.85H56.59v-22Zm-.34,17.93a6.14,6.14,0,0,0,2-.34,4.48,4.48,0,0,0,1.76-1.12,5.8,5.8,0,0,0,1.23-2.05,9,9,0,0,0,.46-3.08,13.08,13.08,0,0,0-.32-3,6,6,0,0,0-1.07-2.3,4.74,4.74,0,0,0-2-1.46,7.79,7.79,0,0,0-3-.51H61.42V31.75Z"/><path d="M94.87,13.82v4.07H84.25V23h9.21v3.76H84.25v9.09H79.41v-22Z"/><path d="M110.7,35.65a8.08,8.08,0,0,1-3.17.66,11.18,11.18,0,0,1-4.54-.88A9.54,9.54,0,0,1,99.59,33a10.48,10.48,0,0,1-2.13-3.62,13.33,13.33,0,0,1-.74-4.48,13.82,13.82,0,0,1,.74-4.57,10.84,10.84,0,0,1,2.13-3.68,9.66,9.66,0,0,1,3.4-2.47,11.18,11.18,0,0,1,4.54-.89,10.66,10.66,0,0,1,3.28.51,9.56,9.56,0,0,1,2.87,1.49,8.3,8.3,0,0,1,2.11,2.44,8.18,8.18,0,0,1,1,3.32h-4.62a4.61,4.61,0,0,0-1.66-2.77,4.81,4.81,0,0,0-3-.92,5.64,5.64,0,0,0-2.77.63,5.18,5.18,0,0,0-1.85,1.69,7.63,7.63,0,0,0-1,2.42,11.79,11.79,0,0,0-.32,2.8,11,11,0,0,0,.32,2.7,7.34,7.34,0,0,0,1,2.35,5.25,5.25,0,0,0,1.85,1.68,5.64,5.64,0,0,0,2.77.63,5.25,5.25,0,0,0,3.71-1.21,5.29,5.29,0,0,0,1.53-3.53H107.9v-3.6h9.24V35.82h-3.08l-.49-2.5A7.22,7.22,0,0,1,110.7,35.65Z"/><path class="cls-1" d="M27.52,1.49,23,0,0,7.59V26.36C0,30.9,2.36,37,7.42,41.36a76.57,76.57,0,0,0,8.35,6l.68.44c.91.59,1.84,1.16,2.75,1.75L21.39,51,23,52l1.61-1,2.2-1.39a104.06,104.06,0,0,0,11.77-8.22C43.65,37,46,30.9,46,26.36V7.59Z"/><path class="cls-2" d="M23,0,0,7.59V26.36C0,30.9,2.36,37,7.42,41.36a76.57,76.57,0,0,0,8.35,6l.68.44L27.52,1.49Z"/><path class="cls-3" d="M30.46,19.83a8.15,8.15,0,0,0-8.21-7.46,8.29,8.29,0,0,0-8.2,7.76,8.19,8.19,0,0,0-.75,15.52,9.63,9.63,0,0,0,3,.6H30.76A8.12,8.12,0,0,0,37.93,28,8.27,8.27,0,0,0,30.46,19.83ZM26,31.77H20l1.64-6.42A3.05,3.05,0,0,1,20,22.67a3,3,0,1,1,6,0,3,3,0,0,1-1.65,2.68Z"/></g></g></svg>